%TF.GenerationSoftware,KiCad,Pcbnew,(6.0.5)*%
%TF.CreationDate,2022-08-02T20:44:44+02:00*%
%TF.ProjectId,Solar,536f6c61-722e-46b6-9963-61645f706362,rev?*%
%TF.SameCoordinates,Original*%
%TF.FileFunction,Copper,L1,Top*%
%TF.FilePolarity,Positive*%
%FSLAX46Y46*%
G04 Gerber Fmt 4.6, Leading zero omitted, Abs format (unit mm)*
G04 Created by KiCad (PCBNEW (6.0.5)) date 2022-08-02 20:44:44*
%MOMM*%
%LPD*%
G01*
G04 APERTURE LIST*
%TA.AperFunction,ComponentPad*%
%ADD10R,1.700000X1.700000*%
%TD*%
%TA.AperFunction,ComponentPad*%
%ADD11O,1.700000X1.700000*%
%TD*%
%TA.AperFunction,ComponentPad*%
%ADD12C,1.600000*%
%TD*%
%TA.AperFunction,ComponentPad*%
%ADD13O,1.600000X1.600000*%
%TD*%
%TA.AperFunction,Conductor*%
%ADD14C,1.000000*%
%TD*%
%TA.AperFunction,Conductor*%
%ADD15C,0.250000*%
%TD*%
G04 APERTURE END LIST*
D10*
%TO.P,Solar1conn1,1,Pin_1*%
%TO.N,/Solar1Pos*%
X203200000Y-104140000D03*
%TD*%
%TO.P,SolarPanelConnector1,1,Pin_1*%
%TO.N,Net-(R1-Pad2)*%
X149855000Y-119380000D03*
D11*
%TO.P,SolarPanelConnector1,2,Pin_2*%
X147315000Y-119380000D03*
%TO.P,SolarPanelConnector1,3,Pin_3*%
%TO.N,unconnected-(SolarPanelConnector1-Pad3)*%
X144775000Y-119380000D03*
%TO.P,SolarPanelConnector1,4,Pin_4*%
%TO.N,unconnected-(SolarPanelConnector1-Pad4)*%
X142235000Y-119380000D03*
%TO.P,SolarPanelConnector1,5,Pin_5*%
%TO.N,/Solar2Neg*%
X139695000Y-119380000D03*
%TD*%
D10*
%TO.P,SolarJoin1,1,Pin_1*%
%TO.N,Net-(SC1-Pad2)*%
X134620000Y-104140000D03*
%TD*%
D12*
%TO.P,R1,1*%
%TO.N,/Solar1Pos*%
X149860000Y-96520000D03*
D13*
%TO.P,R1,2*%
%TO.N,Net-(R1-Pad2)*%
X139700000Y-96520000D03*
%TD*%
D10*
%TO.P,Solar2conn1,1,Pin_1*%
%TO.N,/Solar2Neg*%
X86360000Y-104140000D03*
%TD*%
%TO.P,SolarJoin2,1,Pin_1*%
%TO.N,Net-(SC1-Pad2)*%
X154940000Y-104140000D03*
%TD*%
D12*
%TO.P,R2,1*%
%TO.N,Net-(R1-Pad2)*%
X148590000Y-104140000D03*
D13*
%TO.P,R2,2*%
%TO.N,/Solar2Neg*%
X140970000Y-104140000D03*
%TD*%
D14*
%TO.N,Net-(R1-Pad2)*%
X149855000Y-119380000D02*
X147315000Y-119380000D01*
X149855000Y-109220000D02*
X149855000Y-119380000D01*
%TO.N,/Solar2Neg*%
X139695000Y-109220000D02*
X139695000Y-119380000D01*
%TO.N,/Solar1Pos*%
X149860000Y-96520000D02*
X195580000Y-96520000D01*
X195580000Y-96520000D02*
X203200000Y-104140000D01*
D15*
X200660000Y-104140000D02*
X203200000Y-104140000D01*
%TO.N,Net-(R1-Pad2)*%
X148590000Y-107955000D02*
X149855000Y-109220000D01*
D14*
X144780000Y-96520000D02*
X147320000Y-99060000D01*
D15*
X148590000Y-104140000D02*
X148590000Y-107955000D01*
D14*
X157480000Y-101600000D02*
X157480000Y-106680000D01*
X139700000Y-96520000D02*
X144780000Y-96520000D01*
X154940000Y-99060000D02*
X157480000Y-101600000D01*
X154940000Y-109220000D02*
X149860000Y-109220000D01*
X148590000Y-107950000D02*
X148590000Y-104140000D01*
X149860000Y-109220000D02*
X148590000Y-107950000D01*
X147320000Y-99060000D02*
X154940000Y-99060000D01*
X157480000Y-106680000D02*
X154940000Y-109220000D01*
%TO.N,/Solar2Neg*%
X140970000Y-107945000D02*
X139695000Y-109220000D01*
X139695000Y-109220000D02*
X91440000Y-109220000D01*
X91440000Y-109220000D02*
X86360000Y-104140000D01*
X140970000Y-104140000D02*
X140970000Y-107945000D01*
%TO.N,Net-(SC1-Pad2)*%
X134620000Y-104140000D02*
X137160000Y-101600000D01*
X137160000Y-101600000D02*
X152400000Y-101600000D01*
X152400000Y-101600000D02*
X154940000Y-104140000D01*
%TD*%
M02*
