%TF.GenerationSoftware,KiCad,Pcbnew,(6.0.5)*%
%TF.CreationDate,2022-08-02T20:44:44+02:00*%
%TF.ProjectId,Solar,536f6c61-722e-46b6-9963-61645f706362,rev?*%
%TF.SameCoordinates,Original*%
%TF.FileFunction,Legend,Top*%
%TF.FilePolarity,Positive*%
%FSLAX46Y46*%
G04 Gerber Fmt 4.6, Leading zero omitted, Abs format (unit mm)*
G04 Created by KiCad (PCBNEW (6.0.5)) date 2022-08-02 20:44:44*
%MOMM*%
%LPD*%
G01*
G04 APERTURE LIST*
%ADD10C,0.150000*%
%ADD11C,0.120000*%
G04 APERTURE END LIST*
D10*
%TO.C,Solar1conn1*%
X198700000Y-101774761D02*
X198842857Y-101822380D01*
X199080952Y-101822380D01*
X199176190Y-101774761D01*
X199223809Y-101727142D01*
X199271428Y-101631904D01*
X199271428Y-101536666D01*
X199223809Y-101441428D01*
X199176190Y-101393809D01*
X199080952Y-101346190D01*
X198890476Y-101298571D01*
X198795238Y-101250952D01*
X198747619Y-101203333D01*
X198700000Y-101108095D01*
X198700000Y-101012857D01*
X198747619Y-100917619D01*
X198795238Y-100870000D01*
X198890476Y-100822380D01*
X199128571Y-100822380D01*
X199271428Y-100870000D01*
X199842857Y-101822380D02*
X199747619Y-101774761D01*
X199700000Y-101727142D01*
X199652380Y-101631904D01*
X199652380Y-101346190D01*
X199700000Y-101250952D01*
X199747619Y-101203333D01*
X199842857Y-101155714D01*
X199985714Y-101155714D01*
X200080952Y-101203333D01*
X200128571Y-101250952D01*
X200176190Y-101346190D01*
X200176190Y-101631904D01*
X200128571Y-101727142D01*
X200080952Y-101774761D01*
X199985714Y-101822380D01*
X199842857Y-101822380D01*
X200747619Y-101822380D02*
X200652380Y-101774761D01*
X200604761Y-101679523D01*
X200604761Y-100822380D01*
X201557142Y-101822380D02*
X201557142Y-101298571D01*
X201509523Y-101203333D01*
X201414285Y-101155714D01*
X201223809Y-101155714D01*
X201128571Y-101203333D01*
X201557142Y-101774761D02*
X201461904Y-101822380D01*
X201223809Y-101822380D01*
X201128571Y-101774761D01*
X201080952Y-101679523D01*
X201080952Y-101584285D01*
X201128571Y-101489047D01*
X201223809Y-101441428D01*
X201461904Y-101441428D01*
X201557142Y-101393809D01*
X202033333Y-101822380D02*
X202033333Y-101155714D01*
X202033333Y-101346190D02*
X202080952Y-101250952D01*
X202128571Y-101203333D01*
X202223809Y-101155714D01*
X202319047Y-101155714D01*
X203176190Y-101822380D02*
X202604761Y-101822380D01*
X202890476Y-101822380D02*
X202890476Y-100822380D01*
X202795238Y-100965238D01*
X202700000Y-101060476D01*
X202604761Y-101108095D01*
X204033333Y-101774761D02*
X203938095Y-101822380D01*
X203747619Y-101822380D01*
X203652380Y-101774761D01*
X203604761Y-101727142D01*
X203557142Y-101631904D01*
X203557142Y-101346190D01*
X203604761Y-101250952D01*
X203652380Y-101203333D01*
X203747619Y-101155714D01*
X203938095Y-101155714D01*
X204033333Y-101203333D01*
X204604761Y-101822380D02*
X204509523Y-101774761D01*
X204461904Y-101727142D01*
X204414285Y-101631904D01*
X204414285Y-101346190D01*
X204461904Y-101250952D01*
X204509523Y-101203333D01*
X204604761Y-101155714D01*
X204747619Y-101155714D01*
X204842857Y-101203333D01*
X204890476Y-101250952D01*
X204938095Y-101346190D01*
X204938095Y-101631904D01*
X204890476Y-101727142D01*
X204842857Y-101774761D01*
X204747619Y-101822380D01*
X204604761Y-101822380D01*
X205366666Y-101155714D02*
X205366666Y-101822380D01*
X205366666Y-101250952D02*
X205414285Y-101203333D01*
X205509523Y-101155714D01*
X205652380Y-101155714D01*
X205747619Y-101203333D01*
X205795238Y-101298571D01*
X205795238Y-101822380D01*
X206271428Y-101155714D02*
X206271428Y-101822380D01*
X206271428Y-101250952D02*
X206319047Y-101203333D01*
X206414285Y-101155714D01*
X206557142Y-101155714D01*
X206652380Y-101203333D01*
X206700000Y-101298571D01*
X206700000Y-101822380D01*
X207700000Y-101822380D02*
X207128571Y-101822380D01*
X207414285Y-101822380D02*
X207414285Y-100822380D01*
X207319047Y-100965238D01*
X207223809Y-101060476D01*
X207128571Y-101108095D01*
%TO.C,R1*%
X144613333Y-99342380D02*
X144280000Y-98866190D01*
X144041904Y-99342380D02*
X144041904Y-98342380D01*
X144422857Y-98342380D01*
X144518095Y-98390000D01*
X144565714Y-98437619D01*
X144613333Y-98532857D01*
X144613333Y-98675714D01*
X144565714Y-98770952D01*
X144518095Y-98818571D01*
X144422857Y-98866190D01*
X144041904Y-98866190D01*
X145565714Y-99342380D02*
X144994285Y-99342380D01*
X145280000Y-99342380D02*
X145280000Y-98342380D01*
X145184761Y-98485238D01*
X145089523Y-98580476D01*
X144994285Y-98628095D01*
%TO.C,Solar2conn1*%
X81860000Y-101774761D02*
X82002857Y-101822380D01*
X82240952Y-101822380D01*
X82336190Y-101774761D01*
X82383809Y-101727142D01*
X82431428Y-101631904D01*
X82431428Y-101536666D01*
X82383809Y-101441428D01*
X82336190Y-101393809D01*
X82240952Y-101346190D01*
X82050476Y-101298571D01*
X81955238Y-101250952D01*
X81907619Y-101203333D01*
X81860000Y-101108095D01*
X81860000Y-101012857D01*
X81907619Y-100917619D01*
X81955238Y-100870000D01*
X82050476Y-100822380D01*
X82288571Y-100822380D01*
X82431428Y-100870000D01*
X83002857Y-101822380D02*
X82907619Y-101774761D01*
X82860000Y-101727142D01*
X82812380Y-101631904D01*
X82812380Y-101346190D01*
X82860000Y-101250952D01*
X82907619Y-101203333D01*
X83002857Y-101155714D01*
X83145714Y-101155714D01*
X83240952Y-101203333D01*
X83288571Y-101250952D01*
X83336190Y-101346190D01*
X83336190Y-101631904D01*
X83288571Y-101727142D01*
X83240952Y-101774761D01*
X83145714Y-101822380D01*
X83002857Y-101822380D01*
X83907619Y-101822380D02*
X83812380Y-101774761D01*
X83764761Y-101679523D01*
X83764761Y-100822380D01*
X84717142Y-101822380D02*
X84717142Y-101298571D01*
X84669523Y-101203333D01*
X84574285Y-101155714D01*
X84383809Y-101155714D01*
X84288571Y-101203333D01*
X84717142Y-101774761D02*
X84621904Y-101822380D01*
X84383809Y-101822380D01*
X84288571Y-101774761D01*
X84240952Y-101679523D01*
X84240952Y-101584285D01*
X84288571Y-101489047D01*
X84383809Y-101441428D01*
X84621904Y-101441428D01*
X84717142Y-101393809D01*
X85193333Y-101822380D02*
X85193333Y-101155714D01*
X85193333Y-101346190D02*
X85240952Y-101250952D01*
X85288571Y-101203333D01*
X85383809Y-101155714D01*
X85479047Y-101155714D01*
X85764761Y-100917619D02*
X85812380Y-100870000D01*
X85907619Y-100822380D01*
X86145714Y-100822380D01*
X86240952Y-100870000D01*
X86288571Y-100917619D01*
X86336190Y-101012857D01*
X86336190Y-101108095D01*
X86288571Y-101250952D01*
X85717142Y-101822380D01*
X86336190Y-101822380D01*
X87193333Y-101774761D02*
X87098095Y-101822380D01*
X86907619Y-101822380D01*
X86812380Y-101774761D01*
X86764761Y-101727142D01*
X86717142Y-101631904D01*
X86717142Y-101346190D01*
X86764761Y-101250952D01*
X86812380Y-101203333D01*
X86907619Y-101155714D01*
X87098095Y-101155714D01*
X87193333Y-101203333D01*
X87764761Y-101822380D02*
X87669523Y-101774761D01*
X87621904Y-101727142D01*
X87574285Y-101631904D01*
X87574285Y-101346190D01*
X87621904Y-101250952D01*
X87669523Y-101203333D01*
X87764761Y-101155714D01*
X87907619Y-101155714D01*
X88002857Y-101203333D01*
X88050476Y-101250952D01*
X88098095Y-101346190D01*
X88098095Y-101631904D01*
X88050476Y-101727142D01*
X88002857Y-101774761D01*
X87907619Y-101822380D01*
X87764761Y-101822380D01*
X88526666Y-101155714D02*
X88526666Y-101822380D01*
X88526666Y-101250952D02*
X88574285Y-101203333D01*
X88669523Y-101155714D01*
X88812380Y-101155714D01*
X88907619Y-101203333D01*
X88955238Y-101298571D01*
X88955238Y-101822380D01*
X89431428Y-101155714D02*
X89431428Y-101822380D01*
X89431428Y-101250952D02*
X89479047Y-101203333D01*
X89574285Y-101155714D01*
X89717142Y-101155714D01*
X89812380Y-101203333D01*
X89860000Y-101298571D01*
X89860000Y-101822380D01*
X90860000Y-101822380D02*
X90288571Y-101822380D01*
X90574285Y-101822380D02*
X90574285Y-100822380D01*
X90479047Y-100965238D01*
X90383809Y-101060476D01*
X90288571Y-101108095D01*
%TO.C,R2*%
X144613333Y-106962380D02*
X144280000Y-106486190D01*
X144041904Y-106962380D02*
X144041904Y-105962380D01*
X144422857Y-105962380D01*
X144518095Y-106010000D01*
X144565714Y-106057619D01*
X144613333Y-106152857D01*
X144613333Y-106295714D01*
X144565714Y-106390952D01*
X144518095Y-106438571D01*
X144422857Y-106486190D01*
X144041904Y-106486190D01*
X144994285Y-106057619D02*
X145041904Y-106010000D01*
X145137142Y-105962380D01*
X145375238Y-105962380D01*
X145470476Y-106010000D01*
X145518095Y-106057619D01*
X145565714Y-106152857D01*
X145565714Y-106248095D01*
X145518095Y-106390952D01*
X144946666Y-106962380D01*
X145565714Y-106962380D01*
D11*
%TO.C,Solar1conn1*%
X201870000Y-105470000D02*
X204530000Y-105470000D01*
X204530000Y-102810000D02*
X204530000Y-104140000D01*
X203200000Y-102810000D02*
X204530000Y-102810000D01*
X204530000Y-105350000D02*
X204530000Y-105470000D01*
X201870000Y-105350000D02*
X201870000Y-105470000D01*
%TO.C,SolarPanelConnector1*%
X149695000Y-123480000D02*
X149695000Y-129480000D01*
X140075000Y-129480000D02*
X139315000Y-129480000D01*
X146935000Y-129480000D02*
X146935000Y-123480000D01*
X148585000Y-120820000D02*
X148585000Y-123480000D01*
X141855000Y-129480000D02*
X141855000Y-123480000D01*
X142615000Y-129480000D02*
X141855000Y-129480000D01*
X140075000Y-123480000D02*
X140075000Y-129480000D01*
X149815000Y-123480000D02*
X149815000Y-129480000D01*
X139315000Y-120422929D02*
X139315000Y-120820000D01*
X138365000Y-120820000D02*
X138365000Y-123480000D01*
X149475000Y-120490000D02*
X149475000Y-120820000D01*
X140965000Y-120820000D02*
X140965000Y-123480000D01*
X140075000Y-120422929D02*
X140075000Y-120820000D01*
X142615000Y-120422929D02*
X142615000Y-120820000D01*
X149855000Y-118110000D02*
X151125000Y-118110000D01*
X144395000Y-120422929D02*
X144395000Y-120820000D01*
X150235000Y-120490000D02*
X150235000Y-120820000D01*
X151185000Y-123480000D02*
X151185000Y-120820000D01*
X150235000Y-123480000D02*
X150235000Y-129480000D01*
X146045000Y-120820000D02*
X146045000Y-123480000D01*
X150175000Y-123480000D02*
X150175000Y-129480000D01*
X147695000Y-129480000D02*
X146935000Y-129480000D01*
X147695000Y-120422929D02*
X147695000Y-120820000D01*
X147695000Y-123480000D02*
X147695000Y-129480000D01*
X150055000Y-123480000D02*
X150055000Y-129480000D01*
X141855000Y-120422929D02*
X141855000Y-120820000D01*
X151125000Y-118110000D02*
X151125000Y-119380000D01*
X146935000Y-120422929D02*
X146935000Y-120820000D01*
X149575000Y-123480000D02*
X149575000Y-129480000D01*
X145155000Y-123480000D02*
X145155000Y-129480000D01*
X145155000Y-120422929D02*
X145155000Y-120820000D01*
X142615000Y-123480000D02*
X142615000Y-129480000D01*
X138365000Y-123480000D02*
X151185000Y-123480000D01*
X150235000Y-129480000D02*
X149475000Y-129480000D01*
X149475000Y-129480000D02*
X149475000Y-123480000D01*
X145155000Y-129480000D02*
X144395000Y-129480000D01*
X151185000Y-120820000D02*
X138365000Y-120820000D01*
X143505000Y-120820000D02*
X143505000Y-123480000D01*
X139315000Y-129480000D02*
X139315000Y-123480000D01*
X144395000Y-129480000D02*
X144395000Y-123480000D01*
X149935000Y-123480000D02*
X149935000Y-129480000D01*
%TO.C,SolarJoin1*%
X135950000Y-102810000D02*
X135950000Y-104140000D01*
X134620000Y-102810000D02*
X135950000Y-102810000D01*
X133290000Y-105470000D02*
X135950000Y-105470000D01*
X133290000Y-105350000D02*
X133290000Y-105470000D01*
X135950000Y-105350000D02*
X135950000Y-105470000D01*
%TO.C,R1*%
X148050000Y-97890000D02*
X148050000Y-95150000D01*
X141510000Y-97890000D02*
X148050000Y-97890000D01*
X148820000Y-96520000D02*
X148050000Y-96520000D01*
X148050000Y-95150000D02*
X141510000Y-95150000D01*
X140740000Y-96520000D02*
X141510000Y-96520000D01*
X141510000Y-95150000D02*
X141510000Y-97890000D01*
%TO.C,Solar2conn1*%
X87690000Y-102810000D02*
X87690000Y-104140000D01*
X87690000Y-105350000D02*
X87690000Y-105470000D01*
X86360000Y-102810000D02*
X87690000Y-102810000D01*
X85030000Y-105470000D02*
X87690000Y-105470000D01*
X85030000Y-105350000D02*
X85030000Y-105470000D01*
%TO.C,SolarJoin2*%
X153610000Y-105470000D02*
X156270000Y-105470000D01*
X154940000Y-102810000D02*
X156270000Y-102810000D01*
X153610000Y-105350000D02*
X153610000Y-105470000D01*
X156270000Y-102810000D02*
X156270000Y-104140000D01*
X156270000Y-105350000D02*
X156270000Y-105470000D01*
%TO.C,R2*%
X148050000Y-105180000D02*
X148050000Y-105510000D01*
X148050000Y-105510000D02*
X141510000Y-105510000D01*
X148050000Y-102770000D02*
X141510000Y-102770000D01*
X141510000Y-105510000D02*
X141510000Y-105180000D01*
X141510000Y-102770000D02*
X141510000Y-103100000D01*
X148050000Y-103100000D02*
X148050000Y-102770000D01*
%TD*%
M02*
