%TF.GenerationSoftware,KiCad,Pcbnew,(6.0.4)*%
%TF.CreationDate,2022-08-23T00:57:11+02:00*%
%TF.ProjectId,MinimistCMZ,4d696e69-6d69-4737-9443-4d5a2e6b6963,rev?*%
%TF.SameCoordinates,Original*%
%TF.FileFunction,Soldermask,Bot*%
%TF.FilePolarity,Negative*%
%FSLAX46Y46*%
G04 Gerber Fmt 4.6, Leading zero omitted, Abs format (unit mm)*
G04 Created by KiCad (PCBNEW (6.0.4)) date 2022-08-23 00:57:11*
%MOMM*%
%LPD*%
G01*
G04 APERTURE LIST*
%ADD10R,1.500000X1.500000*%
%ADD11C,1.500000*%
%ADD12R,1.700000X1.700000*%
%ADD13O,1.700000X1.700000*%
%ADD14R,2.000000X2.000000*%
%ADD15C,2.000000*%
G04 APERTURE END LIST*
D10*
%TO.C,U1*%
X149860000Y-129540000D03*
D11*
X147320000Y-129540000D03*
X144780000Y-129540000D03*
X142240000Y-129540000D03*
%TD*%
D12*
%TO.C,J4*%
X134747000Y-137033000D03*
D13*
X132207000Y-137033000D03*
%TD*%
%TO.C,J3*%
X157480000Y-124460000D03*
X157480000Y-121920000D03*
X157480000Y-119380000D03*
X157480000Y-116840000D03*
X157480000Y-114300000D03*
X157480000Y-111760000D03*
X157480000Y-109220000D03*
X157480000Y-106680000D03*
X157480000Y-104140000D03*
X157480000Y-101600000D03*
X157480000Y-99060000D03*
X157480000Y-96520000D03*
X157480000Y-93980000D03*
X157480000Y-91440000D03*
X157480000Y-88900000D03*
X157480000Y-86360000D03*
X157480000Y-83820000D03*
X157480000Y-81280000D03*
X157480000Y-78740000D03*
D12*
X157480000Y-76200000D03*
%TD*%
D13*
%TO.C,J2*%
X149890000Y-71120000D03*
X147350000Y-71120000D03*
X144810000Y-71120000D03*
X142270000Y-71120000D03*
D12*
X139730000Y-71120000D03*
%TD*%
%TO.C,J1*%
X132080000Y-76200000D03*
D13*
X132080000Y-78740000D03*
X132080000Y-81280000D03*
X132080000Y-83820000D03*
X132080000Y-86360000D03*
X132080000Y-88900000D03*
X132080000Y-91440000D03*
X132080000Y-93980000D03*
X132080000Y-96520000D03*
X132080000Y-99060000D03*
X132080000Y-101600000D03*
X132080000Y-104140000D03*
X132080000Y-106680000D03*
X132080000Y-109220000D03*
X132080000Y-111760000D03*
X132080000Y-114300000D03*
X132080000Y-116840000D03*
X132080000Y-119380000D03*
X132080000Y-121920000D03*
X132080000Y-124460000D03*
%TD*%
D14*
%TO.C,BZ1*%
X140980000Y-96520000D03*
D15*
X148580000Y-96520000D03*
%TD*%
M02*
