%TF.GenerationSoftware,KiCad,Pcbnew,(6.0.4)*%
%TF.CreationDate,2022-08-23T00:57:11+02:00*%
%TF.ProjectId,MinimistCMZ,4d696e69-6d69-4737-9443-4d5a2e6b6963,rev?*%
%TF.SameCoordinates,Original*%
%TF.FileFunction,Legend,Bot*%
%TF.FilePolarity,Positive*%
%FSLAX46Y46*%
G04 Gerber Fmt 4.6, Leading zero omitted, Abs format (unit mm)*
G04 Created by KiCad (PCBNEW (6.0.4)) date 2022-08-23 00:57:11*
%MOMM*%
%LPD*%
G01*
G04 APERTURE LIST*
%ADD10C,0.300000*%
%ADD11C,0.150000*%
%ADD12C,0.120000*%
G04 APERTURE END LIST*
D10*
X151748238Y-78964761D02*
X151748238Y-76964761D01*
X151081571Y-78393333D01*
X150414904Y-76964761D01*
X150414904Y-78964761D01*
X149462523Y-78964761D02*
X149462523Y-77631428D01*
X149462523Y-76964761D02*
X149557761Y-77060000D01*
X149462523Y-77155238D01*
X149367285Y-77060000D01*
X149462523Y-76964761D01*
X149462523Y-77155238D01*
X148510142Y-77631428D02*
X148510142Y-78964761D01*
X148510142Y-77821904D02*
X148414904Y-77726666D01*
X148224428Y-77631428D01*
X147938714Y-77631428D01*
X147748238Y-77726666D01*
X147653000Y-77917142D01*
X147653000Y-78964761D01*
X146700619Y-78964761D02*
X146700619Y-77631428D01*
X146700619Y-76964761D02*
X146795857Y-77060000D01*
X146700619Y-77155238D01*
X146605380Y-77060000D01*
X146700619Y-76964761D01*
X146700619Y-77155238D01*
X145748238Y-78202857D02*
X144224428Y-78202857D01*
X143272047Y-78964761D02*
X143272047Y-76964761D01*
X142605380Y-78393333D01*
X141938714Y-76964761D01*
X141938714Y-78964761D01*
X140986333Y-78964761D02*
X140986333Y-76964761D01*
X140129190Y-78869523D02*
X139843476Y-78964761D01*
X139367285Y-78964761D01*
X139176809Y-78869523D01*
X139081571Y-78774285D01*
X138986333Y-78583809D01*
X138986333Y-78393333D01*
X139081571Y-78202857D01*
X139176809Y-78107619D01*
X139367285Y-78012380D01*
X139748238Y-77917142D01*
X139938714Y-77821904D01*
X140033952Y-77726666D01*
X140129190Y-77536190D01*
X140129190Y-77345714D01*
X140033952Y-77155238D01*
X139938714Y-77060000D01*
X139748238Y-76964761D01*
X139272047Y-76964761D01*
X138986333Y-77060000D01*
X138414904Y-76964761D02*
X137272047Y-76964761D01*
X137843476Y-78964761D02*
X137843476Y-76964761D01*
X151557761Y-82184761D02*
X151557761Y-80184761D01*
X150414904Y-82184761D02*
X151272047Y-81041904D01*
X150414904Y-80184761D02*
X151557761Y-81327619D01*
X149843476Y-80184761D02*
X148700619Y-80184761D01*
X149272047Y-82184761D02*
X149272047Y-80184761D01*
X148033952Y-82184761D02*
X148033952Y-80184761D01*
X148033952Y-81137142D02*
X146891095Y-81137142D01*
X146891095Y-82184761D02*
X146891095Y-80184761D01*
X144510142Y-80375238D02*
X144414904Y-80280000D01*
X144224428Y-80184761D01*
X143748238Y-80184761D01*
X143557761Y-80280000D01*
X143462523Y-80375238D01*
X143367285Y-80565714D01*
X143367285Y-80756190D01*
X143462523Y-81041904D01*
X144605380Y-82184761D01*
X143367285Y-82184761D01*
X142129190Y-80184761D02*
X141938714Y-80184761D01*
X141748238Y-80280000D01*
X141653000Y-80375238D01*
X141557761Y-80565714D01*
X141462523Y-80946666D01*
X141462523Y-81422857D01*
X141557761Y-81803809D01*
X141653000Y-81994285D01*
X141748238Y-82089523D01*
X141938714Y-82184761D01*
X142129190Y-82184761D01*
X142319666Y-82089523D01*
X142414904Y-81994285D01*
X142510142Y-81803809D01*
X142605380Y-81422857D01*
X142605380Y-80946666D01*
X142510142Y-80565714D01*
X142414904Y-80375238D01*
X142319666Y-80280000D01*
X142129190Y-80184761D01*
X140700619Y-80375238D02*
X140605380Y-80280000D01*
X140414904Y-80184761D01*
X139938714Y-80184761D01*
X139748238Y-80280000D01*
X139653000Y-80375238D01*
X139557761Y-80565714D01*
X139557761Y-80756190D01*
X139653000Y-81041904D01*
X140795857Y-82184761D01*
X139557761Y-82184761D01*
X138795857Y-80375238D02*
X138700619Y-80280000D01*
X138510142Y-80184761D01*
X138033952Y-80184761D01*
X137843476Y-80280000D01*
X137748238Y-80375238D01*
X137653000Y-80565714D01*
X137653000Y-80756190D01*
X137748238Y-81041904D01*
X138891095Y-82184761D01*
X137653000Y-82184761D01*
X149843476Y-85214285D02*
X149938714Y-85309523D01*
X150224428Y-85404761D01*
X150414904Y-85404761D01*
X150700619Y-85309523D01*
X150891095Y-85119047D01*
X150986333Y-84928571D01*
X151081571Y-84547619D01*
X151081571Y-84261904D01*
X150986333Y-83880952D01*
X150891095Y-83690476D01*
X150700619Y-83500000D01*
X150414904Y-83404761D01*
X150224428Y-83404761D01*
X149938714Y-83500000D01*
X149843476Y-83595238D01*
X148986333Y-85404761D02*
X148986333Y-83404761D01*
X148319666Y-84833333D01*
X147653000Y-83404761D01*
X147653000Y-85404761D01*
X146891095Y-83404761D02*
X145557761Y-83404761D01*
X146891095Y-85404761D01*
X145557761Y-85404761D01*
X143272047Y-85404761D02*
X143272047Y-83404761D01*
X142129190Y-85404761D02*
X142986333Y-84261904D01*
X142129190Y-83404761D02*
X143272047Y-84547619D01*
X141367285Y-85309523D02*
X141081571Y-85404761D01*
X140605380Y-85404761D01*
X140414904Y-85309523D01*
X140319666Y-85214285D01*
X140224428Y-85023809D01*
X140224428Y-84833333D01*
X140319666Y-84642857D01*
X140414904Y-84547619D01*
X140605380Y-84452380D01*
X140986333Y-84357142D01*
X141176809Y-84261904D01*
X141272047Y-84166666D01*
X141367285Y-83976190D01*
X141367285Y-83785714D01*
X141272047Y-83595238D01*
X141176809Y-83500000D01*
X140986333Y-83404761D01*
X140510142Y-83404761D01*
X140224428Y-83500000D01*
X138700619Y-84357142D02*
X138414904Y-84452380D01*
X138319666Y-84547619D01*
X138224428Y-84738095D01*
X138224428Y-85023809D01*
X138319666Y-85214285D01*
X138414904Y-85309523D01*
X138605380Y-85404761D01*
X139367285Y-85404761D01*
X139367285Y-83404761D01*
X138700619Y-83404761D01*
X138510142Y-83500000D01*
X138414904Y-83595238D01*
X138319666Y-83785714D01*
X138319666Y-83976190D01*
X138414904Y-84166666D01*
X138510142Y-84261904D01*
X138700619Y-84357142D01*
X139367285Y-84357142D01*
D11*
%TO.C,U1*%
X146938904Y-126960380D02*
X146938904Y-127769904D01*
X146891285Y-127865142D01*
X146843666Y-127912761D01*
X146748428Y-127960380D01*
X146557952Y-127960380D01*
X146462714Y-127912761D01*
X146415095Y-127865142D01*
X146367476Y-127769904D01*
X146367476Y-126960380D01*
X145367476Y-127960380D02*
X145938904Y-127960380D01*
X145653190Y-127960380D02*
X145653190Y-126960380D01*
X145748428Y-127103238D01*
X145843666Y-127198476D01*
X145938904Y-127246095D01*
%TO.C,BZ1*%
X145660952Y-103648571D02*
X145518095Y-103696190D01*
X145470476Y-103743809D01*
X145422857Y-103839047D01*
X145422857Y-103981904D01*
X145470476Y-104077142D01*
X145518095Y-104124761D01*
X145613333Y-104172380D01*
X145994285Y-104172380D01*
X145994285Y-103172380D01*
X145660952Y-103172380D01*
X145565714Y-103220000D01*
X145518095Y-103267619D01*
X145470476Y-103362857D01*
X145470476Y-103458095D01*
X145518095Y-103553333D01*
X145565714Y-103600952D01*
X145660952Y-103648571D01*
X145994285Y-103648571D01*
X145089523Y-103172380D02*
X144422857Y-103172380D01*
X145089523Y-104172380D01*
X144422857Y-104172380D01*
X143518095Y-104172380D02*
X144089523Y-104172380D01*
X143803809Y-104172380D02*
X143803809Y-103172380D01*
X143899047Y-103315238D01*
X143994285Y-103410476D01*
X144089523Y-103458095D01*
X141350952Y-99131428D02*
X140589047Y-99131428D01*
X140970000Y-99512380D02*
X140970000Y-98750476D01*
D12*
%TO.C,U1*%
X139920000Y-126660000D02*
X139920000Y-132420000D01*
X152180000Y-126660000D02*
X139920000Y-126660000D01*
X152180000Y-132410000D02*
X152180000Y-126670000D01*
X152460000Y-132700000D02*
X152460000Y-131090000D01*
X139920000Y-132420000D02*
X152170000Y-132420000D01*
X152460000Y-132700000D02*
X150460000Y-132700000D01*
%TO.C,BZ1*%
X150880000Y-96520000D02*
G75*
G03*
X150880000Y-96520000I-6100000J0D01*
G01*
%TD*%
M02*
