%TF.GenerationSoftware,KiCad,Pcbnew,(6.0.4)*%
%TF.CreationDate,2022-08-23T00:57:11+02:00*%
%TF.ProjectId,MinimistCMZ,4d696e69-6d69-4737-9443-4d5a2e6b6963,rev?*%
%TF.SameCoordinates,Original*%
%TF.FileFunction,Copper,L1,Top*%
%TF.FilePolarity,Positive*%
%FSLAX46Y46*%
G04 Gerber Fmt 4.6, Leading zero omitted, Abs format (unit mm)*
G04 Created by KiCad (PCBNEW (6.0.4)) date 2022-08-23 00:57:11*
%MOMM*%
%LPD*%
G01*
G04 APERTURE LIST*
G04 Aperture macros list*
%AMRoundRect*
0 Rectangle with rounded corners*
0 $1 Rounding radius*
0 $2 $3 $4 $5 $6 $7 $8 $9 X,Y pos of 4 corners*
0 Add a 4 corners polygon primitive as box body*
4,1,4,$2,$3,$4,$5,$6,$7,$8,$9,$2,$3,0*
0 Add four circle primitives for the rounded corners*
1,1,$1+$1,$2,$3*
1,1,$1+$1,$4,$5*
1,1,$1+$1,$6,$7*
1,1,$1+$1,$8,$9*
0 Add four rect primitives between the rounded corners*
20,1,$1+$1,$2,$3,$4,$5,0*
20,1,$1+$1,$4,$5,$6,$7,0*
20,1,$1+$1,$6,$7,$8,$9,0*
20,1,$1+$1,$8,$9,$2,$3,0*%
G04 Aperture macros list end*
%TA.AperFunction,ComponentPad*%
%ADD10R,1.500000X1.500000*%
%TD*%
%TA.AperFunction,ComponentPad*%
%ADD11C,1.500000*%
%TD*%
%TA.AperFunction,SMDPad,CuDef*%
%ADD12RoundRect,0.250000X0.450000X-0.350000X0.450000X0.350000X-0.450000X0.350000X-0.450000X-0.350000X0*%
%TD*%
%TA.AperFunction,SMDPad,CuDef*%
%ADD13RoundRect,0.250000X-0.450000X0.350000X-0.450000X-0.350000X0.450000X-0.350000X0.450000X0.350000X0*%
%TD*%
%TA.AperFunction,SMDPad,CuDef*%
%ADD14RoundRect,0.250000X0.350000X0.450000X-0.350000X0.450000X-0.350000X-0.450000X0.350000X-0.450000X0*%
%TD*%
%TA.AperFunction,SMDPad,CuDef*%
%ADD15RoundRect,0.250000X0.325000X0.450000X-0.325000X0.450000X-0.325000X-0.450000X0.325000X-0.450000X0*%
%TD*%
%TA.AperFunction,ComponentPad*%
%ADD16R,1.700000X1.700000*%
%TD*%
%TA.AperFunction,ComponentPad*%
%ADD17O,1.700000X1.700000*%
%TD*%
%TA.AperFunction,SMDPad,CuDef*%
%ADD18RoundRect,0.250000X-0.325000X-0.450000X0.325000X-0.450000X0.325000X0.450000X-0.325000X0.450000X0*%
%TD*%
%TA.AperFunction,ComponentPad*%
%ADD19R,2.000000X2.000000*%
%TD*%
%TA.AperFunction,ComponentPad*%
%ADD20C,2.000000*%
%TD*%
%TA.AperFunction,ViaPad*%
%ADD21C,0.800000*%
%TD*%
%TA.AperFunction,Conductor*%
%ADD22C,0.250000*%
%TD*%
G04 APERTURE END LIST*
D10*
%TO.P,U1,1,VCC*%
%TO.N,/3.3V*%
X149860000Y-129540000D03*
D11*
%TO.P,U1,2,IO*%
%TO.N,/DHT11_IN*%
X147320000Y-129540000D03*
%TO.P,U1,3,NC*%
%TO.N,unconnected-(U1-Pad3)*%
X144780000Y-129540000D03*
%TO.P,U1,4,GND*%
%TO.N,GND*%
X142240000Y-129540000D03*
%TD*%
D12*
%TO.P,R5,1*%
%TO.N,/Battery*%
X137160000Y-105140000D03*
%TO.P,R5,2*%
%TO.N,GND*%
X137160000Y-103140000D03*
%TD*%
%TO.P,R4,1*%
%TO.N,VCC*%
X137160000Y-112760000D03*
%TO.P,R4,2*%
%TO.N,/Battery*%
X137160000Y-110760000D03*
%TD*%
%TO.P,R3,1*%
%TO.N,Net-(D2-Pad1)*%
X156464000Y-129651000D03*
%TO.P,R3,2*%
%TO.N,GND*%
X156464000Y-127651000D03*
%TD*%
D13*
%TO.P,R2,1*%
%TO.N,GND*%
X133096000Y-127651000D03*
%TO.P,R2,2*%
%TO.N,Net-(LED1-Pad1)*%
X133096000Y-129651000D03*
%TD*%
D14*
%TO.P,R1,1*%
%TO.N,/3.3V*%
X149844000Y-124206000D03*
%TO.P,R1,2*%
%TO.N,/DHT11_IN*%
X147844000Y-124206000D03*
%TD*%
D15*
%TO.P,LED1,1,K*%
%TO.N,Net-(LED1-Pad1)*%
X133105000Y-132080000D03*
%TO.P,LED1,2,A*%
%TO.N,Net-(J1-Pad13)*%
X131055000Y-132080000D03*
%TD*%
D16*
%TO.P,J4,1,Pin_1*%
%TO.N,VCC*%
X134747000Y-137033000D03*
D17*
%TO.P,J4,2,Pin_2*%
%TO.N,GND*%
X132207000Y-137033000D03*
%TD*%
%TO.P,J3,20,Pin_20*%
%TO.N,GND*%
X157480000Y-124460000D03*
%TO.P,J3,19,Pin_19*%
%TO.N,unconnected-(J3-Pad19)*%
X157480000Y-121920000D03*
%TO.P,J3,18,Pin_18*%
%TO.N,unconnected-(J3-Pad18)*%
X157480000Y-119380000D03*
%TO.P,J3,17,Pin_17*%
%TO.N,unconnected-(J3-Pad17)*%
X157480000Y-116840000D03*
%TO.P,J3,16,Pin_16*%
%TO.N,unconnected-(J3-Pad16)*%
X157480000Y-114300000D03*
%TO.P,J3,15,Pin_15*%
%TO.N,unconnected-(J3-Pad15)*%
X157480000Y-111760000D03*
%TO.P,J3,14,Pin_14*%
%TO.N,GND*%
X157480000Y-109220000D03*
%TO.P,J3,13,Pin_13*%
%TO.N,unconnected-(J3-Pad13)*%
X157480000Y-106680000D03*
%TO.P,J3,12,Pin_12*%
%TO.N,unconnected-(J3-Pad12)*%
X157480000Y-104140000D03*
%TO.P,J3,11,Pin_11*%
%TO.N,unconnected-(J3-Pad11)*%
X157480000Y-101600000D03*
%TO.P,J3,10,Pin_10*%
%TO.N,GND*%
X157480000Y-99060000D03*
%TO.P,J3,9,Pin_9*%
X157480000Y-96520000D03*
%TO.P,J3,8,Pin_8*%
%TO.N,unconnected-(J3-Pad8)*%
X157480000Y-93980000D03*
%TO.P,J3,7,Pin_7*%
%TO.N,unconnected-(J3-Pad7)*%
X157480000Y-91440000D03*
%TO.P,J3,6,Pin_6*%
%TO.N,unconnected-(J3-Pad6)*%
X157480000Y-88900000D03*
%TO.P,J3,5,Pin_5*%
%TO.N,Net-(D2-Pad2)*%
X157480000Y-86360000D03*
%TO.P,J3,4,Pin_4*%
%TO.N,unconnected-(J3-Pad4)*%
X157480000Y-83820000D03*
%TO.P,J3,3,Pin_3*%
%TO.N,unconnected-(J3-Pad3)*%
X157480000Y-81280000D03*
%TO.P,J3,2,Pin_2*%
%TO.N,unconnected-(J3-Pad2)*%
X157480000Y-78740000D03*
D16*
%TO.P,J3,1,Pin_1*%
%TO.N,GND*%
X157480000Y-76200000D03*
%TD*%
D17*
%TO.P,J2,5,Pin_5*%
%TO.N,unconnected-(J2-Pad5)*%
X149890000Y-71120000D03*
%TO.P,J2,4,Pin_4*%
%TO.N,/Solar*%
X147350000Y-71120000D03*
%TO.P,J2,3,Pin_3*%
%TO.N,unconnected-(J2-Pad3)*%
X144810000Y-71120000D03*
%TO.P,J2,2,Pin_2*%
%TO.N,unconnected-(J2-Pad2)*%
X142270000Y-71120000D03*
D16*
%TO.P,J2,1,Pin_1*%
%TO.N,GND*%
X139730000Y-71120000D03*
%TD*%
%TO.P,J1,1,Pin_1*%
%TO.N,/3.3V*%
X132080000Y-76200000D03*
D17*
%TO.P,J1,2,Pin_2*%
%TO.N,unconnected-(J1-Pad2)*%
X132080000Y-78740000D03*
%TO.P,J1,3,Pin_3*%
%TO.N,unconnected-(J1-Pad3)*%
X132080000Y-81280000D03*
%TO.P,J1,4,Pin_4*%
%TO.N,unconnected-(J1-Pad4)*%
X132080000Y-83820000D03*
%TO.P,J1,5,Pin_5*%
%TO.N,unconnected-(J1-Pad5)*%
X132080000Y-86360000D03*
%TO.P,J1,6,Pin_6*%
%TO.N,unconnected-(J1-Pad6)*%
X132080000Y-88900000D03*
%TO.P,J1,7,Pin_7*%
%TO.N,Net-(D3-Pad1)*%
X132080000Y-91440000D03*
%TO.P,J1,8,Pin_8*%
%TO.N,/Battery*%
X132080000Y-93980000D03*
%TO.P,J1,9,Pin_9*%
%TO.N,unconnected-(J1-Pad9)*%
X132080000Y-96520000D03*
%TO.P,J1,10,Pin_10*%
%TO.N,unconnected-(J1-Pad10)*%
X132080000Y-99060000D03*
%TO.P,J1,11,Pin_11*%
%TO.N,unconnected-(J1-Pad11)*%
X132080000Y-101600000D03*
%TO.P,J1,12,Pin_12*%
%TO.N,/Buzzer*%
X132080000Y-104140000D03*
%TO.P,J1,13,Pin_13*%
%TO.N,Net-(J1-Pad13)*%
X132080000Y-106680000D03*
%TO.P,J1,14,Pin_14*%
%TO.N,GND*%
X132080000Y-109220000D03*
%TO.P,J1,15,Pin_15*%
%TO.N,/DHT11_IN*%
X132080000Y-111760000D03*
%TO.P,J1,16,Pin_16*%
%TO.N,unconnected-(J1-Pad16)*%
X132080000Y-114300000D03*
%TO.P,J1,17,Pin_17*%
%TO.N,unconnected-(J1-Pad17)*%
X132080000Y-116840000D03*
%TO.P,J1,18,Pin_18*%
%TO.N,unconnected-(J1-Pad18)*%
X132080000Y-119380000D03*
%TO.P,J1,19,Pin_19*%
%TO.N,VCC*%
X132080000Y-121920000D03*
%TO.P,J1,20,Pin_20*%
X132080000Y-124460000D03*
%TD*%
D18*
%TO.P,D3,1,K*%
%TO.N,Net-(D3-Pad1)*%
X132071000Y-71120000D03*
%TO.P,D3,2,A*%
%TO.N,/Solar*%
X134121000Y-71120000D03*
%TD*%
%TO.P,D2,2,A*%
%TO.N,Net-(D2-Pad2)*%
X158505000Y-132080000D03*
%TO.P,D2,1,K*%
%TO.N,Net-(D2-Pad1)*%
X156455000Y-132080000D03*
%TD*%
D19*
%TO.P,BZ1,1,-*%
%TO.N,/Buzzer*%
X140980000Y-96520000D03*
D20*
%TO.P,BZ1,2,+*%
%TO.N,GND*%
X148580000Y-96520000D03*
%TD*%
D21*
%TO.N,GND*%
X137160000Y-101092000D03*
%TD*%
D22*
%TO.N,GND*%
X132207000Y-135255000D02*
X132207000Y-137033000D01*
X132715000Y-134747000D02*
X132207000Y-135255000D01*
X133731000Y-134747000D02*
X132715000Y-134747000D01*
X134874000Y-133604000D02*
X133731000Y-134747000D01*
X134874000Y-128143000D02*
X134874000Y-133604000D01*
X134366000Y-127635000D02*
X134874000Y-128143000D01*
X133112000Y-127635000D02*
X134366000Y-127635000D01*
X133096000Y-127651000D02*
X133112000Y-127635000D01*
%TO.N,VCC*%
X134239000Y-124460000D02*
X132080000Y-124460000D01*
X136271000Y-126492000D02*
X134239000Y-124460000D01*
X136271000Y-135636000D02*
X136271000Y-126492000D01*
X136144000Y-135636000D02*
X136271000Y-135636000D01*
X134747000Y-137033000D02*
X136144000Y-135636000D01*
X137160000Y-119761000D02*
X137160000Y-112760000D01*
X135001000Y-121920000D02*
X137160000Y-119761000D01*
X132080000Y-121920000D02*
X135001000Y-121920000D01*
%TO.N,/DHT11_IN*%
X147844000Y-118888000D02*
X147844000Y-124206000D01*
X132080000Y-111760000D02*
X140716000Y-111760000D01*
X140716000Y-111760000D02*
X147844000Y-118888000D01*
%TO.N,GND*%
X156464000Y-125476000D02*
X157480000Y-124460000D01*
X156464000Y-127651000D02*
X156464000Y-125476000D01*
%TO.N,VCC*%
X132080000Y-124460000D02*
X132080000Y-121920000D01*
%TO.N,GND*%
X137160000Y-103140000D02*
X137160000Y-101092000D01*
%TO.N,/Battery*%
X139716000Y-105140000D02*
X137160000Y-105140000D01*
X144272000Y-96012000D02*
X144272000Y-100584000D01*
X132080000Y-93980000D02*
X142240000Y-93980000D01*
X142240000Y-93980000D02*
X144272000Y-96012000D01*
X144272000Y-100584000D02*
X139716000Y-105140000D01*
%TO.N,/Buzzer*%
X139700000Y-96520000D02*
X140980000Y-96520000D01*
X132080000Y-104140000D02*
X139700000Y-96520000D01*
%TO.N,/DHT11_IN*%
X147320000Y-124730000D02*
X147844000Y-124206000D01*
X147320000Y-129540000D02*
X147320000Y-124730000D01*
%TO.N,/3.3V*%
X149844000Y-113316000D02*
X154813000Y-108347000D01*
X149844000Y-124206000D02*
X149844000Y-113316000D01*
X149860000Y-124222000D02*
X149844000Y-124206000D01*
X149860000Y-129540000D02*
X149860000Y-124222000D01*
X145415000Y-76200000D02*
X154813000Y-85598000D01*
X154813000Y-85598000D02*
X154813000Y-108347000D01*
X132080000Y-76200000D02*
X145415000Y-76200000D01*
%TO.N,/Solar*%
X145923000Y-74041000D02*
X147350000Y-72614000D01*
X137042000Y-74041000D02*
X145923000Y-74041000D01*
X134121000Y-71120000D02*
X137042000Y-74041000D01*
X147350000Y-72614000D02*
X147350000Y-71120000D01*
%TO.N,Net-(D3-Pad1)*%
X131064000Y-91440000D02*
X132080000Y-91440000D01*
X130175000Y-90551000D02*
X131064000Y-91440000D01*
X130175000Y-73025000D02*
X130175000Y-90551000D01*
X132071000Y-71129000D02*
X130175000Y-73025000D01*
X132071000Y-71120000D02*
X132071000Y-71129000D01*
%TO.N,/Battery*%
X137160000Y-110760000D02*
X137160000Y-105140000D01*
%TO.N,Net-(D2-Pad2)*%
X158496000Y-87376000D02*
X157480000Y-86360000D01*
X159385000Y-131191000D02*
X159385000Y-87757000D01*
X158654511Y-131930489D02*
X158654511Y-131921489D01*
X158654511Y-131921489D02*
X159385000Y-131191000D01*
X159004000Y-87376000D02*
X158496000Y-87376000D01*
X159385000Y-87757000D02*
X159004000Y-87376000D01*
X158505000Y-132080000D02*
X158654511Y-131930489D01*
%TO.N,Net-(D2-Pad1)*%
X156455000Y-132080000D02*
X156455000Y-129660000D01*
X156455000Y-129660000D02*
X156464000Y-129651000D01*
%TO.N,Net-(LED1-Pad1)*%
X133105000Y-129660000D02*
X133096000Y-129651000D01*
X133105000Y-132080000D02*
X133105000Y-129660000D01*
%TO.N,Net-(J1-Pad13)*%
X130429000Y-131454000D02*
X130429000Y-107442000D01*
X131191000Y-106680000D02*
X132080000Y-106680000D01*
X131055000Y-132080000D02*
X130429000Y-131454000D01*
X130429000Y-107442000D02*
X131191000Y-106680000D01*
%TD*%
M02*
