%TF.GenerationSoftware,KiCad,Pcbnew,(6.0.4)*%
%TF.CreationDate,2022-08-23T00:57:11+02:00*%
%TF.ProjectId,MinimistCMZ,4d696e69-6d69-4737-9443-4d5a2e6b6963,rev?*%
%TF.SameCoordinates,Original*%
%TF.FileFunction,Copper,L2,Bot*%
%TF.FilePolarity,Positive*%
%FSLAX46Y46*%
G04 Gerber Fmt 4.6, Leading zero omitted, Abs format (unit mm)*
G04 Created by KiCad (PCBNEW (6.0.4)) date 2022-08-23 00:57:11*
%MOMM*%
%LPD*%
G01*
G04 APERTURE LIST*
%TA.AperFunction,ComponentPad*%
%ADD10R,1.500000X1.500000*%
%TD*%
%TA.AperFunction,ComponentPad*%
%ADD11C,1.500000*%
%TD*%
%TA.AperFunction,ComponentPad*%
%ADD12R,1.700000X1.700000*%
%TD*%
%TA.AperFunction,ComponentPad*%
%ADD13O,1.700000X1.700000*%
%TD*%
%TA.AperFunction,ComponentPad*%
%ADD14R,2.000000X2.000000*%
%TD*%
%TA.AperFunction,ComponentPad*%
%ADD15C,2.000000*%
%TD*%
%TA.AperFunction,ViaPad*%
%ADD16C,0.800000*%
%TD*%
G04 APERTURE END LIST*
D10*
%TO.P,U1,1,VCC*%
%TO.N,/3.3V*%
X149860000Y-129540000D03*
D11*
%TO.P,U1,2,IO*%
%TO.N,/DHT11_IN*%
X147320000Y-129540000D03*
%TO.P,U1,3,NC*%
%TO.N,unconnected-(U1-Pad3)*%
X144780000Y-129540000D03*
%TO.P,U1,4,GND*%
%TO.N,GND*%
X142240000Y-129540000D03*
%TD*%
D12*
%TO.P,J4,1,Pin_1*%
%TO.N,VCC*%
X134747000Y-137033000D03*
D13*
%TO.P,J4,2,Pin_2*%
%TO.N,GND*%
X132207000Y-137033000D03*
%TD*%
%TO.P,J3,20,Pin_20*%
%TO.N,GND*%
X157480000Y-124460000D03*
%TO.P,J3,19,Pin_19*%
%TO.N,unconnected-(J3-Pad19)*%
X157480000Y-121920000D03*
%TO.P,J3,18,Pin_18*%
%TO.N,unconnected-(J3-Pad18)*%
X157480000Y-119380000D03*
%TO.P,J3,17,Pin_17*%
%TO.N,unconnected-(J3-Pad17)*%
X157480000Y-116840000D03*
%TO.P,J3,16,Pin_16*%
%TO.N,unconnected-(J3-Pad16)*%
X157480000Y-114300000D03*
%TO.P,J3,15,Pin_15*%
%TO.N,unconnected-(J3-Pad15)*%
X157480000Y-111760000D03*
%TO.P,J3,14,Pin_14*%
%TO.N,GND*%
X157480000Y-109220000D03*
%TO.P,J3,13,Pin_13*%
%TO.N,unconnected-(J3-Pad13)*%
X157480000Y-106680000D03*
%TO.P,J3,12,Pin_12*%
%TO.N,unconnected-(J3-Pad12)*%
X157480000Y-104140000D03*
%TO.P,J3,11,Pin_11*%
%TO.N,unconnected-(J3-Pad11)*%
X157480000Y-101600000D03*
%TO.P,J3,10,Pin_10*%
%TO.N,GND*%
X157480000Y-99060000D03*
%TO.P,J3,9,Pin_9*%
X157480000Y-96520000D03*
%TO.P,J3,8,Pin_8*%
%TO.N,unconnected-(J3-Pad8)*%
X157480000Y-93980000D03*
%TO.P,J3,7,Pin_7*%
%TO.N,unconnected-(J3-Pad7)*%
X157480000Y-91440000D03*
%TO.P,J3,6,Pin_6*%
%TO.N,unconnected-(J3-Pad6)*%
X157480000Y-88900000D03*
%TO.P,J3,5,Pin_5*%
%TO.N,Net-(D2-Pad2)*%
X157480000Y-86360000D03*
%TO.P,J3,4,Pin_4*%
%TO.N,unconnected-(J3-Pad4)*%
X157480000Y-83820000D03*
%TO.P,J3,3,Pin_3*%
%TO.N,unconnected-(J3-Pad3)*%
X157480000Y-81280000D03*
%TO.P,J3,2,Pin_2*%
%TO.N,unconnected-(J3-Pad2)*%
X157480000Y-78740000D03*
D12*
%TO.P,J3,1,Pin_1*%
%TO.N,GND*%
X157480000Y-76200000D03*
%TD*%
D13*
%TO.P,J2,5,Pin_5*%
%TO.N,unconnected-(J2-Pad5)*%
X149890000Y-71120000D03*
%TO.P,J2,4,Pin_4*%
%TO.N,/Solar*%
X147350000Y-71120000D03*
%TO.P,J2,3,Pin_3*%
%TO.N,unconnected-(J2-Pad3)*%
X144810000Y-71120000D03*
%TO.P,J2,2,Pin_2*%
%TO.N,unconnected-(J2-Pad2)*%
X142270000Y-71120000D03*
D12*
%TO.P,J2,1,Pin_1*%
%TO.N,GND*%
X139730000Y-71120000D03*
%TD*%
%TO.P,J1,1,Pin_1*%
%TO.N,/3.3V*%
X132080000Y-76200000D03*
D13*
%TO.P,J1,2,Pin_2*%
%TO.N,unconnected-(J1-Pad2)*%
X132080000Y-78740000D03*
%TO.P,J1,3,Pin_3*%
%TO.N,unconnected-(J1-Pad3)*%
X132080000Y-81280000D03*
%TO.P,J1,4,Pin_4*%
%TO.N,unconnected-(J1-Pad4)*%
X132080000Y-83820000D03*
%TO.P,J1,5,Pin_5*%
%TO.N,unconnected-(J1-Pad5)*%
X132080000Y-86360000D03*
%TO.P,J1,6,Pin_6*%
%TO.N,unconnected-(J1-Pad6)*%
X132080000Y-88900000D03*
%TO.P,J1,7,Pin_7*%
%TO.N,Net-(D3-Pad1)*%
X132080000Y-91440000D03*
%TO.P,J1,8,Pin_8*%
%TO.N,/Battery*%
X132080000Y-93980000D03*
%TO.P,J1,9,Pin_9*%
%TO.N,unconnected-(J1-Pad9)*%
X132080000Y-96520000D03*
%TO.P,J1,10,Pin_10*%
%TO.N,unconnected-(J1-Pad10)*%
X132080000Y-99060000D03*
%TO.P,J1,11,Pin_11*%
%TO.N,unconnected-(J1-Pad11)*%
X132080000Y-101600000D03*
%TO.P,J1,12,Pin_12*%
%TO.N,/Buzzer*%
X132080000Y-104140000D03*
%TO.P,J1,13,Pin_13*%
%TO.N,Net-(J1-Pad13)*%
X132080000Y-106680000D03*
%TO.P,J1,14,Pin_14*%
%TO.N,GND*%
X132080000Y-109220000D03*
%TO.P,J1,15,Pin_15*%
%TO.N,/DHT11_IN*%
X132080000Y-111760000D03*
%TO.P,J1,16,Pin_16*%
%TO.N,unconnected-(J1-Pad16)*%
X132080000Y-114300000D03*
%TO.P,J1,17,Pin_17*%
%TO.N,unconnected-(J1-Pad17)*%
X132080000Y-116840000D03*
%TO.P,J1,18,Pin_18*%
%TO.N,unconnected-(J1-Pad18)*%
X132080000Y-119380000D03*
%TO.P,J1,19,Pin_19*%
%TO.N,VCC*%
X132080000Y-121920000D03*
%TO.P,J1,20,Pin_20*%
X132080000Y-124460000D03*
%TD*%
D14*
%TO.P,BZ1,1,-*%
%TO.N,/Buzzer*%
X140980000Y-96520000D03*
D15*
%TO.P,BZ1,2,+*%
%TO.N,GND*%
X148580000Y-96520000D03*
%TD*%
D16*
%TO.N,GND*%
X137160000Y-101092000D03*
%TD*%
%TA.AperFunction,Conductor*%
%TO.N,GND*%
G36*
X159453621Y-69108502D02*
G01*
X159500114Y-69162158D01*
X159511500Y-69214500D01*
X159511500Y-139065500D01*
X159491498Y-139133621D01*
X159437842Y-139180114D01*
X159385500Y-139191500D01*
X130174500Y-139191500D01*
X130106379Y-139171498D01*
X130059886Y-139117842D01*
X130048500Y-139065500D01*
X130048500Y-137300966D01*
X130875257Y-137300966D01*
X130905565Y-137435446D01*
X130908645Y-137445275D01*
X130988770Y-137642603D01*
X130993413Y-137651794D01*
X131104694Y-137833388D01*
X131110777Y-137841699D01*
X131250213Y-138002667D01*
X131257580Y-138009883D01*
X131421434Y-138145916D01*
X131429881Y-138151831D01*
X131613756Y-138259279D01*
X131623042Y-138263729D01*
X131822001Y-138339703D01*
X131831899Y-138342579D01*
X131935250Y-138363606D01*
X131949299Y-138362410D01*
X131953000Y-138352065D01*
X131953000Y-138351517D01*
X132461000Y-138351517D01*
X132465064Y-138365359D01*
X132478478Y-138367393D01*
X132485184Y-138366534D01*
X132495262Y-138364392D01*
X132699255Y-138303191D01*
X132708842Y-138299433D01*
X132900095Y-138205739D01*
X132908945Y-138200464D01*
X133082328Y-138076792D01*
X133090193Y-138070145D01*
X133194897Y-137965805D01*
X133257268Y-137931889D01*
X133328075Y-137937077D01*
X133384837Y-137979723D01*
X133401819Y-138010826D01*
X133446385Y-138129705D01*
X133533739Y-138246261D01*
X133650295Y-138333615D01*
X133786684Y-138384745D01*
X133848866Y-138391500D01*
X135645134Y-138391500D01*
X135707316Y-138384745D01*
X135843705Y-138333615D01*
X135960261Y-138246261D01*
X136047615Y-138129705D01*
X136098745Y-137993316D01*
X136105500Y-137931134D01*
X136105500Y-136134866D01*
X136098745Y-136072684D01*
X136047615Y-135936295D01*
X135960261Y-135819739D01*
X135843705Y-135732385D01*
X135707316Y-135681255D01*
X135645134Y-135674500D01*
X133848866Y-135674500D01*
X133786684Y-135681255D01*
X133650295Y-135732385D01*
X133533739Y-135819739D01*
X133446385Y-135936295D01*
X133443233Y-135944703D01*
X133443232Y-135944705D01*
X133401722Y-136055433D01*
X133359081Y-136112198D01*
X133292519Y-136136898D01*
X133223170Y-136121691D01*
X133190546Y-136096004D01*
X133139799Y-136040234D01*
X133132273Y-136033215D01*
X132965139Y-135901222D01*
X132956552Y-135895517D01*
X132770117Y-135792599D01*
X132760705Y-135788369D01*
X132559959Y-135717280D01*
X132549988Y-135714646D01*
X132478837Y-135701972D01*
X132465540Y-135703432D01*
X132461000Y-135717989D01*
X132461000Y-138351517D01*
X131953000Y-138351517D01*
X131953000Y-137305115D01*
X131948525Y-137289876D01*
X131947135Y-137288671D01*
X131939452Y-137287000D01*
X130890225Y-137287000D01*
X130876694Y-137290973D01*
X130875257Y-137300966D01*
X130048500Y-137300966D01*
X130048500Y-136767183D01*
X130871389Y-136767183D01*
X130872912Y-136775607D01*
X130885292Y-136779000D01*
X131934885Y-136779000D01*
X131950124Y-136774525D01*
X131951329Y-136773135D01*
X131953000Y-136765452D01*
X131953000Y-135716102D01*
X131949082Y-135702758D01*
X131934806Y-135700771D01*
X131896324Y-135706660D01*
X131886288Y-135709051D01*
X131683868Y-135775212D01*
X131674359Y-135779209D01*
X131485463Y-135877542D01*
X131476738Y-135883036D01*
X131306433Y-136010905D01*
X131298726Y-136017748D01*
X131151590Y-136171717D01*
X131145104Y-136179727D01*
X131025098Y-136355649D01*
X131020000Y-136364623D01*
X130930338Y-136557783D01*
X130926775Y-136567470D01*
X130871389Y-136767183D01*
X130048500Y-136767183D01*
X130048500Y-130590161D01*
X141554393Y-130590161D01*
X141563687Y-130602175D01*
X141604088Y-130630464D01*
X141613584Y-130635947D01*
X141803113Y-130724326D01*
X141813405Y-130728072D01*
X142015401Y-130782196D01*
X142026196Y-130784099D01*
X142234525Y-130802326D01*
X142245475Y-130802326D01*
X142453804Y-130784099D01*
X142464599Y-130782196D01*
X142666595Y-130728072D01*
X142676887Y-130724326D01*
X142866416Y-130635947D01*
X142875912Y-130630464D01*
X142917148Y-130601590D01*
X142925523Y-130591112D01*
X142918457Y-130577668D01*
X142252811Y-129912021D01*
X142238868Y-129904408D01*
X142237034Y-129904539D01*
X142230420Y-129908790D01*
X141560820Y-130578391D01*
X141554393Y-130590161D01*
X130048500Y-130590161D01*
X130048500Y-129545475D01*
X140977674Y-129545475D01*
X140995901Y-129753804D01*
X140997804Y-129764599D01*
X141051928Y-129966595D01*
X141055674Y-129976887D01*
X141144054Y-130166417D01*
X141149534Y-130175907D01*
X141178411Y-130217149D01*
X141188887Y-130225523D01*
X141202334Y-130218455D01*
X141867979Y-129552811D01*
X141874356Y-129541132D01*
X142604408Y-129541132D01*
X142604539Y-129542966D01*
X142608790Y-129549580D01*
X143278391Y-130219180D01*
X143290161Y-130225607D01*
X143302176Y-130216311D01*
X143330466Y-130175907D01*
X143335946Y-130166417D01*
X143395529Y-130038640D01*
X143442446Y-129985355D01*
X143510724Y-129965894D01*
X143578684Y-129986436D01*
X143623919Y-130038640D01*
X143683618Y-130166666D01*
X143683621Y-130166671D01*
X143685944Y-130171653D01*
X143689100Y-130176160D01*
X143689101Y-130176162D01*
X143800123Y-130334717D01*
X143812251Y-130352038D01*
X143967962Y-130507749D01*
X144148346Y-130634056D01*
X144347924Y-130727120D01*
X144560629Y-130784115D01*
X144780000Y-130803307D01*
X144999371Y-130784115D01*
X145212076Y-130727120D01*
X145411654Y-130634056D01*
X145592038Y-130507749D01*
X145747749Y-130352038D01*
X145759878Y-130334717D01*
X145870899Y-130176162D01*
X145870900Y-130176160D01*
X145874056Y-130171653D01*
X145876379Y-130166671D01*
X145876382Y-130166666D01*
X145935805Y-130039231D01*
X145982722Y-129985946D01*
X146050999Y-129966485D01*
X146118959Y-129987027D01*
X146164195Y-130039231D01*
X146223618Y-130166666D01*
X146223621Y-130166671D01*
X146225944Y-130171653D01*
X146229100Y-130176160D01*
X146229101Y-130176162D01*
X146340123Y-130334717D01*
X146352251Y-130352038D01*
X146507962Y-130507749D01*
X146688346Y-130634056D01*
X146887924Y-130727120D01*
X147100629Y-130784115D01*
X147320000Y-130803307D01*
X147539371Y-130784115D01*
X147752076Y-130727120D01*
X147951654Y-130634056D01*
X148132038Y-130507749D01*
X148287749Y-130352038D01*
X148299878Y-130334717D01*
X148372287Y-130231305D01*
X148427744Y-130186977D01*
X148498363Y-130179668D01*
X148561724Y-130211699D01*
X148597709Y-130272900D01*
X148601500Y-130303576D01*
X148601500Y-130338134D01*
X148608255Y-130400316D01*
X148659385Y-130536705D01*
X148746739Y-130653261D01*
X148863295Y-130740615D01*
X148999684Y-130791745D01*
X149061866Y-130798500D01*
X150658134Y-130798500D01*
X150720316Y-130791745D01*
X150856705Y-130740615D01*
X150973261Y-130653261D01*
X151060615Y-130536705D01*
X151111745Y-130400316D01*
X151118500Y-130338134D01*
X151118500Y-128741866D01*
X151111745Y-128679684D01*
X151060615Y-128543295D01*
X150973261Y-128426739D01*
X150856705Y-128339385D01*
X150720316Y-128288255D01*
X150658134Y-128281500D01*
X149061866Y-128281500D01*
X148999684Y-128288255D01*
X148863295Y-128339385D01*
X148746739Y-128426739D01*
X148659385Y-128543295D01*
X148608255Y-128679684D01*
X148601500Y-128741866D01*
X148601500Y-128776424D01*
X148581498Y-128844545D01*
X148527842Y-128891038D01*
X148457568Y-128901142D01*
X148392988Y-128871648D01*
X148372287Y-128848695D01*
X148290908Y-128732473D01*
X148290906Y-128732470D01*
X148287749Y-128727962D01*
X148132038Y-128572251D01*
X147951654Y-128445944D01*
X147752076Y-128352880D01*
X147539371Y-128295885D01*
X147320000Y-128276693D01*
X147100629Y-128295885D01*
X146887924Y-128352880D01*
X146794562Y-128396415D01*
X146693334Y-128443618D01*
X146693329Y-128443621D01*
X146688347Y-128445944D01*
X146683840Y-128449100D01*
X146683838Y-128449101D01*
X146512473Y-128569092D01*
X146512470Y-128569094D01*
X146507962Y-128572251D01*
X146352251Y-128727962D01*
X146349094Y-128732470D01*
X146349092Y-128732473D01*
X146257214Y-128863689D01*
X146225944Y-128908347D01*
X146223621Y-128913329D01*
X146223618Y-128913334D01*
X146164195Y-129040769D01*
X146117278Y-129094054D01*
X146049001Y-129113515D01*
X145981041Y-129092973D01*
X145935805Y-129040769D01*
X145876382Y-128913334D01*
X145876379Y-128913329D01*
X145874056Y-128908347D01*
X145842786Y-128863689D01*
X145750908Y-128732473D01*
X145750906Y-128732470D01*
X145747749Y-128727962D01*
X145592038Y-128572251D01*
X145411654Y-128445944D01*
X145212076Y-128352880D01*
X144999371Y-128295885D01*
X144780000Y-128276693D01*
X144560629Y-128295885D01*
X144347924Y-128352880D01*
X144254562Y-128396415D01*
X144153334Y-128443618D01*
X144153329Y-128443621D01*
X144148347Y-128445944D01*
X144143840Y-128449100D01*
X144143838Y-128449101D01*
X143972473Y-128569092D01*
X143972470Y-128569094D01*
X143967962Y-128572251D01*
X143812251Y-128727962D01*
X143809094Y-128732470D01*
X143809092Y-128732473D01*
X143717214Y-128863689D01*
X143685944Y-128908347D01*
X143683621Y-128913329D01*
X143683618Y-128913334D01*
X143623919Y-129041360D01*
X143577002Y-129094645D01*
X143508724Y-129114106D01*
X143440764Y-129093564D01*
X143395529Y-129041360D01*
X143335946Y-128913583D01*
X143330466Y-128904093D01*
X143301589Y-128862851D01*
X143291113Y-128854477D01*
X143277666Y-128861545D01*
X142612021Y-129527189D01*
X142604408Y-129541132D01*
X141874356Y-129541132D01*
X141875592Y-129538868D01*
X141875461Y-129537034D01*
X141871210Y-129530420D01*
X141201609Y-128860820D01*
X141189839Y-128854393D01*
X141177824Y-128863689D01*
X141149534Y-128904093D01*
X141144054Y-128913583D01*
X141055674Y-129103113D01*
X141051928Y-129113405D01*
X140997804Y-129315401D01*
X140995901Y-129326196D01*
X140977674Y-129534525D01*
X140977674Y-129545475D01*
X130048500Y-129545475D01*
X130048500Y-128488887D01*
X141554477Y-128488887D01*
X141561545Y-128502334D01*
X142227189Y-129167979D01*
X142241132Y-129175592D01*
X142242966Y-129175461D01*
X142249580Y-129171210D01*
X142919180Y-128501609D01*
X142925607Y-128489839D01*
X142916313Y-128477825D01*
X142875912Y-128449536D01*
X142866416Y-128444053D01*
X142676887Y-128355674D01*
X142666595Y-128351928D01*
X142464599Y-128297804D01*
X142453804Y-128295901D01*
X142245475Y-128277674D01*
X142234525Y-128277674D01*
X142026196Y-128295901D01*
X142015401Y-128297804D01*
X141813405Y-128351928D01*
X141803113Y-128355674D01*
X141613583Y-128444054D01*
X141604093Y-128449534D01*
X141562851Y-128478411D01*
X141554477Y-128488887D01*
X130048500Y-128488887D01*
X130048500Y-124426695D01*
X130717251Y-124426695D01*
X130717548Y-124431848D01*
X130717548Y-124431851D01*
X130723011Y-124526590D01*
X130730110Y-124649715D01*
X130731247Y-124654761D01*
X130731248Y-124654767D01*
X130745449Y-124717778D01*
X130779222Y-124867639D01*
X130863266Y-125074616D01*
X130979987Y-125265088D01*
X131126250Y-125433938D01*
X131298126Y-125576632D01*
X131491000Y-125689338D01*
X131699692Y-125769030D01*
X131704760Y-125770061D01*
X131704763Y-125770062D01*
X131799862Y-125789410D01*
X131918597Y-125813567D01*
X131923772Y-125813757D01*
X131923774Y-125813757D01*
X132136673Y-125821564D01*
X132136677Y-125821564D01*
X132141837Y-125821753D01*
X132146957Y-125821097D01*
X132146959Y-125821097D01*
X132358288Y-125794025D01*
X132358289Y-125794025D01*
X132363416Y-125793368D01*
X132368366Y-125791883D01*
X132572429Y-125730661D01*
X132572434Y-125730659D01*
X132577384Y-125729174D01*
X132777994Y-125630896D01*
X132959860Y-125501173D01*
X133118096Y-125343489D01*
X133177594Y-125260689D01*
X133245435Y-125166277D01*
X133248453Y-125162077D01*
X133347430Y-124961811D01*
X133412370Y-124748069D01*
X133415017Y-124727966D01*
X156148257Y-124727966D01*
X156178565Y-124862446D01*
X156181645Y-124872275D01*
X156261770Y-125069603D01*
X156266413Y-125078794D01*
X156377694Y-125260388D01*
X156383777Y-125268699D01*
X156523213Y-125429667D01*
X156530580Y-125436883D01*
X156694434Y-125572916D01*
X156702881Y-125578831D01*
X156886756Y-125686279D01*
X156896042Y-125690729D01*
X157095001Y-125766703D01*
X157104899Y-125769579D01*
X157208250Y-125790606D01*
X157222299Y-125789410D01*
X157226000Y-125779065D01*
X157226000Y-125778517D01*
X157734000Y-125778517D01*
X157738064Y-125792359D01*
X157751478Y-125794393D01*
X157758184Y-125793534D01*
X157768262Y-125791392D01*
X157972255Y-125730191D01*
X157981842Y-125726433D01*
X158173095Y-125632739D01*
X158181945Y-125627464D01*
X158355328Y-125503792D01*
X158363200Y-125497139D01*
X158514052Y-125346812D01*
X158520730Y-125338965D01*
X158645003Y-125166020D01*
X158650313Y-125157183D01*
X158744670Y-124966267D01*
X158748469Y-124956672D01*
X158810377Y-124752910D01*
X158812555Y-124742837D01*
X158813986Y-124731962D01*
X158811775Y-124717778D01*
X158798617Y-124714000D01*
X157752115Y-124714000D01*
X157736876Y-124718475D01*
X157735671Y-124719865D01*
X157734000Y-124727548D01*
X157734000Y-125778517D01*
X157226000Y-125778517D01*
X157226000Y-124732115D01*
X157221525Y-124716876D01*
X157220135Y-124715671D01*
X157212452Y-124714000D01*
X156163225Y-124714000D01*
X156149694Y-124717973D01*
X156148257Y-124727966D01*
X133415017Y-124727966D01*
X133441529Y-124526590D01*
X133443156Y-124460000D01*
X133424852Y-124237361D01*
X133370431Y-124020702D01*
X133281354Y-123815840D01*
X133160014Y-123628277D01*
X133009670Y-123463051D01*
X133005619Y-123459852D01*
X133005615Y-123459848D01*
X132838414Y-123327800D01*
X132838410Y-123327798D01*
X132834359Y-123324598D01*
X132793053Y-123301796D01*
X132743084Y-123251364D01*
X132728312Y-123181921D01*
X132753428Y-123115516D01*
X132780780Y-123088909D01*
X132824603Y-123057650D01*
X132959860Y-122961173D01*
X133118096Y-122803489D01*
X133177594Y-122720689D01*
X133245435Y-122626277D01*
X133248453Y-122622077D01*
X133347430Y-122421811D01*
X133412370Y-122208069D01*
X133441529Y-121986590D01*
X133443156Y-121920000D01*
X133440418Y-121886695D01*
X156117251Y-121886695D01*
X156117548Y-121891848D01*
X156117548Y-121891851D01*
X156123011Y-121986590D01*
X156130110Y-122109715D01*
X156131247Y-122114761D01*
X156131248Y-122114767D01*
X156151119Y-122202939D01*
X156179222Y-122327639D01*
X156263266Y-122534616D01*
X156379987Y-122725088D01*
X156526250Y-122893938D01*
X156698126Y-123036632D01*
X156771445Y-123079476D01*
X156771955Y-123079774D01*
X156820679Y-123131412D01*
X156833750Y-123201195D01*
X156807019Y-123266967D01*
X156766562Y-123300327D01*
X156758457Y-123304546D01*
X156749738Y-123310036D01*
X156579433Y-123437905D01*
X156571726Y-123444748D01*
X156424590Y-123598717D01*
X156418104Y-123606727D01*
X156298098Y-123782649D01*
X156293000Y-123791623D01*
X156203338Y-123984783D01*
X156199775Y-123994470D01*
X156144389Y-124194183D01*
X156145912Y-124202607D01*
X156158292Y-124206000D01*
X158798344Y-124206000D01*
X158811875Y-124202027D01*
X158813180Y-124192947D01*
X158771214Y-124025875D01*
X158767894Y-124016124D01*
X158682972Y-123820814D01*
X158678105Y-123811739D01*
X158562426Y-123632926D01*
X158556136Y-123624757D01*
X158412806Y-123467240D01*
X158405273Y-123460215D01*
X158238139Y-123328222D01*
X158229556Y-123322520D01*
X158192602Y-123302120D01*
X158142631Y-123251687D01*
X158127859Y-123182245D01*
X158152975Y-123115839D01*
X158180327Y-123089232D01*
X158203797Y-123072491D01*
X158359860Y-122961173D01*
X158518096Y-122803489D01*
X158577594Y-122720689D01*
X158645435Y-122626277D01*
X158648453Y-122622077D01*
X158747430Y-122421811D01*
X158812370Y-122208069D01*
X158841529Y-121986590D01*
X158843156Y-121920000D01*
X158824852Y-121697361D01*
X158770431Y-121480702D01*
X158681354Y-121275840D01*
X158560014Y-121088277D01*
X158409670Y-120923051D01*
X158405619Y-120919852D01*
X158405615Y-120919848D01*
X158238414Y-120787800D01*
X158238410Y-120787798D01*
X158234359Y-120784598D01*
X158193053Y-120761796D01*
X158143084Y-120711364D01*
X158128312Y-120641921D01*
X158153428Y-120575516D01*
X158180780Y-120548909D01*
X158224603Y-120517650D01*
X158359860Y-120421173D01*
X158518096Y-120263489D01*
X158577594Y-120180689D01*
X158645435Y-120086277D01*
X158648453Y-120082077D01*
X158747430Y-119881811D01*
X158812370Y-119668069D01*
X158841529Y-119446590D01*
X158843156Y-119380000D01*
X158824852Y-119157361D01*
X158770431Y-118940702D01*
X158681354Y-118735840D01*
X158560014Y-118548277D01*
X158409670Y-118383051D01*
X158405619Y-118379852D01*
X158405615Y-118379848D01*
X158238414Y-118247800D01*
X158238410Y-118247798D01*
X158234359Y-118244598D01*
X158193053Y-118221796D01*
X158143084Y-118171364D01*
X158128312Y-118101921D01*
X158153428Y-118035516D01*
X158180780Y-118008909D01*
X158224603Y-117977650D01*
X158359860Y-117881173D01*
X158518096Y-117723489D01*
X158577594Y-117640689D01*
X158645435Y-117546277D01*
X158648453Y-117542077D01*
X158747430Y-117341811D01*
X158812370Y-117128069D01*
X158841529Y-116906590D01*
X158843156Y-116840000D01*
X158824852Y-116617361D01*
X158770431Y-116400702D01*
X158681354Y-116195840D01*
X158560014Y-116008277D01*
X158409670Y-115843051D01*
X158405619Y-115839852D01*
X158405615Y-115839848D01*
X158238414Y-115707800D01*
X158238410Y-115707798D01*
X158234359Y-115704598D01*
X158193053Y-115681796D01*
X158143084Y-115631364D01*
X158128312Y-115561921D01*
X158153428Y-115495516D01*
X158180780Y-115468909D01*
X158224603Y-115437650D01*
X158359860Y-115341173D01*
X158518096Y-115183489D01*
X158577594Y-115100689D01*
X158645435Y-115006277D01*
X158648453Y-115002077D01*
X158747430Y-114801811D01*
X158812370Y-114588069D01*
X158841529Y-114366590D01*
X158843156Y-114300000D01*
X158824852Y-114077361D01*
X158770431Y-113860702D01*
X158681354Y-113655840D01*
X158560014Y-113468277D01*
X158409670Y-113303051D01*
X158405619Y-113299852D01*
X158405615Y-113299848D01*
X158238414Y-113167800D01*
X158238410Y-113167798D01*
X158234359Y-113164598D01*
X158193053Y-113141796D01*
X158143084Y-113091364D01*
X158128312Y-113021921D01*
X158153428Y-112955516D01*
X158180780Y-112928909D01*
X158224603Y-112897650D01*
X158359860Y-112801173D01*
X158518096Y-112643489D01*
X158577594Y-112560689D01*
X158645435Y-112466277D01*
X158648453Y-112462077D01*
X158747430Y-112261811D01*
X158812370Y-112048069D01*
X158841529Y-111826590D01*
X158843156Y-111760000D01*
X158824852Y-111537361D01*
X158770431Y-111320702D01*
X158681354Y-111115840D01*
X158560014Y-110928277D01*
X158409670Y-110763051D01*
X158405619Y-110759852D01*
X158405615Y-110759848D01*
X158238414Y-110627800D01*
X158238410Y-110627798D01*
X158234359Y-110624598D01*
X158192569Y-110601529D01*
X158142598Y-110551097D01*
X158127826Y-110481654D01*
X158152942Y-110415248D01*
X158180294Y-110388641D01*
X158355328Y-110263792D01*
X158363200Y-110257139D01*
X158514052Y-110106812D01*
X158520730Y-110098965D01*
X158645003Y-109926020D01*
X158650313Y-109917183D01*
X158744670Y-109726267D01*
X158748469Y-109716672D01*
X158810377Y-109512910D01*
X158812555Y-109502837D01*
X158813986Y-109491962D01*
X158811775Y-109477778D01*
X158798617Y-109474000D01*
X156163225Y-109474000D01*
X156149694Y-109477973D01*
X156148257Y-109487966D01*
X156178565Y-109622446D01*
X156181645Y-109632275D01*
X156261770Y-109829603D01*
X156266413Y-109838794D01*
X156377694Y-110020388D01*
X156383777Y-110028699D01*
X156523213Y-110189667D01*
X156530580Y-110196883D01*
X156694434Y-110332916D01*
X156702881Y-110338831D01*
X156771969Y-110379203D01*
X156820693Y-110430842D01*
X156833764Y-110500625D01*
X156807033Y-110566396D01*
X156766584Y-110599752D01*
X156753607Y-110606507D01*
X156749474Y-110609610D01*
X156749471Y-110609612D01*
X156725247Y-110627800D01*
X156574965Y-110740635D01*
X156420629Y-110902138D01*
X156294743Y-111086680D01*
X156200688Y-111289305D01*
X156140989Y-111504570D01*
X156117251Y-111726695D01*
X156117548Y-111731848D01*
X156117548Y-111731851D01*
X156123011Y-111826590D01*
X156130110Y-111949715D01*
X156131247Y-111954761D01*
X156131248Y-111954767D01*
X156151119Y-112042939D01*
X156179222Y-112167639D01*
X156263266Y-112374616D01*
X156379987Y-112565088D01*
X156526250Y-112733938D01*
X156698126Y-112876632D01*
X156768595Y-112917811D01*
X156771445Y-112919476D01*
X156820169Y-112971114D01*
X156833240Y-113040897D01*
X156806509Y-113106669D01*
X156766055Y-113140027D01*
X156753607Y-113146507D01*
X156749474Y-113149610D01*
X156749471Y-113149612D01*
X156725247Y-113167800D01*
X156574965Y-113280635D01*
X156420629Y-113442138D01*
X156294743Y-113626680D01*
X156200688Y-113829305D01*
X156140989Y-114044570D01*
X156117251Y-114266695D01*
X156117548Y-114271848D01*
X156117548Y-114271851D01*
X156123011Y-114366590D01*
X156130110Y-114489715D01*
X156131247Y-114494761D01*
X156131248Y-114494767D01*
X156151119Y-114582939D01*
X156179222Y-114707639D01*
X156263266Y-114914616D01*
X156379987Y-115105088D01*
X156526250Y-115273938D01*
X156698126Y-115416632D01*
X156768595Y-115457811D01*
X156771445Y-115459476D01*
X156820169Y-115511114D01*
X156833240Y-115580897D01*
X156806509Y-115646669D01*
X156766055Y-115680027D01*
X156753607Y-115686507D01*
X156749474Y-115689610D01*
X156749471Y-115689612D01*
X156725247Y-115707800D01*
X156574965Y-115820635D01*
X156420629Y-115982138D01*
X156294743Y-116166680D01*
X156200688Y-116369305D01*
X156140989Y-116584570D01*
X156117251Y-116806695D01*
X156117548Y-116811848D01*
X156117548Y-116811851D01*
X156123011Y-116906590D01*
X156130110Y-117029715D01*
X156131247Y-117034761D01*
X156131248Y-117034767D01*
X156151119Y-117122939D01*
X156179222Y-117247639D01*
X156263266Y-117454616D01*
X156379987Y-117645088D01*
X156526250Y-117813938D01*
X156698126Y-117956632D01*
X156768595Y-117997811D01*
X156771445Y-117999476D01*
X156820169Y-118051114D01*
X156833240Y-118120897D01*
X156806509Y-118186669D01*
X156766055Y-118220027D01*
X156753607Y-118226507D01*
X156749474Y-118229610D01*
X156749471Y-118229612D01*
X156725247Y-118247800D01*
X156574965Y-118360635D01*
X156420629Y-118522138D01*
X156294743Y-118706680D01*
X156200688Y-118909305D01*
X156140989Y-119124570D01*
X156117251Y-119346695D01*
X156117548Y-119351848D01*
X156117548Y-119351851D01*
X156123011Y-119446590D01*
X156130110Y-119569715D01*
X156131247Y-119574761D01*
X156131248Y-119574767D01*
X156151119Y-119662939D01*
X156179222Y-119787639D01*
X156263266Y-119994616D01*
X156379987Y-120185088D01*
X156526250Y-120353938D01*
X156698126Y-120496632D01*
X156768595Y-120537811D01*
X156771445Y-120539476D01*
X156820169Y-120591114D01*
X156833240Y-120660897D01*
X156806509Y-120726669D01*
X156766055Y-120760027D01*
X156753607Y-120766507D01*
X156749474Y-120769610D01*
X156749471Y-120769612D01*
X156725247Y-120787800D01*
X156574965Y-120900635D01*
X156420629Y-121062138D01*
X156294743Y-121246680D01*
X156200688Y-121449305D01*
X156140989Y-121664570D01*
X156117251Y-121886695D01*
X133440418Y-121886695D01*
X133424852Y-121697361D01*
X133370431Y-121480702D01*
X133281354Y-121275840D01*
X133160014Y-121088277D01*
X133009670Y-120923051D01*
X133005619Y-120919852D01*
X133005615Y-120919848D01*
X132838414Y-120787800D01*
X132838410Y-120787798D01*
X132834359Y-120784598D01*
X132793053Y-120761796D01*
X132743084Y-120711364D01*
X132728312Y-120641921D01*
X132753428Y-120575516D01*
X132780780Y-120548909D01*
X132824603Y-120517650D01*
X132959860Y-120421173D01*
X133118096Y-120263489D01*
X133177594Y-120180689D01*
X133245435Y-120086277D01*
X133248453Y-120082077D01*
X133347430Y-119881811D01*
X133412370Y-119668069D01*
X133441529Y-119446590D01*
X133443156Y-119380000D01*
X133424852Y-119157361D01*
X133370431Y-118940702D01*
X133281354Y-118735840D01*
X133160014Y-118548277D01*
X133009670Y-118383051D01*
X133005619Y-118379852D01*
X133005615Y-118379848D01*
X132838414Y-118247800D01*
X132838410Y-118247798D01*
X132834359Y-118244598D01*
X132793053Y-118221796D01*
X132743084Y-118171364D01*
X132728312Y-118101921D01*
X132753428Y-118035516D01*
X132780780Y-118008909D01*
X132824603Y-117977650D01*
X132959860Y-117881173D01*
X133118096Y-117723489D01*
X133177594Y-117640689D01*
X133245435Y-117546277D01*
X133248453Y-117542077D01*
X133347430Y-117341811D01*
X133412370Y-117128069D01*
X133441529Y-116906590D01*
X133443156Y-116840000D01*
X133424852Y-116617361D01*
X133370431Y-116400702D01*
X133281354Y-116195840D01*
X133160014Y-116008277D01*
X133009670Y-115843051D01*
X133005619Y-115839852D01*
X133005615Y-115839848D01*
X132838414Y-115707800D01*
X132838410Y-115707798D01*
X132834359Y-115704598D01*
X132793053Y-115681796D01*
X132743084Y-115631364D01*
X132728312Y-115561921D01*
X132753428Y-115495516D01*
X132780780Y-115468909D01*
X132824603Y-115437650D01*
X132959860Y-115341173D01*
X133118096Y-115183489D01*
X133177594Y-115100689D01*
X133245435Y-115006277D01*
X133248453Y-115002077D01*
X133347430Y-114801811D01*
X133412370Y-114588069D01*
X133441529Y-114366590D01*
X133443156Y-114300000D01*
X133424852Y-114077361D01*
X133370431Y-113860702D01*
X133281354Y-113655840D01*
X133160014Y-113468277D01*
X133009670Y-113303051D01*
X133005619Y-113299852D01*
X133005615Y-113299848D01*
X132838414Y-113167800D01*
X132838410Y-113167798D01*
X132834359Y-113164598D01*
X132793053Y-113141796D01*
X132743084Y-113091364D01*
X132728312Y-113021921D01*
X132753428Y-112955516D01*
X132780780Y-112928909D01*
X132824603Y-112897650D01*
X132959860Y-112801173D01*
X133118096Y-112643489D01*
X133177594Y-112560689D01*
X133245435Y-112466277D01*
X133248453Y-112462077D01*
X133347430Y-112261811D01*
X133412370Y-112048069D01*
X133441529Y-111826590D01*
X133443156Y-111760000D01*
X133424852Y-111537361D01*
X133370431Y-111320702D01*
X133281354Y-111115840D01*
X133160014Y-110928277D01*
X133009670Y-110763051D01*
X133005619Y-110759852D01*
X133005615Y-110759848D01*
X132838414Y-110627800D01*
X132838410Y-110627798D01*
X132834359Y-110624598D01*
X132792569Y-110601529D01*
X132742598Y-110551097D01*
X132727826Y-110481654D01*
X132752942Y-110415248D01*
X132780294Y-110388641D01*
X132955328Y-110263792D01*
X132963200Y-110257139D01*
X133114052Y-110106812D01*
X133120730Y-110098965D01*
X133245003Y-109926020D01*
X133250313Y-109917183D01*
X133344670Y-109726267D01*
X133348469Y-109716672D01*
X133410377Y-109512910D01*
X133412555Y-109502837D01*
X133413986Y-109491962D01*
X133411775Y-109477778D01*
X133398617Y-109474000D01*
X130763225Y-109474000D01*
X130749694Y-109477973D01*
X130748257Y-109487966D01*
X130778565Y-109622446D01*
X130781645Y-109632275D01*
X130861770Y-109829603D01*
X130866413Y-109838794D01*
X130977694Y-110020388D01*
X130983777Y-110028699D01*
X131123213Y-110189667D01*
X131130580Y-110196883D01*
X131294434Y-110332916D01*
X131302881Y-110338831D01*
X131371969Y-110379203D01*
X131420693Y-110430842D01*
X131433764Y-110500625D01*
X131407033Y-110566396D01*
X131366584Y-110599752D01*
X131353607Y-110606507D01*
X131349474Y-110609610D01*
X131349471Y-110609612D01*
X131325247Y-110627800D01*
X131174965Y-110740635D01*
X131020629Y-110902138D01*
X130894743Y-111086680D01*
X130800688Y-111289305D01*
X130740989Y-111504570D01*
X130717251Y-111726695D01*
X130717548Y-111731848D01*
X130717548Y-111731851D01*
X130723011Y-111826590D01*
X130730110Y-111949715D01*
X130731247Y-111954761D01*
X130731248Y-111954767D01*
X130751119Y-112042939D01*
X130779222Y-112167639D01*
X130863266Y-112374616D01*
X130979987Y-112565088D01*
X131126250Y-112733938D01*
X131298126Y-112876632D01*
X131368595Y-112917811D01*
X131371445Y-112919476D01*
X131420169Y-112971114D01*
X131433240Y-113040897D01*
X131406509Y-113106669D01*
X131366055Y-113140027D01*
X131353607Y-113146507D01*
X131349474Y-113149610D01*
X131349471Y-113149612D01*
X131325247Y-113167800D01*
X131174965Y-113280635D01*
X131020629Y-113442138D01*
X130894743Y-113626680D01*
X130800688Y-113829305D01*
X130740989Y-114044570D01*
X130717251Y-114266695D01*
X130717548Y-114271848D01*
X130717548Y-114271851D01*
X130723011Y-114366590D01*
X130730110Y-114489715D01*
X130731247Y-114494761D01*
X130731248Y-114494767D01*
X130751119Y-114582939D01*
X130779222Y-114707639D01*
X130863266Y-114914616D01*
X130979987Y-115105088D01*
X131126250Y-115273938D01*
X131298126Y-115416632D01*
X131368595Y-115457811D01*
X131371445Y-115459476D01*
X131420169Y-115511114D01*
X131433240Y-115580897D01*
X131406509Y-115646669D01*
X131366055Y-115680027D01*
X131353607Y-115686507D01*
X131349474Y-115689610D01*
X131349471Y-115689612D01*
X131325247Y-115707800D01*
X131174965Y-115820635D01*
X131020629Y-115982138D01*
X130894743Y-116166680D01*
X130800688Y-116369305D01*
X130740989Y-116584570D01*
X130717251Y-116806695D01*
X130717548Y-116811848D01*
X130717548Y-116811851D01*
X130723011Y-116906590D01*
X130730110Y-117029715D01*
X130731247Y-117034761D01*
X130731248Y-117034767D01*
X130751119Y-117122939D01*
X130779222Y-117247639D01*
X130863266Y-117454616D01*
X130979987Y-117645088D01*
X131126250Y-117813938D01*
X131298126Y-117956632D01*
X131368595Y-117997811D01*
X131371445Y-117999476D01*
X131420169Y-118051114D01*
X131433240Y-118120897D01*
X131406509Y-118186669D01*
X131366055Y-118220027D01*
X131353607Y-118226507D01*
X131349474Y-118229610D01*
X131349471Y-118229612D01*
X131325247Y-118247800D01*
X131174965Y-118360635D01*
X131020629Y-118522138D01*
X130894743Y-118706680D01*
X130800688Y-118909305D01*
X130740989Y-119124570D01*
X130717251Y-119346695D01*
X130717548Y-119351848D01*
X130717548Y-119351851D01*
X130723011Y-119446590D01*
X130730110Y-119569715D01*
X130731247Y-119574761D01*
X130731248Y-119574767D01*
X130751119Y-119662939D01*
X130779222Y-119787639D01*
X130863266Y-119994616D01*
X130979987Y-120185088D01*
X131126250Y-120353938D01*
X131298126Y-120496632D01*
X131368595Y-120537811D01*
X131371445Y-120539476D01*
X131420169Y-120591114D01*
X131433240Y-120660897D01*
X131406509Y-120726669D01*
X131366055Y-120760027D01*
X131353607Y-120766507D01*
X131349474Y-120769610D01*
X131349471Y-120769612D01*
X131325247Y-120787800D01*
X131174965Y-120900635D01*
X131020629Y-121062138D01*
X130894743Y-121246680D01*
X130800688Y-121449305D01*
X130740989Y-121664570D01*
X130717251Y-121886695D01*
X130717548Y-121891848D01*
X130717548Y-121891851D01*
X130723011Y-121986590D01*
X130730110Y-122109715D01*
X130731247Y-122114761D01*
X130731248Y-122114767D01*
X130751119Y-122202939D01*
X130779222Y-122327639D01*
X130863266Y-122534616D01*
X130979987Y-122725088D01*
X131126250Y-122893938D01*
X131298126Y-123036632D01*
X131368595Y-123077811D01*
X131371445Y-123079476D01*
X131420169Y-123131114D01*
X131433240Y-123200897D01*
X131406509Y-123266669D01*
X131366055Y-123300027D01*
X131353607Y-123306507D01*
X131349474Y-123309610D01*
X131349471Y-123309612D01*
X131325247Y-123327800D01*
X131174965Y-123440635D01*
X131020629Y-123602138D01*
X131017715Y-123606410D01*
X131017714Y-123606411D01*
X131005404Y-123624457D01*
X130894743Y-123786680D01*
X130800688Y-123989305D01*
X130740989Y-124204570D01*
X130717251Y-124426695D01*
X130048500Y-124426695D01*
X130048500Y-106646695D01*
X130717251Y-106646695D01*
X130717548Y-106651848D01*
X130717548Y-106651851D01*
X130723011Y-106746590D01*
X130730110Y-106869715D01*
X130731247Y-106874761D01*
X130731248Y-106874767D01*
X130751119Y-106962939D01*
X130779222Y-107087639D01*
X130863266Y-107294616D01*
X130979987Y-107485088D01*
X131126250Y-107653938D01*
X131298126Y-107796632D01*
X131371955Y-107839774D01*
X131420679Y-107891412D01*
X131433750Y-107961195D01*
X131407019Y-108026967D01*
X131366562Y-108060327D01*
X131358457Y-108064546D01*
X131349738Y-108070036D01*
X131179433Y-108197905D01*
X131171726Y-108204748D01*
X131024590Y-108358717D01*
X131018104Y-108366727D01*
X130898098Y-108542649D01*
X130893000Y-108551623D01*
X130803338Y-108744783D01*
X130799775Y-108754470D01*
X130744389Y-108954183D01*
X130745912Y-108962607D01*
X130758292Y-108966000D01*
X133398344Y-108966000D01*
X133411875Y-108962027D01*
X133413180Y-108952947D01*
X133371214Y-108785875D01*
X133367894Y-108776124D01*
X133282972Y-108580814D01*
X133278105Y-108571739D01*
X133162426Y-108392926D01*
X133156136Y-108384757D01*
X133012806Y-108227240D01*
X133005273Y-108220215D01*
X132838139Y-108088222D01*
X132829556Y-108082520D01*
X132792602Y-108062120D01*
X132742631Y-108011687D01*
X132727859Y-107942245D01*
X132752975Y-107875839D01*
X132780327Y-107849232D01*
X132803797Y-107832491D01*
X132959860Y-107721173D01*
X133118096Y-107563489D01*
X133177594Y-107480689D01*
X133245435Y-107386277D01*
X133248453Y-107382077D01*
X133347430Y-107181811D01*
X133412370Y-106968069D01*
X133441529Y-106746590D01*
X133443156Y-106680000D01*
X133440418Y-106646695D01*
X156117251Y-106646695D01*
X156117548Y-106651848D01*
X156117548Y-106651851D01*
X156123011Y-106746590D01*
X156130110Y-106869715D01*
X156131247Y-106874761D01*
X156131248Y-106874767D01*
X156151119Y-106962939D01*
X156179222Y-107087639D01*
X156263266Y-107294616D01*
X156379987Y-107485088D01*
X156526250Y-107653938D01*
X156698126Y-107796632D01*
X156771955Y-107839774D01*
X156820679Y-107891412D01*
X156833750Y-107961195D01*
X156807019Y-108026967D01*
X156766562Y-108060327D01*
X156758457Y-108064546D01*
X156749738Y-108070036D01*
X156579433Y-108197905D01*
X156571726Y-108204748D01*
X156424590Y-108358717D01*
X156418104Y-108366727D01*
X156298098Y-108542649D01*
X156293000Y-108551623D01*
X156203338Y-108744783D01*
X156199775Y-108754470D01*
X156144389Y-108954183D01*
X156145912Y-108962607D01*
X156158292Y-108966000D01*
X158798344Y-108966000D01*
X158811875Y-108962027D01*
X158813180Y-108952947D01*
X158771214Y-108785875D01*
X158767894Y-108776124D01*
X158682972Y-108580814D01*
X158678105Y-108571739D01*
X158562426Y-108392926D01*
X158556136Y-108384757D01*
X158412806Y-108227240D01*
X158405273Y-108220215D01*
X158238139Y-108088222D01*
X158229556Y-108082520D01*
X158192602Y-108062120D01*
X158142631Y-108011687D01*
X158127859Y-107942245D01*
X158152975Y-107875839D01*
X158180327Y-107849232D01*
X158203797Y-107832491D01*
X158359860Y-107721173D01*
X158518096Y-107563489D01*
X158577594Y-107480689D01*
X158645435Y-107386277D01*
X158648453Y-107382077D01*
X158747430Y-107181811D01*
X158812370Y-106968069D01*
X158841529Y-106746590D01*
X158843156Y-106680000D01*
X158824852Y-106457361D01*
X158770431Y-106240702D01*
X158681354Y-106035840D01*
X158560014Y-105848277D01*
X158409670Y-105683051D01*
X158405619Y-105679852D01*
X158405615Y-105679848D01*
X158238414Y-105547800D01*
X158238410Y-105547798D01*
X158234359Y-105544598D01*
X158193053Y-105521796D01*
X158143084Y-105471364D01*
X158128312Y-105401921D01*
X158153428Y-105335516D01*
X158180780Y-105308909D01*
X158224603Y-105277650D01*
X158359860Y-105181173D01*
X158518096Y-105023489D01*
X158577594Y-104940689D01*
X158645435Y-104846277D01*
X158648453Y-104842077D01*
X158747430Y-104641811D01*
X158812370Y-104428069D01*
X158841529Y-104206590D01*
X158843156Y-104140000D01*
X158824852Y-103917361D01*
X158770431Y-103700702D01*
X158681354Y-103495840D01*
X158560014Y-103308277D01*
X158409670Y-103143051D01*
X158405619Y-103139852D01*
X158405615Y-103139848D01*
X158238414Y-103007800D01*
X158238410Y-103007798D01*
X158234359Y-103004598D01*
X158193053Y-102981796D01*
X158143084Y-102931364D01*
X158128312Y-102861921D01*
X158153428Y-102795516D01*
X158180780Y-102768909D01*
X158224603Y-102737650D01*
X158359860Y-102641173D01*
X158518096Y-102483489D01*
X158577594Y-102400689D01*
X158645435Y-102306277D01*
X158648453Y-102302077D01*
X158747430Y-102101811D01*
X158812370Y-101888069D01*
X158841529Y-101666590D01*
X158843156Y-101600000D01*
X158824852Y-101377361D01*
X158770431Y-101160702D01*
X158681354Y-100955840D01*
X158560014Y-100768277D01*
X158409670Y-100603051D01*
X158405619Y-100599852D01*
X158405615Y-100599848D01*
X158238414Y-100467800D01*
X158238410Y-100467798D01*
X158234359Y-100464598D01*
X158192569Y-100441529D01*
X158142598Y-100391097D01*
X158127826Y-100321654D01*
X158152942Y-100255248D01*
X158180294Y-100228641D01*
X158355328Y-100103792D01*
X158363200Y-100097139D01*
X158514052Y-99946812D01*
X158520730Y-99938965D01*
X158645003Y-99766020D01*
X158650313Y-99757183D01*
X158744670Y-99566267D01*
X158748469Y-99556672D01*
X158810377Y-99352910D01*
X158812555Y-99342837D01*
X158813986Y-99331962D01*
X158811775Y-99317778D01*
X158798617Y-99314000D01*
X156163225Y-99314000D01*
X156149694Y-99317973D01*
X156148257Y-99327966D01*
X156178565Y-99462446D01*
X156181645Y-99472275D01*
X156261770Y-99669603D01*
X156266413Y-99678794D01*
X156377694Y-99860388D01*
X156383777Y-99868699D01*
X156523213Y-100029667D01*
X156530580Y-100036883D01*
X156694434Y-100172916D01*
X156702881Y-100178831D01*
X156771969Y-100219203D01*
X156820693Y-100270842D01*
X156833764Y-100340625D01*
X156807033Y-100406396D01*
X156766584Y-100439752D01*
X156753607Y-100446507D01*
X156749474Y-100449610D01*
X156749471Y-100449612D01*
X156725247Y-100467800D01*
X156574965Y-100580635D01*
X156420629Y-100742138D01*
X156294743Y-100926680D01*
X156200688Y-101129305D01*
X156140989Y-101344570D01*
X156117251Y-101566695D01*
X156117548Y-101571848D01*
X156117548Y-101571851D01*
X156123011Y-101666590D01*
X156130110Y-101789715D01*
X156131247Y-101794761D01*
X156131248Y-101794767D01*
X156151119Y-101882939D01*
X156179222Y-102007639D01*
X156263266Y-102214616D01*
X156379987Y-102405088D01*
X156526250Y-102573938D01*
X156698126Y-102716632D01*
X156768595Y-102757811D01*
X156771445Y-102759476D01*
X156820169Y-102811114D01*
X156833240Y-102880897D01*
X156806509Y-102946669D01*
X156766055Y-102980027D01*
X156753607Y-102986507D01*
X156749474Y-102989610D01*
X156749471Y-102989612D01*
X156725247Y-103007800D01*
X156574965Y-103120635D01*
X156420629Y-103282138D01*
X156294743Y-103466680D01*
X156200688Y-103669305D01*
X156140989Y-103884570D01*
X156117251Y-104106695D01*
X156117548Y-104111848D01*
X156117548Y-104111851D01*
X156123011Y-104206590D01*
X156130110Y-104329715D01*
X156131247Y-104334761D01*
X156131248Y-104334767D01*
X156151119Y-104422939D01*
X156179222Y-104547639D01*
X156263266Y-104754616D01*
X156379987Y-104945088D01*
X156526250Y-105113938D01*
X156698126Y-105256632D01*
X156768595Y-105297811D01*
X156771445Y-105299476D01*
X156820169Y-105351114D01*
X156833240Y-105420897D01*
X156806509Y-105486669D01*
X156766055Y-105520027D01*
X156753607Y-105526507D01*
X156749474Y-105529610D01*
X156749471Y-105529612D01*
X156725247Y-105547800D01*
X156574965Y-105660635D01*
X156420629Y-105822138D01*
X156294743Y-106006680D01*
X156200688Y-106209305D01*
X156140989Y-106424570D01*
X156117251Y-106646695D01*
X133440418Y-106646695D01*
X133424852Y-106457361D01*
X133370431Y-106240702D01*
X133281354Y-106035840D01*
X133160014Y-105848277D01*
X133009670Y-105683051D01*
X133005619Y-105679852D01*
X133005615Y-105679848D01*
X132838414Y-105547800D01*
X132838410Y-105547798D01*
X132834359Y-105544598D01*
X132793053Y-105521796D01*
X132743084Y-105471364D01*
X132728312Y-105401921D01*
X132753428Y-105335516D01*
X132780780Y-105308909D01*
X132824603Y-105277650D01*
X132959860Y-105181173D01*
X133118096Y-105023489D01*
X133177594Y-104940689D01*
X133245435Y-104846277D01*
X133248453Y-104842077D01*
X133347430Y-104641811D01*
X133412370Y-104428069D01*
X133441529Y-104206590D01*
X133443156Y-104140000D01*
X133424852Y-103917361D01*
X133370431Y-103700702D01*
X133281354Y-103495840D01*
X133160014Y-103308277D01*
X133009670Y-103143051D01*
X133005619Y-103139852D01*
X133005615Y-103139848D01*
X132838414Y-103007800D01*
X132838410Y-103007798D01*
X132834359Y-103004598D01*
X132793053Y-102981796D01*
X132743084Y-102931364D01*
X132728312Y-102861921D01*
X132753428Y-102795516D01*
X132780780Y-102768909D01*
X132824603Y-102737650D01*
X132959860Y-102641173D01*
X133118096Y-102483489D01*
X133177594Y-102400689D01*
X133245435Y-102306277D01*
X133248453Y-102302077D01*
X133347430Y-102101811D01*
X133412370Y-101888069D01*
X133441529Y-101666590D01*
X133443156Y-101600000D01*
X133424852Y-101377361D01*
X133370431Y-101160702D01*
X133281354Y-100955840D01*
X133160014Y-100768277D01*
X133009670Y-100603051D01*
X133005619Y-100599852D01*
X133005615Y-100599848D01*
X132838414Y-100467800D01*
X132838410Y-100467798D01*
X132834359Y-100464598D01*
X132793053Y-100441796D01*
X132743084Y-100391364D01*
X132728312Y-100321921D01*
X132753428Y-100255516D01*
X132780780Y-100228909D01*
X132824603Y-100197650D01*
X132959860Y-100101173D01*
X133118096Y-99943489D01*
X133177594Y-99860689D01*
X133245435Y-99766277D01*
X133248453Y-99762077D01*
X133347430Y-99561811D01*
X133412370Y-99348069D01*
X133441529Y-99126590D01*
X133443156Y-99060000D01*
X133424852Y-98837361D01*
X133414006Y-98794183D01*
X156144389Y-98794183D01*
X156145912Y-98802607D01*
X156158292Y-98806000D01*
X157207885Y-98806000D01*
X157223124Y-98801525D01*
X157224329Y-98800135D01*
X157226000Y-98792452D01*
X157226000Y-98787885D01*
X157734000Y-98787885D01*
X157738475Y-98803124D01*
X157739865Y-98804329D01*
X157747548Y-98806000D01*
X158798344Y-98806000D01*
X158811875Y-98802027D01*
X158813180Y-98792947D01*
X158771214Y-98625875D01*
X158767894Y-98616124D01*
X158682972Y-98420814D01*
X158678105Y-98411739D01*
X158562426Y-98232926D01*
X158556136Y-98224757D01*
X158412806Y-98067240D01*
X158405273Y-98060215D01*
X158238139Y-97928222D01*
X158229552Y-97922517D01*
X158192116Y-97901851D01*
X158142146Y-97851419D01*
X158127374Y-97781976D01*
X158152490Y-97715571D01*
X158179842Y-97688964D01*
X158355327Y-97563792D01*
X158363200Y-97557139D01*
X158514052Y-97406812D01*
X158520730Y-97398965D01*
X158645003Y-97226020D01*
X158650313Y-97217183D01*
X158744670Y-97026267D01*
X158748469Y-97016672D01*
X158810377Y-96812910D01*
X158812555Y-96802837D01*
X158813986Y-96791962D01*
X158811775Y-96777778D01*
X158798617Y-96774000D01*
X157752115Y-96774000D01*
X157736876Y-96778475D01*
X157735671Y-96779865D01*
X157734000Y-96787548D01*
X157734000Y-98787885D01*
X157226000Y-98787885D01*
X157226000Y-96792115D01*
X157221525Y-96776876D01*
X157220135Y-96775671D01*
X157212452Y-96774000D01*
X156163225Y-96774000D01*
X156149694Y-96777973D01*
X156148257Y-96787966D01*
X156178565Y-96922446D01*
X156181645Y-96932275D01*
X156261770Y-97129603D01*
X156266413Y-97138794D01*
X156377694Y-97320388D01*
X156383777Y-97328699D01*
X156523213Y-97489667D01*
X156530580Y-97496883D01*
X156694434Y-97632916D01*
X156702881Y-97638831D01*
X156772479Y-97679501D01*
X156821203Y-97731140D01*
X156834274Y-97800923D01*
X156807543Y-97866694D01*
X156767087Y-97900053D01*
X156758462Y-97904542D01*
X156749738Y-97910036D01*
X156579433Y-98037905D01*
X156571726Y-98044748D01*
X156424590Y-98198717D01*
X156418104Y-98206727D01*
X156298098Y-98382649D01*
X156293000Y-98391623D01*
X156203338Y-98584783D01*
X156199775Y-98594470D01*
X156144389Y-98794183D01*
X133414006Y-98794183D01*
X133370431Y-98620702D01*
X133281354Y-98415840D01*
X133160014Y-98228277D01*
X133009670Y-98063051D01*
X133005619Y-98059852D01*
X133005615Y-98059848D01*
X132838414Y-97927800D01*
X132838410Y-97927798D01*
X132834359Y-97924598D01*
X132793053Y-97901796D01*
X132743084Y-97851364D01*
X132728312Y-97781921D01*
X132753428Y-97715516D01*
X132780780Y-97688909D01*
X132824603Y-97657650D01*
X132950101Y-97568134D01*
X139471500Y-97568134D01*
X139478255Y-97630316D01*
X139529385Y-97766705D01*
X139616739Y-97883261D01*
X139733295Y-97970615D01*
X139869684Y-98021745D01*
X139931866Y-98028500D01*
X142028134Y-98028500D01*
X142090316Y-98021745D01*
X142226705Y-97970615D01*
X142343261Y-97883261D01*
X142430615Y-97766705D01*
X142435876Y-97752670D01*
X147712160Y-97752670D01*
X147717887Y-97760320D01*
X147889042Y-97865205D01*
X147897837Y-97869687D01*
X148107988Y-97956734D01*
X148117373Y-97959783D01*
X148338554Y-98012885D01*
X148348301Y-98014428D01*
X148575070Y-98032275D01*
X148584930Y-98032275D01*
X148811699Y-98014428D01*
X148821446Y-98012885D01*
X149042627Y-97959783D01*
X149052012Y-97956734D01*
X149262163Y-97869687D01*
X149270958Y-97865205D01*
X149438445Y-97762568D01*
X149447907Y-97752110D01*
X149444124Y-97743334D01*
X148592812Y-96892022D01*
X148578868Y-96884408D01*
X148577035Y-96884539D01*
X148570420Y-96888790D01*
X147718920Y-97740290D01*
X147712160Y-97752670D01*
X142435876Y-97752670D01*
X142481745Y-97630316D01*
X142488500Y-97568134D01*
X142488500Y-96524930D01*
X147067725Y-96524930D01*
X147085572Y-96751699D01*
X147087115Y-96761446D01*
X147140217Y-96982627D01*
X147143266Y-96992012D01*
X147230313Y-97202163D01*
X147234795Y-97210958D01*
X147337432Y-97378445D01*
X147347890Y-97387907D01*
X147356666Y-97384124D01*
X148207978Y-96532812D01*
X148214356Y-96521132D01*
X148944408Y-96521132D01*
X148944539Y-96522965D01*
X148948790Y-96529580D01*
X149800290Y-97381080D01*
X149812670Y-97387840D01*
X149820320Y-97382113D01*
X149925205Y-97210958D01*
X149929687Y-97202163D01*
X150016734Y-96992012D01*
X150019783Y-96982627D01*
X150072885Y-96761446D01*
X150074428Y-96751699D01*
X150092275Y-96524930D01*
X150092275Y-96515070D01*
X150074428Y-96288301D01*
X150072885Y-96278554D01*
X150019783Y-96057373D01*
X150016734Y-96047988D01*
X149929687Y-95837837D01*
X149925205Y-95829042D01*
X149822568Y-95661555D01*
X149812110Y-95652093D01*
X149803334Y-95655876D01*
X148952022Y-96507188D01*
X148944408Y-96521132D01*
X148214356Y-96521132D01*
X148215592Y-96518868D01*
X148215461Y-96517035D01*
X148211210Y-96510420D01*
X147359710Y-95658920D01*
X147347330Y-95652160D01*
X147339680Y-95657887D01*
X147234795Y-95829042D01*
X147230313Y-95837837D01*
X147143266Y-96047988D01*
X147140217Y-96057373D01*
X147087115Y-96278554D01*
X147085572Y-96288301D01*
X147067725Y-96515070D01*
X147067725Y-96524930D01*
X142488500Y-96524930D01*
X142488500Y-95471866D01*
X142481745Y-95409684D01*
X142436086Y-95287890D01*
X147712093Y-95287890D01*
X147715876Y-95296666D01*
X148567188Y-96147978D01*
X148581132Y-96155592D01*
X148582965Y-96155461D01*
X148589580Y-96151210D01*
X149441080Y-95299710D01*
X149447840Y-95287330D01*
X149442113Y-95279680D01*
X149270958Y-95174795D01*
X149262163Y-95170313D01*
X149052012Y-95083266D01*
X149042627Y-95080217D01*
X148821446Y-95027115D01*
X148811699Y-95025572D01*
X148584930Y-95007725D01*
X148575070Y-95007725D01*
X148348301Y-95025572D01*
X148338554Y-95027115D01*
X148117373Y-95080217D01*
X148107988Y-95083266D01*
X147897837Y-95170313D01*
X147889042Y-95174795D01*
X147721555Y-95277432D01*
X147712093Y-95287890D01*
X142436086Y-95287890D01*
X142430615Y-95273295D01*
X142343261Y-95156739D01*
X142226705Y-95069385D01*
X142090316Y-95018255D01*
X142028134Y-95011500D01*
X139931866Y-95011500D01*
X139869684Y-95018255D01*
X139733295Y-95069385D01*
X139616739Y-95156739D01*
X139529385Y-95273295D01*
X139478255Y-95409684D01*
X139471500Y-95471866D01*
X139471500Y-97568134D01*
X132950101Y-97568134D01*
X132959860Y-97561173D01*
X133118096Y-97403489D01*
X133134199Y-97381080D01*
X133245435Y-97226277D01*
X133248453Y-97222077D01*
X133253949Y-97210958D01*
X133345136Y-97026453D01*
X133345137Y-97026451D01*
X133347430Y-97021811D01*
X133412370Y-96808069D01*
X133441529Y-96586590D01*
X133443156Y-96520000D01*
X133424852Y-96297361D01*
X133370431Y-96080702D01*
X133281354Y-95875840D01*
X133160014Y-95688277D01*
X133009670Y-95523051D01*
X133005619Y-95519852D01*
X133005615Y-95519848D01*
X132838414Y-95387800D01*
X132838410Y-95387798D01*
X132834359Y-95384598D01*
X132793053Y-95361796D01*
X132743084Y-95311364D01*
X132728312Y-95241921D01*
X132753428Y-95175516D01*
X132780780Y-95148909D01*
X132824603Y-95117650D01*
X132959860Y-95021173D01*
X133118096Y-94863489D01*
X133177594Y-94780689D01*
X133245435Y-94686277D01*
X133248453Y-94682077D01*
X133347430Y-94481811D01*
X133412370Y-94268069D01*
X133441529Y-94046590D01*
X133443156Y-93980000D01*
X133440418Y-93946695D01*
X156117251Y-93946695D01*
X156117548Y-93951848D01*
X156117548Y-93951851D01*
X156123011Y-94046590D01*
X156130110Y-94169715D01*
X156131247Y-94174761D01*
X156131248Y-94174767D01*
X156151119Y-94262939D01*
X156179222Y-94387639D01*
X156263266Y-94594616D01*
X156379987Y-94785088D01*
X156526250Y-94953938D01*
X156698126Y-95096632D01*
X156771445Y-95139476D01*
X156771955Y-95139774D01*
X156820679Y-95191412D01*
X156833750Y-95261195D01*
X156807019Y-95326967D01*
X156766562Y-95360327D01*
X156758457Y-95364546D01*
X156749738Y-95370036D01*
X156579433Y-95497905D01*
X156571726Y-95504748D01*
X156424590Y-95658717D01*
X156418104Y-95666727D01*
X156298098Y-95842649D01*
X156293000Y-95851623D01*
X156203338Y-96044783D01*
X156199775Y-96054470D01*
X156144389Y-96254183D01*
X156145912Y-96262607D01*
X156158292Y-96266000D01*
X158798344Y-96266000D01*
X158811875Y-96262027D01*
X158813180Y-96252947D01*
X158771214Y-96085875D01*
X158767894Y-96076124D01*
X158682972Y-95880814D01*
X158678105Y-95871739D01*
X158562426Y-95692926D01*
X158556136Y-95684757D01*
X158412806Y-95527240D01*
X158405273Y-95520215D01*
X158238139Y-95388222D01*
X158229556Y-95382520D01*
X158192602Y-95362120D01*
X158142631Y-95311687D01*
X158127859Y-95242245D01*
X158152975Y-95175839D01*
X158180327Y-95149232D01*
X158203797Y-95132491D01*
X158359860Y-95021173D01*
X158518096Y-94863489D01*
X158577594Y-94780689D01*
X158645435Y-94686277D01*
X158648453Y-94682077D01*
X158747430Y-94481811D01*
X158812370Y-94268069D01*
X158841529Y-94046590D01*
X158843156Y-93980000D01*
X158824852Y-93757361D01*
X158770431Y-93540702D01*
X158681354Y-93335840D01*
X158560014Y-93148277D01*
X158409670Y-92983051D01*
X158405619Y-92979852D01*
X158405615Y-92979848D01*
X158238414Y-92847800D01*
X158238410Y-92847798D01*
X158234359Y-92844598D01*
X158193053Y-92821796D01*
X158143084Y-92771364D01*
X158128312Y-92701921D01*
X158153428Y-92635516D01*
X158180780Y-92608909D01*
X158224603Y-92577650D01*
X158359860Y-92481173D01*
X158518096Y-92323489D01*
X158577594Y-92240689D01*
X158645435Y-92146277D01*
X158648453Y-92142077D01*
X158747430Y-91941811D01*
X158812370Y-91728069D01*
X158841529Y-91506590D01*
X158843156Y-91440000D01*
X158824852Y-91217361D01*
X158770431Y-91000702D01*
X158681354Y-90795840D01*
X158560014Y-90608277D01*
X158409670Y-90443051D01*
X158405619Y-90439852D01*
X158405615Y-90439848D01*
X158238414Y-90307800D01*
X158238410Y-90307798D01*
X158234359Y-90304598D01*
X158193053Y-90281796D01*
X158143084Y-90231364D01*
X158128312Y-90161921D01*
X158153428Y-90095516D01*
X158180780Y-90068909D01*
X158224603Y-90037650D01*
X158359860Y-89941173D01*
X158518096Y-89783489D01*
X158577594Y-89700689D01*
X158645435Y-89606277D01*
X158648453Y-89602077D01*
X158747430Y-89401811D01*
X158812370Y-89188069D01*
X158841529Y-88966590D01*
X158843156Y-88900000D01*
X158824852Y-88677361D01*
X158770431Y-88460702D01*
X158681354Y-88255840D01*
X158560014Y-88068277D01*
X158409670Y-87903051D01*
X158405619Y-87899852D01*
X158405615Y-87899848D01*
X158238414Y-87767800D01*
X158238410Y-87767798D01*
X158234359Y-87764598D01*
X158193053Y-87741796D01*
X158143084Y-87691364D01*
X158128312Y-87621921D01*
X158153428Y-87555516D01*
X158180780Y-87528909D01*
X158224603Y-87497650D01*
X158359860Y-87401173D01*
X158518096Y-87243489D01*
X158577594Y-87160689D01*
X158645435Y-87066277D01*
X158648453Y-87062077D01*
X158747430Y-86861811D01*
X158812370Y-86648069D01*
X158841529Y-86426590D01*
X158843156Y-86360000D01*
X158824852Y-86137361D01*
X158770431Y-85920702D01*
X158681354Y-85715840D01*
X158560014Y-85528277D01*
X158409670Y-85363051D01*
X158405619Y-85359852D01*
X158405615Y-85359848D01*
X158238414Y-85227800D01*
X158238410Y-85227798D01*
X158234359Y-85224598D01*
X158193053Y-85201796D01*
X158143084Y-85151364D01*
X158128312Y-85081921D01*
X158153428Y-85015516D01*
X158180780Y-84988909D01*
X158224603Y-84957650D01*
X158359860Y-84861173D01*
X158518096Y-84703489D01*
X158577594Y-84620689D01*
X158645435Y-84526277D01*
X158648453Y-84522077D01*
X158747430Y-84321811D01*
X158812370Y-84108069D01*
X158841529Y-83886590D01*
X158843156Y-83820000D01*
X158824852Y-83597361D01*
X158770431Y-83380702D01*
X158681354Y-83175840D01*
X158560014Y-82988277D01*
X158409670Y-82823051D01*
X158405619Y-82819852D01*
X158405615Y-82819848D01*
X158238414Y-82687800D01*
X158238410Y-82687798D01*
X158234359Y-82684598D01*
X158193053Y-82661796D01*
X158143084Y-82611364D01*
X158128312Y-82541921D01*
X158153428Y-82475516D01*
X158180780Y-82448909D01*
X158224603Y-82417650D01*
X158359860Y-82321173D01*
X158518096Y-82163489D01*
X158577594Y-82080689D01*
X158645435Y-81986277D01*
X158648453Y-81982077D01*
X158747430Y-81781811D01*
X158812370Y-81568069D01*
X158841529Y-81346590D01*
X158843156Y-81280000D01*
X158824852Y-81057361D01*
X158770431Y-80840702D01*
X158681354Y-80635840D01*
X158560014Y-80448277D01*
X158409670Y-80283051D01*
X158405619Y-80279852D01*
X158405615Y-80279848D01*
X158238414Y-80147800D01*
X158238410Y-80147798D01*
X158234359Y-80144598D01*
X158193053Y-80121796D01*
X158143084Y-80071364D01*
X158128312Y-80001921D01*
X158153428Y-79935516D01*
X158180780Y-79908909D01*
X158224603Y-79877650D01*
X158359860Y-79781173D01*
X158518096Y-79623489D01*
X158577594Y-79540689D01*
X158645435Y-79446277D01*
X158648453Y-79442077D01*
X158747430Y-79241811D01*
X158812370Y-79028069D01*
X158841529Y-78806590D01*
X158843156Y-78740000D01*
X158824852Y-78517361D01*
X158770431Y-78300702D01*
X158681354Y-78095840D01*
X158560014Y-77908277D01*
X158556540Y-77904459D01*
X158556533Y-77904450D01*
X158412435Y-77746088D01*
X158381383Y-77682242D01*
X158389779Y-77611744D01*
X158434956Y-77556976D01*
X158461400Y-77543307D01*
X158568052Y-77503325D01*
X158583649Y-77494786D01*
X158685724Y-77418285D01*
X158698285Y-77405724D01*
X158774786Y-77303649D01*
X158783324Y-77288054D01*
X158828478Y-77167606D01*
X158832105Y-77152351D01*
X158837631Y-77101486D01*
X158838000Y-77094672D01*
X158838000Y-76472115D01*
X158833525Y-76456876D01*
X158832135Y-76455671D01*
X158824452Y-76454000D01*
X156140116Y-76454000D01*
X156124877Y-76458475D01*
X156123672Y-76459865D01*
X156122001Y-76467548D01*
X156122001Y-77094669D01*
X156122371Y-77101490D01*
X156127895Y-77152352D01*
X156131521Y-77167604D01*
X156176676Y-77288054D01*
X156185214Y-77303649D01*
X156261715Y-77405724D01*
X156274276Y-77418285D01*
X156376351Y-77494786D01*
X156391946Y-77503324D01*
X156500827Y-77544142D01*
X156557591Y-77586784D01*
X156582291Y-77653345D01*
X156567083Y-77722694D01*
X156547691Y-77749175D01*
X156424200Y-77878401D01*
X156420629Y-77882138D01*
X156294743Y-78066680D01*
X156200688Y-78269305D01*
X156140989Y-78484570D01*
X156117251Y-78706695D01*
X156117548Y-78711848D01*
X156117548Y-78711851D01*
X156123011Y-78806590D01*
X156130110Y-78929715D01*
X156131247Y-78934761D01*
X156131248Y-78934767D01*
X156151119Y-79022939D01*
X156179222Y-79147639D01*
X156263266Y-79354616D01*
X156379987Y-79545088D01*
X156526250Y-79713938D01*
X156698126Y-79856632D01*
X156768595Y-79897811D01*
X156771445Y-79899476D01*
X156820169Y-79951114D01*
X156833240Y-80020897D01*
X156806509Y-80086669D01*
X156766055Y-80120027D01*
X156753607Y-80126507D01*
X156749474Y-80129610D01*
X156749471Y-80129612D01*
X156725247Y-80147800D01*
X156574965Y-80260635D01*
X156420629Y-80422138D01*
X156294743Y-80606680D01*
X156200688Y-80809305D01*
X156140989Y-81024570D01*
X156117251Y-81246695D01*
X156117548Y-81251848D01*
X156117548Y-81251851D01*
X156123011Y-81346590D01*
X156130110Y-81469715D01*
X156131247Y-81474761D01*
X156131248Y-81474767D01*
X156151119Y-81562939D01*
X156179222Y-81687639D01*
X156263266Y-81894616D01*
X156379987Y-82085088D01*
X156526250Y-82253938D01*
X156698126Y-82396632D01*
X156768595Y-82437811D01*
X156771445Y-82439476D01*
X156820169Y-82491114D01*
X156833240Y-82560897D01*
X156806509Y-82626669D01*
X156766055Y-82660027D01*
X156753607Y-82666507D01*
X156749474Y-82669610D01*
X156749471Y-82669612D01*
X156725247Y-82687800D01*
X156574965Y-82800635D01*
X156420629Y-82962138D01*
X156294743Y-83146680D01*
X156200688Y-83349305D01*
X156140989Y-83564570D01*
X156117251Y-83786695D01*
X156117548Y-83791848D01*
X156117548Y-83791851D01*
X156123011Y-83886590D01*
X156130110Y-84009715D01*
X156131247Y-84014761D01*
X156131248Y-84014767D01*
X156151119Y-84102939D01*
X156179222Y-84227639D01*
X156263266Y-84434616D01*
X156379987Y-84625088D01*
X156526250Y-84793938D01*
X156698126Y-84936632D01*
X156768595Y-84977811D01*
X156771445Y-84979476D01*
X156820169Y-85031114D01*
X156833240Y-85100897D01*
X156806509Y-85166669D01*
X156766055Y-85200027D01*
X156753607Y-85206507D01*
X156749474Y-85209610D01*
X156749471Y-85209612D01*
X156725247Y-85227800D01*
X156574965Y-85340635D01*
X156420629Y-85502138D01*
X156294743Y-85686680D01*
X156200688Y-85889305D01*
X156140989Y-86104570D01*
X156117251Y-86326695D01*
X156117548Y-86331848D01*
X156117548Y-86331851D01*
X156123011Y-86426590D01*
X156130110Y-86549715D01*
X156131247Y-86554761D01*
X156131248Y-86554767D01*
X156151119Y-86642939D01*
X156179222Y-86767639D01*
X156263266Y-86974616D01*
X156379987Y-87165088D01*
X156526250Y-87333938D01*
X156698126Y-87476632D01*
X156768595Y-87517811D01*
X156771445Y-87519476D01*
X156820169Y-87571114D01*
X156833240Y-87640897D01*
X156806509Y-87706669D01*
X156766055Y-87740027D01*
X156753607Y-87746507D01*
X156749474Y-87749610D01*
X156749471Y-87749612D01*
X156725247Y-87767800D01*
X156574965Y-87880635D01*
X156420629Y-88042138D01*
X156294743Y-88226680D01*
X156200688Y-88429305D01*
X156140989Y-88644570D01*
X156117251Y-88866695D01*
X156117548Y-88871848D01*
X156117548Y-88871851D01*
X156123011Y-88966590D01*
X156130110Y-89089715D01*
X156131247Y-89094761D01*
X156131248Y-89094767D01*
X156151119Y-89182939D01*
X156179222Y-89307639D01*
X156263266Y-89514616D01*
X156379987Y-89705088D01*
X156526250Y-89873938D01*
X156698126Y-90016632D01*
X156768595Y-90057811D01*
X156771445Y-90059476D01*
X156820169Y-90111114D01*
X156833240Y-90180897D01*
X156806509Y-90246669D01*
X156766055Y-90280027D01*
X156753607Y-90286507D01*
X156749474Y-90289610D01*
X156749471Y-90289612D01*
X156725247Y-90307800D01*
X156574965Y-90420635D01*
X156420629Y-90582138D01*
X156294743Y-90766680D01*
X156200688Y-90969305D01*
X156140989Y-91184570D01*
X156117251Y-91406695D01*
X156117548Y-91411848D01*
X156117548Y-91411851D01*
X156123011Y-91506590D01*
X156130110Y-91629715D01*
X156131247Y-91634761D01*
X156131248Y-91634767D01*
X156151119Y-91722939D01*
X156179222Y-91847639D01*
X156263266Y-92054616D01*
X156379987Y-92245088D01*
X156526250Y-92413938D01*
X156698126Y-92556632D01*
X156768595Y-92597811D01*
X156771445Y-92599476D01*
X156820169Y-92651114D01*
X156833240Y-92720897D01*
X156806509Y-92786669D01*
X156766055Y-92820027D01*
X156753607Y-92826507D01*
X156749474Y-92829610D01*
X156749471Y-92829612D01*
X156725247Y-92847800D01*
X156574965Y-92960635D01*
X156420629Y-93122138D01*
X156294743Y-93306680D01*
X156200688Y-93509305D01*
X156140989Y-93724570D01*
X156117251Y-93946695D01*
X133440418Y-93946695D01*
X133424852Y-93757361D01*
X133370431Y-93540702D01*
X133281354Y-93335840D01*
X133160014Y-93148277D01*
X133009670Y-92983051D01*
X133005619Y-92979852D01*
X133005615Y-92979848D01*
X132838414Y-92847800D01*
X132838410Y-92847798D01*
X132834359Y-92844598D01*
X132793053Y-92821796D01*
X132743084Y-92771364D01*
X132728312Y-92701921D01*
X132753428Y-92635516D01*
X132780780Y-92608909D01*
X132824603Y-92577650D01*
X132959860Y-92481173D01*
X133118096Y-92323489D01*
X133177594Y-92240689D01*
X133245435Y-92146277D01*
X133248453Y-92142077D01*
X133347430Y-91941811D01*
X133412370Y-91728069D01*
X133441529Y-91506590D01*
X133443156Y-91440000D01*
X133424852Y-91217361D01*
X133370431Y-91000702D01*
X133281354Y-90795840D01*
X133160014Y-90608277D01*
X133009670Y-90443051D01*
X133005619Y-90439852D01*
X133005615Y-90439848D01*
X132838414Y-90307800D01*
X132838410Y-90307798D01*
X132834359Y-90304598D01*
X132793053Y-90281796D01*
X132743084Y-90231364D01*
X132728312Y-90161921D01*
X132753428Y-90095516D01*
X132780780Y-90068909D01*
X132824603Y-90037650D01*
X132959860Y-89941173D01*
X133118096Y-89783489D01*
X133177594Y-89700689D01*
X133245435Y-89606277D01*
X133248453Y-89602077D01*
X133347430Y-89401811D01*
X133412370Y-89188069D01*
X133441529Y-88966590D01*
X133443156Y-88900000D01*
X133424852Y-88677361D01*
X133370431Y-88460702D01*
X133281354Y-88255840D01*
X133160014Y-88068277D01*
X133009670Y-87903051D01*
X133005619Y-87899852D01*
X133005615Y-87899848D01*
X132838414Y-87767800D01*
X132838410Y-87767798D01*
X132834359Y-87764598D01*
X132793053Y-87741796D01*
X132743084Y-87691364D01*
X132728312Y-87621921D01*
X132753428Y-87555516D01*
X132780780Y-87528909D01*
X132824603Y-87497650D01*
X132959860Y-87401173D01*
X133118096Y-87243489D01*
X133177594Y-87160689D01*
X133245435Y-87066277D01*
X133248453Y-87062077D01*
X133347430Y-86861811D01*
X133412370Y-86648069D01*
X133441529Y-86426590D01*
X133443156Y-86360000D01*
X133424852Y-86137361D01*
X133370431Y-85920702D01*
X133281354Y-85715840D01*
X133160014Y-85528277D01*
X133009670Y-85363051D01*
X133005619Y-85359852D01*
X133005615Y-85359848D01*
X132838414Y-85227800D01*
X132838410Y-85227798D01*
X132834359Y-85224598D01*
X132793053Y-85201796D01*
X132743084Y-85151364D01*
X132728312Y-85081921D01*
X132753428Y-85015516D01*
X132780780Y-84988909D01*
X132824603Y-84957650D01*
X132959860Y-84861173D01*
X133118096Y-84703489D01*
X133177594Y-84620689D01*
X133245435Y-84526277D01*
X133248453Y-84522077D01*
X133347430Y-84321811D01*
X133412370Y-84108069D01*
X133441529Y-83886590D01*
X133443156Y-83820000D01*
X133424852Y-83597361D01*
X133370431Y-83380702D01*
X133281354Y-83175840D01*
X133160014Y-82988277D01*
X133009670Y-82823051D01*
X133005619Y-82819852D01*
X133005615Y-82819848D01*
X132838414Y-82687800D01*
X132838410Y-82687798D01*
X132834359Y-82684598D01*
X132793053Y-82661796D01*
X132743084Y-82611364D01*
X132728312Y-82541921D01*
X132753428Y-82475516D01*
X132780780Y-82448909D01*
X132824603Y-82417650D01*
X132959860Y-82321173D01*
X133118096Y-82163489D01*
X133177594Y-82080689D01*
X133245435Y-81986277D01*
X133248453Y-81982077D01*
X133347430Y-81781811D01*
X133412370Y-81568069D01*
X133441529Y-81346590D01*
X133443156Y-81280000D01*
X133424852Y-81057361D01*
X133370431Y-80840702D01*
X133281354Y-80635840D01*
X133160014Y-80448277D01*
X133009670Y-80283051D01*
X133005619Y-80279852D01*
X133005615Y-80279848D01*
X132838414Y-80147800D01*
X132838410Y-80147798D01*
X132834359Y-80144598D01*
X132793053Y-80121796D01*
X132743084Y-80071364D01*
X132728312Y-80001921D01*
X132753428Y-79935516D01*
X132780780Y-79908909D01*
X132824603Y-79877650D01*
X132959860Y-79781173D01*
X133118096Y-79623489D01*
X133177594Y-79540689D01*
X133245435Y-79446277D01*
X133248453Y-79442077D01*
X133347430Y-79241811D01*
X133412370Y-79028069D01*
X133441529Y-78806590D01*
X133443156Y-78740000D01*
X133424852Y-78517361D01*
X133370431Y-78300702D01*
X133281354Y-78095840D01*
X133160014Y-77908277D01*
X133156532Y-77904450D01*
X133012798Y-77746488D01*
X132981746Y-77682642D01*
X132990141Y-77612143D01*
X133035317Y-77557375D01*
X133061761Y-77543706D01*
X133168297Y-77503767D01*
X133176705Y-77500615D01*
X133293261Y-77413261D01*
X133380615Y-77296705D01*
X133431745Y-77160316D01*
X133438500Y-77098134D01*
X133438500Y-75927885D01*
X156122000Y-75927885D01*
X156126475Y-75943124D01*
X156127865Y-75944329D01*
X156135548Y-75946000D01*
X157207885Y-75946000D01*
X157223124Y-75941525D01*
X157224329Y-75940135D01*
X157226000Y-75932452D01*
X157226000Y-75927885D01*
X157734000Y-75927885D01*
X157738475Y-75943124D01*
X157739865Y-75944329D01*
X157747548Y-75946000D01*
X158819884Y-75946000D01*
X158835123Y-75941525D01*
X158836328Y-75940135D01*
X158837999Y-75932452D01*
X158837999Y-75305331D01*
X158837629Y-75298510D01*
X158832105Y-75247648D01*
X158828479Y-75232396D01*
X158783324Y-75111946D01*
X158774786Y-75096351D01*
X158698285Y-74994276D01*
X158685724Y-74981715D01*
X158583649Y-74905214D01*
X158568054Y-74896676D01*
X158447606Y-74851522D01*
X158432351Y-74847895D01*
X158381486Y-74842369D01*
X158374672Y-74842000D01*
X157752115Y-74842000D01*
X157736876Y-74846475D01*
X157735671Y-74847865D01*
X157734000Y-74855548D01*
X157734000Y-75927885D01*
X157226000Y-75927885D01*
X157226000Y-74860116D01*
X157221525Y-74844877D01*
X157220135Y-74843672D01*
X157212452Y-74842001D01*
X156585331Y-74842001D01*
X156578510Y-74842371D01*
X156527648Y-74847895D01*
X156512396Y-74851521D01*
X156391946Y-74896676D01*
X156376351Y-74905214D01*
X156274276Y-74981715D01*
X156261715Y-74994276D01*
X156185214Y-75096351D01*
X156176676Y-75111946D01*
X156131522Y-75232394D01*
X156127895Y-75247649D01*
X156122369Y-75298514D01*
X156122000Y-75305328D01*
X156122000Y-75927885D01*
X133438500Y-75927885D01*
X133438500Y-75301866D01*
X133431745Y-75239684D01*
X133380615Y-75103295D01*
X133293261Y-74986739D01*
X133176705Y-74899385D01*
X133040316Y-74848255D01*
X132978134Y-74841500D01*
X131181866Y-74841500D01*
X131119684Y-74848255D01*
X130983295Y-74899385D01*
X130866739Y-74986739D01*
X130779385Y-75103295D01*
X130728255Y-75239684D01*
X130721500Y-75301866D01*
X130721500Y-77098134D01*
X130728255Y-77160316D01*
X130779385Y-77296705D01*
X130866739Y-77413261D01*
X130983295Y-77500615D01*
X130991704Y-77503767D01*
X130991705Y-77503768D01*
X131100451Y-77544535D01*
X131157216Y-77587176D01*
X131181916Y-77653738D01*
X131166709Y-77723087D01*
X131147316Y-77749568D01*
X131020629Y-77882138D01*
X130894743Y-78066680D01*
X130800688Y-78269305D01*
X130740989Y-78484570D01*
X130717251Y-78706695D01*
X130717548Y-78711848D01*
X130717548Y-78711851D01*
X130723011Y-78806590D01*
X130730110Y-78929715D01*
X130731247Y-78934761D01*
X130731248Y-78934767D01*
X130751119Y-79022939D01*
X130779222Y-79147639D01*
X130863266Y-79354616D01*
X130979987Y-79545088D01*
X131126250Y-79713938D01*
X131298126Y-79856632D01*
X131368595Y-79897811D01*
X131371445Y-79899476D01*
X131420169Y-79951114D01*
X131433240Y-80020897D01*
X131406509Y-80086669D01*
X131366055Y-80120027D01*
X131353607Y-80126507D01*
X131349474Y-80129610D01*
X131349471Y-80129612D01*
X131325247Y-80147800D01*
X131174965Y-80260635D01*
X131020629Y-80422138D01*
X130894743Y-80606680D01*
X130800688Y-80809305D01*
X130740989Y-81024570D01*
X130717251Y-81246695D01*
X130717548Y-81251848D01*
X130717548Y-81251851D01*
X130723011Y-81346590D01*
X130730110Y-81469715D01*
X130731247Y-81474761D01*
X130731248Y-81474767D01*
X130751119Y-81562939D01*
X130779222Y-81687639D01*
X130863266Y-81894616D01*
X130979987Y-82085088D01*
X131126250Y-82253938D01*
X131298126Y-82396632D01*
X131368595Y-82437811D01*
X131371445Y-82439476D01*
X131420169Y-82491114D01*
X131433240Y-82560897D01*
X131406509Y-82626669D01*
X131366055Y-82660027D01*
X131353607Y-82666507D01*
X131349474Y-82669610D01*
X131349471Y-82669612D01*
X131325247Y-82687800D01*
X131174965Y-82800635D01*
X131020629Y-82962138D01*
X130894743Y-83146680D01*
X130800688Y-83349305D01*
X130740989Y-83564570D01*
X130717251Y-83786695D01*
X130717548Y-83791848D01*
X130717548Y-83791851D01*
X130723011Y-83886590D01*
X130730110Y-84009715D01*
X130731247Y-84014761D01*
X130731248Y-84014767D01*
X130751119Y-84102939D01*
X130779222Y-84227639D01*
X130863266Y-84434616D01*
X130979987Y-84625088D01*
X131126250Y-84793938D01*
X131298126Y-84936632D01*
X131368595Y-84977811D01*
X131371445Y-84979476D01*
X131420169Y-85031114D01*
X131433240Y-85100897D01*
X131406509Y-85166669D01*
X131366055Y-85200027D01*
X131353607Y-85206507D01*
X131349474Y-85209610D01*
X131349471Y-85209612D01*
X131325247Y-85227800D01*
X131174965Y-85340635D01*
X131020629Y-85502138D01*
X130894743Y-85686680D01*
X130800688Y-85889305D01*
X130740989Y-86104570D01*
X130717251Y-86326695D01*
X130717548Y-86331848D01*
X130717548Y-86331851D01*
X130723011Y-86426590D01*
X130730110Y-86549715D01*
X130731247Y-86554761D01*
X130731248Y-86554767D01*
X130751119Y-86642939D01*
X130779222Y-86767639D01*
X130863266Y-86974616D01*
X130979987Y-87165088D01*
X131126250Y-87333938D01*
X131298126Y-87476632D01*
X131368595Y-87517811D01*
X131371445Y-87519476D01*
X131420169Y-87571114D01*
X131433240Y-87640897D01*
X131406509Y-87706669D01*
X131366055Y-87740027D01*
X131353607Y-87746507D01*
X131349474Y-87749610D01*
X131349471Y-87749612D01*
X131325247Y-87767800D01*
X131174965Y-87880635D01*
X131020629Y-88042138D01*
X130894743Y-88226680D01*
X130800688Y-88429305D01*
X130740989Y-88644570D01*
X130717251Y-88866695D01*
X130717548Y-88871848D01*
X130717548Y-88871851D01*
X130723011Y-88966590D01*
X130730110Y-89089715D01*
X130731247Y-89094761D01*
X130731248Y-89094767D01*
X130751119Y-89182939D01*
X130779222Y-89307639D01*
X130863266Y-89514616D01*
X130979987Y-89705088D01*
X131126250Y-89873938D01*
X131298126Y-90016632D01*
X131368595Y-90057811D01*
X131371445Y-90059476D01*
X131420169Y-90111114D01*
X131433240Y-90180897D01*
X131406509Y-90246669D01*
X131366055Y-90280027D01*
X131353607Y-90286507D01*
X131349474Y-90289610D01*
X131349471Y-90289612D01*
X131325247Y-90307800D01*
X131174965Y-90420635D01*
X131020629Y-90582138D01*
X130894743Y-90766680D01*
X130800688Y-90969305D01*
X130740989Y-91184570D01*
X130717251Y-91406695D01*
X130717548Y-91411848D01*
X130717548Y-91411851D01*
X130723011Y-91506590D01*
X130730110Y-91629715D01*
X130731247Y-91634761D01*
X130731248Y-91634767D01*
X130751119Y-91722939D01*
X130779222Y-91847639D01*
X130863266Y-92054616D01*
X130979987Y-92245088D01*
X131126250Y-92413938D01*
X131298126Y-92556632D01*
X131368595Y-92597811D01*
X131371445Y-92599476D01*
X131420169Y-92651114D01*
X131433240Y-92720897D01*
X131406509Y-92786669D01*
X131366055Y-92820027D01*
X131353607Y-92826507D01*
X131349474Y-92829610D01*
X131349471Y-92829612D01*
X131325247Y-92847800D01*
X131174965Y-92960635D01*
X131020629Y-93122138D01*
X130894743Y-93306680D01*
X130800688Y-93509305D01*
X130740989Y-93724570D01*
X130717251Y-93946695D01*
X130717548Y-93951848D01*
X130717548Y-93951851D01*
X130723011Y-94046590D01*
X130730110Y-94169715D01*
X130731247Y-94174761D01*
X130731248Y-94174767D01*
X130751119Y-94262939D01*
X130779222Y-94387639D01*
X130863266Y-94594616D01*
X130979987Y-94785088D01*
X131126250Y-94953938D01*
X131298126Y-95096632D01*
X131368595Y-95137811D01*
X131371445Y-95139476D01*
X131420169Y-95191114D01*
X131433240Y-95260897D01*
X131406509Y-95326669D01*
X131366055Y-95360027D01*
X131353607Y-95366507D01*
X131349474Y-95369610D01*
X131349471Y-95369612D01*
X131179100Y-95497530D01*
X131174965Y-95500635D01*
X131020629Y-95662138D01*
X131017715Y-95666410D01*
X131017714Y-95666411D01*
X131005404Y-95684457D01*
X130894743Y-95846680D01*
X130800688Y-96049305D01*
X130740989Y-96264570D01*
X130717251Y-96486695D01*
X130717548Y-96491848D01*
X130717548Y-96491851D01*
X130723011Y-96586590D01*
X130730110Y-96709715D01*
X130731247Y-96714761D01*
X130731248Y-96714767D01*
X130745449Y-96777778D01*
X130779222Y-96927639D01*
X130863266Y-97134616D01*
X130979987Y-97325088D01*
X131126250Y-97493938D01*
X131298126Y-97636632D01*
X131368595Y-97677811D01*
X131371445Y-97679476D01*
X131420169Y-97731114D01*
X131433240Y-97800897D01*
X131406509Y-97866669D01*
X131366055Y-97900027D01*
X131353607Y-97906507D01*
X131349474Y-97909610D01*
X131349471Y-97909612D01*
X131191127Y-98028500D01*
X131174965Y-98040635D01*
X131020629Y-98202138D01*
X131017715Y-98206410D01*
X131017714Y-98206411D01*
X131005404Y-98224457D01*
X130894743Y-98386680D01*
X130800688Y-98589305D01*
X130740989Y-98804570D01*
X130717251Y-99026695D01*
X130717548Y-99031848D01*
X130717548Y-99031851D01*
X130723011Y-99126590D01*
X130730110Y-99249715D01*
X130731247Y-99254761D01*
X130731248Y-99254767D01*
X130744597Y-99314000D01*
X130779222Y-99467639D01*
X130863266Y-99674616D01*
X130979987Y-99865088D01*
X131126250Y-100033938D01*
X131298126Y-100176632D01*
X131368595Y-100217811D01*
X131371445Y-100219476D01*
X131420169Y-100271114D01*
X131433240Y-100340897D01*
X131406509Y-100406669D01*
X131366055Y-100440027D01*
X131353607Y-100446507D01*
X131349474Y-100449610D01*
X131349471Y-100449612D01*
X131325247Y-100467800D01*
X131174965Y-100580635D01*
X131020629Y-100742138D01*
X130894743Y-100926680D01*
X130800688Y-101129305D01*
X130740989Y-101344570D01*
X130717251Y-101566695D01*
X130717548Y-101571848D01*
X130717548Y-101571851D01*
X130723011Y-101666590D01*
X130730110Y-101789715D01*
X130731247Y-101794761D01*
X130731248Y-101794767D01*
X130751119Y-101882939D01*
X130779222Y-102007639D01*
X130863266Y-102214616D01*
X130979987Y-102405088D01*
X131126250Y-102573938D01*
X131298126Y-102716632D01*
X131368595Y-102757811D01*
X131371445Y-102759476D01*
X131420169Y-102811114D01*
X131433240Y-102880897D01*
X131406509Y-102946669D01*
X131366055Y-102980027D01*
X131353607Y-102986507D01*
X131349474Y-102989610D01*
X131349471Y-102989612D01*
X131325247Y-103007800D01*
X131174965Y-103120635D01*
X131020629Y-103282138D01*
X130894743Y-103466680D01*
X130800688Y-103669305D01*
X130740989Y-103884570D01*
X130717251Y-104106695D01*
X130717548Y-104111848D01*
X130717548Y-104111851D01*
X130723011Y-104206590D01*
X130730110Y-104329715D01*
X130731247Y-104334761D01*
X130731248Y-104334767D01*
X130751119Y-104422939D01*
X130779222Y-104547639D01*
X130863266Y-104754616D01*
X130979987Y-104945088D01*
X131126250Y-105113938D01*
X131298126Y-105256632D01*
X131368595Y-105297811D01*
X131371445Y-105299476D01*
X131420169Y-105351114D01*
X131433240Y-105420897D01*
X131406509Y-105486669D01*
X131366055Y-105520027D01*
X131353607Y-105526507D01*
X131349474Y-105529610D01*
X131349471Y-105529612D01*
X131325247Y-105547800D01*
X131174965Y-105660635D01*
X131020629Y-105822138D01*
X130894743Y-106006680D01*
X130800688Y-106209305D01*
X130740989Y-106424570D01*
X130717251Y-106646695D01*
X130048500Y-106646695D01*
X130048500Y-72014669D01*
X138372001Y-72014669D01*
X138372371Y-72021490D01*
X138377895Y-72072352D01*
X138381521Y-72087604D01*
X138426676Y-72208054D01*
X138435214Y-72223649D01*
X138511715Y-72325724D01*
X138524276Y-72338285D01*
X138626351Y-72414786D01*
X138641946Y-72423324D01*
X138762394Y-72468478D01*
X138777649Y-72472105D01*
X138828514Y-72477631D01*
X138835328Y-72478000D01*
X139457885Y-72478000D01*
X139473124Y-72473525D01*
X139474329Y-72472135D01*
X139476000Y-72464452D01*
X139476000Y-72459884D01*
X139984000Y-72459884D01*
X139988475Y-72475123D01*
X139989865Y-72476328D01*
X139997548Y-72477999D01*
X140624669Y-72477999D01*
X140631490Y-72477629D01*
X140682352Y-72472105D01*
X140697604Y-72468479D01*
X140818054Y-72423324D01*
X140833649Y-72414786D01*
X140935724Y-72338285D01*
X140948285Y-72325724D01*
X141024786Y-72223649D01*
X141033324Y-72208054D01*
X141074225Y-72098952D01*
X141116867Y-72042188D01*
X141183428Y-72017488D01*
X141252777Y-72032696D01*
X141287444Y-72060684D01*
X141312865Y-72090031D01*
X141312869Y-72090035D01*
X141316250Y-72093938D01*
X141488126Y-72236632D01*
X141681000Y-72349338D01*
X141889692Y-72429030D01*
X141894760Y-72430061D01*
X141894763Y-72430062D01*
X142002017Y-72451883D01*
X142108597Y-72473567D01*
X142113772Y-72473757D01*
X142113774Y-72473757D01*
X142326673Y-72481564D01*
X142326677Y-72481564D01*
X142331837Y-72481753D01*
X142336957Y-72481097D01*
X142336959Y-72481097D01*
X142548288Y-72454025D01*
X142548289Y-72454025D01*
X142553416Y-72453368D01*
X142558366Y-72451883D01*
X142762429Y-72390661D01*
X142762434Y-72390659D01*
X142767384Y-72389174D01*
X142967994Y-72290896D01*
X143149860Y-72161173D01*
X143308096Y-72003489D01*
X143438453Y-71822077D01*
X143439776Y-71823028D01*
X143486645Y-71779857D01*
X143556580Y-71767625D01*
X143622026Y-71795144D01*
X143649875Y-71826994D01*
X143709987Y-71925088D01*
X143856250Y-72093938D01*
X144028126Y-72236632D01*
X144221000Y-72349338D01*
X144429692Y-72429030D01*
X144434760Y-72430061D01*
X144434763Y-72430062D01*
X144542017Y-72451883D01*
X144648597Y-72473567D01*
X144653772Y-72473757D01*
X144653774Y-72473757D01*
X144866673Y-72481564D01*
X144866677Y-72481564D01*
X144871837Y-72481753D01*
X144876957Y-72481097D01*
X144876959Y-72481097D01*
X145088288Y-72454025D01*
X145088289Y-72454025D01*
X145093416Y-72453368D01*
X145098366Y-72451883D01*
X145302429Y-72390661D01*
X145302434Y-72390659D01*
X145307384Y-72389174D01*
X145507994Y-72290896D01*
X145689860Y-72161173D01*
X145848096Y-72003489D01*
X145978453Y-71822077D01*
X145979776Y-71823028D01*
X146026645Y-71779857D01*
X146096580Y-71767625D01*
X146162026Y-71795144D01*
X146189875Y-71826994D01*
X146249987Y-71925088D01*
X146396250Y-72093938D01*
X146568126Y-72236632D01*
X146761000Y-72349338D01*
X146969692Y-72429030D01*
X146974760Y-72430061D01*
X146974763Y-72430062D01*
X147082017Y-72451883D01*
X147188597Y-72473567D01*
X147193772Y-72473757D01*
X147193774Y-72473757D01*
X147406673Y-72481564D01*
X147406677Y-72481564D01*
X147411837Y-72481753D01*
X147416957Y-72481097D01*
X147416959Y-72481097D01*
X147628288Y-72454025D01*
X147628289Y-72454025D01*
X147633416Y-72453368D01*
X147638366Y-72451883D01*
X147842429Y-72390661D01*
X147842434Y-72390659D01*
X147847384Y-72389174D01*
X148047994Y-72290896D01*
X148229860Y-72161173D01*
X148388096Y-72003489D01*
X148518453Y-71822077D01*
X148519776Y-71823028D01*
X148566645Y-71779857D01*
X148636580Y-71767625D01*
X148702026Y-71795144D01*
X148729875Y-71826994D01*
X148789987Y-71925088D01*
X148936250Y-72093938D01*
X149108126Y-72236632D01*
X149301000Y-72349338D01*
X149509692Y-72429030D01*
X149514760Y-72430061D01*
X149514763Y-72430062D01*
X149622017Y-72451883D01*
X149728597Y-72473567D01*
X149733772Y-72473757D01*
X149733774Y-72473757D01*
X149946673Y-72481564D01*
X149946677Y-72481564D01*
X149951837Y-72481753D01*
X149956957Y-72481097D01*
X149956959Y-72481097D01*
X150168288Y-72454025D01*
X150168289Y-72454025D01*
X150173416Y-72453368D01*
X150178366Y-72451883D01*
X150382429Y-72390661D01*
X150382434Y-72390659D01*
X150387384Y-72389174D01*
X150587994Y-72290896D01*
X150769860Y-72161173D01*
X150928096Y-72003489D01*
X151058453Y-71822077D01*
X151079320Y-71779857D01*
X151155136Y-71626453D01*
X151155137Y-71626451D01*
X151157430Y-71621811D01*
X151222370Y-71408069D01*
X151251529Y-71186590D01*
X151253156Y-71120000D01*
X151234852Y-70897361D01*
X151180431Y-70680702D01*
X151091354Y-70475840D01*
X150970014Y-70288277D01*
X150819670Y-70123051D01*
X150815619Y-70119852D01*
X150815615Y-70119848D01*
X150648414Y-69987800D01*
X150648410Y-69987798D01*
X150644359Y-69984598D01*
X150448789Y-69876638D01*
X150443920Y-69874914D01*
X150443916Y-69874912D01*
X150243087Y-69803795D01*
X150243083Y-69803794D01*
X150238212Y-69802069D01*
X150233119Y-69801162D01*
X150233116Y-69801161D01*
X150023373Y-69763800D01*
X150023367Y-69763799D01*
X150018284Y-69762894D01*
X149944452Y-69761992D01*
X149800081Y-69760228D01*
X149800079Y-69760228D01*
X149794911Y-69760165D01*
X149574091Y-69793955D01*
X149361756Y-69863357D01*
X149163607Y-69966507D01*
X149159474Y-69969610D01*
X149159471Y-69969612D01*
X149076450Y-70031946D01*
X148984965Y-70100635D01*
X148830629Y-70262138D01*
X148723201Y-70419621D01*
X148668293Y-70464621D01*
X148597768Y-70472792D01*
X148534021Y-70441538D01*
X148513324Y-70417054D01*
X148432822Y-70292617D01*
X148432820Y-70292614D01*
X148430014Y-70288277D01*
X148279670Y-70123051D01*
X148275619Y-70119852D01*
X148275615Y-70119848D01*
X148108414Y-69987800D01*
X148108410Y-69987798D01*
X148104359Y-69984598D01*
X147908789Y-69876638D01*
X147903920Y-69874914D01*
X147903916Y-69874912D01*
X147703087Y-69803795D01*
X147703083Y-69803794D01*
X147698212Y-69802069D01*
X147693119Y-69801162D01*
X147693116Y-69801161D01*
X147483373Y-69763800D01*
X147483367Y-69763799D01*
X147478284Y-69762894D01*
X147404452Y-69761992D01*
X147260081Y-69760228D01*
X147260079Y-69760228D01*
X147254911Y-69760165D01*
X147034091Y-69793955D01*
X146821756Y-69863357D01*
X146623607Y-69966507D01*
X146619474Y-69969610D01*
X146619471Y-69969612D01*
X146536450Y-70031946D01*
X146444965Y-70100635D01*
X146290629Y-70262138D01*
X146183201Y-70419621D01*
X146128293Y-70464621D01*
X146057768Y-70472792D01*
X145994021Y-70441538D01*
X145973324Y-70417054D01*
X145892822Y-70292617D01*
X145892820Y-70292614D01*
X145890014Y-70288277D01*
X145739670Y-70123051D01*
X145735619Y-70119852D01*
X145735615Y-70119848D01*
X145568414Y-69987800D01*
X145568410Y-69987798D01*
X145564359Y-69984598D01*
X145368789Y-69876638D01*
X145363920Y-69874914D01*
X145363916Y-69874912D01*
X145163087Y-69803795D01*
X145163083Y-69803794D01*
X145158212Y-69802069D01*
X145153119Y-69801162D01*
X145153116Y-69801161D01*
X144943373Y-69763800D01*
X144943367Y-69763799D01*
X144938284Y-69762894D01*
X144864452Y-69761992D01*
X144720081Y-69760228D01*
X144720079Y-69760228D01*
X144714911Y-69760165D01*
X144494091Y-69793955D01*
X144281756Y-69863357D01*
X144083607Y-69966507D01*
X144079474Y-69969610D01*
X144079471Y-69969612D01*
X143996450Y-70031946D01*
X143904965Y-70100635D01*
X143750629Y-70262138D01*
X143643201Y-70419621D01*
X143588293Y-70464621D01*
X143517768Y-70472792D01*
X143454021Y-70441538D01*
X143433324Y-70417054D01*
X143352822Y-70292617D01*
X143352820Y-70292614D01*
X143350014Y-70288277D01*
X143199670Y-70123051D01*
X143195619Y-70119852D01*
X143195615Y-70119848D01*
X143028414Y-69987800D01*
X143028410Y-69987798D01*
X143024359Y-69984598D01*
X142828789Y-69876638D01*
X142823920Y-69874914D01*
X142823916Y-69874912D01*
X142623087Y-69803795D01*
X142623083Y-69803794D01*
X142618212Y-69802069D01*
X142613119Y-69801162D01*
X142613116Y-69801161D01*
X142403373Y-69763800D01*
X142403367Y-69763799D01*
X142398284Y-69762894D01*
X142324452Y-69761992D01*
X142180081Y-69760228D01*
X142180079Y-69760228D01*
X142174911Y-69760165D01*
X141954091Y-69793955D01*
X141741756Y-69863357D01*
X141543607Y-69966507D01*
X141539474Y-69969610D01*
X141539471Y-69969612D01*
X141456450Y-70031946D01*
X141364965Y-70100635D01*
X141361393Y-70104373D01*
X141283898Y-70185466D01*
X141222374Y-70220895D01*
X141151462Y-70217438D01*
X141093676Y-70176192D01*
X141074823Y-70142644D01*
X141033324Y-70031946D01*
X141024786Y-70016351D01*
X140948285Y-69914276D01*
X140935724Y-69901715D01*
X140833649Y-69825214D01*
X140818054Y-69816676D01*
X140697606Y-69771522D01*
X140682351Y-69767895D01*
X140631486Y-69762369D01*
X140624672Y-69762000D01*
X140002115Y-69762000D01*
X139986876Y-69766475D01*
X139985671Y-69767865D01*
X139984000Y-69775548D01*
X139984000Y-72459884D01*
X139476000Y-72459884D01*
X139476000Y-71392115D01*
X139471525Y-71376876D01*
X139470135Y-71375671D01*
X139462452Y-71374000D01*
X138390116Y-71374000D01*
X138374877Y-71378475D01*
X138373672Y-71379865D01*
X138372001Y-71387548D01*
X138372001Y-72014669D01*
X130048500Y-72014669D01*
X130048500Y-70847885D01*
X138372000Y-70847885D01*
X138376475Y-70863124D01*
X138377865Y-70864329D01*
X138385548Y-70866000D01*
X139457885Y-70866000D01*
X139473124Y-70861525D01*
X139474329Y-70860135D01*
X139476000Y-70852452D01*
X139476000Y-69780116D01*
X139471525Y-69764877D01*
X139470135Y-69763672D01*
X139462452Y-69762001D01*
X138835331Y-69762001D01*
X138828510Y-69762371D01*
X138777648Y-69767895D01*
X138762396Y-69771521D01*
X138641946Y-69816676D01*
X138626351Y-69825214D01*
X138524276Y-69901715D01*
X138511715Y-69914276D01*
X138435214Y-70016351D01*
X138426676Y-70031946D01*
X138381522Y-70152394D01*
X138377895Y-70167649D01*
X138372369Y-70218514D01*
X138372000Y-70225328D01*
X138372000Y-70847885D01*
X130048500Y-70847885D01*
X130048500Y-69214500D01*
X130068502Y-69146379D01*
X130122158Y-69099886D01*
X130174500Y-69088500D01*
X159385500Y-69088500D01*
X159453621Y-69108502D01*
G37*
%TD.AperFunction*%
%TD*%
M02*
