%TF.GenerationSoftware,KiCad,Pcbnew,(6.0.4)*%
%TF.CreationDate,2022-08-23T00:57:11+02:00*%
%TF.ProjectId,MinimistCMZ,4d696e69-6d69-4737-9443-4d5a2e6b6963,rev?*%
%TF.SameCoordinates,Original*%
%TF.FileFunction,Soldermask,Top*%
%TF.FilePolarity,Negative*%
%FSLAX46Y46*%
G04 Gerber Fmt 4.6, Leading zero omitted, Abs format (unit mm)*
G04 Created by KiCad (PCBNEW (6.0.4)) date 2022-08-23 00:57:11*
%MOMM*%
%LPD*%
G01*
G04 APERTURE LIST*
G04 Aperture macros list*
%AMRoundRect*
0 Rectangle with rounded corners*
0 $1 Rounding radius*
0 $2 $3 $4 $5 $6 $7 $8 $9 X,Y pos of 4 corners*
0 Add a 4 corners polygon primitive as box body*
4,1,4,$2,$3,$4,$5,$6,$7,$8,$9,$2,$3,0*
0 Add four circle primitives for the rounded corners*
1,1,$1+$1,$2,$3*
1,1,$1+$1,$4,$5*
1,1,$1+$1,$6,$7*
1,1,$1+$1,$8,$9*
0 Add four rect primitives between the rounded corners*
20,1,$1+$1,$2,$3,$4,$5,0*
20,1,$1+$1,$4,$5,$6,$7,0*
20,1,$1+$1,$6,$7,$8,$9,0*
20,1,$1+$1,$8,$9,$2,$3,0*%
G04 Aperture macros list end*
%ADD10R,1.500000X1.500000*%
%ADD11C,1.500000*%
%ADD12RoundRect,0.250000X0.450000X-0.350000X0.450000X0.350000X-0.450000X0.350000X-0.450000X-0.350000X0*%
%ADD13RoundRect,0.250000X-0.450000X0.350000X-0.450000X-0.350000X0.450000X-0.350000X0.450000X0.350000X0*%
%ADD14RoundRect,0.250000X0.350000X0.450000X-0.350000X0.450000X-0.350000X-0.450000X0.350000X-0.450000X0*%
%ADD15RoundRect,0.250000X0.325000X0.450000X-0.325000X0.450000X-0.325000X-0.450000X0.325000X-0.450000X0*%
%ADD16R,1.700000X1.700000*%
%ADD17O,1.700000X1.700000*%
%ADD18RoundRect,0.250000X-0.325000X-0.450000X0.325000X-0.450000X0.325000X0.450000X-0.325000X0.450000X0*%
%ADD19R,2.000000X2.000000*%
%ADD20C,2.000000*%
G04 APERTURE END LIST*
D10*
%TO.C,U1*%
X149860000Y-129540000D03*
D11*
X147320000Y-129540000D03*
X144780000Y-129540000D03*
X142240000Y-129540000D03*
%TD*%
D12*
%TO.C,R5*%
X137160000Y-105140000D03*
X137160000Y-103140000D03*
%TD*%
%TO.C,R4*%
X137160000Y-112760000D03*
X137160000Y-110760000D03*
%TD*%
%TO.C,R3*%
X156464000Y-129651000D03*
X156464000Y-127651000D03*
%TD*%
D13*
%TO.C,R2*%
X133096000Y-127651000D03*
X133096000Y-129651000D03*
%TD*%
D14*
%TO.C,R1*%
X149844000Y-124206000D03*
X147844000Y-124206000D03*
%TD*%
D15*
%TO.C,LED1*%
X133105000Y-132080000D03*
X131055000Y-132080000D03*
%TD*%
D16*
%TO.C,J4*%
X134747000Y-137033000D03*
D17*
X132207000Y-137033000D03*
%TD*%
%TO.C,J3*%
X157480000Y-124460000D03*
X157480000Y-121920000D03*
X157480000Y-119380000D03*
X157480000Y-116840000D03*
X157480000Y-114300000D03*
X157480000Y-111760000D03*
X157480000Y-109220000D03*
X157480000Y-106680000D03*
X157480000Y-104140000D03*
X157480000Y-101600000D03*
X157480000Y-99060000D03*
X157480000Y-96520000D03*
X157480000Y-93980000D03*
X157480000Y-91440000D03*
X157480000Y-88900000D03*
X157480000Y-86360000D03*
X157480000Y-83820000D03*
X157480000Y-81280000D03*
X157480000Y-78740000D03*
D16*
X157480000Y-76200000D03*
%TD*%
D17*
%TO.C,J2*%
X149890000Y-71120000D03*
X147350000Y-71120000D03*
X144810000Y-71120000D03*
X142270000Y-71120000D03*
D16*
X139730000Y-71120000D03*
%TD*%
%TO.C,J1*%
X132080000Y-76200000D03*
D17*
X132080000Y-78740000D03*
X132080000Y-81280000D03*
X132080000Y-83820000D03*
X132080000Y-86360000D03*
X132080000Y-88900000D03*
X132080000Y-91440000D03*
X132080000Y-93980000D03*
X132080000Y-96520000D03*
X132080000Y-99060000D03*
X132080000Y-101600000D03*
X132080000Y-104140000D03*
X132080000Y-106680000D03*
X132080000Y-109220000D03*
X132080000Y-111760000D03*
X132080000Y-114300000D03*
X132080000Y-116840000D03*
X132080000Y-119380000D03*
X132080000Y-121920000D03*
X132080000Y-124460000D03*
%TD*%
D18*
%TO.C,D3*%
X132071000Y-71120000D03*
X134121000Y-71120000D03*
%TD*%
%TO.C,D2*%
X158505000Y-132080000D03*
X156455000Y-132080000D03*
%TD*%
D19*
%TO.C,BZ1*%
X140980000Y-96520000D03*
D20*
X148580000Y-96520000D03*
%TD*%
M02*
