%TF.GenerationSoftware,KiCad,Pcbnew,(6.0.5)*%
%TF.CreationDate,2022-08-03T18:34:55+02:00*%
%TF.ProjectId,Minimist1,4d696e69-6d69-4737-9431-2e6b69636164,rev?*%
%TF.SameCoordinates,Original*%
%TF.FileFunction,Copper,L2,Bot*%
%TF.FilePolarity,Positive*%
%FSLAX46Y46*%
G04 Gerber Fmt 4.6, Leading zero omitted, Abs format (unit mm)*
G04 Created by KiCad (PCBNEW (6.0.5)) date 2022-08-03 18:34:55*
%MOMM*%
%LPD*%
G01*
G04 APERTURE LIST*
%TA.AperFunction,ComponentPad*%
%ADD10R,2.000000X2.000000*%
%TD*%
%TA.AperFunction,ComponentPad*%
%ADD11C,2.000000*%
%TD*%
%TA.AperFunction,ComponentPad*%
%ADD12R,1.800000X1.800000*%
%TD*%
%TA.AperFunction,ComponentPad*%
%ADD13C,1.800000*%
%TD*%
%TA.AperFunction,ComponentPad*%
%ADD14C,1.600000*%
%TD*%
%TA.AperFunction,ComponentPad*%
%ADD15O,1.600000X1.600000*%
%TD*%
%TA.AperFunction,ComponentPad*%
%ADD16R,1.700000X1.700000*%
%TD*%
%TA.AperFunction,ComponentPad*%
%ADD17O,1.700000X1.700000*%
%TD*%
%TA.AperFunction,ComponentPad*%
%ADD18R,1.500000X1.500000*%
%TD*%
%TA.AperFunction,ComponentPad*%
%ADD19C,1.500000*%
%TD*%
%TA.AperFunction,ComponentPad*%
%ADD20R,1.600000X1.600000*%
%TD*%
%TA.AperFunction,Conductor*%
%ADD21C,1.000000*%
%TD*%
G04 APERTURE END LIST*
D10*
%TO.P,BZ1,1,-*%
%TO.N,/Buzzer*%
X158740000Y-86360000D03*
D11*
%TO.P,BZ1,2,+*%
%TO.N,GND*%
X151140000Y-86360000D03*
%TD*%
D12*
%TO.P,LED1,1,K*%
%TO.N,Net-(LED1-Pad1)*%
X152400000Y-71120000D03*
D13*
%TO.P,LED1,2,A*%
%TO.N,Net-(J1-Pad13)*%
X149860000Y-71120000D03*
%TD*%
D12*
%TO.P,D2,1,K*%
%TO.N,Net-(D2-Pad1)*%
X196850000Y-71120000D03*
D13*
%TO.P,D2,2,A*%
%TO.N,Net-(D2-Pad2)*%
X199390000Y-71120000D03*
%TD*%
D14*
%TO.P,R3,1*%
%TO.N,Net-(D2-Pad1)*%
X196850000Y-63500000D03*
D15*
%TO.P,R3,2*%
%TO.N,0*%
X204470000Y-63500000D03*
%TD*%
D16*
%TO.P,J3,1,Pin_1*%
%TO.N,GND*%
X190500000Y-114300000D03*
D17*
%TO.P,J3,2,Pin_2*%
%TO.N,unconnected-(J3-Pad2)*%
X190500000Y-111760000D03*
%TO.P,J3,3,Pin_3*%
%TO.N,unconnected-(J3-Pad3)*%
X190500000Y-109220000D03*
%TO.P,J3,4,Pin_4*%
%TO.N,unconnected-(J3-Pad4)*%
X190500000Y-106680000D03*
%TO.P,J3,5,Pin_5*%
%TO.N,Net-(D2-Pad2)*%
X190500000Y-104140000D03*
%TO.P,J3,6,Pin_6*%
%TO.N,unconnected-(J3-Pad6)*%
X190500000Y-101600000D03*
%TO.P,J3,7,Pin_7*%
%TO.N,unconnected-(J3-Pad7)*%
X190500000Y-99060000D03*
%TO.P,J3,8,Pin_8*%
%TO.N,unconnected-(J3-Pad8)*%
X190500000Y-96520000D03*
%TO.P,J3,9,Pin_9*%
%TO.N,GND*%
X190500000Y-93980000D03*
%TO.P,J3,10,Pin_10*%
X190500000Y-91440000D03*
%TO.P,J3,11,Pin_11*%
%TO.N,unconnected-(J3-Pad11)*%
X190500000Y-88900000D03*
%TO.P,J3,12,Pin_12*%
%TO.N,unconnected-(J3-Pad12)*%
X190500000Y-86360000D03*
%TO.P,J3,13,Pin_13*%
%TO.N,unconnected-(J3-Pad13)*%
X190500000Y-83820000D03*
%TO.P,J3,14,Pin_14*%
%TO.N,GND*%
X190500000Y-81280000D03*
%TO.P,J3,15,Pin_15*%
%TO.N,unconnected-(J3-Pad15)*%
X190500000Y-78740000D03*
%TO.P,J3,16,Pin_16*%
%TO.N,unconnected-(J3-Pad16)*%
X190500000Y-76200000D03*
%TO.P,J3,17,Pin_17*%
%TO.N,unconnected-(J3-Pad17)*%
X190500000Y-73660000D03*
%TO.P,J3,18,Pin_18*%
%TO.N,unconnected-(J3-Pad18)*%
X190500000Y-71120000D03*
%TO.P,J3,19,Pin_19*%
%TO.N,unconnected-(J3-Pad19)*%
X190500000Y-68580000D03*
%TO.P,J3,20,Pin_20*%
%TO.N,GND*%
X190500000Y-66040000D03*
%TD*%
D14*
%TO.P,R2,1*%
%TO.N,GND*%
X152400000Y-57150000D03*
D15*
%TO.P,R2,2*%
%TO.N,Net-(LED1-Pad1)*%
X152400000Y-64770000D03*
%TD*%
D14*
%TO.P,R1,1*%
%TO.N,VCC*%
X147320000Y-113030000D03*
D15*
%TO.P,R1,2*%
%TO.N,/DHT11_IN*%
X147320000Y-105410000D03*
%TD*%
D18*
%TO.P,U1,1,VCC*%
%TO.N,VCC*%
X154842500Y-107852500D03*
D19*
%TO.P,U1,2,IO*%
%TO.N,/DHT11_IN*%
X154842500Y-105312500D03*
%TO.P,U1,3,NC*%
%TO.N,unconnected-(U1-Pad3)*%
X154842500Y-102772500D03*
%TO.P,U1,4,GND*%
%TO.N,GND*%
X154842500Y-100232500D03*
%TD*%
D20*
%TO.P,D3,1,K*%
%TO.N,Net-(D3-Pad1)*%
X160020000Y-69850000D03*
D15*
%TO.P,D3,2,A*%
%TO.N,/Solar*%
X160020000Y-62230000D03*
%TD*%
D16*
%TO.P,J2,1,Pin_1*%
%TO.N,GND*%
X182880000Y-45720000D03*
D17*
%TO.P,J2,2,Pin_2*%
%TO.N,unconnected-(J2-Pad2)*%
X180340000Y-45720000D03*
%TO.P,J2,3,Pin_3*%
%TO.N,unconnected-(J2-Pad3)*%
X177800000Y-45720000D03*
%TO.P,J2,4,Pin_4*%
%TO.N,/Solar*%
X175260000Y-45720000D03*
%TO.P,J2,5,Pin_5*%
%TO.N,unconnected-(J2-Pad5)*%
X172720000Y-45720000D03*
%TD*%
D16*
%TO.P,J1,1,Pin_1*%
%TO.N,/3.3V*%
X165100000Y-66040000D03*
D17*
%TO.P,J1,2,Pin_2*%
%TO.N,unconnected-(J1-Pad2)*%
X165100000Y-68580000D03*
%TO.P,J1,3,Pin_3*%
%TO.N,unconnected-(J1-Pad3)*%
X165100000Y-71120000D03*
%TO.P,J1,4,Pin_4*%
%TO.N,unconnected-(J1-Pad4)*%
X165100000Y-73660000D03*
%TO.P,J1,5,Pin_5*%
%TO.N,unconnected-(J1-Pad5)*%
X165100000Y-76200000D03*
%TO.P,J1,6,Pin_6*%
%TO.N,unconnected-(J1-Pad6)*%
X165100000Y-78740000D03*
%TO.P,J1,7,Pin_7*%
%TO.N,Net-(D3-Pad1)*%
X165100000Y-81280000D03*
%TO.P,J1,8,Pin_8*%
%TO.N,/Battery*%
X165100000Y-83820000D03*
%TO.P,J1,9,Pin_9*%
%TO.N,unconnected-(J1-Pad9)*%
X165100000Y-86360000D03*
%TO.P,J1,10,Pin_10*%
%TO.N,unconnected-(J1-Pad10)*%
X165100000Y-88900000D03*
%TO.P,J1,11,Pin_11*%
%TO.N,unconnected-(J1-Pad11)*%
X165100000Y-91440000D03*
%TO.P,J1,12,Pin_12*%
%TO.N,/Buzzer*%
X165100000Y-93980000D03*
%TO.P,J1,13,Pin_13*%
%TO.N,Net-(J1-Pad13)*%
X165100000Y-96520000D03*
%TO.P,J1,14,Pin_14*%
%TO.N,GND*%
X165100000Y-99060000D03*
%TO.P,J1,15,Pin_15*%
%TO.N,/DHT11_IN*%
X165100000Y-101600000D03*
%TO.P,J1,16,Pin_16*%
%TO.N,unconnected-(J1-Pad16)*%
X165100000Y-104140000D03*
%TO.P,J1,17,Pin_17*%
%TO.N,unconnected-(J1-Pad17)*%
X165100000Y-106680000D03*
%TO.P,J1,18,Pin_18*%
%TO.N,unconnected-(J1-Pad18)*%
X165100000Y-109220000D03*
%TO.P,J1,19,Pin_19*%
%TO.N,VCC*%
X165100000Y-111760000D03*
%TO.P,J1,20,Pin_20*%
X165100000Y-114300000D03*
%TD*%
D14*
%TO.P,R4,1*%
%TO.N,/Battery_Vin*%
X184150000Y-55880000D03*
D15*
%TO.P,R4,2*%
%TO.N,/Battery*%
X176530000Y-55880000D03*
%TD*%
D16*
%TO.P,VoltRegIn1,1,Pin_1*%
%TO.N,/Battery_Vin*%
X190500000Y-55880000D03*
D17*
%TO.P,VoltRegIn1,2,Pin_2*%
%TO.N,GND*%
X190500000Y-58420000D03*
%TD*%
D16*
%TO.P,BatteryIn1,1,Pin_1*%
%TO.N,/Battery_Vin*%
X198120000Y-55880000D03*
D17*
%TO.P,BatteryIn1,2,Pin_2*%
%TO.N,GND*%
X198120000Y-58420000D03*
%TD*%
D16*
%TO.P,switch2,1,Pin_1*%
%TO.N,/3.3V*%
X172720000Y-50800000D03*
%TD*%
D14*
%TO.P,R5,1*%
%TO.N,/Battery*%
X176530000Y-63500000D03*
D15*
%TO.P,R5,2*%
%TO.N,GND*%
X184150000Y-63500000D03*
%TD*%
D16*
%TO.P,switch1,1,Pin_1*%
%TO.N,/Vout*%
X180340000Y-50800000D03*
%TD*%
%TO.P,VoltRegOut1,1,Pin_1*%
%TO.N,GND*%
X170180000Y-58420000D03*
D17*
%TO.P,VoltRegOut1,2,Pin_2*%
%TO.N,/Vout*%
X170180000Y-55880000D03*
%TD*%
D21*
%TO.N,GND*%
X190500000Y-58420000D02*
X198120000Y-58420000D01*
%TO.N,/Vout*%
X172720000Y-55880000D02*
X170180000Y-55880000D01*
%TO.N,/3.3V*%
X172720000Y-50800000D02*
X167640000Y-50800000D01*
%TO.N,/Buzzer*%
X158740000Y-87620000D02*
X158740000Y-86360000D01*
X165100000Y-93980000D02*
X158740000Y-87620000D01*
%TO.N,/Vout*%
X177800000Y-50800000D02*
X180340000Y-50800000D01*
%TO.N,/3.3V*%
X165100000Y-53340000D02*
X167640000Y-50800000D01*
%TO.N,/Vout*%
X172720000Y-55880000D02*
X177800000Y-50800000D01*
%TO.N,/3.3V*%
X165100000Y-66040000D02*
X165100000Y-53340000D01*
%TO.N,/Solar*%
X160020000Y-53340000D02*
X166090489Y-47269511D01*
X166090489Y-47269511D02*
X173710489Y-47269511D01*
X160020000Y-62230000D02*
X160020000Y-53340000D01*
X173710489Y-47269511D02*
X175260000Y-45720000D01*
%TO.N,/DHT11_IN*%
X165100000Y-101600000D02*
X161387500Y-105312500D01*
X161387500Y-105312500D02*
X154842500Y-105312500D01*
X147320000Y-105410000D02*
X154745000Y-105410000D01*
X154745000Y-105410000D02*
X154842500Y-105312500D01*
%TO.N,/Battery*%
X176530000Y-72390000D02*
X165100000Y-83820000D01*
X176530000Y-55880000D02*
X176530000Y-63500000D01*
X176530000Y-63500000D02*
X176530000Y-72390000D01*
%TO.N,VCC*%
X158750000Y-111760000D02*
X154842500Y-107852500D01*
X149665000Y-113030000D02*
X154842500Y-107852500D01*
X147320000Y-113030000D02*
X149665000Y-113030000D01*
X165100000Y-111760000D02*
X165100000Y-114300000D01*
X165100000Y-111760000D02*
X158750000Y-111760000D01*
%TO.N,Net-(D2-Pad2)*%
X199390000Y-97790000D02*
X199390000Y-71120000D01*
X193040000Y-104140000D02*
X199390000Y-97790000D01*
X190500000Y-104140000D02*
X193040000Y-104140000D01*
%TO.N,Net-(D2-Pad1)*%
X196850000Y-71120000D02*
X196850000Y-63500000D01*
%TO.N,/Battery_Vin*%
X184150000Y-55880000D02*
X187960000Y-55880000D01*
X190500000Y-55880000D02*
X187960000Y-55880000D01*
X198120000Y-55880000D02*
X190500000Y-55880000D01*
%TO.N,Net-(D3-Pad1)*%
X160020000Y-69850000D02*
X160020000Y-76200000D01*
X165100000Y-81280000D02*
X160020000Y-76200000D01*
%TO.N,Net-(LED1-Pad1)*%
X152400000Y-71120000D02*
X152400000Y-64770000D01*
%TO.N,Net-(J1-Pad13)*%
X149860000Y-96520000D02*
X144780000Y-91440000D01*
X144780000Y-73660000D02*
X147320000Y-71120000D01*
X165100000Y-96520000D02*
X149860000Y-96520000D01*
X144780000Y-91440000D02*
X144780000Y-73660000D01*
X147320000Y-71120000D02*
X149860000Y-71120000D01*
%TD*%
%TA.AperFunction,Conductor*%
%TO.N,GND*%
G36*
X210253621Y-43708502D02*
G01*
X210300114Y-43762158D01*
X210311500Y-43814500D01*
X210311500Y-121285500D01*
X210291498Y-121353621D01*
X210237842Y-121400114D01*
X210185500Y-121411500D01*
X140334500Y-121411500D01*
X140266379Y-121391498D01*
X140219886Y-121337842D01*
X140208500Y-121285500D01*
X140208500Y-113030000D01*
X146006502Y-113030000D01*
X146026457Y-113258087D01*
X146027881Y-113263400D01*
X146027881Y-113263402D01*
X146083942Y-113472621D01*
X146085716Y-113479243D01*
X146088039Y-113484224D01*
X146088039Y-113484225D01*
X146180151Y-113681762D01*
X146180154Y-113681767D01*
X146182477Y-113686749D01*
X146250056Y-113783262D01*
X146304281Y-113860702D01*
X146313802Y-113874300D01*
X146475700Y-114036198D01*
X146480208Y-114039355D01*
X146480211Y-114039357D01*
X146527319Y-114072342D01*
X146663251Y-114167523D01*
X146668233Y-114169846D01*
X146668238Y-114169849D01*
X146865775Y-114261961D01*
X146870757Y-114264284D01*
X146876065Y-114265706D01*
X146876067Y-114265707D01*
X147086598Y-114322119D01*
X147086600Y-114322119D01*
X147091913Y-114323543D01*
X147320000Y-114343498D01*
X147548087Y-114323543D01*
X147553400Y-114322119D01*
X147553402Y-114322119D01*
X147763933Y-114265707D01*
X147763935Y-114265706D01*
X147769243Y-114264284D01*
X147774225Y-114261961D01*
X147971762Y-114169849D01*
X147971767Y-114169846D01*
X147976749Y-114167523D01*
X148128469Y-114061287D01*
X148200740Y-114038500D01*
X149603157Y-114038500D01*
X149616764Y-114039237D01*
X149648262Y-114042659D01*
X149648267Y-114042659D01*
X149654388Y-114043324D01*
X149680638Y-114041027D01*
X149704388Y-114038950D01*
X149709214Y-114038621D01*
X149711686Y-114038500D01*
X149714769Y-114038500D01*
X149726738Y-114037326D01*
X149757506Y-114034310D01*
X149758819Y-114034188D01*
X149803084Y-114030315D01*
X149851413Y-114026087D01*
X149856532Y-114024600D01*
X149861833Y-114024080D01*
X149950834Y-113997209D01*
X149951967Y-113996874D01*
X150035414Y-113972630D01*
X150035418Y-113972628D01*
X150041336Y-113970909D01*
X150046068Y-113968456D01*
X150051169Y-113966916D01*
X150056612Y-113964022D01*
X150133260Y-113923269D01*
X150134426Y-113922657D01*
X150211453Y-113882729D01*
X150216926Y-113879892D01*
X150221089Y-113876569D01*
X150225796Y-113874066D01*
X150297918Y-113815245D01*
X150298774Y-113814554D01*
X150337973Y-113783262D01*
X150340477Y-113780758D01*
X150341195Y-113780116D01*
X150345528Y-113776415D01*
X150379062Y-113749065D01*
X150408288Y-113713737D01*
X150416277Y-113704958D01*
X154753405Y-109367830D01*
X154815717Y-109333804D01*
X154886532Y-109338869D01*
X154931595Y-109367830D01*
X157993149Y-112429384D01*
X158002251Y-112439527D01*
X158025968Y-112469025D01*
X158064446Y-112501312D01*
X158068062Y-112504467D01*
X158069888Y-112506123D01*
X158072074Y-112508309D01*
X158074454Y-112510264D01*
X158074464Y-112510273D01*
X158105268Y-112535576D01*
X158106283Y-112536418D01*
X158177474Y-112596154D01*
X158182148Y-112598723D01*
X158186261Y-112602102D01*
X158255619Y-112639291D01*
X158268047Y-112645955D01*
X158269177Y-112646568D01*
X158350787Y-112691433D01*
X158355869Y-112693045D01*
X158360563Y-112695562D01*
X158449531Y-112722762D01*
X158450559Y-112723082D01*
X158539306Y-112751235D01*
X158544602Y-112751829D01*
X158549698Y-112753387D01*
X158642222Y-112762785D01*
X158643342Y-112762905D01*
X158676664Y-112766642D01*
X158689730Y-112768108D01*
X158689734Y-112768108D01*
X158693227Y-112768500D01*
X158696754Y-112768500D01*
X158697757Y-112768556D01*
X158703441Y-112769003D01*
X158728857Y-112771585D01*
X158740336Y-112772751D01*
X158740338Y-112772751D01*
X158746462Y-112773373D01*
X158792101Y-112769059D01*
X158803957Y-112768500D01*
X163965500Y-112768500D01*
X164033621Y-112788502D01*
X164080114Y-112842158D01*
X164091500Y-112894500D01*
X164091500Y-113338381D01*
X164071498Y-113406502D01*
X164056594Y-113425432D01*
X164040629Y-113442138D01*
X163914743Y-113626680D01*
X163878408Y-113704958D01*
X163827191Y-113815296D01*
X163820688Y-113829305D01*
X163760989Y-114044570D01*
X163737251Y-114266695D01*
X163737548Y-114271848D01*
X163737548Y-114271851D01*
X163743011Y-114366590D01*
X163750110Y-114489715D01*
X163751247Y-114494761D01*
X163751248Y-114494767D01*
X163765606Y-114558475D01*
X163799222Y-114707639D01*
X163883266Y-114914616D01*
X163999987Y-115105088D01*
X164146250Y-115273938D01*
X164318126Y-115416632D01*
X164511000Y-115529338D01*
X164719692Y-115609030D01*
X164724760Y-115610061D01*
X164724763Y-115610062D01*
X164832017Y-115631883D01*
X164938597Y-115653567D01*
X164943772Y-115653757D01*
X164943774Y-115653757D01*
X165156673Y-115661564D01*
X165156677Y-115661564D01*
X165161837Y-115661753D01*
X165166957Y-115661097D01*
X165166959Y-115661097D01*
X165378288Y-115634025D01*
X165378289Y-115634025D01*
X165383416Y-115633368D01*
X165388366Y-115631883D01*
X165592429Y-115570661D01*
X165592434Y-115570659D01*
X165597384Y-115569174D01*
X165797994Y-115470896D01*
X165979860Y-115341173D01*
X166126877Y-115194669D01*
X189142001Y-115194669D01*
X189142371Y-115201490D01*
X189147895Y-115252352D01*
X189151521Y-115267604D01*
X189196676Y-115388054D01*
X189205214Y-115403649D01*
X189281715Y-115505724D01*
X189294276Y-115518285D01*
X189396351Y-115594786D01*
X189411946Y-115603324D01*
X189532394Y-115648478D01*
X189547649Y-115652105D01*
X189598514Y-115657631D01*
X189605328Y-115658000D01*
X190227885Y-115658000D01*
X190243124Y-115653525D01*
X190244329Y-115652135D01*
X190246000Y-115644452D01*
X190246000Y-115639884D01*
X190754000Y-115639884D01*
X190758475Y-115655123D01*
X190759865Y-115656328D01*
X190767548Y-115657999D01*
X191394669Y-115657999D01*
X191401490Y-115657629D01*
X191452352Y-115652105D01*
X191467604Y-115648479D01*
X191588054Y-115603324D01*
X191603649Y-115594786D01*
X191705724Y-115518285D01*
X191718285Y-115505724D01*
X191794786Y-115403649D01*
X191803324Y-115388054D01*
X191848478Y-115267606D01*
X191852105Y-115252351D01*
X191857631Y-115201486D01*
X191858000Y-115194672D01*
X191858000Y-114572115D01*
X191853525Y-114556876D01*
X191852135Y-114555671D01*
X191844452Y-114554000D01*
X190772115Y-114554000D01*
X190756876Y-114558475D01*
X190755671Y-114559865D01*
X190754000Y-114567548D01*
X190754000Y-115639884D01*
X190246000Y-115639884D01*
X190246000Y-114572115D01*
X190241525Y-114556876D01*
X190240135Y-114555671D01*
X190232452Y-114554000D01*
X189160116Y-114554000D01*
X189144877Y-114558475D01*
X189143672Y-114559865D01*
X189142001Y-114567548D01*
X189142001Y-115194669D01*
X166126877Y-115194669D01*
X166138096Y-115183489D01*
X166197594Y-115100689D01*
X166265435Y-115006277D01*
X166268453Y-115002077D01*
X166367430Y-114801811D01*
X166432370Y-114588069D01*
X166461529Y-114366590D01*
X166463156Y-114300000D01*
X166444852Y-114077361D01*
X166390431Y-113860702D01*
X166301354Y-113655840D01*
X166180014Y-113468277D01*
X166160124Y-113446418D01*
X166141306Y-113425737D01*
X166110254Y-113361891D01*
X166108500Y-113340938D01*
X166108500Y-112723970D01*
X166128502Y-112655849D01*
X166136460Y-112645120D01*
X166138096Y-112643489D01*
X166268453Y-112462077D01*
X166312354Y-112373251D01*
X166365136Y-112266453D01*
X166365137Y-112266451D01*
X166367430Y-112261811D01*
X166432370Y-112048069D01*
X166461529Y-111826590D01*
X166462227Y-111798039D01*
X166463074Y-111763365D01*
X166463074Y-111763361D01*
X166463156Y-111760000D01*
X166460418Y-111726695D01*
X189137251Y-111726695D01*
X189137548Y-111731848D01*
X189137548Y-111731851D01*
X189143011Y-111826590D01*
X189150110Y-111949715D01*
X189151247Y-111954761D01*
X189151248Y-111954767D01*
X189166806Y-112023802D01*
X189199222Y-112167639D01*
X189283266Y-112374616D01*
X189285965Y-112379020D01*
X189362839Y-112504467D01*
X189399987Y-112565088D01*
X189546250Y-112733938D01*
X189550225Y-112737238D01*
X189550231Y-112737244D01*
X189555425Y-112741556D01*
X189595059Y-112800460D01*
X189596555Y-112871441D01*
X189559439Y-112931962D01*
X189519168Y-112956480D01*
X189411946Y-112996676D01*
X189396351Y-113005214D01*
X189294276Y-113081715D01*
X189281715Y-113094276D01*
X189205214Y-113196351D01*
X189196676Y-113211946D01*
X189151522Y-113332394D01*
X189147895Y-113347649D01*
X189142369Y-113398514D01*
X189142000Y-113405328D01*
X189142000Y-114027885D01*
X189146475Y-114043124D01*
X189147865Y-114044329D01*
X189155548Y-114046000D01*
X191839884Y-114046000D01*
X191855123Y-114041525D01*
X191856328Y-114040135D01*
X191857999Y-114032452D01*
X191857999Y-113405331D01*
X191857629Y-113398510D01*
X191852105Y-113347648D01*
X191848479Y-113332396D01*
X191803324Y-113211946D01*
X191794786Y-113196351D01*
X191718285Y-113094276D01*
X191705724Y-113081715D01*
X191603649Y-113005214D01*
X191588054Y-112996676D01*
X191477813Y-112955348D01*
X191421049Y-112912706D01*
X191396349Y-112846145D01*
X191411557Y-112776796D01*
X191433104Y-112748115D01*
X191534430Y-112647144D01*
X191534440Y-112647132D01*
X191538096Y-112643489D01*
X191567836Y-112602102D01*
X191665435Y-112466277D01*
X191668453Y-112462077D01*
X191712354Y-112373251D01*
X191765136Y-112266453D01*
X191765137Y-112266451D01*
X191767430Y-112261811D01*
X191832370Y-112048069D01*
X191861529Y-111826590D01*
X191862227Y-111798039D01*
X191863074Y-111763365D01*
X191863074Y-111763361D01*
X191863156Y-111760000D01*
X191844852Y-111537361D01*
X191790431Y-111320702D01*
X191701354Y-111115840D01*
X191580014Y-110928277D01*
X191429670Y-110763051D01*
X191425619Y-110759852D01*
X191425615Y-110759848D01*
X191258414Y-110627800D01*
X191258410Y-110627798D01*
X191254359Y-110624598D01*
X191213053Y-110601796D01*
X191163084Y-110551364D01*
X191148312Y-110481921D01*
X191173428Y-110415516D01*
X191200780Y-110388909D01*
X191244603Y-110357650D01*
X191379860Y-110261173D01*
X191538096Y-110103489D01*
X191597594Y-110020689D01*
X191665435Y-109926277D01*
X191668453Y-109922077D01*
X191767430Y-109721811D01*
X191832370Y-109508069D01*
X191861529Y-109286590D01*
X191863156Y-109220000D01*
X191844852Y-108997361D01*
X191790431Y-108780702D01*
X191701354Y-108575840D01*
X191580014Y-108388277D01*
X191429670Y-108223051D01*
X191425619Y-108219852D01*
X191425615Y-108219848D01*
X191258414Y-108087800D01*
X191258410Y-108087798D01*
X191254359Y-108084598D01*
X191213053Y-108061796D01*
X191163084Y-108011364D01*
X191148312Y-107941921D01*
X191173428Y-107875516D01*
X191200780Y-107848909D01*
X191244603Y-107817650D01*
X191379860Y-107721173D01*
X191416395Y-107684766D01*
X191534435Y-107567137D01*
X191538096Y-107563489D01*
X191597594Y-107480689D01*
X191665435Y-107386277D01*
X191668453Y-107382077D01*
X191767430Y-107181811D01*
X191807183Y-107050969D01*
X191830865Y-106973023D01*
X191830865Y-106973021D01*
X191832370Y-106968069D01*
X191861529Y-106746590D01*
X191863156Y-106680000D01*
X191844852Y-106457361D01*
X191790431Y-106240702D01*
X191701354Y-106035840D01*
X191661906Y-105974862D01*
X191582822Y-105852617D01*
X191582820Y-105852614D01*
X191580014Y-105848277D01*
X191429670Y-105683051D01*
X191425619Y-105679852D01*
X191425615Y-105679848D01*
X191258414Y-105547800D01*
X191258410Y-105547798D01*
X191254359Y-105544598D01*
X191213053Y-105521796D01*
X191163084Y-105471364D01*
X191148312Y-105401921D01*
X191173428Y-105335516D01*
X191200780Y-105308909D01*
X191375651Y-105184175D01*
X191379860Y-105181173D01*
X191382886Y-105178157D01*
X191447588Y-105149570D01*
X191463976Y-105148500D01*
X192978157Y-105148500D01*
X192991764Y-105149237D01*
X193023262Y-105152659D01*
X193023267Y-105152659D01*
X193029388Y-105153324D01*
X193055638Y-105151027D01*
X193079388Y-105148950D01*
X193084214Y-105148621D01*
X193086686Y-105148500D01*
X193089769Y-105148500D01*
X193101738Y-105147326D01*
X193132506Y-105144310D01*
X193133819Y-105144188D01*
X193178084Y-105140315D01*
X193226413Y-105136087D01*
X193231532Y-105134600D01*
X193236833Y-105134080D01*
X193325834Y-105107209D01*
X193326967Y-105106874D01*
X193410414Y-105082630D01*
X193410418Y-105082628D01*
X193416336Y-105080909D01*
X193421068Y-105078456D01*
X193426169Y-105076916D01*
X193431612Y-105074022D01*
X193508260Y-105033269D01*
X193509426Y-105032657D01*
X193586453Y-104992729D01*
X193591926Y-104989892D01*
X193596089Y-104986569D01*
X193600796Y-104984066D01*
X193672918Y-104925245D01*
X193673774Y-104924554D01*
X193712973Y-104893262D01*
X193715477Y-104890758D01*
X193716195Y-104890116D01*
X193720528Y-104886415D01*
X193754062Y-104859065D01*
X193771954Y-104837438D01*
X193783287Y-104823738D01*
X193791277Y-104814958D01*
X200059379Y-98546855D01*
X200069522Y-98537753D01*
X200094218Y-98517897D01*
X200099025Y-98514032D01*
X200131292Y-98475578D01*
X200134472Y-98471931D01*
X200136115Y-98470119D01*
X200138309Y-98467925D01*
X200165642Y-98434651D01*
X200166348Y-98433800D01*
X200177433Y-98420590D01*
X200226154Y-98362526D01*
X200228722Y-98357856D01*
X200232103Y-98353739D01*
X200275977Y-98271914D01*
X200276606Y-98270755D01*
X200318462Y-98194619D01*
X200318465Y-98194611D01*
X200321433Y-98189213D01*
X200323045Y-98184131D01*
X200325562Y-98179437D01*
X200352762Y-98090469D01*
X200353108Y-98089358D01*
X200360125Y-98067240D01*
X200381235Y-98000694D01*
X200381829Y-97995398D01*
X200383387Y-97990302D01*
X200392790Y-97897743D01*
X200392911Y-97896607D01*
X200398500Y-97846773D01*
X200398500Y-97843246D01*
X200398555Y-97842261D01*
X200399002Y-97836581D01*
X200402596Y-97801195D01*
X200402752Y-97799663D01*
X200402752Y-97799661D01*
X200403374Y-97793538D01*
X200399059Y-97747891D01*
X200398500Y-97736033D01*
X200398500Y-72155892D01*
X200418502Y-72087771D01*
X200435560Y-72066641D01*
X200462642Y-72039653D01*
X200466303Y-72036005D01*
X200601458Y-71847917D01*
X200659821Y-71729829D01*
X200701784Y-71644922D01*
X200701785Y-71644920D01*
X200704078Y-71640280D01*
X200771408Y-71418671D01*
X200801640Y-71189041D01*
X200802635Y-71148308D01*
X200803245Y-71123365D01*
X200803245Y-71123361D01*
X200803327Y-71120000D01*
X200794994Y-71018642D01*
X200784773Y-70894318D01*
X200784772Y-70894312D01*
X200784349Y-70889167D01*
X200733247Y-70685720D01*
X200729184Y-70669544D01*
X200729183Y-70669540D01*
X200727925Y-70664533D01*
X200725866Y-70659797D01*
X200637630Y-70456868D01*
X200637628Y-70456865D01*
X200635570Y-70452131D01*
X200509764Y-70257665D01*
X200353887Y-70086358D01*
X200349836Y-70083159D01*
X200349832Y-70083155D01*
X200176177Y-69946011D01*
X200176172Y-69946008D01*
X200172123Y-69942810D01*
X200167607Y-69940317D01*
X200167604Y-69940315D01*
X199973879Y-69833373D01*
X199973875Y-69833371D01*
X199969355Y-69830876D01*
X199964486Y-69829152D01*
X199964482Y-69829150D01*
X199755903Y-69755288D01*
X199755899Y-69755287D01*
X199751028Y-69753562D01*
X199745935Y-69752655D01*
X199745932Y-69752654D01*
X199528095Y-69713851D01*
X199528089Y-69713850D01*
X199523006Y-69712945D01*
X199450096Y-69712054D01*
X199296581Y-69710179D01*
X199296579Y-69710179D01*
X199291411Y-69710116D01*
X199062464Y-69745150D01*
X198842314Y-69817106D01*
X198837726Y-69819494D01*
X198837722Y-69819496D01*
X198661245Y-69911364D01*
X198636872Y-69924052D01*
X198632739Y-69927155D01*
X198632736Y-69927157D01*
X198484319Y-70038592D01*
X198451655Y-70063117D01*
X198442641Y-70072550D01*
X198434170Y-70081414D01*
X198372646Y-70116844D01*
X198301733Y-70113387D01*
X198243947Y-70072141D01*
X198225094Y-70038592D01*
X198203768Y-69981705D01*
X198203767Y-69981703D01*
X198200615Y-69973295D01*
X198113261Y-69856739D01*
X197996705Y-69769385D01*
X197986092Y-69765406D01*
X197940270Y-69748228D01*
X197883505Y-69705586D01*
X197858806Y-69639024D01*
X197858500Y-69630246D01*
X197858500Y-64380740D01*
X197881287Y-64308469D01*
X197984366Y-64161257D01*
X197987523Y-64156749D01*
X197989846Y-64151767D01*
X197989849Y-64151762D01*
X198081961Y-63954225D01*
X198081961Y-63954224D01*
X198084284Y-63949243D01*
X198090593Y-63925700D01*
X198142119Y-63733402D01*
X198142119Y-63733400D01*
X198143543Y-63728087D01*
X198163498Y-63500000D01*
X203156502Y-63500000D01*
X203176457Y-63728087D01*
X203177881Y-63733400D01*
X203177881Y-63733402D01*
X203229408Y-63925700D01*
X203235716Y-63949243D01*
X203238039Y-63954224D01*
X203238039Y-63954225D01*
X203330151Y-64151762D01*
X203330154Y-64151767D01*
X203332477Y-64156749D01*
X203335634Y-64161257D01*
X203443829Y-64315775D01*
X203463802Y-64344300D01*
X203625700Y-64506198D01*
X203630208Y-64509355D01*
X203630211Y-64509357D01*
X203676706Y-64541913D01*
X203813251Y-64637523D01*
X203818233Y-64639846D01*
X203818238Y-64639849D01*
X204012125Y-64730259D01*
X204020757Y-64734284D01*
X204026065Y-64735706D01*
X204026067Y-64735707D01*
X204236598Y-64792119D01*
X204236600Y-64792119D01*
X204241913Y-64793543D01*
X204470000Y-64813498D01*
X204698087Y-64793543D01*
X204703400Y-64792119D01*
X204703402Y-64792119D01*
X204913933Y-64735707D01*
X204913935Y-64735706D01*
X204919243Y-64734284D01*
X204927875Y-64730259D01*
X205121762Y-64639849D01*
X205121767Y-64639846D01*
X205126749Y-64637523D01*
X205263294Y-64541913D01*
X205309789Y-64509357D01*
X205309792Y-64509355D01*
X205314300Y-64506198D01*
X205476198Y-64344300D01*
X205496172Y-64315775D01*
X205604366Y-64161257D01*
X205607523Y-64156749D01*
X205609846Y-64151767D01*
X205609849Y-64151762D01*
X205701961Y-63954225D01*
X205701961Y-63954224D01*
X205704284Y-63949243D01*
X205710593Y-63925700D01*
X205762119Y-63733402D01*
X205762119Y-63733400D01*
X205763543Y-63728087D01*
X205783498Y-63500000D01*
X205763543Y-63271913D01*
X205753244Y-63233478D01*
X205705707Y-63056067D01*
X205705706Y-63056065D01*
X205704284Y-63050757D01*
X205701961Y-63045775D01*
X205609849Y-62848238D01*
X205609846Y-62848233D01*
X205607523Y-62843251D01*
X205501287Y-62691531D01*
X205479357Y-62660211D01*
X205479355Y-62660208D01*
X205476198Y-62655700D01*
X205314300Y-62493802D01*
X205309792Y-62490645D01*
X205309789Y-62490643D01*
X205231611Y-62435902D01*
X205126749Y-62362477D01*
X205121767Y-62360154D01*
X205121762Y-62360151D01*
X204924225Y-62268039D01*
X204924224Y-62268039D01*
X204919243Y-62265716D01*
X204913935Y-62264294D01*
X204913933Y-62264293D01*
X204703402Y-62207881D01*
X204703400Y-62207881D01*
X204698087Y-62206457D01*
X204470000Y-62186502D01*
X204241913Y-62206457D01*
X204236600Y-62207881D01*
X204236598Y-62207881D01*
X204026067Y-62264293D01*
X204026065Y-62264294D01*
X204020757Y-62265716D01*
X204015776Y-62268039D01*
X204015775Y-62268039D01*
X203818238Y-62360151D01*
X203818233Y-62360154D01*
X203813251Y-62362477D01*
X203708389Y-62435902D01*
X203630211Y-62490643D01*
X203630208Y-62490645D01*
X203625700Y-62493802D01*
X203463802Y-62655700D01*
X203460645Y-62660208D01*
X203460643Y-62660211D01*
X203438713Y-62691531D01*
X203332477Y-62843251D01*
X203330154Y-62848233D01*
X203330151Y-62848238D01*
X203238039Y-63045775D01*
X203235716Y-63050757D01*
X203234294Y-63056065D01*
X203234293Y-63056067D01*
X203186756Y-63233478D01*
X203176457Y-63271913D01*
X203156502Y-63500000D01*
X198163498Y-63500000D01*
X198143543Y-63271913D01*
X198133244Y-63233478D01*
X198085707Y-63056067D01*
X198085706Y-63056065D01*
X198084284Y-63050757D01*
X198081961Y-63045775D01*
X197989849Y-62848238D01*
X197989846Y-62848233D01*
X197987523Y-62843251D01*
X197881287Y-62691531D01*
X197859357Y-62660211D01*
X197859355Y-62660208D01*
X197856198Y-62655700D01*
X197694300Y-62493802D01*
X197689792Y-62490645D01*
X197689789Y-62490643D01*
X197611611Y-62435902D01*
X197506749Y-62362477D01*
X197501767Y-62360154D01*
X197501762Y-62360151D01*
X197304225Y-62268039D01*
X197304224Y-62268039D01*
X197299243Y-62265716D01*
X197293935Y-62264294D01*
X197293933Y-62264293D01*
X197083402Y-62207881D01*
X197083400Y-62207881D01*
X197078087Y-62206457D01*
X196850000Y-62186502D01*
X196621913Y-62206457D01*
X196616600Y-62207881D01*
X196616598Y-62207881D01*
X196406067Y-62264293D01*
X196406065Y-62264294D01*
X196400757Y-62265716D01*
X196395776Y-62268039D01*
X196395775Y-62268039D01*
X196198238Y-62360151D01*
X196198233Y-62360154D01*
X196193251Y-62362477D01*
X196088389Y-62435902D01*
X196010211Y-62490643D01*
X196010208Y-62490645D01*
X196005700Y-62493802D01*
X195843802Y-62655700D01*
X195840645Y-62660208D01*
X195840643Y-62660211D01*
X195818713Y-62691531D01*
X195712477Y-62843251D01*
X195710154Y-62848233D01*
X195710151Y-62848238D01*
X195618039Y-63045775D01*
X195615716Y-63050757D01*
X195614294Y-63056065D01*
X195614293Y-63056067D01*
X195566756Y-63233478D01*
X195556457Y-63271913D01*
X195536502Y-63500000D01*
X195556457Y-63728087D01*
X195557881Y-63733400D01*
X195557881Y-63733402D01*
X195609408Y-63925700D01*
X195615716Y-63949243D01*
X195618039Y-63954224D01*
X195618039Y-63954225D01*
X195710151Y-64151762D01*
X195710154Y-64151767D01*
X195712477Y-64156749D01*
X195715634Y-64161257D01*
X195818713Y-64308469D01*
X195841500Y-64380740D01*
X195841500Y-69630246D01*
X195821498Y-69698367D01*
X195767842Y-69744860D01*
X195759730Y-69748228D01*
X195713908Y-69765406D01*
X195703295Y-69769385D01*
X195586739Y-69856739D01*
X195499385Y-69973295D01*
X195448255Y-70109684D01*
X195441500Y-70171866D01*
X195441500Y-72068134D01*
X195448255Y-72130316D01*
X195499385Y-72266705D01*
X195586739Y-72383261D01*
X195703295Y-72470615D01*
X195839684Y-72521745D01*
X195901866Y-72528500D01*
X197798134Y-72528500D01*
X197860316Y-72521745D01*
X197996705Y-72470615D01*
X198113261Y-72383261D01*
X198139770Y-72347891D01*
X198154674Y-72328004D01*
X198211533Y-72285489D01*
X198282352Y-72280463D01*
X198344645Y-72314523D01*
X198378635Y-72376854D01*
X198381500Y-72403569D01*
X198381500Y-97320075D01*
X198361498Y-97388196D01*
X198344595Y-97409170D01*
X192659171Y-103094595D01*
X192596859Y-103128621D01*
X192570076Y-103131500D01*
X191458799Y-103131500D01*
X191390678Y-103111498D01*
X191380707Y-103104382D01*
X191258414Y-103007800D01*
X191258410Y-103007798D01*
X191254359Y-103004598D01*
X191213053Y-102981796D01*
X191163084Y-102931364D01*
X191148312Y-102861921D01*
X191173428Y-102795516D01*
X191200780Y-102768909D01*
X191244603Y-102737650D01*
X191379860Y-102641173D01*
X191538096Y-102483489D01*
X191597594Y-102400689D01*
X191665435Y-102306277D01*
X191668453Y-102302077D01*
X191748138Y-102140847D01*
X191765136Y-102106453D01*
X191765137Y-102106451D01*
X191767430Y-102101811D01*
X191832370Y-101888069D01*
X191861529Y-101666590D01*
X191863156Y-101600000D01*
X191844852Y-101377361D01*
X191790431Y-101160702D01*
X191701354Y-100955840D01*
X191580014Y-100768277D01*
X191429670Y-100603051D01*
X191425619Y-100599852D01*
X191425615Y-100599848D01*
X191258414Y-100467800D01*
X191258410Y-100467798D01*
X191254359Y-100464598D01*
X191213053Y-100441796D01*
X191163084Y-100391364D01*
X191148312Y-100321921D01*
X191173428Y-100255516D01*
X191200780Y-100228909D01*
X191244603Y-100197650D01*
X191379860Y-100101173D01*
X191538096Y-99943489D01*
X191597594Y-99860689D01*
X191665435Y-99766277D01*
X191668453Y-99762077D01*
X191767430Y-99561811D01*
X191832370Y-99348069D01*
X191861529Y-99126590D01*
X191863156Y-99060000D01*
X191844852Y-98837361D01*
X191790431Y-98620702D01*
X191701354Y-98415840D01*
X191580014Y-98228277D01*
X191429670Y-98063051D01*
X191425619Y-98059852D01*
X191425615Y-98059848D01*
X191258414Y-97927800D01*
X191258410Y-97927798D01*
X191254359Y-97924598D01*
X191213053Y-97901796D01*
X191163084Y-97851364D01*
X191148312Y-97781921D01*
X191173428Y-97715516D01*
X191200780Y-97688909D01*
X191244603Y-97657650D01*
X191379860Y-97561173D01*
X191392576Y-97548502D01*
X191488216Y-97453195D01*
X191538096Y-97403489D01*
X191572110Y-97356154D01*
X191665435Y-97226277D01*
X191668453Y-97222077D01*
X191679601Y-97199522D01*
X191765136Y-97026453D01*
X191765137Y-97026451D01*
X191767430Y-97021811D01*
X191832370Y-96808069D01*
X191861529Y-96586590D01*
X191863156Y-96520000D01*
X191844852Y-96297361D01*
X191790431Y-96080702D01*
X191701354Y-95875840D01*
X191580014Y-95688277D01*
X191429670Y-95523051D01*
X191425619Y-95519852D01*
X191425615Y-95519848D01*
X191258414Y-95387800D01*
X191258410Y-95387798D01*
X191254359Y-95384598D01*
X191212569Y-95361529D01*
X191162598Y-95311097D01*
X191147826Y-95241654D01*
X191172942Y-95175248D01*
X191200294Y-95148641D01*
X191375328Y-95023792D01*
X191383200Y-95017139D01*
X191534052Y-94866812D01*
X191540730Y-94858965D01*
X191665003Y-94686020D01*
X191670313Y-94677183D01*
X191764670Y-94486267D01*
X191768469Y-94476672D01*
X191830377Y-94272910D01*
X191832555Y-94262837D01*
X191833986Y-94251962D01*
X191831775Y-94237778D01*
X191818617Y-94234000D01*
X189183225Y-94234000D01*
X189169694Y-94237973D01*
X189168257Y-94247966D01*
X189198565Y-94382446D01*
X189201645Y-94392275D01*
X189281770Y-94589603D01*
X189286413Y-94598794D01*
X189397694Y-94780388D01*
X189403777Y-94788699D01*
X189543213Y-94949667D01*
X189550580Y-94956883D01*
X189714434Y-95092916D01*
X189722881Y-95098831D01*
X189791969Y-95139203D01*
X189840693Y-95190842D01*
X189853764Y-95260625D01*
X189827033Y-95326396D01*
X189786584Y-95359752D01*
X189773607Y-95366507D01*
X189769474Y-95369610D01*
X189769471Y-95369612D01*
X189607134Y-95491498D01*
X189594965Y-95500635D01*
X189440629Y-95662138D01*
X189314743Y-95846680D01*
X189220688Y-96049305D01*
X189160989Y-96264570D01*
X189137251Y-96486695D01*
X189137548Y-96491848D01*
X189137548Y-96491851D01*
X189143011Y-96586590D01*
X189150110Y-96709715D01*
X189151247Y-96714761D01*
X189151248Y-96714767D01*
X189171119Y-96802939D01*
X189199222Y-96927639D01*
X189283266Y-97134616D01*
X189285965Y-97139020D01*
X189366392Y-97270265D01*
X189399987Y-97325088D01*
X189546250Y-97493938D01*
X189718126Y-97636632D01*
X189788595Y-97677811D01*
X189791445Y-97679476D01*
X189840169Y-97731114D01*
X189853240Y-97800897D01*
X189826509Y-97866669D01*
X189786055Y-97900027D01*
X189773607Y-97906507D01*
X189769474Y-97909610D01*
X189769471Y-97909612D01*
X189599100Y-98037530D01*
X189594965Y-98040635D01*
X189591393Y-98044373D01*
X189458361Y-98183583D01*
X189440629Y-98202138D01*
X189437715Y-98206410D01*
X189437714Y-98206411D01*
X189425404Y-98224457D01*
X189314743Y-98386680D01*
X189275313Y-98471626D01*
X189240393Y-98546855D01*
X189220688Y-98589305D01*
X189160989Y-98804570D01*
X189137251Y-99026695D01*
X189137548Y-99031848D01*
X189137548Y-99031851D01*
X189143011Y-99126590D01*
X189150110Y-99249715D01*
X189151247Y-99254761D01*
X189151248Y-99254767D01*
X189164597Y-99314000D01*
X189199222Y-99467639D01*
X189283266Y-99674616D01*
X189285965Y-99679020D01*
X189397163Y-99860479D01*
X189399987Y-99865088D01*
X189546250Y-100033938D01*
X189718126Y-100176632D01*
X189788595Y-100217811D01*
X189791445Y-100219476D01*
X189840169Y-100271114D01*
X189853240Y-100340897D01*
X189826509Y-100406669D01*
X189786055Y-100440027D01*
X189773607Y-100446507D01*
X189769474Y-100449610D01*
X189769471Y-100449612D01*
X189745247Y-100467800D01*
X189594965Y-100580635D01*
X189440629Y-100742138D01*
X189314743Y-100926680D01*
X189220688Y-101129305D01*
X189160989Y-101344570D01*
X189137251Y-101566695D01*
X189137548Y-101571848D01*
X189137548Y-101571851D01*
X189143011Y-101666590D01*
X189150110Y-101789715D01*
X189151247Y-101794761D01*
X189151248Y-101794767D01*
X189171119Y-101882939D01*
X189199222Y-102007639D01*
X189283266Y-102214616D01*
X189285965Y-102219020D01*
X189363616Y-102345735D01*
X189399987Y-102405088D01*
X189546250Y-102573938D01*
X189718126Y-102716632D01*
X189788595Y-102757811D01*
X189791445Y-102759476D01*
X189840169Y-102811114D01*
X189853240Y-102880897D01*
X189826509Y-102946669D01*
X189786055Y-102980027D01*
X189773607Y-102986507D01*
X189769474Y-102989610D01*
X189769471Y-102989612D01*
X189745247Y-103007800D01*
X189594965Y-103120635D01*
X189440629Y-103282138D01*
X189314743Y-103466680D01*
X189220688Y-103669305D01*
X189160989Y-103884570D01*
X189137251Y-104106695D01*
X189137548Y-104111848D01*
X189137548Y-104111851D01*
X189143011Y-104206590D01*
X189150110Y-104329715D01*
X189151247Y-104334761D01*
X189151248Y-104334767D01*
X189166806Y-104403802D01*
X189199222Y-104547639D01*
X189283266Y-104754616D01*
X189285965Y-104759020D01*
X189364021Y-104886396D01*
X189399987Y-104945088D01*
X189546250Y-105113938D01*
X189718126Y-105256632D01*
X189788595Y-105297811D01*
X189791445Y-105299476D01*
X189840169Y-105351114D01*
X189853240Y-105420897D01*
X189826509Y-105486669D01*
X189786055Y-105520027D01*
X189773607Y-105526507D01*
X189769474Y-105529610D01*
X189769471Y-105529612D01*
X189624996Y-105638087D01*
X189594965Y-105660635D01*
X189440629Y-105822138D01*
X189314743Y-106006680D01*
X189272834Y-106096965D01*
X189242414Y-106162501D01*
X189220688Y-106209305D01*
X189160989Y-106424570D01*
X189137251Y-106646695D01*
X189137548Y-106651848D01*
X189137548Y-106651851D01*
X189143001Y-106746419D01*
X189150110Y-106869715D01*
X189151247Y-106874761D01*
X189151248Y-106874767D01*
X189171119Y-106962939D01*
X189199222Y-107087639D01*
X189283266Y-107294616D01*
X189399987Y-107485088D01*
X189546250Y-107653938D01*
X189718126Y-107796632D01*
X189788595Y-107837811D01*
X189791445Y-107839476D01*
X189840169Y-107891114D01*
X189853240Y-107960897D01*
X189826509Y-108026669D01*
X189786055Y-108060027D01*
X189773607Y-108066507D01*
X189769474Y-108069610D01*
X189769471Y-108069612D01*
X189745247Y-108087800D01*
X189594965Y-108200635D01*
X189440629Y-108362138D01*
X189314743Y-108546680D01*
X189220688Y-108749305D01*
X189160989Y-108964570D01*
X189137251Y-109186695D01*
X189137548Y-109191848D01*
X189137548Y-109191851D01*
X189143011Y-109286590D01*
X189150110Y-109409715D01*
X189151247Y-109414761D01*
X189151248Y-109414767D01*
X189171119Y-109502939D01*
X189199222Y-109627639D01*
X189283266Y-109834616D01*
X189399987Y-110025088D01*
X189546250Y-110193938D01*
X189718126Y-110336632D01*
X189788595Y-110377811D01*
X189791445Y-110379476D01*
X189840169Y-110431114D01*
X189853240Y-110500897D01*
X189826509Y-110566669D01*
X189786055Y-110600027D01*
X189773607Y-110606507D01*
X189769474Y-110609610D01*
X189769471Y-110609612D01*
X189607134Y-110731498D01*
X189594965Y-110740635D01*
X189440629Y-110902138D01*
X189314743Y-111086680D01*
X189220688Y-111289305D01*
X189160989Y-111504570D01*
X189137251Y-111726695D01*
X166460418Y-111726695D01*
X166444852Y-111537361D01*
X166390431Y-111320702D01*
X166301354Y-111115840D01*
X166180014Y-110928277D01*
X166029670Y-110763051D01*
X166025619Y-110759852D01*
X166025615Y-110759848D01*
X165858414Y-110627800D01*
X165858410Y-110627798D01*
X165854359Y-110624598D01*
X165813053Y-110601796D01*
X165763084Y-110551364D01*
X165748312Y-110481921D01*
X165773428Y-110415516D01*
X165800780Y-110388909D01*
X165844603Y-110357650D01*
X165979860Y-110261173D01*
X166138096Y-110103489D01*
X166197594Y-110020689D01*
X166265435Y-109926277D01*
X166268453Y-109922077D01*
X166367430Y-109721811D01*
X166432370Y-109508069D01*
X166461529Y-109286590D01*
X166463156Y-109220000D01*
X166444852Y-108997361D01*
X166390431Y-108780702D01*
X166301354Y-108575840D01*
X166180014Y-108388277D01*
X166029670Y-108223051D01*
X166025619Y-108219852D01*
X166025615Y-108219848D01*
X165858414Y-108087800D01*
X165858410Y-108087798D01*
X165854359Y-108084598D01*
X165813053Y-108061796D01*
X165763084Y-108011364D01*
X165748312Y-107941921D01*
X165773428Y-107875516D01*
X165800780Y-107848909D01*
X165844603Y-107817650D01*
X165979860Y-107721173D01*
X166016395Y-107684766D01*
X166134435Y-107567137D01*
X166138096Y-107563489D01*
X166197594Y-107480689D01*
X166265435Y-107386277D01*
X166268453Y-107382077D01*
X166367430Y-107181811D01*
X166407183Y-107050969D01*
X166430865Y-106973023D01*
X166430865Y-106973021D01*
X166432370Y-106968069D01*
X166461529Y-106746590D01*
X166463156Y-106680000D01*
X166444852Y-106457361D01*
X166390431Y-106240702D01*
X166301354Y-106035840D01*
X166261906Y-105974862D01*
X166182822Y-105852617D01*
X166182820Y-105852614D01*
X166180014Y-105848277D01*
X166029670Y-105683051D01*
X166025619Y-105679852D01*
X166025615Y-105679848D01*
X165858414Y-105547800D01*
X165858410Y-105547798D01*
X165854359Y-105544598D01*
X165813053Y-105521796D01*
X165763084Y-105471364D01*
X165748312Y-105401921D01*
X165773428Y-105335516D01*
X165800780Y-105308909D01*
X165844603Y-105277650D01*
X165979860Y-105181173D01*
X166007807Y-105153324D01*
X166134435Y-105027137D01*
X166138096Y-105023489D01*
X166162160Y-104990001D01*
X166265435Y-104846277D01*
X166268453Y-104842077D01*
X166279778Y-104819164D01*
X166365136Y-104646453D01*
X166365137Y-104646451D01*
X166367430Y-104641811D01*
X166402895Y-104525081D01*
X166430865Y-104433023D01*
X166430865Y-104433021D01*
X166432370Y-104428069D01*
X166461529Y-104206590D01*
X166462227Y-104178039D01*
X166463074Y-104143365D01*
X166463074Y-104143361D01*
X166463156Y-104140000D01*
X166444852Y-103917361D01*
X166390431Y-103700702D01*
X166301354Y-103495840D01*
X166180014Y-103308277D01*
X166029670Y-103143051D01*
X166025619Y-103139852D01*
X166025615Y-103139848D01*
X165858414Y-103007800D01*
X165858410Y-103007798D01*
X165854359Y-103004598D01*
X165813053Y-102981796D01*
X165763084Y-102931364D01*
X165748312Y-102861921D01*
X165773428Y-102795516D01*
X165800780Y-102768909D01*
X165844603Y-102737650D01*
X165979860Y-102641173D01*
X166138096Y-102483489D01*
X166197594Y-102400689D01*
X166265435Y-102306277D01*
X166268453Y-102302077D01*
X166348138Y-102140847D01*
X166365136Y-102106453D01*
X166365137Y-102106451D01*
X166367430Y-102101811D01*
X166432370Y-101888069D01*
X166461529Y-101666590D01*
X166463156Y-101600000D01*
X166444852Y-101377361D01*
X166390431Y-101160702D01*
X166301354Y-100955840D01*
X166180014Y-100768277D01*
X166029670Y-100603051D01*
X166025619Y-100599852D01*
X166025615Y-100599848D01*
X165858414Y-100467800D01*
X165858410Y-100467798D01*
X165854359Y-100464598D01*
X165812569Y-100441529D01*
X165762598Y-100391097D01*
X165747826Y-100321654D01*
X165772942Y-100255248D01*
X165800294Y-100228641D01*
X165975328Y-100103792D01*
X165983200Y-100097139D01*
X166134052Y-99946812D01*
X166140730Y-99938965D01*
X166265003Y-99766020D01*
X166270313Y-99757183D01*
X166364670Y-99566267D01*
X166368469Y-99556672D01*
X166430377Y-99352910D01*
X166432555Y-99342837D01*
X166433986Y-99331962D01*
X166431775Y-99317778D01*
X166418617Y-99314000D01*
X163783225Y-99314000D01*
X163769694Y-99317973D01*
X163768257Y-99327966D01*
X163798565Y-99462446D01*
X163801645Y-99472275D01*
X163881770Y-99669603D01*
X163886413Y-99678794D01*
X163997694Y-99860388D01*
X164003777Y-99868699D01*
X164143213Y-100029667D01*
X164150580Y-100036883D01*
X164314434Y-100172916D01*
X164322881Y-100178831D01*
X164391969Y-100219203D01*
X164440693Y-100270842D01*
X164453764Y-100340625D01*
X164427033Y-100406396D01*
X164386584Y-100439752D01*
X164373607Y-100446507D01*
X164369474Y-100449610D01*
X164369471Y-100449612D01*
X164345247Y-100467800D01*
X164194965Y-100580635D01*
X164040629Y-100742138D01*
X163914743Y-100926680D01*
X163820688Y-101129305D01*
X163760989Y-101344570D01*
X163760440Y-101349707D01*
X163745590Y-101488661D01*
X163718462Y-101554271D01*
X163709398Y-101564367D01*
X161006671Y-104267095D01*
X160944359Y-104301121D01*
X160917576Y-104304000D01*
X155636068Y-104304000D01*
X155563797Y-104281213D01*
X155543634Y-104267095D01*
X155474154Y-104218444D01*
X155469172Y-104216121D01*
X155469167Y-104216118D01*
X155341732Y-104156695D01*
X155288447Y-104109778D01*
X155268986Y-104041501D01*
X155289528Y-103973541D01*
X155341732Y-103928305D01*
X155469167Y-103868882D01*
X155469172Y-103868879D01*
X155474154Y-103866556D01*
X155654538Y-103740249D01*
X155810249Y-103584538D01*
X155895771Y-103462401D01*
X155933399Y-103408662D01*
X155933400Y-103408660D01*
X155936556Y-103404153D01*
X155938879Y-103399171D01*
X155938882Y-103399166D01*
X156027295Y-103209561D01*
X156029620Y-103204576D01*
X156086615Y-102991871D01*
X156105807Y-102772500D01*
X156086615Y-102553129D01*
X156029620Y-102340424D01*
X155968723Y-102209829D01*
X155938882Y-102145834D01*
X155938879Y-102145829D01*
X155936556Y-102140847D01*
X155810249Y-101960462D01*
X155654538Y-101804751D01*
X155640280Y-101794767D01*
X155575259Y-101749239D01*
X155474154Y-101678444D01*
X155469172Y-101676121D01*
X155469167Y-101676118D01*
X155341141Y-101616419D01*
X155287856Y-101569502D01*
X155268395Y-101501224D01*
X155288937Y-101433264D01*
X155341141Y-101388029D01*
X155468916Y-101328447D01*
X155478412Y-101322964D01*
X155519648Y-101294090D01*
X155528023Y-101283612D01*
X155520957Y-101270168D01*
X154855311Y-100604521D01*
X154841368Y-100596908D01*
X154839534Y-100597039D01*
X154832920Y-100601290D01*
X154163320Y-101270891D01*
X154156893Y-101282661D01*
X154166187Y-101294675D01*
X154206588Y-101322964D01*
X154216084Y-101328447D01*
X154343859Y-101388029D01*
X154397144Y-101434946D01*
X154416605Y-101503224D01*
X154396063Y-101571184D01*
X154343859Y-101616419D01*
X154215834Y-101676118D01*
X154215829Y-101676121D01*
X154210847Y-101678444D01*
X154206340Y-101681600D01*
X154206338Y-101681601D01*
X154034973Y-101801592D01*
X154034970Y-101801594D01*
X154030462Y-101804751D01*
X153874751Y-101960462D01*
X153748444Y-102140847D01*
X153746121Y-102145829D01*
X153746118Y-102145834D01*
X153716277Y-102209829D01*
X153655380Y-102340424D01*
X153598385Y-102553129D01*
X153579193Y-102772500D01*
X153598385Y-102991871D01*
X153655380Y-103204576D01*
X153657705Y-103209561D01*
X153746118Y-103399166D01*
X153746121Y-103399171D01*
X153748444Y-103404153D01*
X153751600Y-103408660D01*
X153751601Y-103408662D01*
X153789230Y-103462401D01*
X153874751Y-103584538D01*
X154030462Y-103740249D01*
X154210846Y-103866556D01*
X154215828Y-103868879D01*
X154215833Y-103868882D01*
X154343268Y-103928305D01*
X154396553Y-103975222D01*
X154416014Y-104043499D01*
X154395472Y-104111459D01*
X154343268Y-104156695D01*
X154215834Y-104216118D01*
X154215829Y-104216121D01*
X154210847Y-104218444D01*
X154206340Y-104221600D01*
X154206338Y-104221601D01*
X154034973Y-104341592D01*
X154034970Y-104341594D01*
X154030462Y-104344751D01*
X154010618Y-104364595D01*
X153948306Y-104398621D01*
X153921523Y-104401500D01*
X148200740Y-104401500D01*
X148128469Y-104378713D01*
X148021768Y-104304000D01*
X147976749Y-104272477D01*
X147971767Y-104270154D01*
X147971762Y-104270151D01*
X147774225Y-104178039D01*
X147774224Y-104178039D01*
X147769243Y-104175716D01*
X147763935Y-104174294D01*
X147763933Y-104174293D01*
X147553402Y-104117881D01*
X147553400Y-104117881D01*
X147548087Y-104116457D01*
X147320000Y-104096502D01*
X147091913Y-104116457D01*
X147086600Y-104117881D01*
X147086598Y-104117881D01*
X146876067Y-104174293D01*
X146876065Y-104174294D01*
X146870757Y-104175716D01*
X146865776Y-104178039D01*
X146865775Y-104178039D01*
X146668238Y-104270151D01*
X146668233Y-104270154D01*
X146663251Y-104272477D01*
X146618232Y-104304000D01*
X146480211Y-104400643D01*
X146480208Y-104400645D01*
X146475700Y-104403802D01*
X146313802Y-104565700D01*
X146182477Y-104753251D01*
X146180154Y-104758233D01*
X146180151Y-104758238D01*
X146091203Y-104948990D01*
X146085716Y-104960757D01*
X146084294Y-104966065D01*
X146084293Y-104966067D01*
X146034261Y-105152787D01*
X146026457Y-105181913D01*
X146006502Y-105410000D01*
X146026457Y-105638087D01*
X146027881Y-105643400D01*
X146027881Y-105643402D01*
X146083941Y-105852617D01*
X146085716Y-105859243D01*
X146088039Y-105864224D01*
X146088039Y-105864225D01*
X146180151Y-106061762D01*
X146180154Y-106061767D01*
X146182477Y-106066749D01*
X146251434Y-106165229D01*
X146310059Y-106248954D01*
X146313802Y-106254300D01*
X146475700Y-106416198D01*
X146480208Y-106419355D01*
X146480211Y-106419357D01*
X146524071Y-106450068D01*
X146663251Y-106547523D01*
X146668233Y-106549846D01*
X146668238Y-106549849D01*
X146865775Y-106641961D01*
X146870757Y-106644284D01*
X146876065Y-106645706D01*
X146876067Y-106645707D01*
X147086598Y-106702119D01*
X147086600Y-106702119D01*
X147091913Y-106703543D01*
X147320000Y-106723498D01*
X147548087Y-106703543D01*
X147553400Y-106702119D01*
X147553402Y-106702119D01*
X147763933Y-106645707D01*
X147763935Y-106645706D01*
X147769243Y-106644284D01*
X147774225Y-106641961D01*
X147971762Y-106549849D01*
X147971767Y-106549846D01*
X147976749Y-106547523D01*
X148128469Y-106441287D01*
X148200740Y-106418500D01*
X153782210Y-106418500D01*
X153850331Y-106438502D01*
X153896824Y-106492158D01*
X153906928Y-106562432D01*
X153877434Y-106627012D01*
X153847308Y-106651318D01*
X153845795Y-106651885D01*
X153838612Y-106657269D01*
X153838611Y-106657269D01*
X153808281Y-106680000D01*
X153729239Y-106739239D01*
X153641885Y-106855795D01*
X153590755Y-106992184D01*
X153584000Y-107054366D01*
X153584000Y-107632576D01*
X153563998Y-107700697D01*
X153547095Y-107721671D01*
X149284171Y-111984595D01*
X149221859Y-112018621D01*
X149195076Y-112021500D01*
X148200740Y-112021500D01*
X148128469Y-111998713D01*
X148051112Y-111944547D01*
X147976749Y-111892477D01*
X147971767Y-111890154D01*
X147971762Y-111890151D01*
X147774225Y-111798039D01*
X147774224Y-111798039D01*
X147769243Y-111795716D01*
X147763935Y-111794294D01*
X147763933Y-111794293D01*
X147553402Y-111737881D01*
X147553400Y-111737881D01*
X147548087Y-111736457D01*
X147320000Y-111716502D01*
X147091913Y-111736457D01*
X147086600Y-111737881D01*
X147086598Y-111737881D01*
X146876067Y-111794293D01*
X146876065Y-111794294D01*
X146870757Y-111795716D01*
X146865776Y-111798039D01*
X146865775Y-111798039D01*
X146668238Y-111890151D01*
X146668233Y-111890154D01*
X146663251Y-111892477D01*
X146588888Y-111944547D01*
X146480211Y-112020643D01*
X146480208Y-112020645D01*
X146475700Y-112023802D01*
X146313802Y-112185700D01*
X146182477Y-112373251D01*
X146180154Y-112378233D01*
X146180151Y-112378238D01*
X146091203Y-112568990D01*
X146085716Y-112580757D01*
X146084294Y-112586065D01*
X146084293Y-112586067D01*
X146036906Y-112762916D01*
X146026457Y-112801913D01*
X146006502Y-113030000D01*
X140208500Y-113030000D01*
X140208500Y-100237975D01*
X153580174Y-100237975D01*
X153598401Y-100446304D01*
X153600304Y-100457099D01*
X153654428Y-100659095D01*
X153658174Y-100669387D01*
X153746554Y-100858917D01*
X153752034Y-100868407D01*
X153780911Y-100909649D01*
X153791387Y-100918023D01*
X153804834Y-100910955D01*
X154470479Y-100245311D01*
X154476856Y-100233632D01*
X155206908Y-100233632D01*
X155207039Y-100235466D01*
X155211290Y-100242080D01*
X155880891Y-100911680D01*
X155892661Y-100918107D01*
X155904676Y-100908811D01*
X155932966Y-100868407D01*
X155938446Y-100858917D01*
X156026826Y-100669387D01*
X156030572Y-100659095D01*
X156084696Y-100457099D01*
X156086599Y-100446304D01*
X156104826Y-100237975D01*
X156104826Y-100227025D01*
X156086599Y-100018696D01*
X156084696Y-100007901D01*
X156030572Y-99805905D01*
X156026826Y-99795613D01*
X155938446Y-99606083D01*
X155932966Y-99596593D01*
X155904089Y-99555351D01*
X155893613Y-99546977D01*
X155880166Y-99554045D01*
X155214521Y-100219689D01*
X155206908Y-100233632D01*
X154476856Y-100233632D01*
X154478092Y-100231368D01*
X154477961Y-100229534D01*
X154473710Y-100222920D01*
X153804109Y-99553320D01*
X153792339Y-99546893D01*
X153780324Y-99556189D01*
X153752034Y-99596593D01*
X153746554Y-99606083D01*
X153658174Y-99795613D01*
X153654428Y-99805905D01*
X153600304Y-100007901D01*
X153598401Y-100018696D01*
X153580174Y-100227025D01*
X153580174Y-100237975D01*
X140208500Y-100237975D01*
X140208500Y-99181387D01*
X154156977Y-99181387D01*
X154164045Y-99194834D01*
X154829689Y-99860479D01*
X154843632Y-99868092D01*
X154845466Y-99867961D01*
X154852080Y-99863710D01*
X155521680Y-99194109D01*
X155528107Y-99182339D01*
X155518813Y-99170325D01*
X155478412Y-99142036D01*
X155468916Y-99136553D01*
X155279387Y-99048174D01*
X155269095Y-99044428D01*
X155067099Y-98990304D01*
X155056304Y-98988401D01*
X154847975Y-98970174D01*
X154837025Y-98970174D01*
X154628696Y-98988401D01*
X154617901Y-98990304D01*
X154415905Y-99044428D01*
X154405613Y-99048174D01*
X154216083Y-99136554D01*
X154206593Y-99142034D01*
X154165351Y-99170911D01*
X154156977Y-99181387D01*
X140208500Y-99181387D01*
X140208500Y-73656462D01*
X143766626Y-73656462D01*
X143767206Y-73662593D01*
X143770941Y-73702109D01*
X143771500Y-73713967D01*
X143771500Y-91378157D01*
X143770763Y-91391764D01*
X143766676Y-91429388D01*
X143767899Y-91443365D01*
X143771050Y-91479388D01*
X143771379Y-91484214D01*
X143771500Y-91486686D01*
X143771500Y-91489769D01*
X143771801Y-91492837D01*
X143775690Y-91532506D01*
X143775812Y-91533819D01*
X143783913Y-91626413D01*
X143785400Y-91631532D01*
X143785920Y-91636833D01*
X143812791Y-91725834D01*
X143813126Y-91726967D01*
X143814886Y-91733023D01*
X143839091Y-91816336D01*
X143841544Y-91821068D01*
X143843084Y-91826169D01*
X143845978Y-91831612D01*
X143886731Y-91908260D01*
X143887343Y-91909426D01*
X143927271Y-91986453D01*
X143930108Y-91991926D01*
X143933431Y-91996089D01*
X143935934Y-92000796D01*
X143994755Y-92072918D01*
X143995446Y-92073774D01*
X144026738Y-92112973D01*
X144029242Y-92115477D01*
X144029884Y-92116195D01*
X144033585Y-92120528D01*
X144060935Y-92154062D01*
X144065682Y-92157989D01*
X144065684Y-92157991D01*
X144096262Y-92183287D01*
X144105042Y-92191277D01*
X149103145Y-97189379D01*
X149112247Y-97199522D01*
X149135968Y-97229025D01*
X149140696Y-97232992D01*
X149174421Y-97261291D01*
X149178069Y-97264472D01*
X149179881Y-97266115D01*
X149182075Y-97268309D01*
X149215349Y-97295642D01*
X149216147Y-97296304D01*
X149287474Y-97356154D01*
X149292144Y-97358722D01*
X149296261Y-97362103D01*
X149344925Y-97388196D01*
X149378086Y-97405977D01*
X149379245Y-97406606D01*
X149455381Y-97448462D01*
X149455389Y-97448465D01*
X149460787Y-97451433D01*
X149465869Y-97453045D01*
X149470563Y-97455562D01*
X149476454Y-97457363D01*
X149559477Y-97482747D01*
X149560735Y-97483139D01*
X149649306Y-97511235D01*
X149654597Y-97511829D01*
X149659698Y-97513388D01*
X149752263Y-97522790D01*
X149753450Y-97522916D01*
X149782838Y-97526213D01*
X149799730Y-97528108D01*
X149799735Y-97528108D01*
X149803227Y-97528500D01*
X149806752Y-97528500D01*
X149807737Y-97528555D01*
X149813432Y-97529003D01*
X149825342Y-97530213D01*
X149850334Y-97532752D01*
X149850339Y-97532752D01*
X149856462Y-97533374D01*
X149902108Y-97529059D01*
X149913967Y-97528500D01*
X164142393Y-97528500D01*
X164210514Y-97548502D01*
X164222877Y-97557555D01*
X164318126Y-97636632D01*
X164391445Y-97679476D01*
X164391955Y-97679774D01*
X164440679Y-97731412D01*
X164453750Y-97801195D01*
X164427019Y-97866967D01*
X164386562Y-97900327D01*
X164378457Y-97904546D01*
X164369738Y-97910036D01*
X164199433Y-98037905D01*
X164191726Y-98044748D01*
X164044590Y-98198717D01*
X164038104Y-98206727D01*
X163918098Y-98382649D01*
X163913000Y-98391623D01*
X163823338Y-98584783D01*
X163819775Y-98594470D01*
X163764389Y-98794183D01*
X163765912Y-98802607D01*
X163778292Y-98806000D01*
X166418344Y-98806000D01*
X166431875Y-98802027D01*
X166433180Y-98792947D01*
X166391214Y-98625875D01*
X166387894Y-98616124D01*
X166302972Y-98420814D01*
X166298105Y-98411739D01*
X166182426Y-98232926D01*
X166176136Y-98224757D01*
X166032806Y-98067240D01*
X166025273Y-98060215D01*
X165858139Y-97928222D01*
X165849556Y-97922520D01*
X165812602Y-97902120D01*
X165762631Y-97851687D01*
X165747859Y-97782245D01*
X165772975Y-97715839D01*
X165800327Y-97689232D01*
X165823797Y-97672491D01*
X165979860Y-97561173D01*
X165992576Y-97548502D01*
X166088216Y-97453195D01*
X166138096Y-97403489D01*
X166172110Y-97356154D01*
X166265435Y-97226277D01*
X166268453Y-97222077D01*
X166279601Y-97199522D01*
X166365136Y-97026453D01*
X166365137Y-97026451D01*
X166367430Y-97021811D01*
X166432370Y-96808069D01*
X166461529Y-96586590D01*
X166463156Y-96520000D01*
X166444852Y-96297361D01*
X166390431Y-96080702D01*
X166301354Y-95875840D01*
X166180014Y-95688277D01*
X166029670Y-95523051D01*
X166025619Y-95519852D01*
X166025615Y-95519848D01*
X165858414Y-95387800D01*
X165858410Y-95387798D01*
X165854359Y-95384598D01*
X165813053Y-95361796D01*
X165763084Y-95311364D01*
X165748312Y-95241921D01*
X165773428Y-95175516D01*
X165800780Y-95148909D01*
X165844603Y-95117650D01*
X165979860Y-95021173D01*
X166138096Y-94863489D01*
X166197594Y-94780689D01*
X166265435Y-94686277D01*
X166268453Y-94682077D01*
X166367430Y-94481811D01*
X166432370Y-94268069D01*
X166461529Y-94046590D01*
X166463156Y-93980000D01*
X166444852Y-93757361D01*
X166434006Y-93714183D01*
X189164389Y-93714183D01*
X189165912Y-93722607D01*
X189178292Y-93726000D01*
X190227885Y-93726000D01*
X190243124Y-93721525D01*
X190244329Y-93720135D01*
X190246000Y-93712452D01*
X190246000Y-93707885D01*
X190754000Y-93707885D01*
X190758475Y-93723124D01*
X190759865Y-93724329D01*
X190767548Y-93726000D01*
X191818344Y-93726000D01*
X191831875Y-93722027D01*
X191833180Y-93712947D01*
X191791214Y-93545875D01*
X191787894Y-93536124D01*
X191702972Y-93340814D01*
X191698105Y-93331739D01*
X191582426Y-93152926D01*
X191576136Y-93144757D01*
X191432806Y-92987240D01*
X191425273Y-92980215D01*
X191258139Y-92848222D01*
X191249552Y-92842517D01*
X191212116Y-92821851D01*
X191162146Y-92771419D01*
X191147374Y-92701976D01*
X191172490Y-92635571D01*
X191199842Y-92608964D01*
X191375327Y-92483792D01*
X191383200Y-92477139D01*
X191534052Y-92326812D01*
X191540730Y-92318965D01*
X191665003Y-92146020D01*
X191670313Y-92137183D01*
X191764670Y-91946267D01*
X191768469Y-91936672D01*
X191830377Y-91732910D01*
X191832555Y-91722837D01*
X191833986Y-91711962D01*
X191831775Y-91697778D01*
X191818617Y-91694000D01*
X190772115Y-91694000D01*
X190756876Y-91698475D01*
X190755671Y-91699865D01*
X190754000Y-91707548D01*
X190754000Y-93707885D01*
X190246000Y-93707885D01*
X190246000Y-91712115D01*
X190241525Y-91696876D01*
X190240135Y-91695671D01*
X190232452Y-91694000D01*
X189183225Y-91694000D01*
X189169694Y-91697973D01*
X189168257Y-91707966D01*
X189198565Y-91842446D01*
X189201645Y-91852275D01*
X189281770Y-92049603D01*
X189286413Y-92058794D01*
X189397694Y-92240388D01*
X189403777Y-92248699D01*
X189543213Y-92409667D01*
X189550580Y-92416883D01*
X189714434Y-92552916D01*
X189722881Y-92558831D01*
X189792479Y-92599501D01*
X189841203Y-92651140D01*
X189854274Y-92720923D01*
X189827543Y-92786694D01*
X189787087Y-92820053D01*
X189778462Y-92824542D01*
X189769738Y-92830036D01*
X189599433Y-92957905D01*
X189591726Y-92964748D01*
X189444590Y-93118717D01*
X189438104Y-93126727D01*
X189318098Y-93302649D01*
X189313000Y-93311623D01*
X189223338Y-93504783D01*
X189219775Y-93514470D01*
X189164389Y-93714183D01*
X166434006Y-93714183D01*
X166390431Y-93540702D01*
X166301354Y-93335840D01*
X166180014Y-93148277D01*
X166029670Y-92983051D01*
X166025619Y-92979852D01*
X166025615Y-92979848D01*
X165858414Y-92847800D01*
X165858410Y-92847798D01*
X165854359Y-92844598D01*
X165813053Y-92821796D01*
X165763084Y-92771364D01*
X165748312Y-92701921D01*
X165773428Y-92635516D01*
X165800780Y-92608909D01*
X165879279Y-92552916D01*
X165979860Y-92481173D01*
X166138096Y-92323489D01*
X166268453Y-92142077D01*
X166279093Y-92120550D01*
X166365136Y-91946453D01*
X166365137Y-91946451D01*
X166367430Y-91941811D01*
X166432370Y-91728069D01*
X166461529Y-91506590D01*
X166463156Y-91440000D01*
X166444852Y-91217361D01*
X166390431Y-91000702D01*
X166301354Y-90795840D01*
X166180014Y-90608277D01*
X166029670Y-90443051D01*
X166025619Y-90439852D01*
X166025615Y-90439848D01*
X165858414Y-90307800D01*
X165858410Y-90307798D01*
X165854359Y-90304598D01*
X165813053Y-90281796D01*
X165763084Y-90231364D01*
X165748312Y-90161921D01*
X165773428Y-90095516D01*
X165800780Y-90068909D01*
X165844603Y-90037650D01*
X165979860Y-89941173D01*
X166138096Y-89783489D01*
X166197594Y-89700689D01*
X166265435Y-89606277D01*
X166268453Y-89602077D01*
X166367430Y-89401811D01*
X166432370Y-89188069D01*
X166461529Y-88966590D01*
X166463156Y-88900000D01*
X166460418Y-88866695D01*
X189137251Y-88866695D01*
X189137548Y-88871848D01*
X189137548Y-88871851D01*
X189143011Y-88966590D01*
X189150110Y-89089715D01*
X189151247Y-89094761D01*
X189151248Y-89094767D01*
X189171119Y-89182939D01*
X189199222Y-89307639D01*
X189283266Y-89514616D01*
X189399987Y-89705088D01*
X189546250Y-89873938D01*
X189718126Y-90016632D01*
X189791445Y-90059476D01*
X189791955Y-90059774D01*
X189840679Y-90111412D01*
X189853750Y-90181195D01*
X189827019Y-90246967D01*
X189786562Y-90280327D01*
X189778457Y-90284546D01*
X189769738Y-90290036D01*
X189599433Y-90417905D01*
X189591726Y-90424748D01*
X189444590Y-90578717D01*
X189438104Y-90586727D01*
X189318098Y-90762649D01*
X189313000Y-90771623D01*
X189223338Y-90964783D01*
X189219775Y-90974470D01*
X189164389Y-91174183D01*
X189165912Y-91182607D01*
X189178292Y-91186000D01*
X191818344Y-91186000D01*
X191831875Y-91182027D01*
X191833180Y-91172947D01*
X191791214Y-91005875D01*
X191787894Y-90996124D01*
X191702972Y-90800814D01*
X191698105Y-90791739D01*
X191582426Y-90612926D01*
X191576136Y-90604757D01*
X191432806Y-90447240D01*
X191425273Y-90440215D01*
X191258139Y-90308222D01*
X191249556Y-90302520D01*
X191212602Y-90282120D01*
X191162631Y-90231687D01*
X191147859Y-90162245D01*
X191172975Y-90095839D01*
X191200327Y-90069232D01*
X191223797Y-90052491D01*
X191379860Y-89941173D01*
X191538096Y-89783489D01*
X191597594Y-89700689D01*
X191665435Y-89606277D01*
X191668453Y-89602077D01*
X191767430Y-89401811D01*
X191832370Y-89188069D01*
X191861529Y-88966590D01*
X191863156Y-88900000D01*
X191844852Y-88677361D01*
X191790431Y-88460702D01*
X191701354Y-88255840D01*
X191580014Y-88068277D01*
X191429670Y-87903051D01*
X191425619Y-87899852D01*
X191425615Y-87899848D01*
X191258414Y-87767800D01*
X191258410Y-87767798D01*
X191254359Y-87764598D01*
X191213053Y-87741796D01*
X191163084Y-87691364D01*
X191148312Y-87621921D01*
X191173428Y-87555516D01*
X191200780Y-87528909D01*
X191244603Y-87497650D01*
X191379860Y-87401173D01*
X191538096Y-87243489D01*
X191554199Y-87221080D01*
X191665435Y-87066277D01*
X191668453Y-87062077D01*
X191673949Y-87050958D01*
X191765136Y-86866453D01*
X191765137Y-86866451D01*
X191767430Y-86861811D01*
X191832370Y-86648069D01*
X191861529Y-86426590D01*
X191863156Y-86360000D01*
X191844852Y-86137361D01*
X191790431Y-85920702D01*
X191701354Y-85715840D01*
X191580014Y-85528277D01*
X191429670Y-85363051D01*
X191425619Y-85359852D01*
X191425615Y-85359848D01*
X191258414Y-85227800D01*
X191258410Y-85227798D01*
X191254359Y-85224598D01*
X191213053Y-85201796D01*
X191163084Y-85151364D01*
X191148312Y-85081921D01*
X191173428Y-85015516D01*
X191200780Y-84988909D01*
X191244603Y-84957650D01*
X191379860Y-84861173D01*
X191538096Y-84703489D01*
X191597594Y-84620689D01*
X191665435Y-84526277D01*
X191668453Y-84522077D01*
X191767430Y-84321811D01*
X191832370Y-84108069D01*
X191861529Y-83886590D01*
X191863156Y-83820000D01*
X191844852Y-83597361D01*
X191790431Y-83380702D01*
X191701354Y-83175840D01*
X191580014Y-82988277D01*
X191429670Y-82823051D01*
X191425619Y-82819852D01*
X191425615Y-82819848D01*
X191258414Y-82687800D01*
X191258410Y-82687798D01*
X191254359Y-82684598D01*
X191212569Y-82661529D01*
X191162598Y-82611097D01*
X191147826Y-82541654D01*
X191172942Y-82475248D01*
X191200294Y-82448641D01*
X191375328Y-82323792D01*
X191383200Y-82317139D01*
X191534052Y-82166812D01*
X191540730Y-82158965D01*
X191665003Y-81986020D01*
X191670313Y-81977183D01*
X191764670Y-81786267D01*
X191768469Y-81776672D01*
X191830377Y-81572910D01*
X191832555Y-81562837D01*
X191833986Y-81551962D01*
X191831775Y-81537778D01*
X191818617Y-81534000D01*
X189183225Y-81534000D01*
X189169694Y-81537973D01*
X189168257Y-81547966D01*
X189198565Y-81682446D01*
X189201645Y-81692275D01*
X189281770Y-81889603D01*
X189286413Y-81898794D01*
X189397694Y-82080388D01*
X189403777Y-82088699D01*
X189543213Y-82249667D01*
X189550580Y-82256883D01*
X189714434Y-82392916D01*
X189722881Y-82398831D01*
X189791969Y-82439203D01*
X189840693Y-82490842D01*
X189853764Y-82560625D01*
X189827033Y-82626396D01*
X189786584Y-82659752D01*
X189773607Y-82666507D01*
X189769474Y-82669610D01*
X189769471Y-82669612D01*
X189745247Y-82687800D01*
X189594965Y-82800635D01*
X189440629Y-82962138D01*
X189314743Y-83146680D01*
X189220688Y-83349305D01*
X189160989Y-83564570D01*
X189137251Y-83786695D01*
X189137548Y-83791848D01*
X189137548Y-83791851D01*
X189142899Y-83884659D01*
X189150110Y-84009715D01*
X189151247Y-84014761D01*
X189151248Y-84014767D01*
X189171119Y-84102939D01*
X189199222Y-84227639D01*
X189283266Y-84434616D01*
X189399987Y-84625088D01*
X189546250Y-84793938D01*
X189718126Y-84936632D01*
X189788595Y-84977811D01*
X189791445Y-84979476D01*
X189840169Y-85031114D01*
X189853240Y-85100897D01*
X189826509Y-85166669D01*
X189786055Y-85200027D01*
X189773607Y-85206507D01*
X189769474Y-85209610D01*
X189769471Y-85209612D01*
X189599100Y-85337530D01*
X189594965Y-85340635D01*
X189440629Y-85502138D01*
X189314743Y-85686680D01*
X189220688Y-85889305D01*
X189160989Y-86104570D01*
X189137251Y-86326695D01*
X189137548Y-86331848D01*
X189137548Y-86331851D01*
X189143011Y-86426590D01*
X189150110Y-86549715D01*
X189151247Y-86554761D01*
X189151248Y-86554767D01*
X189161768Y-86601446D01*
X189199222Y-86767639D01*
X189283266Y-86974616D01*
X189399987Y-87165088D01*
X189546250Y-87333938D01*
X189718126Y-87476632D01*
X189788595Y-87517811D01*
X189791445Y-87519476D01*
X189840169Y-87571114D01*
X189853240Y-87640897D01*
X189826509Y-87706669D01*
X189786055Y-87740027D01*
X189773607Y-87746507D01*
X189769474Y-87749610D01*
X189769471Y-87749612D01*
X189611127Y-87868500D01*
X189594965Y-87880635D01*
X189440629Y-88042138D01*
X189437715Y-88046410D01*
X189437714Y-88046411D01*
X189408371Y-88089426D01*
X189314743Y-88226680D01*
X189299003Y-88260590D01*
X189247624Y-88371277D01*
X189220688Y-88429305D01*
X189160989Y-88644570D01*
X189137251Y-88866695D01*
X166460418Y-88866695D01*
X166444852Y-88677361D01*
X166390431Y-88460702D01*
X166301354Y-88255840D01*
X166180014Y-88068277D01*
X166029670Y-87903051D01*
X166025619Y-87899852D01*
X166025615Y-87899848D01*
X165858414Y-87767800D01*
X165858410Y-87767798D01*
X165854359Y-87764598D01*
X165813053Y-87741796D01*
X165763084Y-87691364D01*
X165748312Y-87621921D01*
X165773428Y-87555516D01*
X165800780Y-87528909D01*
X165844603Y-87497650D01*
X165979860Y-87401173D01*
X166138096Y-87243489D01*
X166154199Y-87221080D01*
X166265435Y-87066277D01*
X166268453Y-87062077D01*
X166273949Y-87050958D01*
X166365136Y-86866453D01*
X166365137Y-86866451D01*
X166367430Y-86861811D01*
X166432370Y-86648069D01*
X166461529Y-86426590D01*
X166463156Y-86360000D01*
X166444852Y-86137361D01*
X166390431Y-85920702D01*
X166301354Y-85715840D01*
X166180014Y-85528277D01*
X166029670Y-85363051D01*
X166025619Y-85359852D01*
X166025615Y-85359848D01*
X165858414Y-85227800D01*
X165858410Y-85227798D01*
X165854359Y-85224598D01*
X165813053Y-85201796D01*
X165763084Y-85151364D01*
X165748312Y-85081921D01*
X165773428Y-85015516D01*
X165800780Y-84988909D01*
X165844603Y-84957650D01*
X165979860Y-84861173D01*
X166138096Y-84703489D01*
X166197594Y-84620689D01*
X166265435Y-84526277D01*
X166268453Y-84522077D01*
X166367430Y-84321811D01*
X166432370Y-84108069D01*
X166456232Y-83926824D01*
X166484955Y-83861897D01*
X166492059Y-83854176D01*
X171639540Y-78706695D01*
X189137251Y-78706695D01*
X189137548Y-78711848D01*
X189137548Y-78711851D01*
X189143011Y-78806590D01*
X189150110Y-78929715D01*
X189151247Y-78934761D01*
X189151248Y-78934767D01*
X189171119Y-79022939D01*
X189199222Y-79147639D01*
X189283266Y-79354616D01*
X189399987Y-79545088D01*
X189546250Y-79713938D01*
X189718126Y-79856632D01*
X189791955Y-79899774D01*
X189840679Y-79951412D01*
X189853750Y-80021195D01*
X189827019Y-80086967D01*
X189786562Y-80120327D01*
X189778457Y-80124546D01*
X189769738Y-80130036D01*
X189599433Y-80257905D01*
X189591726Y-80264748D01*
X189444590Y-80418717D01*
X189438104Y-80426727D01*
X189318098Y-80602649D01*
X189313000Y-80611623D01*
X189223338Y-80804783D01*
X189219775Y-80814470D01*
X189164389Y-81014183D01*
X189165912Y-81022607D01*
X189178292Y-81026000D01*
X191818344Y-81026000D01*
X191831875Y-81022027D01*
X191833180Y-81012947D01*
X191791214Y-80845875D01*
X191787894Y-80836124D01*
X191702972Y-80640814D01*
X191698105Y-80631739D01*
X191582426Y-80452926D01*
X191576136Y-80444757D01*
X191432806Y-80287240D01*
X191425273Y-80280215D01*
X191258139Y-80148222D01*
X191249556Y-80142520D01*
X191212602Y-80122120D01*
X191162631Y-80071687D01*
X191147859Y-80002245D01*
X191172975Y-79935839D01*
X191200327Y-79909232D01*
X191223797Y-79892491D01*
X191379860Y-79781173D01*
X191538096Y-79623489D01*
X191597594Y-79540689D01*
X191665435Y-79446277D01*
X191668453Y-79442077D01*
X191767430Y-79241811D01*
X191832370Y-79028069D01*
X191861529Y-78806590D01*
X191863156Y-78740000D01*
X191844852Y-78517361D01*
X191790431Y-78300702D01*
X191701354Y-78095840D01*
X191580014Y-77908277D01*
X191429670Y-77743051D01*
X191425619Y-77739852D01*
X191425615Y-77739848D01*
X191258414Y-77607800D01*
X191258410Y-77607798D01*
X191254359Y-77604598D01*
X191213053Y-77581796D01*
X191163084Y-77531364D01*
X191148312Y-77461921D01*
X191173428Y-77395516D01*
X191200780Y-77368909D01*
X191244603Y-77337650D01*
X191379860Y-77241173D01*
X191538096Y-77083489D01*
X191597594Y-77000689D01*
X191665435Y-76906277D01*
X191668453Y-76902077D01*
X191679093Y-76880550D01*
X191765136Y-76706453D01*
X191765137Y-76706451D01*
X191767430Y-76701811D01*
X191832370Y-76488069D01*
X191861529Y-76266590D01*
X191863156Y-76200000D01*
X191844852Y-75977361D01*
X191790431Y-75760702D01*
X191701354Y-75555840D01*
X191580014Y-75368277D01*
X191429670Y-75203051D01*
X191425619Y-75199852D01*
X191425615Y-75199848D01*
X191258414Y-75067800D01*
X191258410Y-75067798D01*
X191254359Y-75064598D01*
X191213053Y-75041796D01*
X191163084Y-74991364D01*
X191148312Y-74921921D01*
X191173428Y-74855516D01*
X191200780Y-74828909D01*
X191244603Y-74797650D01*
X191379860Y-74701173D01*
X191538096Y-74543489D01*
X191597594Y-74460689D01*
X191665435Y-74366277D01*
X191668453Y-74362077D01*
X191767430Y-74161811D01*
X191832370Y-73948069D01*
X191861529Y-73726590D01*
X191861611Y-73723240D01*
X191863074Y-73663365D01*
X191863074Y-73663361D01*
X191863156Y-73660000D01*
X191844852Y-73437361D01*
X191790431Y-73220702D01*
X191701354Y-73015840D01*
X191652741Y-72940696D01*
X191582822Y-72832617D01*
X191582820Y-72832614D01*
X191580014Y-72828277D01*
X191429670Y-72663051D01*
X191425619Y-72659852D01*
X191425615Y-72659848D01*
X191258414Y-72527800D01*
X191258410Y-72527798D01*
X191254359Y-72524598D01*
X191213053Y-72501796D01*
X191163084Y-72451364D01*
X191148312Y-72381921D01*
X191173428Y-72315516D01*
X191200780Y-72288909D01*
X191244603Y-72257650D01*
X191379860Y-72161173D01*
X191385160Y-72155892D01*
X191534435Y-72007137D01*
X191538096Y-72003489D01*
X191565676Y-71965108D01*
X191665435Y-71826277D01*
X191668453Y-71822077D01*
X191767430Y-71621811D01*
X191832370Y-71408069D01*
X191861529Y-71186590D01*
X191861611Y-71183240D01*
X191863074Y-71123365D01*
X191863074Y-71123361D01*
X191863156Y-71120000D01*
X191844852Y-70897361D01*
X191790431Y-70680702D01*
X191701354Y-70475840D01*
X191610325Y-70335131D01*
X191582822Y-70292617D01*
X191582820Y-70292614D01*
X191580014Y-70288277D01*
X191429670Y-70123051D01*
X191425619Y-70119852D01*
X191425615Y-70119848D01*
X191258414Y-69987800D01*
X191258410Y-69987798D01*
X191254359Y-69984598D01*
X191213053Y-69961796D01*
X191163084Y-69911364D01*
X191148312Y-69841921D01*
X191173428Y-69775516D01*
X191200780Y-69748909D01*
X191261517Y-69705586D01*
X191379860Y-69621173D01*
X191538096Y-69463489D01*
X191597594Y-69380689D01*
X191665435Y-69286277D01*
X191668453Y-69282077D01*
X191767430Y-69081811D01*
X191832370Y-68868069D01*
X191861529Y-68646590D01*
X191862551Y-68604771D01*
X191863074Y-68583365D01*
X191863074Y-68583361D01*
X191863156Y-68580000D01*
X191844852Y-68357361D01*
X191790431Y-68140702D01*
X191701354Y-67935840D01*
X191580014Y-67748277D01*
X191429670Y-67583051D01*
X191425619Y-67579852D01*
X191425615Y-67579848D01*
X191258414Y-67447800D01*
X191258410Y-67447798D01*
X191254359Y-67444598D01*
X191212569Y-67421529D01*
X191162598Y-67371097D01*
X191147826Y-67301654D01*
X191172942Y-67235248D01*
X191200294Y-67208641D01*
X191375328Y-67083792D01*
X191383200Y-67077139D01*
X191534052Y-66926812D01*
X191540730Y-66918965D01*
X191665003Y-66746020D01*
X191670313Y-66737183D01*
X191764670Y-66546267D01*
X191768469Y-66536672D01*
X191830377Y-66332910D01*
X191832555Y-66322837D01*
X191833986Y-66311962D01*
X191831775Y-66297778D01*
X191818617Y-66294000D01*
X189183225Y-66294000D01*
X189169694Y-66297973D01*
X189168257Y-66307966D01*
X189198565Y-66442446D01*
X189201645Y-66452275D01*
X189281770Y-66649603D01*
X189286413Y-66658794D01*
X189397694Y-66840388D01*
X189403777Y-66848699D01*
X189543213Y-67009667D01*
X189550580Y-67016883D01*
X189714434Y-67152916D01*
X189722881Y-67158831D01*
X189791969Y-67199203D01*
X189840693Y-67250842D01*
X189853764Y-67320625D01*
X189827033Y-67386396D01*
X189786584Y-67419752D01*
X189773607Y-67426507D01*
X189769474Y-67429610D01*
X189769471Y-67429612D01*
X189645567Y-67522642D01*
X189594965Y-67560635D01*
X189440629Y-67722138D01*
X189314743Y-67906680D01*
X189220688Y-68109305D01*
X189160989Y-68324570D01*
X189137251Y-68546695D01*
X189137548Y-68551848D01*
X189137548Y-68551851D01*
X189143011Y-68646590D01*
X189150110Y-68769715D01*
X189151247Y-68774761D01*
X189151248Y-68774767D01*
X189171119Y-68862939D01*
X189199222Y-68987639D01*
X189283266Y-69194616D01*
X189399987Y-69385088D01*
X189546250Y-69553938D01*
X189718126Y-69696632D01*
X189788595Y-69737811D01*
X189791445Y-69739476D01*
X189840169Y-69791114D01*
X189853240Y-69860897D01*
X189826509Y-69926669D01*
X189786055Y-69960027D01*
X189773607Y-69966507D01*
X189769474Y-69969610D01*
X189769471Y-69969612D01*
X189613980Y-70086358D01*
X189594965Y-70100635D01*
X189571299Y-70125400D01*
X189444904Y-70257665D01*
X189440629Y-70262138D01*
X189437715Y-70266410D01*
X189437714Y-70266411D01*
X189390540Y-70335566D01*
X189314743Y-70446680D01*
X189220688Y-70649305D01*
X189160989Y-70864570D01*
X189137251Y-71086695D01*
X189137548Y-71091848D01*
X189137548Y-71091851D01*
X189143343Y-71192359D01*
X189150110Y-71309715D01*
X189151247Y-71314761D01*
X189151248Y-71314767D01*
X189171119Y-71402939D01*
X189199222Y-71527639D01*
X189283266Y-71734616D01*
X189399987Y-71925088D01*
X189546250Y-72093938D01*
X189718126Y-72236632D01*
X189769590Y-72266705D01*
X189791445Y-72279476D01*
X189840169Y-72331114D01*
X189853240Y-72400897D01*
X189826509Y-72466669D01*
X189786055Y-72500027D01*
X189773607Y-72506507D01*
X189769474Y-72509610D01*
X189769471Y-72509612D01*
X189599100Y-72637530D01*
X189594965Y-72640635D01*
X189591393Y-72644373D01*
X189458361Y-72783583D01*
X189440629Y-72802138D01*
X189314743Y-72986680D01*
X189275313Y-73071626D01*
X189225358Y-73179245D01*
X189220688Y-73189305D01*
X189160989Y-73404570D01*
X189137251Y-73626695D01*
X189137548Y-73631848D01*
X189137548Y-73631851D01*
X189143011Y-73726590D01*
X189150110Y-73849715D01*
X189151247Y-73854761D01*
X189151248Y-73854767D01*
X189171119Y-73942939D01*
X189199222Y-74067639D01*
X189283266Y-74274616D01*
X189399987Y-74465088D01*
X189546250Y-74633938D01*
X189718126Y-74776632D01*
X189788595Y-74817811D01*
X189791445Y-74819476D01*
X189840169Y-74871114D01*
X189853240Y-74940897D01*
X189826509Y-75006669D01*
X189786055Y-75040027D01*
X189773607Y-75046507D01*
X189769474Y-75049610D01*
X189769471Y-75049612D01*
X189745247Y-75067800D01*
X189594965Y-75180635D01*
X189440629Y-75342138D01*
X189314743Y-75526680D01*
X189220688Y-75729305D01*
X189160989Y-75944570D01*
X189137251Y-76166695D01*
X189137548Y-76171848D01*
X189137548Y-76171851D01*
X189143011Y-76266590D01*
X189150110Y-76389715D01*
X189151247Y-76394761D01*
X189151248Y-76394767D01*
X189171119Y-76482939D01*
X189199222Y-76607639D01*
X189283266Y-76814616D01*
X189399987Y-77005088D01*
X189546250Y-77173938D01*
X189718126Y-77316632D01*
X189788595Y-77357811D01*
X189791445Y-77359476D01*
X189840169Y-77411114D01*
X189853240Y-77480897D01*
X189826509Y-77546669D01*
X189786055Y-77580027D01*
X189773607Y-77586507D01*
X189769474Y-77589610D01*
X189769471Y-77589612D01*
X189745247Y-77607800D01*
X189594965Y-77720635D01*
X189440629Y-77882138D01*
X189314743Y-78066680D01*
X189220688Y-78269305D01*
X189160989Y-78484570D01*
X189137251Y-78706695D01*
X171639540Y-78706695D01*
X177199379Y-73146855D01*
X177209522Y-73137753D01*
X177234218Y-73117897D01*
X177239025Y-73114032D01*
X177271292Y-73075578D01*
X177274472Y-73071931D01*
X177276115Y-73070119D01*
X177278309Y-73067925D01*
X177305642Y-73034651D01*
X177306348Y-73033800D01*
X177317433Y-73020590D01*
X177366154Y-72962526D01*
X177368722Y-72957856D01*
X177372103Y-72953739D01*
X177415977Y-72871914D01*
X177416606Y-72870755D01*
X177458462Y-72794619D01*
X177458465Y-72794611D01*
X177461433Y-72789213D01*
X177463045Y-72784131D01*
X177465562Y-72779437D01*
X177492762Y-72690469D01*
X177493108Y-72689358D01*
X177501454Y-72663051D01*
X177521235Y-72600694D01*
X177521829Y-72595398D01*
X177523387Y-72590302D01*
X177532790Y-72497743D01*
X177532911Y-72496607D01*
X177538500Y-72446773D01*
X177538500Y-72443246D01*
X177538555Y-72442261D01*
X177539002Y-72436581D01*
X177542377Y-72403357D01*
X177542752Y-72399663D01*
X177542752Y-72399661D01*
X177543374Y-72393538D01*
X177539059Y-72347891D01*
X177538500Y-72336033D01*
X177538500Y-65774183D01*
X189164389Y-65774183D01*
X189165912Y-65782607D01*
X189178292Y-65786000D01*
X190227885Y-65786000D01*
X190243124Y-65781525D01*
X190244329Y-65780135D01*
X190246000Y-65772452D01*
X190246000Y-65767885D01*
X190754000Y-65767885D01*
X190758475Y-65783124D01*
X190759865Y-65784329D01*
X190767548Y-65786000D01*
X191818344Y-65786000D01*
X191831875Y-65782027D01*
X191833180Y-65772947D01*
X191791214Y-65605875D01*
X191787894Y-65596124D01*
X191702972Y-65400814D01*
X191698105Y-65391739D01*
X191582426Y-65212926D01*
X191576136Y-65204757D01*
X191432806Y-65047240D01*
X191425273Y-65040215D01*
X191258139Y-64908222D01*
X191249552Y-64902517D01*
X191063117Y-64799599D01*
X191053705Y-64795369D01*
X190852959Y-64724280D01*
X190842988Y-64721646D01*
X190771837Y-64708972D01*
X190758540Y-64710432D01*
X190754000Y-64724989D01*
X190754000Y-65767885D01*
X190246000Y-65767885D01*
X190246000Y-64723102D01*
X190242082Y-64709758D01*
X190227806Y-64707771D01*
X190189324Y-64713660D01*
X190179288Y-64716051D01*
X189976868Y-64782212D01*
X189967359Y-64786209D01*
X189778463Y-64884542D01*
X189769738Y-64890036D01*
X189599433Y-65017905D01*
X189591726Y-65024748D01*
X189444590Y-65178717D01*
X189438104Y-65186727D01*
X189318098Y-65362649D01*
X189313000Y-65371623D01*
X189223338Y-65564783D01*
X189219775Y-65574470D01*
X189164389Y-65774183D01*
X177538500Y-65774183D01*
X177538500Y-64380740D01*
X177561287Y-64308469D01*
X177664366Y-64161257D01*
X177667523Y-64156749D01*
X177669846Y-64151767D01*
X177669849Y-64151762D01*
X177761961Y-63954225D01*
X177761961Y-63954224D01*
X177764284Y-63949243D01*
X177770593Y-63925700D01*
X177813245Y-63766522D01*
X182867273Y-63766522D01*
X182914764Y-63943761D01*
X182918510Y-63954053D01*
X183010586Y-64151511D01*
X183016069Y-64161007D01*
X183141028Y-64339467D01*
X183148084Y-64347875D01*
X183302125Y-64501916D01*
X183310533Y-64508972D01*
X183488993Y-64633931D01*
X183498489Y-64639414D01*
X183695947Y-64731490D01*
X183706239Y-64735236D01*
X183878503Y-64781394D01*
X183892599Y-64781058D01*
X183896000Y-64773116D01*
X183896000Y-64767967D01*
X184404000Y-64767967D01*
X184407973Y-64781498D01*
X184416522Y-64782727D01*
X184593761Y-64735236D01*
X184604053Y-64731490D01*
X184801511Y-64639414D01*
X184811007Y-64633931D01*
X184989467Y-64508972D01*
X184997875Y-64501916D01*
X185151916Y-64347875D01*
X185158972Y-64339467D01*
X185283931Y-64161007D01*
X185289414Y-64151511D01*
X185381490Y-63954053D01*
X185385236Y-63943761D01*
X185431394Y-63771497D01*
X185431058Y-63757401D01*
X185423116Y-63754000D01*
X184422115Y-63754000D01*
X184406876Y-63758475D01*
X184405671Y-63759865D01*
X184404000Y-63767548D01*
X184404000Y-64767967D01*
X183896000Y-64767967D01*
X183896000Y-63772115D01*
X183891525Y-63756876D01*
X183890135Y-63755671D01*
X183882452Y-63754000D01*
X182882033Y-63754000D01*
X182868502Y-63757973D01*
X182867273Y-63766522D01*
X177813245Y-63766522D01*
X177822119Y-63733402D01*
X177822119Y-63733400D01*
X177823543Y-63728087D01*
X177843498Y-63500000D01*
X177823543Y-63271913D01*
X177813244Y-63233478D01*
X177811911Y-63228503D01*
X182868606Y-63228503D01*
X182868942Y-63242599D01*
X182876884Y-63246000D01*
X183877885Y-63246000D01*
X183893124Y-63241525D01*
X183894329Y-63240135D01*
X183896000Y-63232452D01*
X183896000Y-63227885D01*
X184404000Y-63227885D01*
X184408475Y-63243124D01*
X184409865Y-63244329D01*
X184417548Y-63246000D01*
X185417967Y-63246000D01*
X185431498Y-63242027D01*
X185432727Y-63233478D01*
X185385236Y-63056239D01*
X185381490Y-63045947D01*
X185289414Y-62848489D01*
X185283931Y-62838993D01*
X185158972Y-62660533D01*
X185151916Y-62652125D01*
X184997875Y-62498084D01*
X184989467Y-62491028D01*
X184811007Y-62366069D01*
X184801511Y-62360586D01*
X184604053Y-62268510D01*
X184593761Y-62264764D01*
X184421497Y-62218606D01*
X184407401Y-62218942D01*
X184404000Y-62226884D01*
X184404000Y-63227885D01*
X183896000Y-63227885D01*
X183896000Y-62232033D01*
X183892027Y-62218502D01*
X183883478Y-62217273D01*
X183706239Y-62264764D01*
X183695947Y-62268510D01*
X183498489Y-62360586D01*
X183488993Y-62366069D01*
X183310533Y-62491028D01*
X183302125Y-62498084D01*
X183148084Y-62652125D01*
X183141028Y-62660533D01*
X183016069Y-62838993D01*
X183010586Y-62848489D01*
X182918510Y-63045947D01*
X182914764Y-63056239D01*
X182868606Y-63228503D01*
X177811911Y-63228503D01*
X177765707Y-63056067D01*
X177765706Y-63056065D01*
X177764284Y-63050757D01*
X177761961Y-63045775D01*
X177669849Y-62848238D01*
X177669846Y-62848233D01*
X177667523Y-62843251D01*
X177561287Y-62691531D01*
X177538500Y-62619260D01*
X177538500Y-58687966D01*
X189168257Y-58687966D01*
X189198565Y-58822446D01*
X189201645Y-58832275D01*
X189281770Y-59029603D01*
X189286413Y-59038794D01*
X189397694Y-59220388D01*
X189403777Y-59228699D01*
X189543213Y-59389667D01*
X189550580Y-59396883D01*
X189714434Y-59532916D01*
X189722881Y-59538831D01*
X189906756Y-59646279D01*
X189916042Y-59650729D01*
X190115001Y-59726703D01*
X190124899Y-59729579D01*
X190228250Y-59750606D01*
X190242299Y-59749410D01*
X190246000Y-59739065D01*
X190246000Y-59738517D01*
X190754000Y-59738517D01*
X190758064Y-59752359D01*
X190771478Y-59754393D01*
X190778184Y-59753534D01*
X190788262Y-59751392D01*
X190992255Y-59690191D01*
X191001842Y-59686433D01*
X191193095Y-59592739D01*
X191201945Y-59587464D01*
X191375328Y-59463792D01*
X191383200Y-59457139D01*
X191534052Y-59306812D01*
X191540730Y-59298965D01*
X191665003Y-59126020D01*
X191670313Y-59117183D01*
X191764670Y-58926267D01*
X191768469Y-58916672D01*
X191830377Y-58712910D01*
X191832555Y-58702837D01*
X191833986Y-58691962D01*
X191833363Y-58687966D01*
X196788257Y-58687966D01*
X196818565Y-58822446D01*
X196821645Y-58832275D01*
X196901770Y-59029603D01*
X196906413Y-59038794D01*
X197017694Y-59220388D01*
X197023777Y-59228699D01*
X197163213Y-59389667D01*
X197170580Y-59396883D01*
X197334434Y-59532916D01*
X197342881Y-59538831D01*
X197526756Y-59646279D01*
X197536042Y-59650729D01*
X197735001Y-59726703D01*
X197744899Y-59729579D01*
X197848250Y-59750606D01*
X197862299Y-59749410D01*
X197866000Y-59739065D01*
X197866000Y-59738517D01*
X198374000Y-59738517D01*
X198378064Y-59752359D01*
X198391478Y-59754393D01*
X198398184Y-59753534D01*
X198408262Y-59751392D01*
X198612255Y-59690191D01*
X198621842Y-59686433D01*
X198813095Y-59592739D01*
X198821945Y-59587464D01*
X198995328Y-59463792D01*
X199003200Y-59457139D01*
X199154052Y-59306812D01*
X199160730Y-59298965D01*
X199285003Y-59126020D01*
X199290313Y-59117183D01*
X199384670Y-58926267D01*
X199388469Y-58916672D01*
X199450377Y-58712910D01*
X199452555Y-58702837D01*
X199453986Y-58691962D01*
X199451775Y-58677778D01*
X199438617Y-58674000D01*
X198392115Y-58674000D01*
X198376876Y-58678475D01*
X198375671Y-58679865D01*
X198374000Y-58687548D01*
X198374000Y-59738517D01*
X197866000Y-59738517D01*
X197866000Y-58692115D01*
X197861525Y-58676876D01*
X197860135Y-58675671D01*
X197852452Y-58674000D01*
X196803225Y-58674000D01*
X196789694Y-58677973D01*
X196788257Y-58687966D01*
X191833363Y-58687966D01*
X191831775Y-58677778D01*
X191818617Y-58674000D01*
X190772115Y-58674000D01*
X190756876Y-58678475D01*
X190755671Y-58679865D01*
X190754000Y-58687548D01*
X190754000Y-59738517D01*
X190246000Y-59738517D01*
X190246000Y-58692115D01*
X190241525Y-58676876D01*
X190240135Y-58675671D01*
X190232452Y-58674000D01*
X189183225Y-58674000D01*
X189169694Y-58677973D01*
X189168257Y-58687966D01*
X177538500Y-58687966D01*
X177538500Y-56760740D01*
X177561287Y-56688469D01*
X177577513Y-56665296D01*
X177667523Y-56536749D01*
X177669846Y-56531767D01*
X177669849Y-56531762D01*
X177761961Y-56334225D01*
X177761961Y-56334224D01*
X177764284Y-56329243D01*
X177774150Y-56292425D01*
X177822119Y-56113402D01*
X177822119Y-56113400D01*
X177823543Y-56108087D01*
X177843498Y-55880000D01*
X182836502Y-55880000D01*
X182856457Y-56108087D01*
X182857881Y-56113400D01*
X182857881Y-56113402D01*
X182905851Y-56292425D01*
X182915716Y-56329243D01*
X182918039Y-56334224D01*
X182918039Y-56334225D01*
X183010151Y-56531762D01*
X183010154Y-56531767D01*
X183012477Y-56536749D01*
X183080056Y-56633262D01*
X183131156Y-56706239D01*
X183143802Y-56724300D01*
X183305700Y-56886198D01*
X183310208Y-56889355D01*
X183310211Y-56889357D01*
X183344705Y-56913510D01*
X183493251Y-57017523D01*
X183498233Y-57019846D01*
X183498238Y-57019849D01*
X183667212Y-57098642D01*
X183700757Y-57114284D01*
X183706065Y-57115706D01*
X183706067Y-57115707D01*
X183916598Y-57172119D01*
X183916600Y-57172119D01*
X183921913Y-57173543D01*
X184150000Y-57193498D01*
X184378087Y-57173543D01*
X184383400Y-57172119D01*
X184383402Y-57172119D01*
X184593933Y-57115707D01*
X184593935Y-57115706D01*
X184599243Y-57114284D01*
X184632788Y-57098642D01*
X184801762Y-57019849D01*
X184801767Y-57019846D01*
X184806749Y-57017523D01*
X184958469Y-56911287D01*
X185030740Y-56888500D01*
X189078991Y-56888500D01*
X189147112Y-56908502D01*
X189193605Y-56962158D01*
X189195903Y-56967694D01*
X189196232Y-56968296D01*
X189199385Y-56976705D01*
X189286739Y-57093261D01*
X189403295Y-57180615D01*
X189411704Y-57183767D01*
X189411705Y-57183768D01*
X189520960Y-57224726D01*
X189577725Y-57267367D01*
X189602425Y-57333929D01*
X189587218Y-57403278D01*
X189567825Y-57429759D01*
X189444590Y-57558717D01*
X189438104Y-57566727D01*
X189318098Y-57742649D01*
X189313000Y-57751623D01*
X189223338Y-57944783D01*
X189219775Y-57954470D01*
X189164389Y-58154183D01*
X189165912Y-58162607D01*
X189178292Y-58166000D01*
X191818344Y-58166000D01*
X191831875Y-58162027D01*
X191833180Y-58152947D01*
X191791214Y-57985875D01*
X191787894Y-57976124D01*
X191702972Y-57780814D01*
X191698105Y-57771739D01*
X191582426Y-57592926D01*
X191576136Y-57584757D01*
X191432293Y-57426677D01*
X191401241Y-57362831D01*
X191409635Y-57292333D01*
X191454812Y-57237564D01*
X191481256Y-57223895D01*
X191588297Y-57183767D01*
X191596705Y-57180615D01*
X191713261Y-57093261D01*
X191800615Y-56976705D01*
X191803767Y-56968296D01*
X191808077Y-56960425D01*
X191809741Y-56961336D01*
X191845663Y-56913510D01*
X191912224Y-56888807D01*
X191921009Y-56888500D01*
X196698991Y-56888500D01*
X196767112Y-56908502D01*
X196813605Y-56962158D01*
X196815903Y-56967694D01*
X196816232Y-56968296D01*
X196819385Y-56976705D01*
X196906739Y-57093261D01*
X197023295Y-57180615D01*
X197031704Y-57183767D01*
X197031705Y-57183768D01*
X197140960Y-57224726D01*
X197197725Y-57267367D01*
X197222425Y-57333929D01*
X197207218Y-57403278D01*
X197187825Y-57429759D01*
X197064590Y-57558717D01*
X197058104Y-57566727D01*
X196938098Y-57742649D01*
X196933000Y-57751623D01*
X196843338Y-57944783D01*
X196839775Y-57954470D01*
X196784389Y-58154183D01*
X196785912Y-58162607D01*
X196798292Y-58166000D01*
X199438344Y-58166000D01*
X199451875Y-58162027D01*
X199453180Y-58152947D01*
X199411214Y-57985875D01*
X199407894Y-57976124D01*
X199322972Y-57780814D01*
X199318105Y-57771739D01*
X199202426Y-57592926D01*
X199196136Y-57584757D01*
X199052293Y-57426677D01*
X199021241Y-57362831D01*
X199029635Y-57292333D01*
X199074812Y-57237564D01*
X199101256Y-57223895D01*
X199208297Y-57183767D01*
X199216705Y-57180615D01*
X199333261Y-57093261D01*
X199420615Y-56976705D01*
X199471745Y-56840316D01*
X199478500Y-56778134D01*
X199478500Y-54981866D01*
X199471745Y-54919684D01*
X199420615Y-54783295D01*
X199333261Y-54666739D01*
X199216705Y-54579385D01*
X199080316Y-54528255D01*
X199018134Y-54521500D01*
X197221866Y-54521500D01*
X197159684Y-54528255D01*
X197023295Y-54579385D01*
X196906739Y-54666739D01*
X196819385Y-54783295D01*
X196816233Y-54791703D01*
X196811923Y-54799575D01*
X196810259Y-54798664D01*
X196774337Y-54846490D01*
X196707776Y-54871193D01*
X196698991Y-54871500D01*
X191921009Y-54871500D01*
X191852888Y-54851498D01*
X191806395Y-54797842D01*
X191804097Y-54792306D01*
X191803767Y-54791703D01*
X191800615Y-54783295D01*
X191713261Y-54666739D01*
X191596705Y-54579385D01*
X191460316Y-54528255D01*
X191398134Y-54521500D01*
X189601866Y-54521500D01*
X189539684Y-54528255D01*
X189403295Y-54579385D01*
X189286739Y-54666739D01*
X189199385Y-54783295D01*
X189196233Y-54791703D01*
X189191923Y-54799575D01*
X189190259Y-54798664D01*
X189154337Y-54846490D01*
X189087776Y-54871193D01*
X189078991Y-54871500D01*
X185030740Y-54871500D01*
X184958469Y-54848713D01*
X184885818Y-54797842D01*
X184806749Y-54742477D01*
X184801767Y-54740154D01*
X184801762Y-54740151D01*
X184604225Y-54648039D01*
X184604224Y-54648039D01*
X184599243Y-54645716D01*
X184593935Y-54644294D01*
X184593933Y-54644293D01*
X184383402Y-54587881D01*
X184383400Y-54587881D01*
X184378087Y-54586457D01*
X184150000Y-54566502D01*
X183921913Y-54586457D01*
X183916600Y-54587881D01*
X183916598Y-54587881D01*
X183706067Y-54644293D01*
X183706065Y-54644294D01*
X183700757Y-54645716D01*
X183695776Y-54648039D01*
X183695775Y-54648039D01*
X183498238Y-54740151D01*
X183498233Y-54740154D01*
X183493251Y-54742477D01*
X183445220Y-54776109D01*
X183310211Y-54870643D01*
X183310208Y-54870645D01*
X183305700Y-54873802D01*
X183143802Y-55035700D01*
X183012477Y-55223251D01*
X183010154Y-55228233D01*
X183010151Y-55228238D01*
X182927908Y-55404610D01*
X182915716Y-55430757D01*
X182914294Y-55436065D01*
X182914293Y-55436067D01*
X182862407Y-55629707D01*
X182856457Y-55651913D01*
X182836502Y-55880000D01*
X177843498Y-55880000D01*
X177823543Y-55651913D01*
X177817593Y-55629707D01*
X177765707Y-55436067D01*
X177765706Y-55436065D01*
X177764284Y-55430757D01*
X177752092Y-55404610D01*
X177669849Y-55228238D01*
X177669846Y-55228233D01*
X177667523Y-55223251D01*
X177536198Y-55035700D01*
X177374300Y-54873802D01*
X177369792Y-54870645D01*
X177369789Y-54870643D01*
X177234780Y-54776109D01*
X177186749Y-54742477D01*
X177181767Y-54740154D01*
X177181762Y-54740151D01*
X176984225Y-54648039D01*
X176984224Y-54648039D01*
X176979243Y-54645716D01*
X176973935Y-54644294D01*
X176973933Y-54644293D01*
X176763402Y-54587881D01*
X176763400Y-54587881D01*
X176758087Y-54586457D01*
X176530000Y-54566502D01*
X176301913Y-54586457D01*
X176296600Y-54587881D01*
X176296598Y-54587881D01*
X176086067Y-54644293D01*
X176086065Y-54644294D01*
X176080757Y-54645716D01*
X176075776Y-54648039D01*
X176075775Y-54648039D01*
X175878238Y-54740151D01*
X175878233Y-54740154D01*
X175873251Y-54742477D01*
X175825220Y-54776109D01*
X175690211Y-54870643D01*
X175690208Y-54870645D01*
X175685700Y-54873802D01*
X175523802Y-55035700D01*
X175392477Y-55223251D01*
X175390154Y-55228233D01*
X175390151Y-55228238D01*
X175307908Y-55404610D01*
X175295716Y-55430757D01*
X175294294Y-55436065D01*
X175294293Y-55436067D01*
X175242407Y-55629707D01*
X175236457Y-55651913D01*
X175216502Y-55880000D01*
X175236457Y-56108087D01*
X175237881Y-56113400D01*
X175237881Y-56113402D01*
X175285851Y-56292425D01*
X175295716Y-56329243D01*
X175298039Y-56334224D01*
X175298039Y-56334225D01*
X175390151Y-56531762D01*
X175390154Y-56531767D01*
X175392477Y-56536749D01*
X175482487Y-56665296D01*
X175498713Y-56688469D01*
X175521500Y-56760740D01*
X175521500Y-62619260D01*
X175498713Y-62691531D01*
X175392477Y-62843251D01*
X175390154Y-62848233D01*
X175390151Y-62848238D01*
X175298039Y-63045775D01*
X175295716Y-63050757D01*
X175294294Y-63056065D01*
X175294293Y-63056067D01*
X175246756Y-63233478D01*
X175236457Y-63271913D01*
X175216502Y-63500000D01*
X175236457Y-63728087D01*
X175237881Y-63733400D01*
X175237881Y-63733402D01*
X175289408Y-63925700D01*
X175295716Y-63949243D01*
X175298039Y-63954224D01*
X175298039Y-63954225D01*
X175390151Y-64151762D01*
X175390154Y-64151767D01*
X175392477Y-64156749D01*
X175395634Y-64161257D01*
X175498713Y-64308469D01*
X175521500Y-64380740D01*
X175521500Y-71920075D01*
X175501498Y-71988196D01*
X175484595Y-72009170D01*
X171000743Y-76493023D01*
X166599935Y-80893831D01*
X166537623Y-80927857D01*
X166466808Y-80922792D01*
X166409972Y-80880245D01*
X166391627Y-80845465D01*
X166390431Y-80840702D01*
X166301354Y-80635840D01*
X166180014Y-80448277D01*
X166029670Y-80283051D01*
X166025619Y-80279852D01*
X166025615Y-80279848D01*
X165858414Y-80147800D01*
X165858410Y-80147798D01*
X165854359Y-80144598D01*
X165813053Y-80121796D01*
X165763084Y-80071364D01*
X165748312Y-80001921D01*
X165773428Y-79935516D01*
X165800780Y-79908909D01*
X165844603Y-79877650D01*
X165979860Y-79781173D01*
X166138096Y-79623489D01*
X166197594Y-79540689D01*
X166265435Y-79446277D01*
X166268453Y-79442077D01*
X166367430Y-79241811D01*
X166432370Y-79028069D01*
X166461529Y-78806590D01*
X166463156Y-78740000D01*
X166444852Y-78517361D01*
X166390431Y-78300702D01*
X166301354Y-78095840D01*
X166180014Y-77908277D01*
X166029670Y-77743051D01*
X166025619Y-77739852D01*
X166025615Y-77739848D01*
X165858414Y-77607800D01*
X165858410Y-77607798D01*
X165854359Y-77604598D01*
X165813053Y-77581796D01*
X165763084Y-77531364D01*
X165748312Y-77461921D01*
X165773428Y-77395516D01*
X165800780Y-77368909D01*
X165844603Y-77337650D01*
X165979860Y-77241173D01*
X166138096Y-77083489D01*
X166197594Y-77000689D01*
X166265435Y-76906277D01*
X166268453Y-76902077D01*
X166279093Y-76880550D01*
X166365136Y-76706453D01*
X166365137Y-76706451D01*
X166367430Y-76701811D01*
X166432370Y-76488069D01*
X166461529Y-76266590D01*
X166463156Y-76200000D01*
X166444852Y-75977361D01*
X166390431Y-75760702D01*
X166301354Y-75555840D01*
X166180014Y-75368277D01*
X166029670Y-75203051D01*
X166025619Y-75199852D01*
X166025615Y-75199848D01*
X165858414Y-75067800D01*
X165858410Y-75067798D01*
X165854359Y-75064598D01*
X165813053Y-75041796D01*
X165763084Y-74991364D01*
X165748312Y-74921921D01*
X165773428Y-74855516D01*
X165800780Y-74828909D01*
X165844603Y-74797650D01*
X165979860Y-74701173D01*
X166138096Y-74543489D01*
X166197594Y-74460689D01*
X166265435Y-74366277D01*
X166268453Y-74362077D01*
X166367430Y-74161811D01*
X166432370Y-73948069D01*
X166461529Y-73726590D01*
X166461611Y-73723240D01*
X166463074Y-73663365D01*
X166463074Y-73663361D01*
X166463156Y-73660000D01*
X166444852Y-73437361D01*
X166390431Y-73220702D01*
X166301354Y-73015840D01*
X166252741Y-72940696D01*
X166182822Y-72832617D01*
X166182820Y-72832614D01*
X166180014Y-72828277D01*
X166029670Y-72663051D01*
X166025619Y-72659852D01*
X166025615Y-72659848D01*
X165858414Y-72527800D01*
X165858410Y-72527798D01*
X165854359Y-72524598D01*
X165813053Y-72501796D01*
X165763084Y-72451364D01*
X165748312Y-72381921D01*
X165773428Y-72315516D01*
X165800780Y-72288909D01*
X165844603Y-72257650D01*
X165979860Y-72161173D01*
X165985160Y-72155892D01*
X166134435Y-72007137D01*
X166138096Y-72003489D01*
X166165676Y-71965108D01*
X166265435Y-71826277D01*
X166268453Y-71822077D01*
X166367430Y-71621811D01*
X166432370Y-71408069D01*
X166461529Y-71186590D01*
X166461611Y-71183240D01*
X166463074Y-71123365D01*
X166463074Y-71123361D01*
X166463156Y-71120000D01*
X166444852Y-70897361D01*
X166390431Y-70680702D01*
X166301354Y-70475840D01*
X166210325Y-70335131D01*
X166182822Y-70292617D01*
X166182820Y-70292614D01*
X166180014Y-70288277D01*
X166029670Y-70123051D01*
X166025619Y-70119852D01*
X166025615Y-70119848D01*
X165858414Y-69987800D01*
X165858410Y-69987798D01*
X165854359Y-69984598D01*
X165813053Y-69961796D01*
X165763084Y-69911364D01*
X165748312Y-69841921D01*
X165773428Y-69775516D01*
X165800780Y-69748909D01*
X165861517Y-69705586D01*
X165979860Y-69621173D01*
X166138096Y-69463489D01*
X166197594Y-69380689D01*
X166265435Y-69286277D01*
X166268453Y-69282077D01*
X166367430Y-69081811D01*
X166432370Y-68868069D01*
X166461529Y-68646590D01*
X166462551Y-68604771D01*
X166463074Y-68583365D01*
X166463074Y-68583361D01*
X166463156Y-68580000D01*
X166444852Y-68357361D01*
X166390431Y-68140702D01*
X166301354Y-67935840D01*
X166180014Y-67748277D01*
X166176532Y-67744450D01*
X166032798Y-67586488D01*
X166001746Y-67522642D01*
X166010141Y-67452143D01*
X166055317Y-67397375D01*
X166081761Y-67383706D01*
X166188297Y-67343767D01*
X166196705Y-67340615D01*
X166313261Y-67253261D01*
X166400615Y-67136705D01*
X166451745Y-67000316D01*
X166458500Y-66938134D01*
X166458500Y-65141866D01*
X166451745Y-65079684D01*
X166400615Y-64943295D01*
X166313261Y-64826739D01*
X166196705Y-64739385D01*
X166188296Y-64736233D01*
X166180425Y-64731923D01*
X166181336Y-64730259D01*
X166133510Y-64694337D01*
X166108807Y-64627776D01*
X166108500Y-64618991D01*
X166108500Y-59314669D01*
X168822001Y-59314669D01*
X168822371Y-59321490D01*
X168827895Y-59372352D01*
X168831521Y-59387604D01*
X168876676Y-59508054D01*
X168885214Y-59523649D01*
X168961715Y-59625724D01*
X168974276Y-59638285D01*
X169076351Y-59714786D01*
X169091946Y-59723324D01*
X169212394Y-59768478D01*
X169227649Y-59772105D01*
X169278514Y-59777631D01*
X169285328Y-59778000D01*
X169907885Y-59778000D01*
X169923124Y-59773525D01*
X169924329Y-59772135D01*
X169926000Y-59764452D01*
X169926000Y-59759884D01*
X170434000Y-59759884D01*
X170438475Y-59775123D01*
X170439865Y-59776328D01*
X170447548Y-59777999D01*
X171074669Y-59777999D01*
X171081490Y-59777629D01*
X171132352Y-59772105D01*
X171147604Y-59768479D01*
X171268054Y-59723324D01*
X171283649Y-59714786D01*
X171385724Y-59638285D01*
X171398285Y-59625724D01*
X171474786Y-59523649D01*
X171483324Y-59508054D01*
X171528478Y-59387606D01*
X171532105Y-59372351D01*
X171537631Y-59321486D01*
X171538000Y-59314672D01*
X171538000Y-58692115D01*
X171533525Y-58676876D01*
X171532135Y-58675671D01*
X171524452Y-58674000D01*
X170452115Y-58674000D01*
X170436876Y-58678475D01*
X170435671Y-58679865D01*
X170434000Y-58687548D01*
X170434000Y-59759884D01*
X169926000Y-59759884D01*
X169926000Y-58692115D01*
X169921525Y-58676876D01*
X169920135Y-58675671D01*
X169912452Y-58674000D01*
X168840116Y-58674000D01*
X168824877Y-58678475D01*
X168823672Y-58679865D01*
X168822001Y-58687548D01*
X168822001Y-59314669D01*
X166108500Y-59314669D01*
X166108500Y-55846695D01*
X168817251Y-55846695D01*
X168817548Y-55851848D01*
X168817548Y-55851851D01*
X168819171Y-55880000D01*
X168830110Y-56069715D01*
X168831247Y-56074761D01*
X168831248Y-56074767D01*
X168839955Y-56113402D01*
X168879222Y-56287639D01*
X168963266Y-56494616D01*
X168965965Y-56499020D01*
X169044021Y-56626396D01*
X169079987Y-56685088D01*
X169226250Y-56853938D01*
X169230225Y-56857238D01*
X169230231Y-56857244D01*
X169235425Y-56861556D01*
X169275059Y-56920460D01*
X169276555Y-56991441D01*
X169239439Y-57051962D01*
X169199168Y-57076480D01*
X169091946Y-57116676D01*
X169076351Y-57125214D01*
X168974276Y-57201715D01*
X168961715Y-57214276D01*
X168885214Y-57316351D01*
X168876676Y-57331946D01*
X168831522Y-57452394D01*
X168827895Y-57467649D01*
X168822369Y-57518514D01*
X168822000Y-57525328D01*
X168822000Y-58147885D01*
X168826475Y-58163124D01*
X168827865Y-58164329D01*
X168835548Y-58166000D01*
X171519884Y-58166000D01*
X171535123Y-58161525D01*
X171536328Y-58160135D01*
X171537999Y-58152452D01*
X171537999Y-57525331D01*
X171537629Y-57518510D01*
X171532105Y-57467648D01*
X171528479Y-57452396D01*
X171483324Y-57331946D01*
X171474786Y-57316351D01*
X171398285Y-57214276D01*
X171385724Y-57201715D01*
X171283646Y-57125212D01*
X171283295Y-57125020D01*
X171283014Y-57124739D01*
X171276462Y-57119828D01*
X171277171Y-57118882D01*
X171233149Y-57074762D01*
X171218135Y-57005371D01*
X171243020Y-56938879D01*
X171299903Y-56896395D01*
X171343804Y-56888500D01*
X172658157Y-56888500D01*
X172671764Y-56889237D01*
X172703262Y-56892659D01*
X172703267Y-56892659D01*
X172709388Y-56893324D01*
X172735638Y-56891027D01*
X172759388Y-56888950D01*
X172764214Y-56888621D01*
X172766686Y-56888500D01*
X172769769Y-56888500D01*
X172781738Y-56887326D01*
X172812506Y-56884310D01*
X172813819Y-56884188D01*
X172858084Y-56880315D01*
X172906413Y-56876087D01*
X172911532Y-56874600D01*
X172916833Y-56874080D01*
X173005834Y-56847209D01*
X173006967Y-56846874D01*
X173090414Y-56822630D01*
X173090418Y-56822628D01*
X173096336Y-56820909D01*
X173101068Y-56818456D01*
X173106169Y-56816916D01*
X173111612Y-56814022D01*
X173188260Y-56773269D01*
X173189426Y-56772657D01*
X173266453Y-56732729D01*
X173271926Y-56729892D01*
X173276089Y-56726569D01*
X173280796Y-56724066D01*
X173352918Y-56665245D01*
X173353774Y-56664554D01*
X173392973Y-56633262D01*
X173395477Y-56630758D01*
X173396195Y-56630116D01*
X173400528Y-56626415D01*
X173434062Y-56599065D01*
X173463288Y-56563737D01*
X173471277Y-56554958D01*
X178180829Y-51845405D01*
X178243141Y-51811379D01*
X178269924Y-51808500D01*
X178918991Y-51808500D01*
X178987112Y-51828502D01*
X179033605Y-51882158D01*
X179035903Y-51887694D01*
X179036232Y-51888296D01*
X179039385Y-51896705D01*
X179126739Y-52013261D01*
X179243295Y-52100615D01*
X179379684Y-52151745D01*
X179441866Y-52158500D01*
X181238134Y-52158500D01*
X181300316Y-52151745D01*
X181436705Y-52100615D01*
X181553261Y-52013261D01*
X181640615Y-51896705D01*
X181691745Y-51760316D01*
X181698500Y-51698134D01*
X181698500Y-49901866D01*
X181691745Y-49839684D01*
X181640615Y-49703295D01*
X181553261Y-49586739D01*
X181436705Y-49499385D01*
X181300316Y-49448255D01*
X181238134Y-49441500D01*
X179441866Y-49441500D01*
X179379684Y-49448255D01*
X179243295Y-49499385D01*
X179126739Y-49586739D01*
X179039385Y-49703295D01*
X179036233Y-49711703D01*
X179031923Y-49719575D01*
X179030259Y-49718664D01*
X178994337Y-49766490D01*
X178927776Y-49791193D01*
X178918991Y-49791500D01*
X177861843Y-49791500D01*
X177848236Y-49790763D01*
X177816738Y-49787341D01*
X177816733Y-49787341D01*
X177810612Y-49786676D01*
X177784362Y-49788973D01*
X177760612Y-49791050D01*
X177755786Y-49791379D01*
X177753314Y-49791500D01*
X177750231Y-49791500D01*
X177738262Y-49792674D01*
X177707494Y-49795690D01*
X177706181Y-49795812D01*
X177661916Y-49799685D01*
X177613587Y-49803913D01*
X177608468Y-49805400D01*
X177603167Y-49805920D01*
X177514166Y-49832791D01*
X177513033Y-49833126D01*
X177429586Y-49857370D01*
X177429582Y-49857372D01*
X177423664Y-49859091D01*
X177418932Y-49861544D01*
X177413831Y-49863084D01*
X177408388Y-49865978D01*
X177331740Y-49906731D01*
X177330574Y-49907343D01*
X177253547Y-49947271D01*
X177248074Y-49950108D01*
X177243911Y-49953431D01*
X177239204Y-49955934D01*
X177167105Y-50014737D01*
X177166226Y-50015446D01*
X177127027Y-50046738D01*
X177124523Y-50049242D01*
X177123805Y-50049884D01*
X177119472Y-50053585D01*
X177085938Y-50080935D01*
X177082011Y-50085682D01*
X177082009Y-50085684D01*
X177056713Y-50116262D01*
X177048723Y-50125042D01*
X172339171Y-54834595D01*
X172276859Y-54868621D01*
X172250076Y-54871500D01*
X171138799Y-54871500D01*
X171070678Y-54851498D01*
X171060707Y-54844382D01*
X170938414Y-54747800D01*
X170938410Y-54747798D01*
X170934359Y-54744598D01*
X170926304Y-54740151D01*
X170882136Y-54715769D01*
X170738789Y-54636638D01*
X170733920Y-54634914D01*
X170733916Y-54634912D01*
X170533087Y-54563795D01*
X170533083Y-54563794D01*
X170528212Y-54562069D01*
X170523119Y-54561162D01*
X170523116Y-54561161D01*
X170313373Y-54523800D01*
X170313367Y-54523799D01*
X170308284Y-54522894D01*
X170234452Y-54521992D01*
X170090081Y-54520228D01*
X170090079Y-54520228D01*
X170084911Y-54520165D01*
X169864091Y-54553955D01*
X169651756Y-54623357D01*
X169453607Y-54726507D01*
X169449474Y-54729610D01*
X169449471Y-54729612D01*
X169287134Y-54851498D01*
X169274965Y-54860635D01*
X169120629Y-55022138D01*
X169117715Y-55026410D01*
X169117714Y-55026411D01*
X169108300Y-55040211D01*
X168994743Y-55206680D01*
X168900688Y-55409305D01*
X168840989Y-55624570D01*
X168817251Y-55846695D01*
X166108500Y-55846695D01*
X166108500Y-53809925D01*
X166128502Y-53741804D01*
X166145405Y-53720830D01*
X168020830Y-51845405D01*
X168083142Y-51811379D01*
X168109925Y-51808500D01*
X171298991Y-51808500D01*
X171367112Y-51828502D01*
X171413605Y-51882158D01*
X171415903Y-51887694D01*
X171416232Y-51888296D01*
X171419385Y-51896705D01*
X171506739Y-52013261D01*
X171623295Y-52100615D01*
X171759684Y-52151745D01*
X171821866Y-52158500D01*
X173618134Y-52158500D01*
X173680316Y-52151745D01*
X173816705Y-52100615D01*
X173933261Y-52013261D01*
X174020615Y-51896705D01*
X174071745Y-51760316D01*
X174078500Y-51698134D01*
X174078500Y-49901866D01*
X174071745Y-49839684D01*
X174020615Y-49703295D01*
X173933261Y-49586739D01*
X173816705Y-49499385D01*
X173680316Y-49448255D01*
X173618134Y-49441500D01*
X171821866Y-49441500D01*
X171759684Y-49448255D01*
X171623295Y-49499385D01*
X171506739Y-49586739D01*
X171419385Y-49703295D01*
X171416233Y-49711703D01*
X171411923Y-49719575D01*
X171410259Y-49718664D01*
X171374337Y-49766490D01*
X171307776Y-49791193D01*
X171298991Y-49791500D01*
X167701840Y-49791500D01*
X167688232Y-49790763D01*
X167656736Y-49787341D01*
X167656732Y-49787341D01*
X167650611Y-49786676D01*
X167632611Y-49788251D01*
X167600609Y-49791050D01*
X167595784Y-49791379D01*
X167593313Y-49791500D01*
X167590231Y-49791500D01*
X167567763Y-49793703D01*
X167547489Y-49795691D01*
X167546174Y-49795813D01*
X167513913Y-49798636D01*
X167453587Y-49803913D01*
X167448468Y-49805400D01*
X167443167Y-49805920D01*
X167354133Y-49832801D01*
X167353000Y-49833136D01*
X167269578Y-49857373D01*
X167269574Y-49857375D01*
X167263663Y-49859092D01*
X167258934Y-49861543D01*
X167253831Y-49863084D01*
X167171669Y-49906770D01*
X167170627Y-49907317D01*
X167088074Y-49950108D01*
X167083911Y-49953431D01*
X167079204Y-49955934D01*
X167074430Y-49959828D01*
X167074428Y-49959829D01*
X167007105Y-50014737D01*
X167006160Y-50015500D01*
X166967027Y-50046739D01*
X166964536Y-50049230D01*
X166963809Y-50049880D01*
X166959463Y-50053592D01*
X166940588Y-50068987D01*
X166925938Y-50080935D01*
X166922015Y-50085677D01*
X166922013Y-50085679D01*
X166896703Y-50116273D01*
X166888713Y-50125053D01*
X164430621Y-52583145D01*
X164420478Y-52592247D01*
X164390975Y-52615968D01*
X164387008Y-52620696D01*
X164358709Y-52654421D01*
X164355528Y-52658069D01*
X164353885Y-52659881D01*
X164351691Y-52662075D01*
X164324358Y-52695349D01*
X164323696Y-52696147D01*
X164263846Y-52767474D01*
X164261278Y-52772144D01*
X164257897Y-52776261D01*
X164226860Y-52834145D01*
X164214023Y-52858086D01*
X164213394Y-52859245D01*
X164171538Y-52935381D01*
X164171535Y-52935389D01*
X164168567Y-52940787D01*
X164166955Y-52945869D01*
X164164438Y-52950563D01*
X164137238Y-53039531D01*
X164136918Y-53040559D01*
X164108765Y-53129306D01*
X164108171Y-53134602D01*
X164106613Y-53139698D01*
X164105990Y-53145834D01*
X164097218Y-53232187D01*
X164097089Y-53233393D01*
X164091500Y-53283227D01*
X164091500Y-53286754D01*
X164091445Y-53287739D01*
X164090998Y-53293419D01*
X164086626Y-53336462D01*
X164087206Y-53342593D01*
X164090941Y-53382109D01*
X164091500Y-53393967D01*
X164091500Y-64618991D01*
X164071498Y-64687112D01*
X164017842Y-64733605D01*
X164012306Y-64735903D01*
X164011704Y-64736232D01*
X164003295Y-64739385D01*
X163886739Y-64826739D01*
X163799385Y-64943295D01*
X163748255Y-65079684D01*
X163741500Y-65141866D01*
X163741500Y-66938134D01*
X163748255Y-67000316D01*
X163799385Y-67136705D01*
X163886739Y-67253261D01*
X164003295Y-67340615D01*
X164011704Y-67343767D01*
X164011705Y-67343768D01*
X164120451Y-67384535D01*
X164177216Y-67427176D01*
X164201916Y-67493738D01*
X164186709Y-67563087D01*
X164167316Y-67589568D01*
X164040629Y-67722138D01*
X163914743Y-67906680D01*
X163820688Y-68109305D01*
X163760989Y-68324570D01*
X163737251Y-68546695D01*
X163737548Y-68551848D01*
X163737548Y-68551851D01*
X163743011Y-68646590D01*
X163750110Y-68769715D01*
X163751247Y-68774761D01*
X163751248Y-68774767D01*
X163771119Y-68862939D01*
X163799222Y-68987639D01*
X163883266Y-69194616D01*
X163999987Y-69385088D01*
X164146250Y-69553938D01*
X164318126Y-69696632D01*
X164388595Y-69737811D01*
X164391445Y-69739476D01*
X164440169Y-69791114D01*
X164453240Y-69860897D01*
X164426509Y-69926669D01*
X164386055Y-69960027D01*
X164373607Y-69966507D01*
X164369474Y-69969610D01*
X164369471Y-69969612D01*
X164213980Y-70086358D01*
X164194965Y-70100635D01*
X164171299Y-70125400D01*
X164044904Y-70257665D01*
X164040629Y-70262138D01*
X164037715Y-70266410D01*
X164037714Y-70266411D01*
X163990540Y-70335566D01*
X163914743Y-70446680D01*
X163820688Y-70649305D01*
X163760989Y-70864570D01*
X163737251Y-71086695D01*
X163737548Y-71091848D01*
X163737548Y-71091851D01*
X163743343Y-71192359D01*
X163750110Y-71309715D01*
X163751247Y-71314761D01*
X163751248Y-71314767D01*
X163771119Y-71402939D01*
X163799222Y-71527639D01*
X163883266Y-71734616D01*
X163999987Y-71925088D01*
X164146250Y-72093938D01*
X164318126Y-72236632D01*
X164369590Y-72266705D01*
X164391445Y-72279476D01*
X164440169Y-72331114D01*
X164453240Y-72400897D01*
X164426509Y-72466669D01*
X164386055Y-72500027D01*
X164373607Y-72506507D01*
X164369474Y-72509610D01*
X164369471Y-72509612D01*
X164199100Y-72637530D01*
X164194965Y-72640635D01*
X164191393Y-72644373D01*
X164058361Y-72783583D01*
X164040629Y-72802138D01*
X163914743Y-72986680D01*
X163875313Y-73071626D01*
X163825358Y-73179245D01*
X163820688Y-73189305D01*
X163760989Y-73404570D01*
X163737251Y-73626695D01*
X163737548Y-73631848D01*
X163737548Y-73631851D01*
X163743011Y-73726590D01*
X163750110Y-73849715D01*
X163751247Y-73854761D01*
X163751248Y-73854767D01*
X163771119Y-73942939D01*
X163799222Y-74067639D01*
X163883266Y-74274616D01*
X163999987Y-74465088D01*
X164146250Y-74633938D01*
X164318126Y-74776632D01*
X164388595Y-74817811D01*
X164391445Y-74819476D01*
X164440169Y-74871114D01*
X164453240Y-74940897D01*
X164426509Y-75006669D01*
X164386055Y-75040027D01*
X164373607Y-75046507D01*
X164369474Y-75049610D01*
X164369471Y-75049612D01*
X164345247Y-75067800D01*
X164194965Y-75180635D01*
X164040629Y-75342138D01*
X163914743Y-75526680D01*
X163820688Y-75729305D01*
X163760989Y-75944570D01*
X163737251Y-76166695D01*
X163737548Y-76171848D01*
X163737548Y-76171851D01*
X163743011Y-76266590D01*
X163750110Y-76389715D01*
X163751247Y-76394761D01*
X163751248Y-76394767D01*
X163771119Y-76482939D01*
X163799222Y-76607639D01*
X163883266Y-76814616D01*
X163999987Y-77005088D01*
X164146250Y-77173938D01*
X164318126Y-77316632D01*
X164388595Y-77357811D01*
X164391445Y-77359476D01*
X164440169Y-77411114D01*
X164453240Y-77480897D01*
X164426509Y-77546669D01*
X164386055Y-77580027D01*
X164373607Y-77586507D01*
X164369474Y-77589610D01*
X164369471Y-77589612D01*
X164345247Y-77607800D01*
X164194965Y-77720635D01*
X164040629Y-77882138D01*
X163914743Y-78066680D01*
X163820688Y-78269305D01*
X163812174Y-78300006D01*
X163774694Y-78360303D01*
X163710565Y-78390765D01*
X163640147Y-78381721D01*
X163601662Y-78355427D01*
X161065405Y-75819171D01*
X161031380Y-75756859D01*
X161028500Y-75730076D01*
X161028500Y-71192275D01*
X161048502Y-71124154D01*
X161078935Y-71091449D01*
X161176081Y-71018642D01*
X161183261Y-71013261D01*
X161270615Y-70896705D01*
X161321745Y-70760316D01*
X161328500Y-70698134D01*
X161328500Y-69001866D01*
X161321745Y-68939684D01*
X161270615Y-68803295D01*
X161183261Y-68686739D01*
X161066705Y-68599385D01*
X160930316Y-68548255D01*
X160868134Y-68541500D01*
X159171866Y-68541500D01*
X159109684Y-68548255D01*
X158973295Y-68599385D01*
X158856739Y-68686739D01*
X158769385Y-68803295D01*
X158718255Y-68939684D01*
X158711500Y-69001866D01*
X158711500Y-70698134D01*
X158718255Y-70760316D01*
X158769385Y-70896705D01*
X158856739Y-71013261D01*
X158863919Y-71018642D01*
X158961065Y-71091449D01*
X159003580Y-71148308D01*
X159011500Y-71192275D01*
X159011500Y-76138157D01*
X159010763Y-76151764D01*
X159006676Y-76189388D01*
X159007899Y-76203365D01*
X159011050Y-76239388D01*
X159011379Y-76244214D01*
X159011500Y-76246686D01*
X159011500Y-76249769D01*
X159011801Y-76252837D01*
X159015690Y-76292506D01*
X159015812Y-76293819D01*
X159023913Y-76386413D01*
X159025400Y-76391532D01*
X159025920Y-76396833D01*
X159052791Y-76485834D01*
X159053126Y-76486967D01*
X159054886Y-76493023D01*
X159079091Y-76576336D01*
X159081544Y-76581068D01*
X159083084Y-76586169D01*
X159085978Y-76591612D01*
X159126731Y-76668260D01*
X159127343Y-76669426D01*
X159167271Y-76746453D01*
X159170108Y-76751926D01*
X159173431Y-76756089D01*
X159175934Y-76760796D01*
X159234755Y-76832918D01*
X159235446Y-76833774D01*
X159266738Y-76872973D01*
X159269242Y-76875477D01*
X159269884Y-76876195D01*
X159273585Y-76880528D01*
X159300935Y-76914062D01*
X159305682Y-76917989D01*
X159305684Y-76917991D01*
X159336262Y-76943287D01*
X159345042Y-76951277D01*
X161541405Y-79147639D01*
X163709239Y-81315473D01*
X163743265Y-81377785D01*
X163745935Y-81397314D01*
X163750110Y-81469715D01*
X163751247Y-81474761D01*
X163751248Y-81474767D01*
X163764597Y-81534000D01*
X163799222Y-81687639D01*
X163883266Y-81894616D01*
X163999987Y-82085088D01*
X164146250Y-82253938D01*
X164318126Y-82396632D01*
X164388595Y-82437811D01*
X164391445Y-82439476D01*
X164440169Y-82491114D01*
X164453240Y-82560897D01*
X164426509Y-82626669D01*
X164386055Y-82660027D01*
X164373607Y-82666507D01*
X164369474Y-82669610D01*
X164369471Y-82669612D01*
X164345247Y-82687800D01*
X164194965Y-82800635D01*
X164040629Y-82962138D01*
X163914743Y-83146680D01*
X163820688Y-83349305D01*
X163760989Y-83564570D01*
X163737251Y-83786695D01*
X163737548Y-83791848D01*
X163737548Y-83791851D01*
X163742899Y-83884659D01*
X163750110Y-84009715D01*
X163751247Y-84014761D01*
X163751248Y-84014767D01*
X163771119Y-84102939D01*
X163799222Y-84227639D01*
X163883266Y-84434616D01*
X163999987Y-84625088D01*
X164146250Y-84793938D01*
X164318126Y-84936632D01*
X164388595Y-84977811D01*
X164391445Y-84979476D01*
X164440169Y-85031114D01*
X164453240Y-85100897D01*
X164426509Y-85166669D01*
X164386055Y-85200027D01*
X164373607Y-85206507D01*
X164369474Y-85209610D01*
X164369471Y-85209612D01*
X164199100Y-85337530D01*
X164194965Y-85340635D01*
X164040629Y-85502138D01*
X163914743Y-85686680D01*
X163820688Y-85889305D01*
X163760989Y-86104570D01*
X163737251Y-86326695D01*
X163737548Y-86331848D01*
X163737548Y-86331851D01*
X163743011Y-86426590D01*
X163750110Y-86549715D01*
X163751247Y-86554761D01*
X163751248Y-86554767D01*
X163761768Y-86601446D01*
X163799222Y-86767639D01*
X163883266Y-86974616D01*
X163999987Y-87165088D01*
X164146250Y-87333938D01*
X164318126Y-87476632D01*
X164388595Y-87517811D01*
X164391445Y-87519476D01*
X164440169Y-87571114D01*
X164453240Y-87640897D01*
X164426509Y-87706669D01*
X164386055Y-87740027D01*
X164373607Y-87746507D01*
X164369474Y-87749610D01*
X164369471Y-87749612D01*
X164211127Y-87868500D01*
X164194965Y-87880635D01*
X164040629Y-88042138D01*
X164037715Y-88046410D01*
X164037714Y-88046411D01*
X164008371Y-88089426D01*
X163914743Y-88226680D01*
X163899003Y-88260590D01*
X163847624Y-88371277D01*
X163820688Y-88429305D01*
X163760989Y-88644570D01*
X163737251Y-88866695D01*
X163737548Y-88871848D01*
X163737548Y-88871851D01*
X163743011Y-88966590D01*
X163750110Y-89089715D01*
X163751247Y-89094761D01*
X163751248Y-89094767D01*
X163771119Y-89182939D01*
X163799222Y-89307639D01*
X163883266Y-89514616D01*
X163999987Y-89705088D01*
X164146250Y-89873938D01*
X164318126Y-90016632D01*
X164388595Y-90057811D01*
X164391445Y-90059476D01*
X164440169Y-90111114D01*
X164453240Y-90180897D01*
X164426509Y-90246669D01*
X164386055Y-90280027D01*
X164373607Y-90286507D01*
X164369474Y-90289610D01*
X164369471Y-90289612D01*
X164345247Y-90307800D01*
X164194965Y-90420635D01*
X164040629Y-90582138D01*
X164037715Y-90586410D01*
X164037714Y-90586411D01*
X164025404Y-90604457D01*
X163914743Y-90766680D01*
X163820688Y-90969305D01*
X163813047Y-90996859D01*
X163812174Y-91000006D01*
X163774694Y-91060303D01*
X163710565Y-91090765D01*
X163640147Y-91081721D01*
X163601662Y-91055427D01*
X160237706Y-87691472D01*
X160203680Y-87629160D01*
X160208819Y-87558148D01*
X160238971Y-87477718D01*
X160238973Y-87477712D01*
X160241745Y-87470316D01*
X160248500Y-87408134D01*
X160248500Y-85311866D01*
X160241745Y-85249684D01*
X160190615Y-85113295D01*
X160103261Y-84996739D01*
X159986705Y-84909385D01*
X159850316Y-84858255D01*
X159788134Y-84851500D01*
X157691866Y-84851500D01*
X157629684Y-84858255D01*
X157493295Y-84909385D01*
X157376739Y-84996739D01*
X157289385Y-85113295D01*
X157238255Y-85249684D01*
X157231500Y-85311866D01*
X157231500Y-87408134D01*
X157238255Y-87470316D01*
X157289385Y-87606705D01*
X157376739Y-87723261D01*
X157493295Y-87810615D01*
X157629684Y-87861745D01*
X157680378Y-87867252D01*
X157745940Y-87894494D01*
X157787766Y-87957360D01*
X157797368Y-87990407D01*
X157799091Y-87996336D01*
X157801544Y-88001068D01*
X157803084Y-88006169D01*
X157805978Y-88011612D01*
X157846731Y-88088260D01*
X157847343Y-88089426D01*
X157890108Y-88171926D01*
X157893431Y-88176089D01*
X157895934Y-88180796D01*
X157954755Y-88252918D01*
X157955446Y-88253774D01*
X157986738Y-88292973D01*
X157989242Y-88295477D01*
X157989884Y-88296195D01*
X157993585Y-88300528D01*
X158020935Y-88334062D01*
X158025682Y-88337989D01*
X158025684Y-88337991D01*
X158056262Y-88363287D01*
X158065042Y-88371277D01*
X163709239Y-94015473D01*
X163743265Y-94077785D01*
X163745935Y-94097314D01*
X163750110Y-94169715D01*
X163751247Y-94174761D01*
X163751248Y-94174767D01*
X163764597Y-94234000D01*
X163799222Y-94387639D01*
X163883266Y-94594616D01*
X163999987Y-94785088D01*
X164146250Y-94953938D01*
X164318126Y-95096632D01*
X164388595Y-95137811D01*
X164391445Y-95139476D01*
X164440169Y-95191114D01*
X164453240Y-95260897D01*
X164426509Y-95326669D01*
X164386055Y-95360027D01*
X164373607Y-95366507D01*
X164369474Y-95369610D01*
X164369471Y-95369612D01*
X164214111Y-95486260D01*
X164147626Y-95511166D01*
X164138458Y-95511500D01*
X150329925Y-95511500D01*
X150261804Y-95491498D01*
X150240830Y-95474595D01*
X145825405Y-91059171D01*
X145791379Y-90996859D01*
X145788500Y-90970076D01*
X145788500Y-87592670D01*
X150272160Y-87592670D01*
X150277887Y-87600320D01*
X150449042Y-87705205D01*
X150457837Y-87709687D01*
X150667988Y-87796734D01*
X150677373Y-87799783D01*
X150898554Y-87852885D01*
X150908301Y-87854428D01*
X151135070Y-87872275D01*
X151144930Y-87872275D01*
X151371699Y-87854428D01*
X151381446Y-87852885D01*
X151602627Y-87799783D01*
X151612012Y-87796734D01*
X151822163Y-87709687D01*
X151830958Y-87705205D01*
X151998445Y-87602568D01*
X152007907Y-87592110D01*
X152004124Y-87583334D01*
X151152812Y-86732022D01*
X151138868Y-86724408D01*
X151137035Y-86724539D01*
X151130420Y-86728790D01*
X150278920Y-87580290D01*
X150272160Y-87592670D01*
X145788500Y-87592670D01*
X145788500Y-86364930D01*
X149627725Y-86364930D01*
X149645572Y-86591699D01*
X149647115Y-86601446D01*
X149700217Y-86822627D01*
X149703266Y-86832012D01*
X149790313Y-87042163D01*
X149794795Y-87050958D01*
X149897432Y-87218445D01*
X149907890Y-87227907D01*
X149916666Y-87224124D01*
X150767978Y-86372812D01*
X150774356Y-86361132D01*
X151504408Y-86361132D01*
X151504539Y-86362965D01*
X151508790Y-86369580D01*
X152360290Y-87221080D01*
X152372670Y-87227840D01*
X152380320Y-87222113D01*
X152485205Y-87050958D01*
X152489687Y-87042163D01*
X152576734Y-86832012D01*
X152579783Y-86822627D01*
X152632885Y-86601446D01*
X152634428Y-86591699D01*
X152652275Y-86364930D01*
X152652275Y-86355070D01*
X152634428Y-86128301D01*
X152632885Y-86118554D01*
X152579783Y-85897373D01*
X152576734Y-85887988D01*
X152489687Y-85677837D01*
X152485205Y-85669042D01*
X152382568Y-85501555D01*
X152372110Y-85492093D01*
X152363334Y-85495876D01*
X151512022Y-86347188D01*
X151504408Y-86361132D01*
X150774356Y-86361132D01*
X150775592Y-86358868D01*
X150775461Y-86357035D01*
X150771210Y-86350420D01*
X149919710Y-85498920D01*
X149907330Y-85492160D01*
X149899680Y-85497887D01*
X149794795Y-85669042D01*
X149790313Y-85677837D01*
X149703266Y-85887988D01*
X149700217Y-85897373D01*
X149647115Y-86118554D01*
X149645572Y-86128301D01*
X149627725Y-86355070D01*
X149627725Y-86364930D01*
X145788500Y-86364930D01*
X145788500Y-85127890D01*
X150272093Y-85127890D01*
X150275876Y-85136666D01*
X151127188Y-85987978D01*
X151141132Y-85995592D01*
X151142965Y-85995461D01*
X151149580Y-85991210D01*
X152001080Y-85139710D01*
X152007840Y-85127330D01*
X152002113Y-85119680D01*
X151830958Y-85014795D01*
X151822163Y-85010313D01*
X151612012Y-84923266D01*
X151602627Y-84920217D01*
X151381446Y-84867115D01*
X151371699Y-84865572D01*
X151144930Y-84847725D01*
X151135070Y-84847725D01*
X150908301Y-84865572D01*
X150898554Y-84867115D01*
X150677373Y-84920217D01*
X150667988Y-84923266D01*
X150457837Y-85010313D01*
X150449042Y-85014795D01*
X150281555Y-85117432D01*
X150272093Y-85127890D01*
X145788500Y-85127890D01*
X145788500Y-74129925D01*
X145808502Y-74061804D01*
X145825405Y-74040830D01*
X147700830Y-72165405D01*
X147763142Y-72131379D01*
X147789925Y-72128500D01*
X148824114Y-72128500D01*
X148892235Y-72148502D01*
X148904595Y-72157553D01*
X149049349Y-72277730D01*
X149249322Y-72394584D01*
X149465694Y-72477209D01*
X149470760Y-72478240D01*
X149470761Y-72478240D01*
X149523846Y-72489040D01*
X149692656Y-72523385D01*
X149822089Y-72528131D01*
X149918949Y-72531683D01*
X149918953Y-72531683D01*
X149924113Y-72531872D01*
X149929233Y-72531216D01*
X149929235Y-72531216D01*
X150003166Y-72521745D01*
X150153847Y-72502442D01*
X150158795Y-72500957D01*
X150158802Y-72500956D01*
X150370747Y-72437369D01*
X150375690Y-72435886D01*
X150380324Y-72433616D01*
X150579049Y-72336262D01*
X150579052Y-72336260D01*
X150583684Y-72333991D01*
X150772243Y-72199494D01*
X150810698Y-72161173D01*
X150817309Y-72154585D01*
X150879681Y-72120669D01*
X150950487Y-72125857D01*
X151007249Y-72168503D01*
X151024231Y-72199607D01*
X151039090Y-72239242D01*
X151049385Y-72266705D01*
X151136739Y-72383261D01*
X151253295Y-72470615D01*
X151389684Y-72521745D01*
X151451866Y-72528500D01*
X153348134Y-72528500D01*
X153410316Y-72521745D01*
X153546705Y-72470615D01*
X153663261Y-72383261D01*
X153750615Y-72266705D01*
X153801745Y-72130316D01*
X153808500Y-72068134D01*
X153808500Y-70171866D01*
X153801745Y-70109684D01*
X153750615Y-69973295D01*
X153663261Y-69856739D01*
X153546705Y-69769385D01*
X153536092Y-69765406D01*
X153490270Y-69748228D01*
X153433505Y-69705586D01*
X153408806Y-69639024D01*
X153408500Y-69630246D01*
X153408500Y-65650740D01*
X153431287Y-65578469D01*
X153534366Y-65431257D01*
X153537523Y-65426749D01*
X153539846Y-65421767D01*
X153539849Y-65421762D01*
X153631961Y-65224225D01*
X153631961Y-65224224D01*
X153634284Y-65219243D01*
X153655928Y-65138469D01*
X153692119Y-65003402D01*
X153692119Y-65003400D01*
X153693543Y-64998087D01*
X153713498Y-64770000D01*
X153693543Y-64541913D01*
X153684820Y-64509357D01*
X153635707Y-64326067D01*
X153635706Y-64326065D01*
X153634284Y-64320757D01*
X153628554Y-64308469D01*
X153539849Y-64118238D01*
X153539846Y-64118233D01*
X153537523Y-64113251D01*
X153464098Y-64008389D01*
X153409357Y-63930211D01*
X153409355Y-63930208D01*
X153406198Y-63925700D01*
X153244300Y-63763802D01*
X153239792Y-63760645D01*
X153239789Y-63760643D01*
X153161611Y-63705902D01*
X153056749Y-63632477D01*
X153051767Y-63630154D01*
X153051762Y-63630151D01*
X152854225Y-63538039D01*
X152854224Y-63538039D01*
X152849243Y-63535716D01*
X152843935Y-63534294D01*
X152843933Y-63534293D01*
X152633402Y-63477881D01*
X152633400Y-63477881D01*
X152628087Y-63476457D01*
X152400000Y-63456502D01*
X152171913Y-63476457D01*
X152166600Y-63477881D01*
X152166598Y-63477881D01*
X151956067Y-63534293D01*
X151956065Y-63534294D01*
X151950757Y-63535716D01*
X151945776Y-63538039D01*
X151945775Y-63538039D01*
X151748238Y-63630151D01*
X151748233Y-63630154D01*
X151743251Y-63632477D01*
X151638389Y-63705902D01*
X151560211Y-63760643D01*
X151560208Y-63760645D01*
X151555700Y-63763802D01*
X151393802Y-63925700D01*
X151390645Y-63930208D01*
X151390643Y-63930211D01*
X151335902Y-64008389D01*
X151262477Y-64113251D01*
X151260154Y-64118233D01*
X151260151Y-64118238D01*
X151171446Y-64308469D01*
X151165716Y-64320757D01*
X151164294Y-64326065D01*
X151164293Y-64326067D01*
X151115180Y-64509357D01*
X151106457Y-64541913D01*
X151086502Y-64770000D01*
X151106457Y-64998087D01*
X151107881Y-65003400D01*
X151107881Y-65003402D01*
X151144073Y-65138469D01*
X151165716Y-65219243D01*
X151168039Y-65224224D01*
X151168039Y-65224225D01*
X151260151Y-65421762D01*
X151260154Y-65421767D01*
X151262477Y-65426749D01*
X151265634Y-65431257D01*
X151368713Y-65578469D01*
X151391500Y-65650740D01*
X151391500Y-69630246D01*
X151371498Y-69698367D01*
X151317842Y-69744860D01*
X151309730Y-69748228D01*
X151263908Y-69765406D01*
X151253295Y-69769385D01*
X151136739Y-69856739D01*
X151049385Y-69973295D01*
X151046233Y-69981703D01*
X151046232Y-69981705D01*
X151025538Y-70036906D01*
X150982897Y-70093671D01*
X150916335Y-70118371D01*
X150846986Y-70103164D01*
X150824167Y-70086666D01*
X150823887Y-70086358D01*
X150761270Y-70036906D01*
X150646177Y-69946011D01*
X150646172Y-69946008D01*
X150642123Y-69942810D01*
X150637607Y-69940317D01*
X150637604Y-69940315D01*
X150443879Y-69833373D01*
X150443875Y-69833371D01*
X150439355Y-69830876D01*
X150434486Y-69829152D01*
X150434482Y-69829150D01*
X150225903Y-69755288D01*
X150225899Y-69755287D01*
X150221028Y-69753562D01*
X150215935Y-69752655D01*
X150215932Y-69752654D01*
X149998095Y-69713851D01*
X149998089Y-69713850D01*
X149993006Y-69712945D01*
X149920096Y-69712054D01*
X149766581Y-69710179D01*
X149766579Y-69710179D01*
X149761411Y-69710116D01*
X149532464Y-69745150D01*
X149312314Y-69817106D01*
X149307726Y-69819494D01*
X149307722Y-69819496D01*
X149131245Y-69911364D01*
X149106872Y-69924052D01*
X149102739Y-69927155D01*
X149102736Y-69927157D01*
X148954319Y-70038592D01*
X148921655Y-70063117D01*
X148913032Y-70072141D01*
X148912641Y-70072550D01*
X148851118Y-70107981D01*
X148821546Y-70111500D01*
X147381840Y-70111500D01*
X147368232Y-70110763D01*
X147336736Y-70107341D01*
X147336732Y-70107341D01*
X147330611Y-70106676D01*
X147312611Y-70108251D01*
X147280609Y-70111050D01*
X147275784Y-70111379D01*
X147273313Y-70111500D01*
X147270231Y-70111500D01*
X147247763Y-70113703D01*
X147227489Y-70115691D01*
X147226174Y-70115813D01*
X147196937Y-70118371D01*
X147133587Y-70123913D01*
X147128468Y-70125400D01*
X147123167Y-70125920D01*
X147034133Y-70152801D01*
X147033000Y-70153136D01*
X146949578Y-70177373D01*
X146949574Y-70177375D01*
X146943663Y-70179092D01*
X146938934Y-70181543D01*
X146933831Y-70183084D01*
X146851669Y-70226770D01*
X146850627Y-70227317D01*
X146783450Y-70262138D01*
X146768074Y-70270108D01*
X146763911Y-70273431D01*
X146759204Y-70275934D01*
X146754430Y-70279828D01*
X146754428Y-70279829D01*
X146687105Y-70334737D01*
X146686160Y-70335500D01*
X146647027Y-70366739D01*
X146644536Y-70369230D01*
X146643809Y-70369880D01*
X146639463Y-70373592D01*
X146620588Y-70388987D01*
X146605938Y-70400935D01*
X146602015Y-70405677D01*
X146602013Y-70405679D01*
X146576703Y-70436273D01*
X146568713Y-70445053D01*
X144110621Y-72903145D01*
X144100478Y-72912247D01*
X144070975Y-72935968D01*
X144067008Y-72940696D01*
X144038709Y-72974421D01*
X144035528Y-72978069D01*
X144033885Y-72979881D01*
X144031691Y-72982075D01*
X144004358Y-73015349D01*
X144003696Y-73016147D01*
X143943846Y-73087474D01*
X143941278Y-73092144D01*
X143937897Y-73096261D01*
X143913359Y-73142024D01*
X143894023Y-73178086D01*
X143893394Y-73179245D01*
X143851538Y-73255381D01*
X143851535Y-73255389D01*
X143848567Y-73260787D01*
X143846955Y-73265869D01*
X143844438Y-73270563D01*
X143817238Y-73359531D01*
X143816918Y-73360559D01*
X143788765Y-73449306D01*
X143788171Y-73454602D01*
X143786613Y-73459698D01*
X143785990Y-73465834D01*
X143777218Y-73552187D01*
X143777089Y-73553393D01*
X143771500Y-73603227D01*
X143771500Y-73606754D01*
X143771445Y-73607739D01*
X143770998Y-73613419D01*
X143766626Y-73656462D01*
X140208500Y-73656462D01*
X140208500Y-62230000D01*
X158706502Y-62230000D01*
X158726457Y-62458087D01*
X158727881Y-62463400D01*
X158727881Y-62463402D01*
X158780703Y-62660533D01*
X158785716Y-62679243D01*
X158788039Y-62684224D01*
X158788039Y-62684225D01*
X158880151Y-62881762D01*
X158880154Y-62881767D01*
X158882477Y-62886749D01*
X158885634Y-62891257D01*
X159001156Y-63056239D01*
X159013802Y-63074300D01*
X159175700Y-63236198D01*
X159180208Y-63239355D01*
X159180211Y-63239357D01*
X159226706Y-63271913D01*
X159363251Y-63367523D01*
X159368233Y-63369846D01*
X159368238Y-63369849D01*
X159565775Y-63461961D01*
X159570757Y-63464284D01*
X159576065Y-63465706D01*
X159576067Y-63465707D01*
X159786598Y-63522119D01*
X159786600Y-63522119D01*
X159791913Y-63523543D01*
X160020000Y-63543498D01*
X160248087Y-63523543D01*
X160253400Y-63522119D01*
X160253402Y-63522119D01*
X160463933Y-63465707D01*
X160463935Y-63465706D01*
X160469243Y-63464284D01*
X160474225Y-63461961D01*
X160671762Y-63369849D01*
X160671767Y-63369846D01*
X160676749Y-63367523D01*
X160813294Y-63271913D01*
X160859789Y-63239357D01*
X160859792Y-63239355D01*
X160864300Y-63236198D01*
X161026198Y-63074300D01*
X161038845Y-63056239D01*
X161154366Y-62891257D01*
X161157523Y-62886749D01*
X161159846Y-62881767D01*
X161159849Y-62881762D01*
X161251961Y-62684225D01*
X161251961Y-62684224D01*
X161254284Y-62679243D01*
X161259298Y-62660533D01*
X161312119Y-62463402D01*
X161312119Y-62463400D01*
X161313543Y-62458087D01*
X161333498Y-62230000D01*
X161313543Y-62001913D01*
X161254284Y-61780757D01*
X161251961Y-61775775D01*
X161159849Y-61578238D01*
X161159846Y-61578233D01*
X161157523Y-61573251D01*
X161051287Y-61421531D01*
X161028500Y-61349260D01*
X161028500Y-53809925D01*
X161048502Y-53741804D01*
X161065405Y-53720830D01*
X166471318Y-48314916D01*
X166533630Y-48280890D01*
X166560413Y-48278011D01*
X173648646Y-48278011D01*
X173662253Y-48278748D01*
X173693751Y-48282170D01*
X173693756Y-48282170D01*
X173699877Y-48282835D01*
X173726127Y-48280538D01*
X173749877Y-48278461D01*
X173754703Y-48278132D01*
X173757175Y-48278011D01*
X173760258Y-48278011D01*
X173772227Y-48276837D01*
X173802995Y-48273821D01*
X173804308Y-48273699D01*
X173848573Y-48269826D01*
X173896902Y-48265598D01*
X173902021Y-48264111D01*
X173907322Y-48263591D01*
X173996323Y-48236720D01*
X173997456Y-48236385D01*
X174080903Y-48212141D01*
X174080907Y-48212139D01*
X174086825Y-48210420D01*
X174091557Y-48207967D01*
X174096658Y-48206427D01*
X174102101Y-48203533D01*
X174178749Y-48162780D01*
X174179915Y-48162168D01*
X174256942Y-48122240D01*
X174262415Y-48119403D01*
X174266578Y-48116080D01*
X174271285Y-48113577D01*
X174343407Y-48054756D01*
X174344263Y-48054065D01*
X174383462Y-48022773D01*
X174385966Y-48020269D01*
X174386684Y-48019627D01*
X174391017Y-48015926D01*
X174424551Y-47988576D01*
X174453777Y-47953248D01*
X174461766Y-47944469D01*
X175294453Y-47111782D01*
X175356765Y-47077756D01*
X175367532Y-47075899D01*
X175463034Y-47063665D01*
X175538289Y-47054025D01*
X175538292Y-47054024D01*
X175543416Y-47053368D01*
X175548366Y-47051883D01*
X175752429Y-46990661D01*
X175752434Y-46990659D01*
X175757384Y-46989174D01*
X175957994Y-46890896D01*
X176139860Y-46761173D01*
X176298096Y-46603489D01*
X176307540Y-46590347D01*
X176428453Y-46422077D01*
X176429776Y-46423028D01*
X176476645Y-46379857D01*
X176546580Y-46367625D01*
X176612026Y-46395144D01*
X176639875Y-46426994D01*
X176699987Y-46525088D01*
X176846250Y-46693938D01*
X177018126Y-46836632D01*
X177211000Y-46949338D01*
X177419692Y-47029030D01*
X177424760Y-47030061D01*
X177424763Y-47030062D01*
X177532017Y-47051883D01*
X177638597Y-47073567D01*
X177643772Y-47073757D01*
X177643774Y-47073757D01*
X177856673Y-47081564D01*
X177856677Y-47081564D01*
X177861837Y-47081753D01*
X177866957Y-47081097D01*
X177866959Y-47081097D01*
X178078288Y-47054025D01*
X178078289Y-47054025D01*
X178083416Y-47053368D01*
X178088366Y-47051883D01*
X178292429Y-46990661D01*
X178292434Y-46990659D01*
X178297384Y-46989174D01*
X178497994Y-46890896D01*
X178679860Y-46761173D01*
X178838096Y-46603489D01*
X178847540Y-46590347D01*
X178968453Y-46422077D01*
X178969776Y-46423028D01*
X179016645Y-46379857D01*
X179086580Y-46367625D01*
X179152026Y-46395144D01*
X179179875Y-46426994D01*
X179239987Y-46525088D01*
X179386250Y-46693938D01*
X179558126Y-46836632D01*
X179751000Y-46949338D01*
X179959692Y-47029030D01*
X179964760Y-47030061D01*
X179964763Y-47030062D01*
X180072017Y-47051883D01*
X180178597Y-47073567D01*
X180183772Y-47073757D01*
X180183774Y-47073757D01*
X180396673Y-47081564D01*
X180396677Y-47081564D01*
X180401837Y-47081753D01*
X180406957Y-47081097D01*
X180406959Y-47081097D01*
X180618288Y-47054025D01*
X180618289Y-47054025D01*
X180623416Y-47053368D01*
X180628366Y-47051883D01*
X180832429Y-46990661D01*
X180832434Y-46990659D01*
X180837384Y-46989174D01*
X181037994Y-46890896D01*
X181219860Y-46761173D01*
X181287331Y-46693938D01*
X181328479Y-46652933D01*
X181390851Y-46619017D01*
X181461658Y-46624205D01*
X181518419Y-46666851D01*
X181535401Y-46697954D01*
X181576676Y-46808054D01*
X181585214Y-46823649D01*
X181661715Y-46925724D01*
X181674276Y-46938285D01*
X181776351Y-47014786D01*
X181791946Y-47023324D01*
X181912394Y-47068478D01*
X181927649Y-47072105D01*
X181978514Y-47077631D01*
X181985328Y-47078000D01*
X182607885Y-47078000D01*
X182623124Y-47073525D01*
X182624329Y-47072135D01*
X182626000Y-47064452D01*
X182626000Y-47059884D01*
X183134000Y-47059884D01*
X183138475Y-47075123D01*
X183139865Y-47076328D01*
X183147548Y-47077999D01*
X183774669Y-47077999D01*
X183781490Y-47077629D01*
X183832352Y-47072105D01*
X183847604Y-47068479D01*
X183968054Y-47023324D01*
X183983649Y-47014786D01*
X184085724Y-46938285D01*
X184098285Y-46925724D01*
X184174786Y-46823649D01*
X184183324Y-46808054D01*
X184228478Y-46687606D01*
X184232105Y-46672351D01*
X184237631Y-46621486D01*
X184238000Y-46614672D01*
X184238000Y-45992115D01*
X184233525Y-45976876D01*
X184232135Y-45975671D01*
X184224452Y-45974000D01*
X183152115Y-45974000D01*
X183136876Y-45978475D01*
X183135671Y-45979865D01*
X183134000Y-45987548D01*
X183134000Y-47059884D01*
X182626000Y-47059884D01*
X182626000Y-45447885D01*
X183134000Y-45447885D01*
X183138475Y-45463124D01*
X183139865Y-45464329D01*
X183147548Y-45466000D01*
X184219884Y-45466000D01*
X184235123Y-45461525D01*
X184236328Y-45460135D01*
X184237999Y-45452452D01*
X184237999Y-44825331D01*
X184237629Y-44818510D01*
X184232105Y-44767648D01*
X184228479Y-44752396D01*
X184183324Y-44631946D01*
X184174786Y-44616351D01*
X184098285Y-44514276D01*
X184085724Y-44501715D01*
X183983649Y-44425214D01*
X183968054Y-44416676D01*
X183847606Y-44371522D01*
X183832351Y-44367895D01*
X183781486Y-44362369D01*
X183774672Y-44362000D01*
X183152115Y-44362000D01*
X183136876Y-44366475D01*
X183135671Y-44367865D01*
X183134000Y-44375548D01*
X183134000Y-45447885D01*
X182626000Y-45447885D01*
X182626000Y-44380116D01*
X182621525Y-44364877D01*
X182620135Y-44363672D01*
X182612452Y-44362001D01*
X181985331Y-44362001D01*
X181978510Y-44362371D01*
X181927648Y-44367895D01*
X181912396Y-44371521D01*
X181791946Y-44416676D01*
X181776351Y-44425214D01*
X181674276Y-44501715D01*
X181661715Y-44514276D01*
X181585214Y-44616351D01*
X181576676Y-44631946D01*
X181535297Y-44742322D01*
X181492655Y-44799087D01*
X181426093Y-44823786D01*
X181356744Y-44808578D01*
X181324121Y-44782891D01*
X181273151Y-44726876D01*
X181273145Y-44726870D01*
X181269670Y-44723051D01*
X181265619Y-44719852D01*
X181265615Y-44719848D01*
X181098414Y-44587800D01*
X181098410Y-44587798D01*
X181094359Y-44584598D01*
X180898789Y-44476638D01*
X180893920Y-44474914D01*
X180893916Y-44474912D01*
X180693087Y-44403795D01*
X180693083Y-44403794D01*
X180688212Y-44402069D01*
X180683119Y-44401162D01*
X180683116Y-44401161D01*
X180473373Y-44363800D01*
X180473367Y-44363799D01*
X180468284Y-44362894D01*
X180394452Y-44361992D01*
X180250081Y-44360228D01*
X180250079Y-44360228D01*
X180244911Y-44360165D01*
X180024091Y-44393955D01*
X179811756Y-44463357D01*
X179613607Y-44566507D01*
X179609474Y-44569610D01*
X179609471Y-44569612D01*
X179526450Y-44631946D01*
X179434965Y-44700635D01*
X179280629Y-44862138D01*
X179173201Y-45019621D01*
X179118293Y-45064621D01*
X179047768Y-45072792D01*
X178984021Y-45041538D01*
X178963324Y-45017054D01*
X178882822Y-44892617D01*
X178882820Y-44892614D01*
X178880014Y-44888277D01*
X178729670Y-44723051D01*
X178725619Y-44719852D01*
X178725615Y-44719848D01*
X178558414Y-44587800D01*
X178558410Y-44587798D01*
X178554359Y-44584598D01*
X178358789Y-44476638D01*
X178353920Y-44474914D01*
X178353916Y-44474912D01*
X178153087Y-44403795D01*
X178153083Y-44403794D01*
X178148212Y-44402069D01*
X178143119Y-44401162D01*
X178143116Y-44401161D01*
X177933373Y-44363800D01*
X177933367Y-44363799D01*
X177928284Y-44362894D01*
X177854452Y-44361992D01*
X177710081Y-44360228D01*
X177710079Y-44360228D01*
X177704911Y-44360165D01*
X177484091Y-44393955D01*
X177271756Y-44463357D01*
X177073607Y-44566507D01*
X177069474Y-44569610D01*
X177069471Y-44569612D01*
X176986450Y-44631946D01*
X176894965Y-44700635D01*
X176740629Y-44862138D01*
X176633201Y-45019621D01*
X176578293Y-45064621D01*
X176507768Y-45072792D01*
X176444021Y-45041538D01*
X176423324Y-45017054D01*
X176342822Y-44892617D01*
X176342820Y-44892614D01*
X176340014Y-44888277D01*
X176189670Y-44723051D01*
X176185619Y-44719852D01*
X176185615Y-44719848D01*
X176018414Y-44587800D01*
X176018410Y-44587798D01*
X176014359Y-44584598D01*
X175818789Y-44476638D01*
X175813920Y-44474914D01*
X175813916Y-44474912D01*
X175613087Y-44403795D01*
X175613083Y-44403794D01*
X175608212Y-44402069D01*
X175603119Y-44401162D01*
X175603116Y-44401161D01*
X175393373Y-44363800D01*
X175393367Y-44363799D01*
X175388284Y-44362894D01*
X175314452Y-44361992D01*
X175170081Y-44360228D01*
X175170079Y-44360228D01*
X175164911Y-44360165D01*
X174944091Y-44393955D01*
X174731756Y-44463357D01*
X174533607Y-44566507D01*
X174529474Y-44569610D01*
X174529471Y-44569612D01*
X174446450Y-44631946D01*
X174354965Y-44700635D01*
X174200629Y-44862138D01*
X174093201Y-45019621D01*
X174038293Y-45064621D01*
X173967768Y-45072792D01*
X173904021Y-45041538D01*
X173883324Y-45017054D01*
X173802822Y-44892617D01*
X173802820Y-44892614D01*
X173800014Y-44888277D01*
X173649670Y-44723051D01*
X173645619Y-44719852D01*
X173645615Y-44719848D01*
X173478414Y-44587800D01*
X173478410Y-44587798D01*
X173474359Y-44584598D01*
X173278789Y-44476638D01*
X173273920Y-44474914D01*
X173273916Y-44474912D01*
X173073087Y-44403795D01*
X173073083Y-44403794D01*
X173068212Y-44402069D01*
X173063119Y-44401162D01*
X173063116Y-44401161D01*
X172853373Y-44363800D01*
X172853367Y-44363799D01*
X172848284Y-44362894D01*
X172774452Y-44361992D01*
X172630081Y-44360228D01*
X172630079Y-44360228D01*
X172624911Y-44360165D01*
X172404091Y-44393955D01*
X172191756Y-44463357D01*
X171993607Y-44566507D01*
X171989474Y-44569610D01*
X171989471Y-44569612D01*
X171906450Y-44631946D01*
X171814965Y-44700635D01*
X171660629Y-44862138D01*
X171534743Y-45046680D01*
X171440688Y-45249305D01*
X171380989Y-45464570D01*
X171357251Y-45686695D01*
X171370110Y-45909715D01*
X171371247Y-45914762D01*
X171371248Y-45914766D01*
X171414641Y-46107310D01*
X171410105Y-46178161D01*
X171367984Y-46235313D01*
X171301650Y-46260619D01*
X171291724Y-46261011D01*
X166152332Y-46261011D01*
X166138725Y-46260274D01*
X166107227Y-46256852D01*
X166107222Y-46256852D01*
X166101101Y-46256187D01*
X166074851Y-46258484D01*
X166051101Y-46260561D01*
X166046275Y-46260890D01*
X166043803Y-46261011D01*
X166040720Y-46261011D01*
X166028751Y-46262185D01*
X165997983Y-46265201D01*
X165996670Y-46265323D01*
X165952405Y-46269196D01*
X165904076Y-46273424D01*
X165898957Y-46274911D01*
X165893656Y-46275431D01*
X165804655Y-46302302D01*
X165803522Y-46302637D01*
X165720075Y-46326881D01*
X165720071Y-46326883D01*
X165714153Y-46328602D01*
X165709421Y-46331055D01*
X165704320Y-46332595D01*
X165698877Y-46335489D01*
X165622229Y-46376242D01*
X165621063Y-46376854D01*
X165585779Y-46395144D01*
X165538563Y-46419619D01*
X165534400Y-46422942D01*
X165529693Y-46425445D01*
X165457571Y-46484266D01*
X165456715Y-46484957D01*
X165417516Y-46516249D01*
X165415012Y-46518753D01*
X165414294Y-46519395D01*
X165409961Y-46523096D01*
X165376427Y-46550446D01*
X165372500Y-46555193D01*
X165372498Y-46555195D01*
X165347202Y-46585773D01*
X165339212Y-46594553D01*
X159350621Y-52583145D01*
X159340478Y-52592247D01*
X159310975Y-52615968D01*
X159307008Y-52620696D01*
X159278709Y-52654421D01*
X159275528Y-52658069D01*
X159273885Y-52659881D01*
X159271691Y-52662075D01*
X159244358Y-52695349D01*
X159243696Y-52696147D01*
X159183846Y-52767474D01*
X159181278Y-52772144D01*
X159177897Y-52776261D01*
X159146860Y-52834145D01*
X159134023Y-52858086D01*
X159133394Y-52859245D01*
X159091538Y-52935381D01*
X159091535Y-52935389D01*
X159088567Y-52940787D01*
X159086955Y-52945869D01*
X159084438Y-52950563D01*
X159057238Y-53039531D01*
X159056918Y-53040559D01*
X159028765Y-53129306D01*
X159028171Y-53134602D01*
X159026613Y-53139698D01*
X159025990Y-53145834D01*
X159017218Y-53232187D01*
X159017089Y-53233393D01*
X159011500Y-53283227D01*
X159011500Y-53286754D01*
X159011445Y-53287739D01*
X159010998Y-53293419D01*
X159006626Y-53336462D01*
X159007206Y-53342593D01*
X159010941Y-53382109D01*
X159011500Y-53393967D01*
X159011500Y-61349260D01*
X158988713Y-61421531D01*
X158882477Y-61573251D01*
X158880154Y-61578233D01*
X158880151Y-61578238D01*
X158788039Y-61775775D01*
X158785716Y-61780757D01*
X158726457Y-62001913D01*
X158706502Y-62230000D01*
X140208500Y-62230000D01*
X140208500Y-58236062D01*
X151678493Y-58236062D01*
X151687789Y-58248077D01*
X151738994Y-58283931D01*
X151748489Y-58289414D01*
X151945947Y-58381490D01*
X151956239Y-58385236D01*
X152166688Y-58441625D01*
X152177481Y-58443528D01*
X152394525Y-58462517D01*
X152405475Y-58462517D01*
X152622519Y-58443528D01*
X152633312Y-58441625D01*
X152843761Y-58385236D01*
X152854053Y-58381490D01*
X153051511Y-58289414D01*
X153061006Y-58283931D01*
X153113048Y-58247491D01*
X153121424Y-58237012D01*
X153114356Y-58223566D01*
X152412812Y-57522022D01*
X152398868Y-57514408D01*
X152397035Y-57514539D01*
X152390420Y-57518790D01*
X151684923Y-58224287D01*
X151678493Y-58236062D01*
X140208500Y-58236062D01*
X140208500Y-57155475D01*
X151087483Y-57155475D01*
X151106472Y-57372519D01*
X151108375Y-57383312D01*
X151164764Y-57593761D01*
X151168510Y-57604053D01*
X151260586Y-57801511D01*
X151266069Y-57811006D01*
X151302509Y-57863048D01*
X151312988Y-57871424D01*
X151326434Y-57864356D01*
X152027978Y-57162812D01*
X152034356Y-57151132D01*
X152764408Y-57151132D01*
X152764539Y-57152965D01*
X152768790Y-57159580D01*
X153474287Y-57865077D01*
X153486062Y-57871507D01*
X153498077Y-57862211D01*
X153533931Y-57811006D01*
X153539414Y-57801511D01*
X153631490Y-57604053D01*
X153635236Y-57593761D01*
X153691625Y-57383312D01*
X153693528Y-57372519D01*
X153712517Y-57155475D01*
X153712517Y-57144525D01*
X153693528Y-56927481D01*
X153691625Y-56916688D01*
X153635236Y-56706239D01*
X153631490Y-56695947D01*
X153539414Y-56498489D01*
X153533931Y-56488994D01*
X153497491Y-56436952D01*
X153487012Y-56428576D01*
X153473566Y-56435644D01*
X152772022Y-57137188D01*
X152764408Y-57151132D01*
X152034356Y-57151132D01*
X152035592Y-57148868D01*
X152035461Y-57147035D01*
X152031210Y-57140420D01*
X151325713Y-56434923D01*
X151313938Y-56428493D01*
X151301923Y-56437789D01*
X151266069Y-56488994D01*
X151260586Y-56498489D01*
X151168510Y-56695947D01*
X151164764Y-56706239D01*
X151108375Y-56916688D01*
X151106472Y-56927481D01*
X151087483Y-57144525D01*
X151087483Y-57155475D01*
X140208500Y-57155475D01*
X140208500Y-56062988D01*
X151678576Y-56062988D01*
X151685644Y-56076434D01*
X152387188Y-56777978D01*
X152401132Y-56785592D01*
X152402965Y-56785461D01*
X152409580Y-56781210D01*
X153115077Y-56075713D01*
X153121507Y-56063938D01*
X153112211Y-56051923D01*
X153061006Y-56016069D01*
X153051511Y-56010586D01*
X152854053Y-55918510D01*
X152843761Y-55914764D01*
X152633312Y-55858375D01*
X152622519Y-55856472D01*
X152405475Y-55837483D01*
X152394525Y-55837483D01*
X152177481Y-55856472D01*
X152166688Y-55858375D01*
X151956239Y-55914764D01*
X151945947Y-55918510D01*
X151748489Y-56010586D01*
X151738994Y-56016069D01*
X151686952Y-56052509D01*
X151678576Y-56062988D01*
X140208500Y-56062988D01*
X140208500Y-43814500D01*
X140228502Y-43746379D01*
X140282158Y-43699886D01*
X140334500Y-43688500D01*
X210185500Y-43688500D01*
X210253621Y-43708502D01*
G37*
%TD.AperFunction*%
%TD*%
M02*
