%TF.GenerationSoftware,KiCad,Pcbnew,(6.0.5)*%
%TF.CreationDate,2022-08-03T18:31:21+02:00*%
%TF.ProjectId,Minimist1,4d696e69-6d69-4737-9431-2e6b69636164,rev?*%
%TF.SameCoordinates,Original*%
%TF.FileFunction,Legend,Bot*%
%TF.FilePolarity,Positive*%
%FSLAX46Y46*%
G04 Gerber Fmt 4.6, Leading zero omitted, Abs format (unit mm)*
G04 Created by KiCad (PCBNEW (6.0.5)) date 2022-08-03 18:31:21*
%MOMM*%
%LPD*%
G01*
G04 APERTURE LIST*
%ADD10C,0.150000*%
%ADD11C,0.120000*%
G04 APERTURE END LIST*
D10*
%TO.C,R4*%
X180506666Y-53962380D02*
X180840000Y-53486190D01*
X181078095Y-53962380D02*
X181078095Y-52962380D01*
X180697142Y-52962380D01*
X180601904Y-53010000D01*
X180554285Y-53057619D01*
X180506666Y-53152857D01*
X180506666Y-53295714D01*
X180554285Y-53390952D01*
X180601904Y-53438571D01*
X180697142Y-53486190D01*
X181078095Y-53486190D01*
X179649523Y-53295714D02*
X179649523Y-53962380D01*
X179887619Y-52914761D02*
X180125714Y-53629047D01*
X179506666Y-53629047D01*
%TO.C,VoltRegIn1*%
X194380952Y-52562380D02*
X194047619Y-53562380D01*
X193714285Y-52562380D01*
X193238095Y-53562380D02*
X193333333Y-53514761D01*
X193380952Y-53467142D01*
X193428571Y-53371904D01*
X193428571Y-53086190D01*
X193380952Y-52990952D01*
X193333333Y-52943333D01*
X193238095Y-52895714D01*
X193095238Y-52895714D01*
X193000000Y-52943333D01*
X192952380Y-52990952D01*
X192904761Y-53086190D01*
X192904761Y-53371904D01*
X192952380Y-53467142D01*
X193000000Y-53514761D01*
X193095238Y-53562380D01*
X193238095Y-53562380D01*
X192333333Y-53562380D02*
X192428571Y-53514761D01*
X192476190Y-53419523D01*
X192476190Y-52562380D01*
X192095238Y-52895714D02*
X191714285Y-52895714D01*
X191952380Y-52562380D02*
X191952380Y-53419523D01*
X191904761Y-53514761D01*
X191809523Y-53562380D01*
X191714285Y-53562380D01*
X190809523Y-53562380D02*
X191142857Y-53086190D01*
X191380952Y-53562380D02*
X191380952Y-52562380D01*
X191000000Y-52562380D01*
X190904761Y-52610000D01*
X190857142Y-52657619D01*
X190809523Y-52752857D01*
X190809523Y-52895714D01*
X190857142Y-52990952D01*
X190904761Y-53038571D01*
X191000000Y-53086190D01*
X191380952Y-53086190D01*
X190000000Y-53514761D02*
X190095238Y-53562380D01*
X190285714Y-53562380D01*
X190380952Y-53514761D01*
X190428571Y-53419523D01*
X190428571Y-53038571D01*
X190380952Y-52943333D01*
X190285714Y-52895714D01*
X190095238Y-52895714D01*
X190000000Y-52943333D01*
X189952380Y-53038571D01*
X189952380Y-53133809D01*
X190428571Y-53229047D01*
X189095238Y-52895714D02*
X189095238Y-53705238D01*
X189142857Y-53800476D01*
X189190476Y-53848095D01*
X189285714Y-53895714D01*
X189428571Y-53895714D01*
X189523809Y-53848095D01*
X189095238Y-53514761D02*
X189190476Y-53562380D01*
X189380952Y-53562380D01*
X189476190Y-53514761D01*
X189523809Y-53467142D01*
X189571428Y-53371904D01*
X189571428Y-53086190D01*
X189523809Y-52990952D01*
X189476190Y-52943333D01*
X189380952Y-52895714D01*
X189190476Y-52895714D01*
X189095238Y-52943333D01*
X188619047Y-53562380D02*
X188619047Y-52562380D01*
X188142857Y-52895714D02*
X188142857Y-53562380D01*
X188142857Y-52990952D02*
X188095238Y-52943333D01*
X188000000Y-52895714D01*
X187857142Y-52895714D01*
X187761904Y-52943333D01*
X187714285Y-53038571D01*
X187714285Y-53562380D01*
X186714285Y-53562380D02*
X187285714Y-53562380D01*
X187000000Y-53562380D02*
X187000000Y-52562380D01*
X187095238Y-52705238D01*
X187190476Y-52800476D01*
X187285714Y-52848095D01*
%TO.C,BatteryIn1*%
X201358095Y-53478571D02*
X201215238Y-53526190D01*
X201167619Y-53573809D01*
X201120000Y-53669047D01*
X201120000Y-53811904D01*
X201167619Y-53907142D01*
X201215238Y-53954761D01*
X201310476Y-54002380D01*
X201691428Y-54002380D01*
X201691428Y-53002380D01*
X201358095Y-53002380D01*
X201262857Y-53050000D01*
X201215238Y-53097619D01*
X201167619Y-53192857D01*
X201167619Y-53288095D01*
X201215238Y-53383333D01*
X201262857Y-53430952D01*
X201358095Y-53478571D01*
X201691428Y-53478571D01*
X200262857Y-54002380D02*
X200262857Y-53478571D01*
X200310476Y-53383333D01*
X200405714Y-53335714D01*
X200596190Y-53335714D01*
X200691428Y-53383333D01*
X200262857Y-53954761D02*
X200358095Y-54002380D01*
X200596190Y-54002380D01*
X200691428Y-53954761D01*
X200739047Y-53859523D01*
X200739047Y-53764285D01*
X200691428Y-53669047D01*
X200596190Y-53621428D01*
X200358095Y-53621428D01*
X200262857Y-53573809D01*
X199929523Y-53335714D02*
X199548571Y-53335714D01*
X199786666Y-53002380D02*
X199786666Y-53859523D01*
X199739047Y-53954761D01*
X199643809Y-54002380D01*
X199548571Y-54002380D01*
X199358095Y-53335714D02*
X198977142Y-53335714D01*
X199215238Y-53002380D02*
X199215238Y-53859523D01*
X199167619Y-53954761D01*
X199072380Y-54002380D01*
X198977142Y-54002380D01*
X198262857Y-53954761D02*
X198358095Y-54002380D01*
X198548571Y-54002380D01*
X198643809Y-53954761D01*
X198691428Y-53859523D01*
X198691428Y-53478571D01*
X198643809Y-53383333D01*
X198548571Y-53335714D01*
X198358095Y-53335714D01*
X198262857Y-53383333D01*
X198215238Y-53478571D01*
X198215238Y-53573809D01*
X198691428Y-53669047D01*
X197786666Y-54002380D02*
X197786666Y-53335714D01*
X197786666Y-53526190D02*
X197739047Y-53430952D01*
X197691428Y-53383333D01*
X197596190Y-53335714D01*
X197500952Y-53335714D01*
X197262857Y-53335714D02*
X197024761Y-54002380D01*
X196786666Y-53335714D02*
X197024761Y-54002380D01*
X197120000Y-54240476D01*
X197167619Y-54288095D01*
X197262857Y-54335714D01*
X196405714Y-54002380D02*
X196405714Y-53002380D01*
X195929523Y-53335714D02*
X195929523Y-54002380D01*
X195929523Y-53430952D02*
X195881904Y-53383333D01*
X195786666Y-53335714D01*
X195643809Y-53335714D01*
X195548571Y-53383333D01*
X195500952Y-53478571D01*
X195500952Y-54002380D01*
X194500952Y-54002380D02*
X195072380Y-54002380D01*
X194786666Y-54002380D02*
X194786666Y-53002380D01*
X194881904Y-53145238D01*
X194977142Y-53240476D01*
X195072380Y-53288095D01*
%TO.C,switch2*%
X175339047Y-48434761D02*
X175243809Y-48482380D01*
X175053333Y-48482380D01*
X174958095Y-48434761D01*
X174910476Y-48339523D01*
X174910476Y-48291904D01*
X174958095Y-48196666D01*
X175053333Y-48149047D01*
X175196190Y-48149047D01*
X175291428Y-48101428D01*
X175339047Y-48006190D01*
X175339047Y-47958571D01*
X175291428Y-47863333D01*
X175196190Y-47815714D01*
X175053333Y-47815714D01*
X174958095Y-47863333D01*
X174577142Y-47815714D02*
X174386666Y-48482380D01*
X174196190Y-48006190D01*
X174005714Y-48482380D01*
X173815238Y-47815714D01*
X173434285Y-48482380D02*
X173434285Y-47815714D01*
X173434285Y-47482380D02*
X173481904Y-47530000D01*
X173434285Y-47577619D01*
X173386666Y-47530000D01*
X173434285Y-47482380D01*
X173434285Y-47577619D01*
X173100952Y-47815714D02*
X172720000Y-47815714D01*
X172958095Y-47482380D02*
X172958095Y-48339523D01*
X172910476Y-48434761D01*
X172815238Y-48482380D01*
X172720000Y-48482380D01*
X171958095Y-48434761D02*
X172053333Y-48482380D01*
X172243809Y-48482380D01*
X172339047Y-48434761D01*
X172386666Y-48387142D01*
X172434285Y-48291904D01*
X172434285Y-48006190D01*
X172386666Y-47910952D01*
X172339047Y-47863333D01*
X172243809Y-47815714D01*
X172053333Y-47815714D01*
X171958095Y-47863333D01*
X171529523Y-48482380D02*
X171529523Y-47482380D01*
X171100952Y-48482380D02*
X171100952Y-47958571D01*
X171148571Y-47863333D01*
X171243809Y-47815714D01*
X171386666Y-47815714D01*
X171481904Y-47863333D01*
X171529523Y-47910952D01*
X170672380Y-47577619D02*
X170624761Y-47530000D01*
X170529523Y-47482380D01*
X170291428Y-47482380D01*
X170196190Y-47530000D01*
X170148571Y-47577619D01*
X170100952Y-47672857D01*
X170100952Y-47768095D01*
X170148571Y-47910952D01*
X170720000Y-48482380D01*
X170100952Y-48482380D01*
%TO.C,R5*%
X180506666Y-66322380D02*
X180840000Y-65846190D01*
X181078095Y-66322380D02*
X181078095Y-65322380D01*
X180697142Y-65322380D01*
X180601904Y-65370000D01*
X180554285Y-65417619D01*
X180506666Y-65512857D01*
X180506666Y-65655714D01*
X180554285Y-65750952D01*
X180601904Y-65798571D01*
X180697142Y-65846190D01*
X181078095Y-65846190D01*
X179601904Y-65322380D02*
X180078095Y-65322380D01*
X180125714Y-65798571D01*
X180078095Y-65750952D01*
X179982857Y-65703333D01*
X179744761Y-65703333D01*
X179649523Y-65750952D01*
X179601904Y-65798571D01*
X179554285Y-65893809D01*
X179554285Y-66131904D01*
X179601904Y-66227142D01*
X179649523Y-66274761D01*
X179744761Y-66322380D01*
X179982857Y-66322380D01*
X180078095Y-66274761D01*
X180125714Y-66227142D01*
%TO.C,switch1*%
X182959047Y-48434761D02*
X182863809Y-48482380D01*
X182673333Y-48482380D01*
X182578095Y-48434761D01*
X182530476Y-48339523D01*
X182530476Y-48291904D01*
X182578095Y-48196666D01*
X182673333Y-48149047D01*
X182816190Y-48149047D01*
X182911428Y-48101428D01*
X182959047Y-48006190D01*
X182959047Y-47958571D01*
X182911428Y-47863333D01*
X182816190Y-47815714D01*
X182673333Y-47815714D01*
X182578095Y-47863333D01*
X182197142Y-47815714D02*
X182006666Y-48482380D01*
X181816190Y-48006190D01*
X181625714Y-48482380D01*
X181435238Y-47815714D01*
X181054285Y-48482380D02*
X181054285Y-47815714D01*
X181054285Y-47482380D02*
X181101904Y-47530000D01*
X181054285Y-47577619D01*
X181006666Y-47530000D01*
X181054285Y-47482380D01*
X181054285Y-47577619D01*
X180720952Y-47815714D02*
X180340000Y-47815714D01*
X180578095Y-47482380D02*
X180578095Y-48339523D01*
X180530476Y-48434761D01*
X180435238Y-48482380D01*
X180340000Y-48482380D01*
X179578095Y-48434761D02*
X179673333Y-48482380D01*
X179863809Y-48482380D01*
X179959047Y-48434761D01*
X180006666Y-48387142D01*
X180054285Y-48291904D01*
X180054285Y-48006190D01*
X180006666Y-47910952D01*
X179959047Y-47863333D01*
X179863809Y-47815714D01*
X179673333Y-47815714D01*
X179578095Y-47863333D01*
X179149523Y-48482380D02*
X179149523Y-47482380D01*
X178720952Y-48482380D02*
X178720952Y-47958571D01*
X178768571Y-47863333D01*
X178863809Y-47815714D01*
X179006666Y-47815714D01*
X179101904Y-47863333D01*
X179149523Y-47910952D01*
X177720952Y-48482380D02*
X178292380Y-48482380D01*
X178006666Y-48482380D02*
X178006666Y-47482380D01*
X178101904Y-47625238D01*
X178197142Y-47720476D01*
X178292380Y-47768095D01*
%TO.C,VoltRegOut1*%
X174632380Y-60642380D02*
X174299047Y-61642380D01*
X173965714Y-60642380D01*
X173489523Y-61642380D02*
X173584761Y-61594761D01*
X173632380Y-61547142D01*
X173680000Y-61451904D01*
X173680000Y-61166190D01*
X173632380Y-61070952D01*
X173584761Y-61023333D01*
X173489523Y-60975714D01*
X173346666Y-60975714D01*
X173251428Y-61023333D01*
X173203809Y-61070952D01*
X173156190Y-61166190D01*
X173156190Y-61451904D01*
X173203809Y-61547142D01*
X173251428Y-61594761D01*
X173346666Y-61642380D01*
X173489523Y-61642380D01*
X172584761Y-61642380D02*
X172680000Y-61594761D01*
X172727619Y-61499523D01*
X172727619Y-60642380D01*
X172346666Y-60975714D02*
X171965714Y-60975714D01*
X172203809Y-60642380D02*
X172203809Y-61499523D01*
X172156190Y-61594761D01*
X172060952Y-61642380D01*
X171965714Y-61642380D01*
X171060952Y-61642380D02*
X171394285Y-61166190D01*
X171632380Y-61642380D02*
X171632380Y-60642380D01*
X171251428Y-60642380D01*
X171156190Y-60690000D01*
X171108571Y-60737619D01*
X171060952Y-60832857D01*
X171060952Y-60975714D01*
X171108571Y-61070952D01*
X171156190Y-61118571D01*
X171251428Y-61166190D01*
X171632380Y-61166190D01*
X170251428Y-61594761D02*
X170346666Y-61642380D01*
X170537142Y-61642380D01*
X170632380Y-61594761D01*
X170680000Y-61499523D01*
X170680000Y-61118571D01*
X170632380Y-61023333D01*
X170537142Y-60975714D01*
X170346666Y-60975714D01*
X170251428Y-61023333D01*
X170203809Y-61118571D01*
X170203809Y-61213809D01*
X170680000Y-61309047D01*
X169346666Y-60975714D02*
X169346666Y-61785238D01*
X169394285Y-61880476D01*
X169441904Y-61928095D01*
X169537142Y-61975714D01*
X169680000Y-61975714D01*
X169775238Y-61928095D01*
X169346666Y-61594761D02*
X169441904Y-61642380D01*
X169632380Y-61642380D01*
X169727619Y-61594761D01*
X169775238Y-61547142D01*
X169822857Y-61451904D01*
X169822857Y-61166190D01*
X169775238Y-61070952D01*
X169727619Y-61023333D01*
X169632380Y-60975714D01*
X169441904Y-60975714D01*
X169346666Y-61023333D01*
X168680000Y-60642380D02*
X168489523Y-60642380D01*
X168394285Y-60690000D01*
X168299047Y-60785238D01*
X168251428Y-60975714D01*
X168251428Y-61309047D01*
X168299047Y-61499523D01*
X168394285Y-61594761D01*
X168489523Y-61642380D01*
X168680000Y-61642380D01*
X168775238Y-61594761D01*
X168870476Y-61499523D01*
X168918095Y-61309047D01*
X168918095Y-60975714D01*
X168870476Y-60785238D01*
X168775238Y-60690000D01*
X168680000Y-60642380D01*
X167394285Y-60975714D02*
X167394285Y-61642380D01*
X167822857Y-60975714D02*
X167822857Y-61499523D01*
X167775238Y-61594761D01*
X167680000Y-61642380D01*
X167537142Y-61642380D01*
X167441904Y-61594761D01*
X167394285Y-61547142D01*
X167060952Y-60975714D02*
X166680000Y-60975714D01*
X166918095Y-60642380D02*
X166918095Y-61499523D01*
X166870476Y-61594761D01*
X166775238Y-61642380D01*
X166680000Y-61642380D01*
X165822857Y-61642380D02*
X166394285Y-61642380D01*
X166108571Y-61642380D02*
X166108571Y-60642380D01*
X166203809Y-60785238D01*
X166299047Y-60880476D01*
X166394285Y-60928095D01*
D11*
%TO.C,R4*%
X183610000Y-57250000D02*
X177070000Y-57250000D01*
X177070000Y-57250000D02*
X177070000Y-56920000D01*
X183610000Y-54510000D02*
X177070000Y-54510000D01*
X183610000Y-56920000D02*
X183610000Y-57250000D01*
X177070000Y-54510000D02*
X177070000Y-54840000D01*
X183610000Y-54840000D02*
X183610000Y-54510000D01*
%TO.C,VoltRegIn1*%
X190500000Y-54550000D02*
X189170000Y-54550000D01*
X189170000Y-54550000D02*
X189170000Y-55880000D01*
X189170000Y-57150000D02*
X189170000Y-59750000D01*
X191830000Y-57150000D02*
X189170000Y-57150000D01*
X191830000Y-57150000D02*
X191830000Y-59750000D01*
X191830000Y-59750000D02*
X189170000Y-59750000D01*
%TO.C,BatteryIn1*%
X199450000Y-55880000D02*
X199450000Y-54550000D01*
X199450000Y-57150000D02*
X199450000Y-59750000D01*
X199450000Y-54550000D02*
X198120000Y-54550000D01*
X196790000Y-57150000D02*
X196790000Y-59750000D01*
X199450000Y-57150000D02*
X196790000Y-57150000D01*
X199450000Y-59750000D02*
X196790000Y-59750000D01*
%TO.C,switch2*%
X174050000Y-52010000D02*
X174050000Y-52130000D01*
X171390000Y-52010000D02*
X171390000Y-52130000D01*
X171390000Y-49470000D02*
X171390000Y-50800000D01*
X174050000Y-52130000D02*
X171390000Y-52130000D01*
X172720000Y-49470000D02*
X171390000Y-49470000D01*
%TO.C,R5*%
X177070000Y-62130000D02*
X183610000Y-62130000D01*
X177070000Y-64870000D02*
X183610000Y-64870000D01*
X177070000Y-62460000D02*
X177070000Y-62130000D01*
X183610000Y-64870000D02*
X183610000Y-64540000D01*
X183610000Y-62130000D02*
X183610000Y-62460000D01*
X177070000Y-64540000D02*
X177070000Y-64870000D01*
%TO.C,switch1*%
X181670000Y-52010000D02*
X181670000Y-52130000D01*
X180340000Y-49470000D02*
X179010000Y-49470000D01*
X181670000Y-52130000D02*
X179010000Y-52130000D01*
X179010000Y-52010000D02*
X179010000Y-52130000D01*
X179010000Y-49470000D02*
X179010000Y-50800000D01*
%TO.C,VoltRegOut1*%
X168850000Y-57150000D02*
X168850000Y-54550000D01*
X168850000Y-54550000D02*
X171510000Y-54550000D01*
X168850000Y-57150000D02*
X171510000Y-57150000D01*
X171510000Y-59750000D02*
X171510000Y-58420000D01*
X171510000Y-57150000D02*
X171510000Y-54550000D01*
X170180000Y-59750000D02*
X171510000Y-59750000D01*
%TD*%
M02*
