M48
; DRILL file {KiCad (6.0.5)} date Wed Aug  3 18:34:51 2022
; FORMAT={-:-/ absolute / inch / decimal}
; #@! TF.CreationDate,2022-08-03T18:34:51+02:00
; #@! TF.GenerationSoftware,Kicad,Pcbnew,(6.0.5)
; #@! TF.FileFunction,MixedPlating,1,2
FMAT,2
INCH
; #@! TA.AperFunction,Plated,PTH,ComponentDrill
T1C0.0315
; #@! TA.AperFunction,Plated,PTH,ComponentDrill
T2C0.0354
; #@! TA.AperFunction,Plated,PTH,ComponentDrill
T3C0.0394
%
G90
G05
T1
X5.8Y-4.15
X5.8Y-4.45
X6.0Y-2.25
X6.0Y-2.55
X6.0962Y-3.9462
X6.0962Y-4.0462
X6.0962Y-4.1462
X6.0962Y-4.2462
X6.3Y-2.45
X6.3Y-2.75
X6.95Y-2.2
X6.95Y-2.5
X7.25Y-2.2
X7.25Y-2.5
X7.75Y-2.5
X8.05Y-2.5
T2
X5.9Y-2.8
X6.0Y-2.8
X7.75Y-2.8
X7.85Y-2.8
T3
X5.9504Y-3.4
X6.2496Y-3.4
X6.5Y-2.6
X6.5Y-2.7
X6.5Y-2.8
X6.5Y-2.9
X6.5Y-3.0
X6.5Y-3.1
X6.5Y-3.2
X6.5Y-3.3
X6.5Y-3.4
X6.5Y-3.5
X6.5Y-3.6
X6.5Y-3.7
X6.5Y-3.8
X6.5Y-3.9
X6.5Y-4.0
X6.5Y-4.1
X6.5Y-4.2
X6.5Y-4.3
X6.5Y-4.4
X6.5Y-4.5
X6.7Y-2.2
X6.7Y-2.3
X6.8Y-1.8
X6.8Y-2.0
X6.9Y-1.8
X7.0Y-1.8
X7.1Y-1.8
X7.1Y-2.0
X7.2Y-1.8
X7.5Y-2.2
X7.5Y-2.3
X7.5Y-2.6
X7.5Y-2.7
X7.5Y-2.8
X7.5Y-2.9
X7.5Y-3.0
X7.5Y-3.1
X7.5Y-3.2
X7.5Y-3.3
X7.5Y-3.4
X7.5Y-3.5
X7.5Y-3.6
X7.5Y-3.7
X7.5Y-3.8
X7.5Y-3.9
X7.5Y-4.0
X7.5Y-4.1
X7.5Y-4.2
X7.5Y-4.3
X7.5Y-4.4
X7.5Y-4.5
X7.8Y-2.2
X7.8Y-2.3
T0
M30
