%TF.GenerationSoftware,KiCad,Pcbnew,(6.0.4)*%
%TF.CreationDate,2022-08-22T23:27:17+02:00*%
%TF.ProjectId,SolarCMZ,536f6c61-7243-44d5-9a2e-6b696361645f,rev?*%
%TF.SameCoordinates,Original*%
%TF.FileFunction,Legend,Top*%
%TF.FilePolarity,Positive*%
%FSLAX46Y46*%
G04 Gerber Fmt 4.6, Leading zero omitted, Abs format (unit mm)*
G04 Created by KiCad (PCBNEW (6.0.4)) date 2022-08-22 23:27:17*
%MOMM*%
%LPD*%
G01*
G04 APERTURE LIST*
%ADD10C,0.150000*%
%ADD11C,0.500000*%
%ADD12C,0.120000*%
G04 APERTURE END LIST*
D10*
X117205714Y-112507380D02*
X117205714Y-111507380D01*
X117777142Y-112507380D02*
X117348571Y-111935952D01*
X117777142Y-111507380D02*
X117205714Y-112078809D01*
X118062857Y-111507380D02*
X118634285Y-111507380D01*
X118348571Y-112507380D02*
X118348571Y-111507380D01*
X118967619Y-112507380D02*
X118967619Y-111507380D01*
X118967619Y-111983571D02*
X119539047Y-111983571D01*
X119539047Y-112507380D02*
X119539047Y-111507380D01*
X120777142Y-112507380D02*
X120777142Y-111507380D01*
X121110476Y-112221666D01*
X121443809Y-111507380D01*
X121443809Y-112507380D01*
X121920000Y-112507380D02*
X121920000Y-111840714D01*
X121920000Y-111507380D02*
X121872380Y-111555000D01*
X121920000Y-111602619D01*
X121967619Y-111555000D01*
X121920000Y-111507380D01*
X121920000Y-111602619D01*
X122396190Y-111840714D02*
X122396190Y-112507380D01*
X122396190Y-111935952D02*
X122443809Y-111888333D01*
X122539047Y-111840714D01*
X122681904Y-111840714D01*
X122777142Y-111888333D01*
X122824761Y-111983571D01*
X122824761Y-112507380D01*
X123300952Y-112507380D02*
X123300952Y-111840714D01*
X123300952Y-111507380D02*
X123253333Y-111555000D01*
X123300952Y-111602619D01*
X123348571Y-111555000D01*
X123300952Y-111507380D01*
X123300952Y-111602619D01*
X123777142Y-112507380D02*
X123777142Y-111507380D01*
X124110476Y-112221666D01*
X124443809Y-111507380D01*
X124443809Y-112507380D01*
X124920000Y-112507380D02*
X124920000Y-111507380D01*
X125348571Y-112459761D02*
X125491428Y-112507380D01*
X125729523Y-112507380D01*
X125824761Y-112459761D01*
X125872380Y-112412142D01*
X125920000Y-112316904D01*
X125920000Y-112221666D01*
X125872380Y-112126428D01*
X125824761Y-112078809D01*
X125729523Y-112031190D01*
X125539047Y-111983571D01*
X125443809Y-111935952D01*
X125396190Y-111888333D01*
X125348571Y-111793095D01*
X125348571Y-111697857D01*
X125396190Y-111602619D01*
X125443809Y-111555000D01*
X125539047Y-111507380D01*
X125777142Y-111507380D01*
X125920000Y-111555000D01*
X126205714Y-111507380D02*
X126777142Y-111507380D01*
X126491428Y-112507380D02*
X126491428Y-111507380D01*
X117729523Y-113117380D02*
X118062857Y-114117380D01*
X118396190Y-113117380D01*
X120015238Y-114117380D02*
X119443809Y-114117380D01*
X119729523Y-114117380D02*
X119729523Y-113117380D01*
X119634285Y-113260238D01*
X119539047Y-113355476D01*
X119443809Y-113403095D01*
X120443809Y-114022142D02*
X120491428Y-114069761D01*
X120443809Y-114117380D01*
X120396190Y-114069761D01*
X120443809Y-114022142D01*
X120443809Y-114117380D01*
X121110476Y-113117380D02*
X121205714Y-113117380D01*
X121300952Y-113165000D01*
X121348571Y-113212619D01*
X121396190Y-113307857D01*
X121443809Y-113498333D01*
X121443809Y-113736428D01*
X121396190Y-113926904D01*
X121348571Y-114022142D01*
X121300952Y-114069761D01*
X121205714Y-114117380D01*
X121110476Y-114117380D01*
X121015238Y-114069761D01*
X120967619Y-114022142D01*
X120920000Y-113926904D01*
X120872380Y-113736428D01*
X120872380Y-113498333D01*
X120920000Y-113307857D01*
X120967619Y-113212619D01*
X121015238Y-113165000D01*
X121110476Y-113117380D01*
X122586666Y-113212619D02*
X122634285Y-113165000D01*
X122729523Y-113117380D01*
X122967619Y-113117380D01*
X123062857Y-113165000D01*
X123110476Y-113212619D01*
X123158095Y-113307857D01*
X123158095Y-113403095D01*
X123110476Y-113545952D01*
X122539047Y-114117380D01*
X123158095Y-114117380D01*
X123777142Y-113117380D02*
X123872380Y-113117380D01*
X123967619Y-113165000D01*
X124015238Y-113212619D01*
X124062857Y-113307857D01*
X124110476Y-113498333D01*
X124110476Y-113736428D01*
X124062857Y-113926904D01*
X124015238Y-114022142D01*
X123967619Y-114069761D01*
X123872380Y-114117380D01*
X123777142Y-114117380D01*
X123681904Y-114069761D01*
X123634285Y-114022142D01*
X123586666Y-113926904D01*
X123539047Y-113736428D01*
X123539047Y-113498333D01*
X123586666Y-113307857D01*
X123634285Y-113212619D01*
X123681904Y-113165000D01*
X123777142Y-113117380D01*
X124491428Y-113212619D02*
X124539047Y-113165000D01*
X124634285Y-113117380D01*
X124872380Y-113117380D01*
X124967619Y-113165000D01*
X125015238Y-113212619D01*
X125062857Y-113307857D01*
X125062857Y-113403095D01*
X125015238Y-113545952D01*
X124443809Y-114117380D01*
X125062857Y-114117380D01*
X125443809Y-113212619D02*
X125491428Y-113165000D01*
X125586666Y-113117380D01*
X125824761Y-113117380D01*
X125920000Y-113165000D01*
X125967619Y-113212619D01*
X126015238Y-113307857D01*
X126015238Y-113403095D01*
X125967619Y-113545952D01*
X125396190Y-114117380D01*
X126015238Y-114117380D01*
X119324761Y-115632142D02*
X119277142Y-115679761D01*
X119134285Y-115727380D01*
X119039047Y-115727380D01*
X118896190Y-115679761D01*
X118800952Y-115584523D01*
X118753333Y-115489285D01*
X118705714Y-115298809D01*
X118705714Y-115155952D01*
X118753333Y-114965476D01*
X118800952Y-114870238D01*
X118896190Y-114775000D01*
X119039047Y-114727380D01*
X119134285Y-114727380D01*
X119277142Y-114775000D01*
X119324761Y-114822619D01*
X119753333Y-115727380D02*
X119753333Y-114727380D01*
X120086666Y-115441666D01*
X120420000Y-114727380D01*
X120420000Y-115727380D01*
X120800952Y-114727380D02*
X121467619Y-114727380D01*
X120800952Y-115727380D01*
X121467619Y-115727380D01*
X122610476Y-115727380D02*
X122610476Y-114727380D01*
X123181904Y-115727380D02*
X122753333Y-115155952D01*
X123181904Y-114727380D02*
X122610476Y-115298809D01*
X123562857Y-115679761D02*
X123705714Y-115727380D01*
X123943809Y-115727380D01*
X124039047Y-115679761D01*
X124086666Y-115632142D01*
X124134285Y-115536904D01*
X124134285Y-115441666D01*
X124086666Y-115346428D01*
X124039047Y-115298809D01*
X123943809Y-115251190D01*
X123753333Y-115203571D01*
X123658095Y-115155952D01*
X123610476Y-115108333D01*
X123562857Y-115013095D01*
X123562857Y-114917857D01*
X123610476Y-114822619D01*
X123658095Y-114775000D01*
X123753333Y-114727380D01*
X123991428Y-114727380D01*
X124134285Y-114775000D01*
X124896190Y-115203571D02*
X125039047Y-115251190D01*
X125086666Y-115298809D01*
X125134285Y-115394047D01*
X125134285Y-115536904D01*
X125086666Y-115632142D01*
X125039047Y-115679761D01*
X124943809Y-115727380D01*
X124562857Y-115727380D01*
X124562857Y-114727380D01*
X124896190Y-114727380D01*
X124991428Y-114775000D01*
X125039047Y-114822619D01*
X125086666Y-114917857D01*
X125086666Y-115013095D01*
X125039047Y-115108333D01*
X124991428Y-115155952D01*
X124896190Y-115203571D01*
X124562857Y-115203571D01*
D11*
X169672142Y-105624285D02*
X171957857Y-105624285D01*
X106807142Y-110069285D02*
X109092857Y-110069285D01*
X195072142Y-109434285D02*
X197357857Y-109434285D01*
X196215000Y-110577142D02*
X196215000Y-108291428D01*
X132842142Y-105624285D02*
X135127857Y-105624285D01*
X133985000Y-106767142D02*
X133985000Y-104481428D01*
D10*
%TO.C,R2*%
X139533333Y-125547380D02*
X139200000Y-125071190D01*
X138961904Y-125547380D02*
X138961904Y-124547380D01*
X139342857Y-124547380D01*
X139438095Y-124595000D01*
X139485714Y-124642619D01*
X139533333Y-124737857D01*
X139533333Y-124880714D01*
X139485714Y-124975952D01*
X139438095Y-125023571D01*
X139342857Y-125071190D01*
X138961904Y-125071190D01*
X139914285Y-124642619D02*
X139961904Y-124595000D01*
X140057142Y-124547380D01*
X140295238Y-124547380D01*
X140390476Y-124595000D01*
X140438095Y-124642619D01*
X140485714Y-124737857D01*
X140485714Y-124833095D01*
X140438095Y-124975952D01*
X139866666Y-125547380D01*
X140485714Y-125547380D01*
%TO.C,R1*%
X164933333Y-125547380D02*
X164600000Y-125071190D01*
X164361904Y-125547380D02*
X164361904Y-124547380D01*
X164742857Y-124547380D01*
X164838095Y-124595000D01*
X164885714Y-124642619D01*
X164933333Y-124737857D01*
X164933333Y-124880714D01*
X164885714Y-124975952D01*
X164838095Y-125023571D01*
X164742857Y-125071190D01*
X164361904Y-125071190D01*
X165885714Y-125547380D02*
X165314285Y-125547380D01*
X165600000Y-125547380D02*
X165600000Y-124547380D01*
X165504761Y-124690238D01*
X165409523Y-124785476D01*
X165314285Y-124833095D01*
%TO.C,Solar2pos*%
X142502380Y-107719761D02*
X142645238Y-107767380D01*
X142883333Y-107767380D01*
X142978571Y-107719761D01*
X143026190Y-107672142D01*
X143073809Y-107576904D01*
X143073809Y-107481666D01*
X143026190Y-107386428D01*
X142978571Y-107338809D01*
X142883333Y-107291190D01*
X142692857Y-107243571D01*
X142597619Y-107195952D01*
X142550000Y-107148333D01*
X142502380Y-107053095D01*
X142502380Y-106957857D01*
X142550000Y-106862619D01*
X142597619Y-106815000D01*
X142692857Y-106767380D01*
X142930952Y-106767380D01*
X143073809Y-106815000D01*
X143645238Y-107767380D02*
X143550000Y-107719761D01*
X143502380Y-107672142D01*
X143454761Y-107576904D01*
X143454761Y-107291190D01*
X143502380Y-107195952D01*
X143550000Y-107148333D01*
X143645238Y-107100714D01*
X143788095Y-107100714D01*
X143883333Y-107148333D01*
X143930952Y-107195952D01*
X143978571Y-107291190D01*
X143978571Y-107576904D01*
X143930952Y-107672142D01*
X143883333Y-107719761D01*
X143788095Y-107767380D01*
X143645238Y-107767380D01*
X144550000Y-107767380D02*
X144454761Y-107719761D01*
X144407142Y-107624523D01*
X144407142Y-106767380D01*
X145359523Y-107767380D02*
X145359523Y-107243571D01*
X145311904Y-107148333D01*
X145216666Y-107100714D01*
X145026190Y-107100714D01*
X144930952Y-107148333D01*
X145359523Y-107719761D02*
X145264285Y-107767380D01*
X145026190Y-107767380D01*
X144930952Y-107719761D01*
X144883333Y-107624523D01*
X144883333Y-107529285D01*
X144930952Y-107434047D01*
X145026190Y-107386428D01*
X145264285Y-107386428D01*
X145359523Y-107338809D01*
X145835714Y-107767380D02*
X145835714Y-107100714D01*
X145835714Y-107291190D02*
X145883333Y-107195952D01*
X145930952Y-107148333D01*
X146026190Y-107100714D01*
X146121428Y-107100714D01*
X146407142Y-106862619D02*
X146454761Y-106815000D01*
X146550000Y-106767380D01*
X146788095Y-106767380D01*
X146883333Y-106815000D01*
X146930952Y-106862619D01*
X146978571Y-106957857D01*
X146978571Y-107053095D01*
X146930952Y-107195952D01*
X146359523Y-107767380D01*
X146978571Y-107767380D01*
X147407142Y-107100714D02*
X147407142Y-108100714D01*
X147407142Y-107148333D02*
X147502380Y-107100714D01*
X147692857Y-107100714D01*
X147788095Y-107148333D01*
X147835714Y-107195952D01*
X147883333Y-107291190D01*
X147883333Y-107576904D01*
X147835714Y-107672142D01*
X147788095Y-107719761D01*
X147692857Y-107767380D01*
X147502380Y-107767380D01*
X147407142Y-107719761D01*
X148454761Y-107767380D02*
X148359523Y-107719761D01*
X148311904Y-107672142D01*
X148264285Y-107576904D01*
X148264285Y-107291190D01*
X148311904Y-107195952D01*
X148359523Y-107148333D01*
X148454761Y-107100714D01*
X148597619Y-107100714D01*
X148692857Y-107148333D01*
X148740476Y-107195952D01*
X148788095Y-107291190D01*
X148788095Y-107576904D01*
X148740476Y-107672142D01*
X148692857Y-107719761D01*
X148597619Y-107767380D01*
X148454761Y-107767380D01*
X149169047Y-107719761D02*
X149264285Y-107767380D01*
X149454761Y-107767380D01*
X149550000Y-107719761D01*
X149597619Y-107624523D01*
X149597619Y-107576904D01*
X149550000Y-107481666D01*
X149454761Y-107434047D01*
X149311904Y-107434047D01*
X149216666Y-107386428D01*
X149169047Y-107291190D01*
X149169047Y-107243571D01*
X149216666Y-107148333D01*
X149311904Y-107100714D01*
X149454761Y-107100714D01*
X149550000Y-107148333D01*
%TO.C,Solar1neg*%
X154543571Y-107719761D02*
X154686428Y-107767380D01*
X154924523Y-107767380D01*
X155019761Y-107719761D01*
X155067380Y-107672142D01*
X155115000Y-107576904D01*
X155115000Y-107481666D01*
X155067380Y-107386428D01*
X155019761Y-107338809D01*
X154924523Y-107291190D01*
X154734047Y-107243571D01*
X154638809Y-107195952D01*
X154591190Y-107148333D01*
X154543571Y-107053095D01*
X154543571Y-106957857D01*
X154591190Y-106862619D01*
X154638809Y-106815000D01*
X154734047Y-106767380D01*
X154972142Y-106767380D01*
X155115000Y-106815000D01*
X155686428Y-107767380D02*
X155591190Y-107719761D01*
X155543571Y-107672142D01*
X155495952Y-107576904D01*
X155495952Y-107291190D01*
X155543571Y-107195952D01*
X155591190Y-107148333D01*
X155686428Y-107100714D01*
X155829285Y-107100714D01*
X155924523Y-107148333D01*
X155972142Y-107195952D01*
X156019761Y-107291190D01*
X156019761Y-107576904D01*
X155972142Y-107672142D01*
X155924523Y-107719761D01*
X155829285Y-107767380D01*
X155686428Y-107767380D01*
X156591190Y-107767380D02*
X156495952Y-107719761D01*
X156448333Y-107624523D01*
X156448333Y-106767380D01*
X157400714Y-107767380D02*
X157400714Y-107243571D01*
X157353095Y-107148333D01*
X157257857Y-107100714D01*
X157067380Y-107100714D01*
X156972142Y-107148333D01*
X157400714Y-107719761D02*
X157305476Y-107767380D01*
X157067380Y-107767380D01*
X156972142Y-107719761D01*
X156924523Y-107624523D01*
X156924523Y-107529285D01*
X156972142Y-107434047D01*
X157067380Y-107386428D01*
X157305476Y-107386428D01*
X157400714Y-107338809D01*
X157876904Y-107767380D02*
X157876904Y-107100714D01*
X157876904Y-107291190D02*
X157924523Y-107195952D01*
X157972142Y-107148333D01*
X158067380Y-107100714D01*
X158162619Y-107100714D01*
X159019761Y-107767380D02*
X158448333Y-107767380D01*
X158734047Y-107767380D02*
X158734047Y-106767380D01*
X158638809Y-106910238D01*
X158543571Y-107005476D01*
X158448333Y-107053095D01*
X159448333Y-107100714D02*
X159448333Y-107767380D01*
X159448333Y-107195952D02*
X159495952Y-107148333D01*
X159591190Y-107100714D01*
X159734047Y-107100714D01*
X159829285Y-107148333D01*
X159876904Y-107243571D01*
X159876904Y-107767380D01*
X160734047Y-107719761D02*
X160638809Y-107767380D01*
X160448333Y-107767380D01*
X160353095Y-107719761D01*
X160305476Y-107624523D01*
X160305476Y-107243571D01*
X160353095Y-107148333D01*
X160448333Y-107100714D01*
X160638809Y-107100714D01*
X160734047Y-107148333D01*
X160781666Y-107243571D01*
X160781666Y-107338809D01*
X160305476Y-107434047D01*
X161638809Y-107100714D02*
X161638809Y-107910238D01*
X161591190Y-108005476D01*
X161543571Y-108053095D01*
X161448333Y-108100714D01*
X161305476Y-108100714D01*
X161210238Y-108053095D01*
X161638809Y-107719761D02*
X161543571Y-107767380D01*
X161353095Y-107767380D01*
X161257857Y-107719761D01*
X161210238Y-107672142D01*
X161162619Y-107576904D01*
X161162619Y-107291190D01*
X161210238Y-107195952D01*
X161257857Y-107148333D01*
X161353095Y-107100714D01*
X161543571Y-107100714D01*
X161638809Y-107148333D01*
%TO.C,Solar2neg*%
X105648571Y-124864761D02*
X105791428Y-124912380D01*
X106029523Y-124912380D01*
X106124761Y-124864761D01*
X106172380Y-124817142D01*
X106220000Y-124721904D01*
X106220000Y-124626666D01*
X106172380Y-124531428D01*
X106124761Y-124483809D01*
X106029523Y-124436190D01*
X105839047Y-124388571D01*
X105743809Y-124340952D01*
X105696190Y-124293333D01*
X105648571Y-124198095D01*
X105648571Y-124102857D01*
X105696190Y-124007619D01*
X105743809Y-123960000D01*
X105839047Y-123912380D01*
X106077142Y-123912380D01*
X106220000Y-123960000D01*
X106791428Y-124912380D02*
X106696190Y-124864761D01*
X106648571Y-124817142D01*
X106600952Y-124721904D01*
X106600952Y-124436190D01*
X106648571Y-124340952D01*
X106696190Y-124293333D01*
X106791428Y-124245714D01*
X106934285Y-124245714D01*
X107029523Y-124293333D01*
X107077142Y-124340952D01*
X107124761Y-124436190D01*
X107124761Y-124721904D01*
X107077142Y-124817142D01*
X107029523Y-124864761D01*
X106934285Y-124912380D01*
X106791428Y-124912380D01*
X107696190Y-124912380D02*
X107600952Y-124864761D01*
X107553333Y-124769523D01*
X107553333Y-123912380D01*
X108505714Y-124912380D02*
X108505714Y-124388571D01*
X108458095Y-124293333D01*
X108362857Y-124245714D01*
X108172380Y-124245714D01*
X108077142Y-124293333D01*
X108505714Y-124864761D02*
X108410476Y-124912380D01*
X108172380Y-124912380D01*
X108077142Y-124864761D01*
X108029523Y-124769523D01*
X108029523Y-124674285D01*
X108077142Y-124579047D01*
X108172380Y-124531428D01*
X108410476Y-124531428D01*
X108505714Y-124483809D01*
X108981904Y-124912380D02*
X108981904Y-124245714D01*
X108981904Y-124436190D02*
X109029523Y-124340952D01*
X109077142Y-124293333D01*
X109172380Y-124245714D01*
X109267619Y-124245714D01*
X109553333Y-124007619D02*
X109600952Y-123960000D01*
X109696190Y-123912380D01*
X109934285Y-123912380D01*
X110029523Y-123960000D01*
X110077142Y-124007619D01*
X110124761Y-124102857D01*
X110124761Y-124198095D01*
X110077142Y-124340952D01*
X109505714Y-124912380D01*
X110124761Y-124912380D01*
X110553333Y-124245714D02*
X110553333Y-124912380D01*
X110553333Y-124340952D02*
X110600952Y-124293333D01*
X110696190Y-124245714D01*
X110839047Y-124245714D01*
X110934285Y-124293333D01*
X110981904Y-124388571D01*
X110981904Y-124912380D01*
X111839047Y-124864761D02*
X111743809Y-124912380D01*
X111553333Y-124912380D01*
X111458095Y-124864761D01*
X111410476Y-124769523D01*
X111410476Y-124388571D01*
X111458095Y-124293333D01*
X111553333Y-124245714D01*
X111743809Y-124245714D01*
X111839047Y-124293333D01*
X111886666Y-124388571D01*
X111886666Y-124483809D01*
X111410476Y-124579047D01*
X112743809Y-124245714D02*
X112743809Y-125055238D01*
X112696190Y-125150476D01*
X112648571Y-125198095D01*
X112553333Y-125245714D01*
X112410476Y-125245714D01*
X112315238Y-125198095D01*
X112743809Y-124864761D02*
X112648571Y-124912380D01*
X112458095Y-124912380D01*
X112362857Y-124864761D01*
X112315238Y-124817142D01*
X112267619Y-124721904D01*
X112267619Y-124436190D01*
X112315238Y-124340952D01*
X112362857Y-124293333D01*
X112458095Y-124245714D01*
X112648571Y-124245714D01*
X112743809Y-124293333D01*
%TO.C,Solar1pos*%
X191397380Y-125499761D02*
X191540238Y-125547380D01*
X191778333Y-125547380D01*
X191873571Y-125499761D01*
X191921190Y-125452142D01*
X191968809Y-125356904D01*
X191968809Y-125261666D01*
X191921190Y-125166428D01*
X191873571Y-125118809D01*
X191778333Y-125071190D01*
X191587857Y-125023571D01*
X191492619Y-124975952D01*
X191445000Y-124928333D01*
X191397380Y-124833095D01*
X191397380Y-124737857D01*
X191445000Y-124642619D01*
X191492619Y-124595000D01*
X191587857Y-124547380D01*
X191825952Y-124547380D01*
X191968809Y-124595000D01*
X192540238Y-125547380D02*
X192445000Y-125499761D01*
X192397380Y-125452142D01*
X192349761Y-125356904D01*
X192349761Y-125071190D01*
X192397380Y-124975952D01*
X192445000Y-124928333D01*
X192540238Y-124880714D01*
X192683095Y-124880714D01*
X192778333Y-124928333D01*
X192825952Y-124975952D01*
X192873571Y-125071190D01*
X192873571Y-125356904D01*
X192825952Y-125452142D01*
X192778333Y-125499761D01*
X192683095Y-125547380D01*
X192540238Y-125547380D01*
X193445000Y-125547380D02*
X193349761Y-125499761D01*
X193302142Y-125404523D01*
X193302142Y-124547380D01*
X194254523Y-125547380D02*
X194254523Y-125023571D01*
X194206904Y-124928333D01*
X194111666Y-124880714D01*
X193921190Y-124880714D01*
X193825952Y-124928333D01*
X194254523Y-125499761D02*
X194159285Y-125547380D01*
X193921190Y-125547380D01*
X193825952Y-125499761D01*
X193778333Y-125404523D01*
X193778333Y-125309285D01*
X193825952Y-125214047D01*
X193921190Y-125166428D01*
X194159285Y-125166428D01*
X194254523Y-125118809D01*
X194730714Y-125547380D02*
X194730714Y-124880714D01*
X194730714Y-125071190D02*
X194778333Y-124975952D01*
X194825952Y-124928333D01*
X194921190Y-124880714D01*
X195016428Y-124880714D01*
X195873571Y-125547380D02*
X195302142Y-125547380D01*
X195587857Y-125547380D02*
X195587857Y-124547380D01*
X195492619Y-124690238D01*
X195397380Y-124785476D01*
X195302142Y-124833095D01*
X196302142Y-124880714D02*
X196302142Y-125880714D01*
X196302142Y-124928333D02*
X196397380Y-124880714D01*
X196587857Y-124880714D01*
X196683095Y-124928333D01*
X196730714Y-124975952D01*
X196778333Y-125071190D01*
X196778333Y-125356904D01*
X196730714Y-125452142D01*
X196683095Y-125499761D01*
X196587857Y-125547380D01*
X196397380Y-125547380D01*
X196302142Y-125499761D01*
X197349761Y-125547380D02*
X197254523Y-125499761D01*
X197206904Y-125452142D01*
X197159285Y-125356904D01*
X197159285Y-125071190D01*
X197206904Y-124975952D01*
X197254523Y-124928333D01*
X197349761Y-124880714D01*
X197492619Y-124880714D01*
X197587857Y-124928333D01*
X197635476Y-124975952D01*
X197683095Y-125071190D01*
X197683095Y-125356904D01*
X197635476Y-125452142D01*
X197587857Y-125499761D01*
X197492619Y-125547380D01*
X197349761Y-125547380D01*
X198064047Y-125499761D02*
X198159285Y-125547380D01*
X198349761Y-125547380D01*
X198445000Y-125499761D01*
X198492619Y-125404523D01*
X198492619Y-125356904D01*
X198445000Y-125261666D01*
X198349761Y-125214047D01*
X198206904Y-125214047D01*
X198111666Y-125166428D01*
X198064047Y-125071190D01*
X198064047Y-125023571D01*
X198111666Y-124928333D01*
X198206904Y-124880714D01*
X198349761Y-124880714D01*
X198445000Y-124928333D01*
D12*
%TO.C,SolarPanelConnector1*%
X156205000Y-123955000D02*
X145985000Y-123955000D01*
X158805000Y-121295000D02*
X158805000Y-122625000D01*
X156205000Y-121295000D02*
X145985000Y-121295000D01*
X145985000Y-121295000D02*
X145985000Y-123955000D01*
X156205000Y-121295000D02*
X156205000Y-123955000D01*
X157475000Y-121295000D02*
X158805000Y-121295000D01*
%TO.C,R2*%
X140427064Y-123465000D02*
X138972936Y-123465000D01*
X140427064Y-121645000D02*
X138972936Y-121645000D01*
%TO.C,R1*%
X165827064Y-123465000D02*
X164372936Y-123465000D01*
X165827064Y-121645000D02*
X164372936Y-121645000D01*
%TO.C,Solar2pos*%
X138000000Y-107110000D02*
X138000000Y-103710000D01*
X141400000Y-103710000D02*
X141400000Y-107110000D01*
X138000000Y-103710000D02*
X141400000Y-103710000D01*
X141400000Y-107110000D02*
X138000000Y-107110000D01*
%TO.C,Solar1neg*%
X166800000Y-107110000D02*
X163400000Y-107110000D01*
X163400000Y-103710000D02*
X166800000Y-103710000D01*
X166800000Y-103710000D02*
X166800000Y-107110000D01*
X163400000Y-107110000D02*
X163400000Y-103710000D01*
%TO.C,Solar2neg*%
X106250000Y-116000000D02*
X106250000Y-112600000D01*
X109650000Y-112600000D02*
X109650000Y-116000000D01*
X106250000Y-112600000D02*
X109650000Y-112600000D01*
X109650000Y-116000000D02*
X106250000Y-116000000D01*
%TO.C,Solar1pos*%
X195150000Y-116000000D02*
X195150000Y-112600000D01*
X198550000Y-112600000D02*
X198550000Y-116000000D01*
X195150000Y-112600000D02*
X198550000Y-112600000D01*
X198550000Y-116000000D02*
X195150000Y-116000000D01*
%TD*%
M02*
