%TF.GenerationSoftware,KiCad,Pcbnew,(6.0.4)*%
%TF.CreationDate,2022-08-22T23:27:17+02:00*%
%TF.ProjectId,SolarCMZ,536f6c61-7243-44d5-9a2e-6b696361645f,rev?*%
%TF.SameCoordinates,Original*%
%TF.FileFunction,Copper,L1,Top*%
%TF.FilePolarity,Positive*%
%FSLAX46Y46*%
G04 Gerber Fmt 4.6, Leading zero omitted, Abs format (unit mm)*
G04 Created by KiCad (PCBNEW (6.0.4)) date 2022-08-22 23:27:17*
%MOMM*%
%LPD*%
G01*
G04 APERTURE LIST*
G04 Aperture macros list*
%AMRoundRect*
0 Rectangle with rounded corners*
0 $1 Rounding radius*
0 $2 $3 $4 $5 $6 $7 $8 $9 X,Y pos of 4 corners*
0 Add a 4 corners polygon primitive as box body*
4,1,4,$2,$3,$4,$5,$6,$7,$8,$9,$2,$3,0*
0 Add four circle primitives for the rounded corners*
1,1,$1+$1,$2,$3*
1,1,$1+$1,$4,$5*
1,1,$1+$1,$6,$7*
1,1,$1+$1,$8,$9*
0 Add four rect primitives between the rounded corners*
20,1,$1+$1,$2,$3,$4,$5,0*
20,1,$1+$1,$4,$5,$6,$7,0*
20,1,$1+$1,$6,$7,$8,$9,0*
20,1,$1+$1,$8,$9,$2,$3,0*%
G04 Aperture macros list end*
%TA.AperFunction,ComponentPad*%
%ADD10R,1.700000X1.700000*%
%TD*%
%TA.AperFunction,ComponentPad*%
%ADD11O,1.700000X1.700000*%
%TD*%
%TA.AperFunction,SMDPad,CuDef*%
%ADD12RoundRect,0.250000X0.400000X0.625000X-0.400000X0.625000X-0.400000X-0.625000X0.400000X-0.625000X0*%
%TD*%
%TA.AperFunction,SMDPad,CuDef*%
%ADD13R,3.000000X3.000000*%
%TD*%
%TA.AperFunction,Conductor*%
%ADD14C,1.000000*%
%TD*%
G04 APERTURE END LIST*
D10*
%TO.P,SolarPanelConnector1,1,Pin_1*%
%TO.N,unconnected-(SolarPanelConnector1-Pad1)*%
X157475000Y-122625000D03*
D11*
%TO.P,SolarPanelConnector1,2,Pin_2*%
%TO.N,Net-(R1-Pad2)*%
X154935000Y-122625000D03*
%TO.P,SolarPanelConnector1,3,Pin_3*%
%TO.N,unconnected-(SolarPanelConnector1-Pad3)*%
X152395000Y-122625000D03*
%TO.P,SolarPanelConnector1,4,Pin_4*%
%TO.N,unconnected-(SolarPanelConnector1-Pad4)*%
X149855000Y-122625000D03*
%TO.P,SolarPanelConnector1,5,Pin_5*%
%TO.N,/Solar2Neg*%
X147315000Y-122625000D03*
%TD*%
D12*
%TO.P,R2,1*%
%TO.N,Net-(R1-Pad2)*%
X141250000Y-122555000D03*
%TO.P,R2,2*%
%TO.N,/Solar2Neg*%
X138150000Y-122555000D03*
%TD*%
%TO.P,R1,1*%
%TO.N,/Solar1Pos*%
X166650000Y-122555000D03*
%TO.P,R1,2*%
%TO.N,Net-(R1-Pad2)*%
X163550000Y-122555000D03*
%TD*%
D13*
%TO.P,Solar2pos,1,Pin_1*%
%TO.N,Net-(SC1-Pad2)*%
X139700000Y-105410000D03*
%TD*%
%TO.P,Solar1neg,1,Pin_1*%
%TO.N,Net-(SC1-Pad2)*%
X165100000Y-105410000D03*
%TD*%
%TO.P,Solar2neg,1,Pin_1*%
%TO.N,/Solar2Neg*%
X107950000Y-114300000D03*
%TD*%
%TO.P,Solar1pos,1,Pin_1*%
%TO.N,/Solar1Pos*%
X196850000Y-114300000D03*
%TD*%
D14*
%TO.N,Net-(SC1-Pad2)*%
X139700000Y-105410000D02*
X165100000Y-105410000D01*
%TO.N,/Solar2Neg*%
X138150000Y-121565000D02*
X139065000Y-120650000D01*
X145340000Y-120650000D02*
X147315000Y-122625000D01*
X138150000Y-122555000D02*
X138150000Y-121565000D01*
X139065000Y-120650000D02*
X145340000Y-120650000D01*
%TO.N,Net-(R1-Pad2)*%
X144780000Y-125730000D02*
X154295000Y-125730000D01*
X141605000Y-122555000D02*
X144780000Y-125730000D01*
X141250000Y-122555000D02*
X141605000Y-122555000D01*
X154295000Y-125730000D02*
X154935000Y-125090000D01*
X154935000Y-125090000D02*
X154935000Y-122625000D01*
X160020000Y-125730000D02*
X155575000Y-125730000D01*
X163195000Y-122555000D02*
X160020000Y-125730000D01*
X155575000Y-125730000D02*
X154935000Y-125090000D01*
X163550000Y-122555000D02*
X163195000Y-122555000D01*
%TO.N,/Solar1Pos*%
X188595000Y-122555000D02*
X196850000Y-114300000D01*
X166650000Y-122555000D02*
X188595000Y-122555000D01*
%TO.N,/Solar2Neg*%
X116205000Y-122555000D02*
X107950000Y-114300000D01*
X138150000Y-122555000D02*
X116205000Y-122555000D01*
%TD*%
M02*
